<svg xmlns="http://www.w3.org/2000/svg" viewBox="0 0 84.63 84.61"><defs><style>.cls-1{fill:#ff6145;}</style></defs><g id="Layer_2" data-name="Layer 2"><g id="Layer_1-2" data-name="Layer 1"><path class="cls-1" d="M58.5,0c.21.07.41.15.62.21a5.12,5.12,0,0,1,3.67,4.86q0,15.54,0,31.06c0,1-.54,1.56-1.34,1.54s-1.29-.61-1.29-1.59q0-9,0-17.93v-.92H11.3V60.81H29.09a4.5,4.5,0,0,1,.82,0,1.31,1.31,0,0,1,0,2.6,4.67,4.67,0,0,1-.75,0H11.73c-2.15,0-3.14-1-3.14-3.12V6.23c0-3.64.93-5,4.3-6.23ZM11.25,14.49h48.9V5.69c0-2.13-.92-3.05-3.07-3.05H14.31c-.25,0-.5,0-.74,0A2.45,2.45,0,0,0,11.26,5C11.21,8.11,11.25,11.27,11.25,14.49Z"/><path class="cls-1" d="M0,18.84A15.07,15.07,0,0,1,.72,17.2,5.13,5.13,0,0,1,5,14.56,1.33,1.33,0,0,1,6.6,15.77c.06.77-.49,1.32-1.39,1.42a2.65,2.65,0,0,0-2.56,2.87q0,23.22,0,46.43a2.66,2.66,0,0,0,2.93,2.92H38.3a5.73,5.73,0,0,1,.83,0,1.31,1.31,0,0,1,0,2.61c-.61,0-1.22,0-1.82,0H25.84V82H43a4.58,4.58,0,0,1,.83,0,1.31,1.31,0,0,1,0,2.59,3.61,3.61,0,0,1-.74,0h-25c-1,0-1.56-.55-1.54-1.35A1.34,1.34,0,0,1,18,82c1.65,0,3.31,0,5,0V72.05H5.94c-3.17,0-4.81-1.18-5.83-4.18,0-.05-.07-.08-.11-.12Z"/><path class="cls-1" d="M78.66,46.36c4,1.17,6,3.7,6,7.84a19.72,19.72,0,0,1-.07,2.88c-.52,3.36-2.54,5.38-5.88,6.3v8.34c0,2.4-1.7,3.58-3.93,2.73Q65,70.75,55.32,67a15.81,15.81,0,0,0-1.77-.41c.18.5.28.8.4,1.09q2.23,5.58,4.46,11.18c1.23,3.08-.57,5.7-3.91,5.71H52.19a4,4,0,0,1-3.94-2.7l-5.1-12.52a5.86,5.86,0,0,1-.28-.69,3.41,3.41,0,0,0-2.29-2.58,4.36,4.36,0,0,1-2.71-3.32A.9.9,0,0,0,37,62a7.24,7.24,0,0,1,0-14.26.85.85,0,0,0,.8-.74A5.2,5.2,0,0,1,43,43c3.6,0,7.21,0,10.82,0a4.56,4.56,0,0,0,1.59-.29Q65,39,74.64,35.32c2.35-.9,4,.25,4,2.75ZM76,72.09V37.71a1.42,1.42,0,0,0-.28,0q-9.52,3.63-19,7.25c-.5.19-.48.51-.48.9,0,6,0,12,0,17.92a.9.9,0,0,0,.71,1c3.6,1.35,7.19,2.73,10.79,4.11Zm-22.49-8V45.62c-3.6,0-7.15,0-10.7,0a2.55,2.55,0,0,0-2.45,2.54q0,6.69,0,13.38a2.55,2.55,0,0,0,2.45,2.55C46.33,64.14,49.87,64.11,53.48,64.11Zm-8.55,2.65c2,4.89,3.93,9.64,5.87,14.39a1.28,1.28,0,0,0,1.31.82c.88,0,1.76,0,2.64,0A1.27,1.27,0,0,0,56,80.07q-2.55-6.43-5.15-12.84a.86.86,0,0,0-.63-.45C48.52,66.75,46.79,66.76,44.93,66.76ZM78.7,60.51a3.89,3.89,0,0,0,3-3.06,19.65,19.65,0,0,0,0-5.14,4,4,0,0,0-3-3.17ZM37.64,50.36a4.54,4.54,0,0,0,0,9Z"/><path class="cls-1" d="M26.44,34.31c0-2.28,0-4.57,0-6.85a4,4,0,0,1,4.18-3.95,2.82,2.82,0,0,1,1.08.36q6,3.38,11.9,6.8a3.86,3.86,0,0,1,0,6.72q-6,3.47-12,6.88a3.31,3.31,0,0,1-5.17-3C26.43,38.94,26.44,36.63,26.44,34.31Zm2.65,0c0,2.31,0,4.63,0,6.94,0,.84.45,1.13,1.16.72q6.11-3.45,12.17-7A1.19,1.19,0,0,0,42.83,34a2.23,2.23,0,0,0-.91-1.18c-3.61-2.11-7.25-4.16-10.88-6.23-1.14-.66-1.95-.16-1.95,1.19Q29.07,31,29.09,34.33Z"/><path class="cls-1" d="M71.39,26.28v6.44c0,1-.5,1.65-1.32,1.65s-1.32-.61-1.32-1.65c0-4.16,0-8.31,0-12.47a2.7,2.7,0,0,0-2.7-3.07,1.32,1.32,0,1,1,.19-2.63,5.27,5.27,0,0,1,5.14,5.12c0,2.2,0,4.4,0,6.61Z"/><path class="cls-1" d="M27.08,9.91H16.75c-1.19,0-1.94-1-1.37-1.87a1.81,1.81,0,0,1,1.25-.74c7,0,13.93,0,20.9,0a1.32,1.32,0,1,1,0,2.63Z"/><path class="cls-1" d="M43.63,8.57a2,2,0,1,1,2,2A2,2,0,0,1,43.63,8.57Zm1.94-.91c-.28.46-.58.73-.57,1s.46.59.62.55a1,1,0,0,0,.6-.67C46.25,8.33,45.9,8.07,45.57,7.66Z"/><path class="cls-1" d="M54.23,6.62a2,2,0,1,1-2,2A2,2,0,0,1,54.23,6.62Zm.89,1.92c-.43-.27-.71-.6-.9-.56s-.45.42-.67.65c.25.2.47.53.74.57S54.73,8.86,55.12,8.54Z"/></g></g></svg>