<svg xmlns="http://www.w3.org/2000/svg" viewBox="0 0 84.77 77.71"><defs><style>.cls-1{fill:#ff6145;}</style></defs><g id="Layer_2" data-name="Layer 2"><g id="Layer_1-2" data-name="Layer 1"><path class="cls-1" d="M42.39,77.71H5.84C2.14,77.71,0,75.55,0,71.83V5.89C0,2.13,2.14,0,5.92,0h73c3.7,0,5.84,2.16,5.84,5.87V71.82c0,3.75-2.14,5.89-5.92,5.89Zm-38.86-60V71.82c0,1.81.56,2.36,2.39,2.36H78.86c1.82,0,2.38-.56,2.38-2.36V17.69ZM81.24,14.1c0-2.92,0-5.74,0-8.57a1.8,1.8,0,0,0-2-2H5.56c-1.37,0-2,.68-2,2.09v7.77c0,.23,0,.45.05.71Z"/><path class="cls-1" d="M51.85,56l-14-4.68c0,.37-.05.65-.05.92,0,2.24,0,4.48,0,6.71a6,6,0,0,1-6.43,6.4c-.73,0-1.47,0-2.21,0a1.78,1.78,0,0,1-1.95-2c0-4.27,0-8.54,0-12.81v-1.1h-4c-2.84,0-3.11-.27-3.11-3.14V37.49c0-1.53.63-2.16,2.14-2.17,2.73,0,5.47,0,8.21,0a11.91,11.91,0,0,0,3.35-.54C39.6,32.88,45.36,30.93,51.13,29l.72-.26c.21-1.85.68-2.26,2.57-2.26h6c1.44,0,2.09.66,2.09,2.12V56.16c0,1.46-.65,2.11-2.09,2.12h-6C52.54,58.28,52.06,57.87,51.85,56Zm0-23.51L34.28,38.35v8.07l17.59,5.87Zm7.05,22.22V30.1H55.49V54.71ZM30.66,45.88v-7h-7v7Zm.12,3.37V61.77c2.16.15,3.43-.7,3.46-2.38,0-2.91,0-5.82,0-8.74a.8.8,0,0,0-.4-.63C32.86,49.73,31.88,49.52,30.78,49.25Z"/><path class="cls-1" d="M11.22,10.6c-.56,0-1.12,0-1.67,0a1.76,1.76,0,1,1,0-3.52c1.17,0,2.34,0,3.52,0a1.76,1.76,0,1,1,0,3.52C12.45,10.62,11.84,10.6,11.22,10.6Z"/><path class="cls-1" d="M22,7.07c.56,0,1.12,0,1.67,0a1.76,1.76,0,1,1,.06,3.52c-1.21,0-2.41,0-3.61,0a1.73,1.73,0,0,1-1.71-1.77A1.76,1.76,0,0,1,20.1,7.07C20.72,7,21.33,7.07,22,7.07Z"/><path class="cls-1" d="M32.57,7.07c.58,0,1.17,0,1.76,0A1.77,1.77,0,0,1,36,8.87a1.74,1.74,0,0,1-1.68,1.71c-1.23,0-2.46,0-3.7,0A1.73,1.73,0,0,1,29,8.79a1.77,1.77,0,0,1,1.67-1.72,1.08,1.08,0,0,1,.18,0Z"/></g></g></svg>