<svg xmlns="http://www.w3.org/2000/svg" viewBox="0 0 85.21 82.77"><defs><style>.cls-1{fill:#ff6145;}</style></defs><g id="Layer_2" data-name="Layer 2"><g id="Layer_1-2" data-name="Layer 1"><path class="cls-1" d="M21.79,82.76a1.67,1.67,0,0,1-1.28-.4,1.72,1.72,0,0,1-.38-1.24c0-.42,0-.84,0-1.26a26.12,26.12,0,0,1,.14-3.53,5.16,5.16,0,0,1,4.78-4.41c.57,0,1.13-.06,1.7-.06l1.36,0h1V64.65l-13.62,0c-3.2,0-6.4,0-9.6.05h0A5.86,5.86,0,0,1,1.68,63,5.84,5.84,0,0,1,0,58.81Q.06,39.46,0,20.1V5.76A5.42,5.42,0,0,1,4.53.09,6.52,6.52,0,0,1,5.78,0H79.49A5.41,5.41,0,0,1,85.2,5.72q0,26.63,0,53.27a5.37,5.37,0,0,1-5.69,5.66H56.08v7.2h3c3.78,0,6,2.26,6,6v1c0,.76,0,1.52,0,2.29,0,1.11-.52,1.6-1.63,1.6H21.79Zm40.61-2.7V77.77c0-2.15-1.06-3.2-3.21-3.2H25.61A2.49,2.49,0,0,0,23,76.43a18.56,18.56,0,0,0-.21,2.74c0,.29,0,.59,0,.89Zm-9.13-8.28V64.7H32v7.08ZM2.71,58.56C2.72,61,3.7,62,6.1,62H79.84a2.72,2.72,0,0,0,2.66-2.59c0-.67,0-1.34,0-2v-.62H2.71Zm79.81-4.62V5.79a2.83,2.83,0,0,0-3.17-3.11H6c-2.15,0-3.23,1.08-3.23,3.2V53.94Z"/><path class="cls-1" d="M55.72,64.29v7.93c1.15,0,2.25,0,3.36,0,3.6,0,5.67,2.07,5.67,5.67,0,1.09,0,2.18,0,3.27,0,.9-.36,1.24-1.27,1.24H21.79c-1,0-1.31-.33-1.3-1.28a39.38,39.38,0,0,1,.14-4.74,4.78,4.78,0,0,1,4.45-4.1c1.45-.1,2.91,0,4.43,0v-8h-.86c-7.58,0-15.16-.07-22.74,0A5.38,5.38,0,0,1,.36,58.81c.06-17.68,0-35.37,0-53A5.07,5.07,0,0,1,4.6.44,6.63,6.63,0,0,1,5.78.36H79.49a5.06,5.06,0,0,1,5.35,5.36q0,26.63,0,53.27a5,5,0,0,1-5.33,5.3H55.72Zm27.16-10V5.79a3.18,3.18,0,0,0-3.53-3.47H6c-2.35,0-3.6,1.23-3.6,3.56V54.3Zm0,2.05H2.35v2.21c0,2.61,1.16,3.77,3.75,3.77h73c.25,0,.49,0,.74,0a3.11,3.11,0,0,0,3-2.93C82.92,58.41,82.88,57.42,82.88,56.35ZM62.76,80.42c0-.93,0-1.79,0-2.66,0-2.35-1.21-3.55-3.57-3.55H25.61a2.85,2.85,0,0,0-2.94,2.16,30,30,0,0,0-.26,4ZM31.6,72.14h22v-7.8h-22Z"/><path class="cls-1" d="M65.14,52.4A14.64,14.64,0,1,1,79.79,37.79,14.63,14.63,0,0,1,65.14,52.4Zm-1-27.19a12.47,12.47,0,0,0-11.39,9.87c-1.32,6,2,11.23,5.26,13.05,2-3.45,4-6.89,6-10.35a1.82,1.82,0,0,0,.16-.85c0-3.66,0-7.33,0-11Zm-4.49,24c4.37,1.84,8.53,1.65,12.45-.92a12.29,12.29,0,0,0,5.64-9.45,1.66,1.66,0,0,0-.3-.1c-3.79,0-7.57,0-11.36,0a.81.81,0,0,0-.58.35C63.59,42.45,61.67,45.79,59.68,49.24Zm18-12.5c-.27-6.34-6.08-11.47-11.53-11.48V36.74Z"/><path class="cls-1" d="M34,11.56c-.47-.24-.93-.46-1.38-.72a1,1,0,0,1,0-1.82q3.9-2.22,7.83-4.39a1,1,0,0,1,1.53.83c.26,2.34.47,4.68.7,7,.06.62.13,1.23.16,1.85,0,1-.63,1.46-1.54,1-.4-.19-.79-.41-1.21-.63a1.49,1.49,0,0,0-.24.28C36,22.07,30.14,26.74,22.85,29.79a78.66,78.66,0,0,1-12.66,3.94c-.71.17-1.21-.06-1.37-.64s.17-1,.74-1.26c3.07-1.37,6.17-2.68,9.19-4.14a30.23,30.23,0,0,0,15-15.49c.07-.15.13-.31.2-.47S34,11.68,34,11.56Zm6.69,1.21L40.1,7l-5,2.82c1.24.75,1.4,1,1.06,1.84A32.25,32.25,0,0,1,24.57,26.58c-.19.13-.36.27-.53.4a29.53,29.53,0,0,0,9.88-7.07,29.36,29.36,0,0,0,4.58-6.72c.43-.87.84-1,1.73-.59Z"/><path class="cls-1" d="M47.54,35.15c0,4.15,0,8.31,0,12.47,0,1.16-.27,1.44-1.44,1.44H41.27c-1.06,0-1.35-.3-1.35-1.38q0-12.51,0-25c0-1.07.28-1.34,1.37-1.34,1.65,0,3.31,0,5,0,1,0,1.28.3,1.28,1.28C47.55,26.78,47.54,31,47.54,35.15ZM45.54,47V23.34H41.92V47Z"/><path class="cls-1" d="M36.94,38.46v9.13c0,1.16-.3,1.47-1.44,1.47H30.6c-1,0-1.34-.34-1.34-1.34V29.16c0-1,.32-1.33,1.32-1.33h4.9c1.17,0,1.46.28,1.46,1.43ZM31.3,29.83V47h3.58V29.83Z"/><path class="cls-1" d="M27.84,50.31h20.8c.24,0,.57-.08.72,0s.71.65.7,1-.45.67-.77.91c-.16.12-.48,0-.73,0H7a4.86,4.86,0,0,1-.66,0,.89.89,0,0,1-.84-.88.93.93,0,0,1,.76-1,3,3,0,0,1,.74,0Z"/><path class="cls-1" d="M26.28,40.91c0,2.28,0,4.56,0,6.83,0,1-.31,1.31-1.27,1.32H20c-1,0-1.31-.32-1.31-1.28V34c0-1,.29-1.29,1.28-1.3h5.12c.92,0,1.23.32,1.23,1.27C26.29,36.31,26.28,38.61,26.28,40.91Zm-5.61-6.18V47h3.6V34.73Z"/><path class="cls-1" d="M65.94,19.8H53.77c-.27,0-.62.06-.79-.08s-.69-.62-.71-1,.4-.67.7-.89.53-.07.8-.07q12.24,0,24.49,0c.25,0,.57-.08.73.05a2,2,0,0,1,.79.92c.13.51-.25.87-.77,1a3.68,3.68,0,0,1-.74,0Z"/><path class="cls-1" d="M8,44V40.28C8,39.36,8.34,39,9.24,39h5.19c.88,0,1.23.34,1.24,1.2q0,3.82,0,7.64c0,.87-.36,1.21-1.24,1.22H9.24c-.9,0-1.23-.37-1.24-1.29Zm5.6,3V41H10v6Z"/><path class="cls-1" d="M71.54,14.47H64.78a1.45,1.45,0,0,1-.85-.13,1.41,1.41,0,0,1-.55-.93c0-.31.39-.64.68-.85a1.59,1.59,0,0,1,.8-.08H78.3a3.84,3.84,0,0,1,.59,0,.92.92,0,0,1,.92,1,.94.94,0,0,1-.91,1,4,4,0,0,1-.6,0Z"/><path class="cls-1" d="M72.38,9.13H66.22c-.79,0-1.25-.45-1.17-1.1s.55-.88,1.17-.88H78.61c.51,0,1,.13,1.1.66a1.22,1.22,0,0,1-.24,1,1.55,1.55,0,0,1-1,.32C76.44,9.14,74.41,9.13,72.38,9.13Z"/><path class="cls-1" d="M56.81,12.47c1.16,0,2.32,0,3.48,0,.79,0,1.21.38,1.2,1s-.45,1-1.22,1H53.46c-.79,0-1.22-.35-1.24-1s.42-1,1.26-1C54.59,12.46,55.7,12.47,56.81,12.47Z"/><path class="cls-1" d="M45,59.28a2.39,2.39,0,0,1-4.78.11A2.39,2.39,0,1,1,45,59.28Zm-1.79,0c-.31-.17-.5-.36-.65-.33a.64.64,0,0,0-.33.44c0,.08.26.31.39.3S42.94,59.48,43.22,59.27Z"/></g></g></svg>