<svg xmlns="http://www.w3.org/2000/svg" viewBox="0 0 84.47 84.5"><defs><style>.cls-1{fill:#ff6145;}</style></defs><g id="Layer_2" data-name="Layer 2"><g id="Layer_1-2" data-name="Layer 1"><path class="cls-1" d="M52,46.43a3.29,3.29,0,0,0,0-.38q0-11.65,0-23.32c0-1.07-.54-1.59-1.65-1.59-2.52,0-5,0-7.57,0-1.63,0-2,.4-2,2V53.45H38V32.8c0-1.33-.48-1.81-1.8-1.81H28.73c-1.56,0-2,.42-2,2V53.48H23.93v-1c0-3.25,0-6.51,0-9.76,0-1.37-.47-1.83-1.86-1.83H14.51c-1.38,0-1.84.47-1.84,1.85V53.54H7.1v2.72H43.67V24h5.64V46.43Zm-31,7h-5.5V43.69h5.5Zm14.07,0H29.61V33.88h5.52Z"/><path class="cls-1" d="M47.93,76.25l-.69.22c.52,1.75,1,3.43,1.52,5.13H30.07c1.13-3.77,2.24-7.46,3.37-11.21h7.35a2.79,2.79,0,0,0,2.79-2.8H7.21a4.17,4.17,0,0,1-4.31-3.5,12.76,12.76,0,0,1,0-2.16H42.19V59.14H2.79V26.7h0c0-1.74,0-3.41,0-5.08,0-3,1.7-4.71,4.67-4.71H54.93V43.62h2.79V10.32a4.64,4.64,0,0,0,0-.53A1.4,1.4,0,0,0,56.4,8.47c-.23,0-.47,0-.59-.05l4.64-4.65,4.67,4.68c-1.42.08-1.77.45-1.77,2.08V42.2H66.2V16.91c.41,0,.74,0,1.06,0a8.39,8.39,0,0,1,8.79,8.63c-.15,7.9,0,15.8,0,23.71h1.41a1.41,1.41,0,0,0,1.41-1.41V46.5q0-12.48,0-25a7,7,0,0,0-7.38-7.42h-5.2l0,0V11.28h2.56a1.43,1.43,0,0,0,1.49-.87,1.39,1.39,0,0,0-.41-1.66Q65.77,4.67,61.7.6a1.42,1.42,0,0,0-2.3,0C56.67,3.28,54,6,51.25,8.72a1.42,1.42,0,0,0-.46,1.66,1.47,1.47,0,0,0,1.56.9h2.51V14.1H7.34c-3.47,0-6.43,2-7,5.21A38.29,38.29,0,0,0,0,25.66H0V62.88c0,4.57,3,7.53,7.55,7.53H30.48c-1.1,3.69-2.16,7.27-3.27,10.85-.06.19-.46.38-.72.39-.83,0-1.67,0-2.48,0v2.77H54.84v-2.8H51.73c-.41-1.36-.82-2.69-1.23-4A2,2,0,0,0,47.93,76.25Z"/><path class="cls-1" d="M83.28,77.34c-.46-.5-1-1-1.42-1.44-1.79-1.77-3.57-3.55-5.33-5.31A16.93,16.93,0,0,0,50,50a16.94,16.94,0,0,0,20.6,26.53l.36.34c2.14,2.13,4.24,4.29,6.42,6.39a4.15,4.15,0,0,0,5.93-.08A4.2,4.2,0,0,0,83.28,77.34ZM62,76A14.08,14.08,0,1,1,76,62,14.09,14.09,0,0,1,62,76Zm19.31,5.21a1.4,1.4,0,0,1-2.1-.07C77.08,79.11,75,77,72.89,74.91l2-2,3.87,3.88c.81.81,1.63,1.6,2.41,2.43A1.41,1.41,0,0,1,81.28,81.25Z"/><path class="cls-1" d="M74.65,8.41h2.74C77.5,3.91,73.32-.24,69,.09V2.8A5.88,5.88,0,0,1,73,4.5,6,6,0,0,1,74.65,8.41Z"/><path class="cls-1" d="M7.11,19.79V22.5h2.7V19.79Z"/><path class="cls-1" d="M15.41,19.78h-2.7v2.7h2.7Z"/><path class="cls-1" d="M18.35,19.77v2.72h2.7V19.77Z"/><path class="cls-1" d="M62.05,50.7A11.26,11.26,0,1,0,73.2,62,11.27,11.27,0,0,0,62.05,50.7ZM62,70.41a8.45,8.45,0,1,1,8.44-8.55A8.46,8.46,0,0,1,62,70.41Z"/><path class="cls-1" d="M56.4,61.92h2.69a3,3,0,0,1,2.8-2.82V56.38A5.44,5.44,0,0,0,56.4,61.92Z"/></g></g></svg>