<svg xmlns="http://www.w3.org/2000/svg" viewBox="0 0 84.49 70.41"><defs><style>.cls-1{fill:#ff6145;}</style></defs><g id="Layer_2" data-name="Layer 2"><g id="Layer_1-2" data-name="Layer 1"><path class="cls-1" d="M5.9,70.41h56a5.89,5.89,0,0,0,5.88-5.89V47l15.6-15.6a3.78,3.78,0,0,0,0-5.32l-4.5-4.49a3.84,3.84,0,0,0-5.32,0l-5.78,5.78c0-2.2,0,7.94,0-21.47A5.89,5.89,0,0,0,61.91,0h-56A5.89,5.89,0,0,0,0,5.89V64.52A5.9,5.9,0,0,0,5.9,70.41ZM70.78,28.1l6.09,6.08-22,22-6.07-6.08ZM52.31,57.42l-6.65,1.89,1.88-6.66Zm23.13-34a1.15,1.15,0,0,1,1.58,0l4.5,4.5a1.12,1.12,0,0,1,0,1.59l-2.79,2.78-6.08-6.08ZM54.58,40.56H9.81a1.32,1.32,0,0,0,0,2.64H51.94l-6,6a1.55,1.55,0,0,0-.32.56L42.75,59.9H9.81a1.32,1.32,0,1,0,0,2.64H43.75a1.49,1.49,0,0,0,.36,0L55.2,59.35a1.74,1.74,0,0,0,.55-.33l9.4-9.39V64.52a3.25,3.25,0,0,1-3.24,3.25H5.9a3.26,3.26,0,0,1-3.26-3.25V16H65.15V30ZM2.64,5.89A3.26,3.26,0,0,1,5.89,2.64h56a3.26,3.26,0,0,1,3.25,3.25v7.48H2.64Z"/><path class="cls-1" d="M58,21.24H9.81a1.32,1.32,0,1,0,0,2.64H58a1.32,1.32,0,1,0,0-2.64Z"/><path class="cls-1" d="M58,30.9H9.81a1.32,1.32,0,1,0,0,2.64H58a1.32,1.32,0,1,0,0-2.64Z"/><path class="cls-1" d="M9.81,52.87H36.43a1.32,1.32,0,1,0,0-2.64H9.81a1.32,1.32,0,1,0,0,2.64Z"/><path class="cls-1" d="M10.55,4.05A4,4,0,1,0,14.5,8,4,4,0,0,0,10.55,4.05Zm0,5.26A1.31,1.31,0,1,1,11.86,8,1.31,1.31,0,0,1,10.55,9.31Z"/><path class="cls-1" d="M20.57,4.05a4,4,0,1,0,3.94,4A4,4,0,0,0,20.57,4.05Zm0,5.26A1.31,1.31,0,1,1,21.87,8,1.3,1.3,0,0,1,20.57,9.31Z"/><path class="cls-1" d="M30.58,4.05a4,4,0,1,0,4,4A4,4,0,0,0,30.58,4.05Zm0,5.26A1.31,1.31,0,1,1,31.89,8,1.31,1.31,0,0,1,30.58,9.31Z"/><path class="cls-1" d="M59.87,6.68H38.3a1.32,1.32,0,0,0,0,2.64H59.87a1.32,1.32,0,1,0,0-2.64Z"/></g></g></svg>