<svg xmlns="http://www.w3.org/2000/svg" viewBox="0 0 84.59 84.59"><defs><style>.cls-1{fill:#ff6145;}</style></defs><g id="Layer_2" data-name="Layer 2"><g id="Layer_1-2" data-name="Layer 1"><rect class="cls-1" x="22.56" y="5.64" width="2.82" height="2.82"/><rect class="cls-1" x="28.2" y="5.64" width="2.82" height="2.82"/><rect class="cls-1" x="33.84" y="5.64" width="2.82" height="2.82"/><path class="cls-1" d="M84.59,16.92H81.77V0H16.92V16.92H14.1v6.34a8.25,8.25,0,0,0-5.64-2.11,8.46,8.46,0,1,0,0,16.91A9,9,0,0,0,14.1,36v6.34h2.82v42.3H81.77V42.29h2.82ZM19.74,2.82H79v8.46H19.74Zm0,11.28H79v2.82H19.74ZM8.46,35.25a5.64,5.64,0,1,1,5.64-5.64A5.66,5.66,0,0,1,8.46,35.25ZM79,81.77H19.74V42.29H79Zm2.82-42.3H16.92V19.74H81.77Z"/><rect class="cls-1" x="22.56" y="22.56" width="26.79" height="2.82"/><rect class="cls-1" x="22.56" y="28.2" width="50.75" height="2.82"/><rect class="cls-1" x="22.56" y="33.84" width="45.11" height="2.82"/><rect class="cls-1" x="22.56" y="45.11" width="26.79" height="2.82"/><rect class="cls-1" x="22.56" y="50.75" width="50.75" height="2.82"/><rect class="cls-1" x="22.56" y="56.39" width="45.11" height="2.82"/><rect class="cls-1" x="22.56" y="64.85" width="26.79" height="2.82"/><rect class="cls-1" x="22.56" y="70.49" width="50.75" height="2.82"/><rect class="cls-1" x="22.56" y="76.13" width="45.11" height="2.82"/><polygon class="cls-1" points="5.64 32.42 11.28 29.61 5.64 26.79 5.64 32.42"/></g></g></svg>