<svg xmlns="http://www.w3.org/2000/svg" viewBox="0 0 85 84.69"><defs><style>.cls-1{fill:#ff6145;}</style></defs><g id="Layer_2" data-name="Layer 2"><g id="Layer_1-2" data-name="Layer 1"><path class="cls-1" d="M42.5,44.87A13.92,13.92,0,1,0,56.42,58.79,13.93,13.93,0,0,0,42.5,44.87Zm0,25.63A11.71,11.71,0,1,1,54.21,58.79,11.72,11.72,0,0,1,42.5,70.5Zm-3.33-15c0,1.25,1.53,2.32,3.33,2.32,3,0,5.53,2,5.53,4.52,0,2.19-1.9,4-4.43,4.44v.66a1.1,1.1,0,1,1-2.2,0v-.66C38.87,66.35,37,64.52,37,62.33a1.1,1.1,0,0,1,2.2,0c0,1.26,1.53,2.32,3.33,2.32s3.32-1.06,3.32-2.32S44.3,60,42.5,60c-3,0-5.53-2-5.53-4.52,0-2.19,1.9-4,4.43-4.44v-.9a1.1,1.1,0,1,1,2.2,0v.9c2.53.42,4.43,2.25,4.43,4.44a1.11,1.11,0,0,1-2.21,0c0-1.26-1.52-2.32-3.32-2.32S39.17,54.23,39.17,55.49ZM12.8,15A7.51,7.51,0,1,0,5.29,7.51,7.52,7.52,0,0,0,12.8,15Zm0-12.81a5.3,5.3,0,1,1-5.3,5.3A5.31,5.31,0,0,1,12.8,2.21ZM25.6,28.47V22.7a6.88,6.88,0,0,0-6.87-6.87H6.87A6.88,6.88,0,0,0,0,22.7v5.77a1.11,1.11,0,0,0,1.1,1.11H24.5A1.11,1.11,0,0,0,25.6,28.47Zm-2.21-1.1H2.21V22.7A4.66,4.66,0,0,1,6.87,18H18.73a4.66,4.66,0,0,1,4.66,4.66v4.67ZM72.2,15a7.51,7.51,0,1,0-7.51-7.51A7.52,7.52,0,0,0,72.2,15Zm0-12.81a5.3,5.3,0,1,1-5.3,5.3A5.31,5.31,0,0,1,72.2,2.21Zm5.93,13.62H66.27A6.88,6.88,0,0,0,59.4,22.7v5.77a1.1,1.1,0,0,0,1.1,1.1H83.9a1.1,1.1,0,0,0,1.1-1.1V22.7A6.88,6.88,0,0,0,78.13,15.83Zm4.66,11.54H61.61V22.7A4.66,4.66,0,0,1,66.27,18H78.13a4.66,4.66,0,0,1,4.66,4.66v4.67Zm-7.16,5.2a1.1,1.1,0,0,0-1.1,1.1V57.61H68.4V55.09a2.8,2.8,0,0,0-2.79-2.8H63.28a21.74,21.74,0,0,0-1.48-3.61L63.43,47a2.79,2.79,0,0,0,0-3.95L58.2,37.85a2.81,2.81,0,0,0-2-.81,2.77,2.77,0,0,0-2,.81l-1.63,1.63A21.62,21.62,0,0,0,49,38V35.68a2.8,2.8,0,0,0-2.8-2.79H38.8A2.8,2.8,0,0,0,36,35.68V38a21.62,21.62,0,0,0-3.62,1.51l-1.63-1.63a2.81,2.81,0,0,0-3.95,0l-5.23,5.24a2.79,2.79,0,0,0,0,3.95l1.64,1.64a21,21,0,0,0-1.49,3.61H19.39a2.8,2.8,0,0,0-2.79,2.8v2.52H10.47V33.67a1.1,1.1,0,0,0-2.2,0v25a1.11,1.11,0,0,0,1.1,1.11H16.6v2.67a2.8,2.8,0,0,0,2.79,2.8h2.36a20.25,20.25,0,0,0,1.49,3.57l-1.68,1.68a2.81,2.81,0,0,0,0,3.95l5.24,5.24a2.8,2.8,0,0,0,3.95,0L32.44,78A22.43,22.43,0,0,0,36,79.51V81.9a2.8,2.8,0,0,0,2.8,2.79h7.4A2.8,2.8,0,0,0,49,81.9V79.51A22.05,22.05,0,0,0,52.56,78l1.69,1.68a2.74,2.74,0,0,0,2,.82,2.78,2.78,0,0,0,2-.82l5.23-5.23a2.79,2.79,0,0,0,0-3.95l-1.67-1.68a22.25,22.25,0,0,0,1.49-3.57h2.36a2.8,2.8,0,0,0,2.79-2.8V59.82h7.23a1.11,1.11,0,0,0,1.11-1.11v-25A1.11,1.11,0,0,0,75.63,32.57ZM66.2,62.49a.6.6,0,0,1-.59.59H62.43a1.1,1.1,0,0,0-1.07.81,19.38,19.38,0,0,1-1.92,4.61,1.12,1.12,0,0,0,.17,1.34l2.26,2.26a.59.59,0,0,1,0,.83l-5.23,5.23a.59.59,0,0,1-.42.17.56.56,0,0,1-.41-.17l-2.28-2.27a1.12,1.12,0,0,0-1.33-.18,19.52,19.52,0,0,1-4.6,1.91,1.09,1.09,0,0,0-.81,1.06V81.9a.59.59,0,0,1-.59.58H38.8a.59.59,0,0,1-.59-.58V78.68a1.1,1.1,0,0,0-.82-1.07,19.18,19.18,0,0,1-4.59-1.9,1.13,1.13,0,0,0-1.33.18l-2.28,2.27a.59.59,0,0,1-.83,0l-5.23-5.23a.59.59,0,0,1,0-.83l2.26-2.26a1.12,1.12,0,0,0,.17-1.34,19.38,19.38,0,0,1-1.92-4.61,1.1,1.1,0,0,0-1.07-.81H19.39a.6.6,0,0,1-.59-.59V58.72h0V55.09a.6.6,0,0,1,.59-.59h3.16a1.1,1.1,0,0,0,1.06-.82A19.59,19.59,0,0,1,25.53,49a1.1,1.1,0,0,0-.18-1.33l-2.23-2.23a.6.6,0,0,1,0-.83l5.24-5.23a.59.59,0,0,1,.83,0l2.21,2.21a1.12,1.12,0,0,0,1.34.17,19.69,19.69,0,0,1,4.65-1.93,1.1,1.1,0,0,0,.82-1.07V35.68a.6.6,0,0,1,.59-.59h7.4a.6.6,0,0,1,.59.59V38.8a1.1,1.1,0,0,0,.81,1.07,19.59,19.59,0,0,1,4.66,1.93,1.1,1.1,0,0,0,1.33-.17l2.22-2.22a.6.6,0,0,1,.83,0l5.23,5.24a.59.59,0,0,1,0,.83L59.65,47.7A1.11,1.11,0,0,0,59.47,49a19.66,19.66,0,0,1,1.92,4.65,1.1,1.1,0,0,0,1.06.82h3.16a.59.59,0,0,1,.58.58v7.41Z"/></g></g></svg>