<svg xmlns="http://www.w3.org/2000/svg" viewBox="0 0 84.24 84.24"><defs><style>.cls-1{fill:#ff6145;}</style></defs><g id="Layer_2" data-name="Layer 2"><g id="Layer_1-2" data-name="Layer 1"><path class="cls-1" d="M74.64,0a1.46,1.46,0,0,0-1,.42L62.24,11.88a1.4,1.4,0,0,0-.35.57,1.53,1.53,0,0,0-.06.67l1,6.26L58.29,23.9A34.76,34.76,0,1,0,60.34,26l4.53-4.52,6.25,1a1.39,1.39,0,0,0,.67,0,1.47,1.47,0,0,0,.57-.35L83.81,10.55a1.45,1.45,0,0,0,.39-.69,1.52,1.52,0,0,0,0-.79,1.46,1.46,0,0,0-1.15-1l-5.94-.92-.93-5.93a1.51,1.51,0,0,0-.32-.72,1.48,1.48,0,0,0-.66-.44A1.58,1.58,0,0,0,74.64,0Zm-.92,4.5.66,4.15a1.44,1.44,0,0,0,1.21,1.21l4.15.66-8.91,8.9L66,18.67a1,1,0,0,0-.18-.23,1.24,1.24,0,0,0-.23-.17l-.76-4.86Zm-39,13.11A31.75,31.75,0,0,1,56.24,26l-6.51,6.51a22.68,22.68,0,1,0,2.05,2L58.29,28A31.85,31.85,0,1,1,34.76,17.61Zm0,12.09a19.69,19.69,0,0,1,12.91,4.82l-6.82,6.82a10.18,10.18,0,1,0,2,2l6.82-6.82a19.72,19.72,0,1,1-15-6.87Zm-.18,12.51a7.3,7.3,0,0,1,4.19,1.21L33.69,48.5a1.45,1.45,0,0,0,1,2.47,1.47,1.47,0,0,0,1-.42l5.08-5.08a7.27,7.27,0,1,1-6.24-3.26Z"/></g></g></svg>