<svg xmlns="http://www.w3.org/2000/svg" viewBox="0 0 83.77 83.29"><defs><style>.cls-1{fill:#ff6145;}</style></defs><g id="Layer_2" data-name="Layer 2"><g id="Layer_1-2" data-name="Layer 1"><path class="cls-1" d="M7.38,83.29A7.39,7.39,0,0,1,0,75.91V7.38A7.39,7.39,0,0,1,7.38,0h69a7.39,7.39,0,0,1,7.38,7.38V75.91a7.39,7.39,0,0,1-7.38,7.38ZM3.25,75.91A4.13,4.13,0,0,0,7.38,80h69a4.13,4.13,0,0,0,4.13-4.13V16.05H3.25Zm77.27-63.1V7.38a4.13,4.13,0,0,0-4.13-4.13h-69A4.13,4.13,0,0,0,3.25,7.38v5.43Z"/><path class="cls-1" d="M76.39.65h-69A6.74,6.74,0,0,0,.65,7.37V75.92a6.74,6.74,0,0,0,6.73,6.72h69a6.74,6.74,0,0,0,6.73-6.72V7.37A6.74,6.74,0,0,0,76.39.65Zm4.78,75.27a4.78,4.78,0,0,1-4.78,4.77h-69A4.78,4.78,0,0,1,2.6,75.92V15.4H81.17Zm0-62.46H2.6V7.37A4.78,4.78,0,0,1,7.38,2.6h69a4.78,4.78,0,0,1,4.78,4.77Z"/><path class="cls-1" d="M11.46,7.34a1,1,0,1,0,1.37,0A1,1,0,0,0,11.46,7.34Z"/><path class="cls-1" d="M17.08,7.34a1,1,0,0,0,0,1.38,1,1,0,0,0,1.36,0,.94.94,0,0,0,0-1.38A1,1,0,0,0,17.08,7.34Z"/><path class="cls-1" d="M22.69,7.34a1,1,0,1,0,1.38,0A1,1,0,0,0,22.69,7.34Z"/><path class="cls-1" d="M71.62,7.05H47.3a1,1,0,1,0,0,2H71.62a1,1,0,1,0,0-1.95Z"/><path class="cls-1" d="M25.83,68.62a7.41,7.41,0,1,0-7.41-7.41A7.41,7.41,0,0,0,25.83,68.62Zm0-12.86a5.46,5.46,0,1,1-5.46,5.45A5.46,5.46,0,0,1,25.83,55.76Z"/><path class="cls-1" d="M57.94,53.81a7.41,7.41,0,1,0,7.41,7.4A7.41,7.41,0,0,0,57.94,53.81Zm0,12.86a5.46,5.46,0,1,1,5.46-5.46A5.46,5.46,0,0,1,57.94,66.67Z"/><path class="cls-1" d="M10.91,62.19h3.75a11.21,11.21,0,0,0,22.38-1,4.85,4.85,0,1,1,9.69,0,11.21,11.21,0,0,0,22.38,1h3.75a1,1,0,0,0,0-1.95H69.11A11.28,11.28,0,0,0,64.34,52V27.72a4.06,4.06,0,0,0-4.05-4H23.48a4.05,4.05,0,0,0-4.05,4V52a11.21,11.21,0,0,0-4.77,8.22H10.91a1,1,0,1,0,0,1.95Zm31-7.86a6.79,6.79,0,0,0-5.61,2.84A11.22,11.22,0,0,0,32.16,52l19.41,0a11.22,11.22,0,0,0-4.07,5.17A6.8,6.8,0,0,0,41.88,54.33Zm25.33,6.88A9.27,9.27,0,1,1,56.93,52,9.28,9.28,0,0,1,67.21,61.21ZM21.38,50.92V27.72a2.1,2.1,0,0,1,2.1-2.1H60.29a2.1,2.1,0,0,1,2.1,2.1V50.91a11.63,11.63,0,0,0-5.64-.85C17.31,50,25.62,49.81,21.38,50.92Zm4.81,1a9.26,9.26,0,1,1-9.63,9.24A9.26,9.26,0,0,1,26.19,52Z"/><path class="cls-1" d="M34.38,46.64a8.83,8.83,0,1,0-8.83-8.83A8.84,8.84,0,0,0,34.38,46.64Zm0-15.71a6.88,6.88,0,1,1-6.88,6.88A6.9,6.9,0,0,1,34.38,30.93Z"/><path class="cls-1" d="M32.56,40.81a1,1,0,0,0,1.37,0l4.62-4.62a1,1,0,0,0-1.38-1.38l-3.93,3.93L31.6,37.1a1,1,0,0,0-1.38,1.38Z"/><path class="cls-1" d="M47.36,32.85h9.88a1,1,0,0,0,0-2H47.36a1,1,0,0,0,0,2Z"/><path class="cls-1" d="M47.36,38.78h9.88a1,1,0,1,0,0-1.94H47.36a1,1,0,0,0,0,1.94Z"/><path class="cls-1" d="M47.36,44.72h9.88a1,1,0,0,0,0-1.95H47.36a1,1,0,0,0,0,1.95Z"/></g></g></svg>