<svg xmlns="http://www.w3.org/2000/svg" viewBox="0 0 82.11 84.99"><defs><style>.cls-1{fill:#ff6145;}</style></defs><g id="Layer_2" data-name="Layer 2"><g id="Layer_1-2" data-name="Layer 1"><path class="cls-1" d="M15.8,48.11A1.18,1.18,0,0,1,17,46.93H54.19a1.18,1.18,0,0,1,0,2.36H17A1.18,1.18,0,0,1,15.8,48.11ZM81,34.56,65.55,53.25V83.81A1.18,1.18,0,0,1,64.37,85H9.08A1.18,1.18,0,0,1,7.9,83.81V76.18H1.18A1.18,1.18,0,0,1,0,75V1.18A1.18,1.18,0,0,1,1.18,0H56.47a1.18,1.18,0,0,1,1.18,1.18V10h0l-.11,7.6,7.66,7.74h0a1.23,1.23,0,0,1,.23.33.49.49,0,0,0,0,.11,1.7,1.7,0,0,1,.06.31s0,.05,0,.08V37.42l7.54-9.15c1.54-1.86,4.06-2.37,5.61-1.14l2.21,1.75a3.25,3.25,0,0,1,1.19,2.22A4.75,4.75,0,0,1,81,34.56ZM49.29,24.64l12.18.3-12-12.13-.19,11.83ZM7.9,73.82V10A1.18,1.18,0,0,1,9.08,8.81H48.42a1.08,1.08,0,0,1,.31.07l.11,0a1,1,0,0,1,.32.21l0,0h0l6,6.1L55.29,10V2.36H2.36V73.82Zm55.29-17.7L55,66.05l-.13.15,0,0-.17.19a.47.47,0,0,1-.09.06.6.6,0,0,1-.08.08L43,74.46a1.22,1.22,0,0,1-.66.2A1.18,1.18,0,0,1,41.24,73v0H16.75a1.18,1.18,0,0,1,0-2.36H42.27l2.39-5.54H16.83a1.18,1.18,0,0,1,0-2.36H45.67l1-2.39a1.67,1.67,0,0,1,.12-.16v0A1.3,1.3,0,0,1,47,60s0,0,0-.05l.13-.15h0l2.11-2.57H16.9a1.18,1.18,0,1,1,0-2.36H51.19l12-14.55V27.34L48.06,27a1.18,1.18,0,0,1-1.16-1.19l.25-14.61H10.26V82.63H63.19V56.12ZM49,61.26c-.06.08-.12.15-.17.23h0l-1.23,2.87h0L45,70.2l8-5.51.13-.14h0a2.4,2.4,0,0,0,.61-1.71.91.91,0,0,0-.3-.62l-2.21-1.75C50.8,60.09,49.7,60.35,49,61.26ZM79.74,31.35a.91.91,0,0,0-.3-.62L77.23,29c-.48-.37-1.57-.12-2.32.8L51.58,58.07a3,3,0,0,1,1.16.55L55,60.37a3,3,0,0,1,.82,1L79.13,33.06a2.4,2.4,0,0,0,.61-1.71Zm-62.69,10H54.26a1.17,1.17,0,0,0,1.18-1.17A1.18,1.18,0,0,0,54.26,39H17.05a1.18,1.18,0,1,0,0,2.36Zm.08-7.89H54.34a1.18,1.18,0,1,0,0-2.36H17.13a1.18,1.18,0,1,0,0,2.36Zm.07-7.9H44a1.18,1.18,0,0,0,0-2.36H17.2a1.18,1.18,0,0,0,0,2.36Z"/></g></g></svg>