<svg xmlns="http://www.w3.org/2000/svg" viewBox="0 0 84.8 84.8"><defs><style>.cls-1{fill:#ff6145;}</style></defs><g id="Layer_2" data-name="Layer 2"><g id="Layer_1-2" data-name="Layer 1"><path class="cls-1" d="M39,81.41V17H44.1a1.7,1.7,0,0,0,1.19-2.9L31.73.5a1.68,1.68,0,0,0-2.4,0L15.76,14.06a1.72,1.72,0,0,0-.37,1.85A1.7,1.7,0,0,0,17,17h5.09V81.41a3.39,3.39,0,0,0,3.39,3.39H35.62A3.39,3.39,0,0,0,39,81.41ZM23.74,13.57H21.05l9.48-9.48L40,13.57H37.31a1.69,1.69,0,0,0-1.69,1.69V81.41H25.44V15.26A1.7,1.7,0,0,0,23.74,13.57Z"/><path class="cls-1" d="M1.7,84.8H15.26A1.7,1.7,0,0,0,17,83.1V56a1.7,1.7,0,0,0-1.7-1.7H1.7A1.7,1.7,0,0,0,0,56V83.1A1.7,1.7,0,0,0,1.7,84.8ZM3.39,57.66H13.57V81.41H3.39Z"/><path class="cls-1" d="M83.1,54.27H69.54a1.7,1.7,0,0,0-1.7,1.7V83.1a1.7,1.7,0,0,0,1.7,1.7H83.1a1.7,1.7,0,0,0,1.7-1.7V56A1.7,1.7,0,0,0,83.1,54.27ZM81.41,81.41H71.23V57.66H81.41Z"/><path class="cls-1" d="M62.75,56a1.7,1.7,0,0,0-1.69-1.7H47.49a1.7,1.7,0,0,0-1.7,1.7V83.1a1.7,1.7,0,0,0,1.7,1.7H61.06a1.7,1.7,0,0,0,1.69-1.7ZM59.36,81.41H49.18V57.66H59.36Z"/><path class="cls-1" d="M18.66,22.05a1.7,1.7,0,0,0-3.4,0v8.48a1.7,1.7,0,0,0,3.4,0Z"/><path class="cls-1" d="M10.18,39a1.69,1.69,0,0,0,1.69-1.69V28.83a1.7,1.7,0,1,0-3.39,0v8.48A1.69,1.69,0,0,0,10.18,39Z"/></g></g></svg>