<svg xmlns="http://www.w3.org/2000/svg" viewBox="0 0 81.93 81.93"><defs><style>.cls-1{fill:#ff6145;}</style></defs><g id="Layer_2" data-name="Layer 2"><g id="Layer_1-2" data-name="Layer 1"><path class="cls-1" d="M73.4,70H8.53A8.54,8.54,0,0,1,0,61.45V18.78a8.55,8.55,0,0,1,8.53-8.54h5.13a1.71,1.71,0,0,1,0,3.42H8.53a5.12,5.12,0,0,0-5.12,5.12V61.45a5.13,5.13,0,0,0,5.12,5.12H73.4a5.13,5.13,0,0,0,5.12-5.12V18.78a5.12,5.12,0,0,0-5.12-5.12H35.84a1.71,1.71,0,0,1,0-3.42H73.4a8.55,8.55,0,0,1,8.53,8.54V61.45A8.54,8.54,0,0,1,73.4,70Z"/><path class="cls-1" d="M24.75,81.93a1.71,1.71,0,1,1,0-3.41A10.25,10.25,0,0,0,35,68.28a1.71,1.71,0,1,1,3.41,0A13.66,13.66,0,0,1,24.75,81.93Z"/><path class="cls-1" d="M57.18,81.93H24.75a1.71,1.71,0,1,1,0-3.41H48.16a13.63,13.63,0,0,1-4.63-10.24,1.71,1.71,0,1,1,3.41,0A10.25,10.25,0,0,0,57.18,78.52a1.71,1.71,0,1,1,0,3.41Z"/><path class="cls-1" d="M80.22,59.74H1.71a1.71,1.71,0,1,1,0-3.41H80.22a1.71,1.71,0,1,1,0,3.41Z"/><path class="cls-1" d="M23.9,22.19H13.66A1.7,1.7,0,0,1,12,20.48V8.54a1.7,1.7,0,0,1,1.71-1.71H23.9a1.7,1.7,0,0,1,1.7,1.71V20.48A1.7,1.7,0,0,1,23.9,22.19Zm-8.54-3.41h6.83V10.24H15.36Z"/><path class="cls-1" d="M35.84,29a1.69,1.69,0,0,1-.84-.23L23.05,22a1.72,1.72,0,0,1-.86-1.49V8.54a1.72,1.72,0,0,1,.86-1.49L35,.23a1.7,1.7,0,0,1,2.55,1.48v25.6a1.71,1.71,0,0,1-.85,1.48A1.73,1.73,0,0,1,35.84,29ZM25.6,19.49l8.54,4.88V4.65L25.6,9.53Z"/><path class="cls-1" d="M54.62,39.26H42.67A1.7,1.7,0,0,1,41,37.55V33.29a7.68,7.68,0,0,1,15.36,0v4.26A1.71,1.71,0,0,1,54.62,39.26ZM44.38,35.85h8.53V33.29a4.27,4.27,0,1,0-8.53,0Z"/><path class="cls-1" d="M48.65,29a6,6,0,1,1,6-6A6,6,0,0,1,48.65,29Zm0-8.54A2.57,2.57,0,1,0,51.21,23,2.56,2.56,0,0,0,48.65,20.48Z"/><path class="cls-1" d="M73.4,39.26h-12a1.71,1.71,0,0,1-1.71-1.71V33.29a7.68,7.68,0,1,1,15.36,0v4.26A1.7,1.7,0,0,1,73.4,39.26ZM63.15,35.85h8.54V33.29a4.27,4.27,0,1,0-8.54,0Z"/><path class="cls-1" d="M67.42,29a6,6,0,1,1,6-6A6,6,0,0,1,67.42,29Zm0-8.54A2.57,2.57,0,1,0,70,23,2.56,2.56,0,0,0,67.42,20.48Z"/><path class="cls-1" d="M80.22,46.09H42.67a1.71,1.71,0,0,1,0-3.42H80.22a1.71,1.71,0,1,1,0,3.42Z"/><path class="cls-1" d="M10.24,35.85H8.53a1.71,1.71,0,0,1,0-3.42h1.71a1.71,1.71,0,0,1,0,3.42Z"/><path class="cls-1" d="M32.43,35.85H17.07a1.71,1.71,0,0,1,0-3.42H32.43a1.71,1.71,0,0,1,0,3.42Z"/><path class="cls-1" d="M10.24,42.67H8.53a1.71,1.71,0,0,1,0-3.41h1.71a1.71,1.71,0,1,1,0,3.41Z"/><path class="cls-1" d="M32.43,42.67H17.07a1.71,1.71,0,1,1,0-3.41H32.43a1.71,1.71,0,1,1,0,3.41Z"/><path class="cls-1" d="M10.24,49.5H8.53a1.71,1.71,0,0,1,0-3.41h1.71a1.71,1.71,0,1,1,0,3.41Z"/><path class="cls-1" d="M32.43,49.5H17.07a1.71,1.71,0,1,1,0-3.41H32.43a1.71,1.71,0,1,1,0,3.41Z"/></g></g></svg>