<svg xmlns="http://www.w3.org/2000/svg" viewBox="0 0 83.33 83.36"><defs><style>.cls-1{fill:#ff6145;}</style></defs><g id="Layer_2" data-name="Layer 2"><g id="Layer_1-2" data-name="Layer 1"><path class="cls-1" d="M8.58,12.75a4,4,0,0,0,4-3.91,4.06,4.06,0,0,0-4-4,4,4,0,1,0,0,8Zm0-5.43a1.52,1.52,0,1,1,0,3A1.62,1.62,0,0,1,7.07,8.84,1.46,1.46,0,0,1,8.58,7.32Z"/><path class="cls-1" d="M18.94,12.75a4,4,0,1,0-4-3.91A4.07,4.07,0,0,0,18.94,12.75Zm0-5.43a1.52,1.52,0,1,1-1.52,1.52A1.54,1.54,0,0,1,18.94,7.32Z"/><path class="cls-1" d="M29.29,12.75a4,4,0,1,0-4-4A4.15,4.15,0,0,0,29.29,12.75Zm0-5.43a1.52,1.52,0,1,1-1.52,1.52A1.63,1.63,0,0,1,29.29,7.32Z"/><path class="cls-1" d="M81.67,73.47l-8.33-8.71V2a2,2,0,0,0-2-2H1.7A1.7,1.7,0,0,0,0,1.7V72.08a1.26,1.26,0,0,0,1.26,1.26H65.64l7.83,8.21a5.67,5.67,0,0,0,8.2.12A5.89,5.89,0,0,0,81.67,73.47ZM42.92,61.35a13.94,13.94,0,0,1,.38-19.69A13.8,13.8,0,0,1,62.87,42a14,14,0,0,1-.38,19.69A13.81,13.81,0,0,1,42.92,61.35Zm22.22,1.26,3.66,3.92-1.9,1.76-3.78-3.78C63.88,63.87,64.51,63.24,65.14,62.61ZM70.82,2.52V14.77H2.52V2.52ZM2.52,17.29h68.3V64.38l-.25.25-3.92-4.16a16.6,16.6,0,0,0-2-20.2,16.23,16.23,0,0,0-23.1-.38,16.5,16.5,0,0,0-.38,23.23,16.18,16.18,0,0,0,20,2.77L65,70.06a3.3,3.3,0,0,0-.63.76H2.52ZM79.78,79.91a3.2,3.2,0,0,1-4.54-.13l-8-8.33.38-.38,3.79-3.66.5-.51,8,8.34A3.36,3.36,0,0,1,79.78,79.91Z"/><path class="cls-1" d="M37.74,12.5h29A1.19,1.19,0,0,0,68,11.23V6.31a1.19,1.19,0,0,0-1.26-1.26h-29a1.19,1.19,0,0,0-1.26,1.26v4.92A1.2,1.2,0,0,0,37.74,12.5ZM39,7.57H65.52V10H39Z"/><path class="cls-1" d="M13.51,22.72H7.2A1.2,1.2,0,0,0,5.93,24v6.19A1.19,1.19,0,0,0,7.2,31.43h6.43a1.19,1.19,0,0,0,1.27-1.26V24A1.39,1.39,0,0,0,13.51,22.72Zm-1.27,6.19H8.46V25.25h3.91v3.66Z"/><path class="cls-1" d="M13.51,35H7.2a1.19,1.19,0,0,0-1.27,1.26v6.18A1.2,1.2,0,0,0,7.2,43.68h6.43a1.2,1.2,0,0,0,1.27-1.27V36.23A1.38,1.38,0,0,0,13.51,35Zm-1.27,6.18H8.46V37.49h3.91v3.66Z"/><path class="cls-1" d="M13.51,47.21H7.2a1.2,1.2,0,0,0-1.27,1.27v6.18A1.19,1.19,0,0,0,7.2,55.92h6.43a1.19,1.19,0,0,0,1.27-1.26V48.48A1.39,1.39,0,0,0,13.51,47.21ZM12.24,53.4H8.46V49.74h3.91V53.4Z"/><path class="cls-1" d="M13.51,59.46H7.2a1.19,1.19,0,0,0-1.27,1.26v6.19A1.2,1.2,0,0,0,7.2,68.17h6.43a1.2,1.2,0,0,0,1.27-1.26V60.72A1.38,1.38,0,0,0,13.51,59.46Zm-1.27,6.18H8.46V62h3.91v3.66Z"/><path class="cls-1" d="M17.67,31.43H64.76a1.26,1.26,0,1,0,0-2.52H17.67a1.26,1.26,0,0,0,0,2.52Z"/><path class="cls-1" d="M17.67,43.68h18a1.27,1.27,0,1,0,0-2.53h-18a1.27,1.27,0,0,0,0,2.53Z"/><path class="cls-1" d="M17.67,55.93H33.83a1.27,1.27,0,0,0,0-2.53H17.67a1.2,1.2,0,0,0-1.26,1.26A1.28,1.28,0,0,0,17.67,55.93Z"/><path class="cls-1" d="M40.14,65.64H17.67a1.27,1.27,0,0,0,0,2.53H40.14a1.2,1.2,0,0,0,1.27-1.27A1.28,1.28,0,0,0,40.14,65.64Z"/></g></g></svg>