<svg xmlns="http://www.w3.org/2000/svg" viewBox="0 0 65.57 84.66"><defs><style>.cls-1{fill:#ff6145;}</style></defs><g id="Layer_2" data-name="Layer 2"><g id="Layer_1-2" data-name="Layer 1"><path class="cls-1" d="M56.48,84.66H39.76a8.41,8.41,0,0,1-3.2-.63,8.53,8.53,0,0,1-2.71-1.81,5.5,5.5,0,0,0-4-1.65H27.31A1.37,1.37,0,0,1,26,79.2V60.08a1.37,1.37,0,0,1,1.36-1.36h5.18A14.4,14.4,0,0,0,41,45.58v-.52A4.09,4.09,0,0,1,44.84,41a6.78,6.78,0,0,1,2.68.45,6.66,6.66,0,0,1,2.29,1.47,6.8,6.8,0,0,1,2.08,4.9v6.83h8.88a4.86,4.86,0,0,1,1.95.4,4.8,4.8,0,0,1,1.62,1.17,4.66,4.66,0,0,1,.48,5.72,4.8,4.8,0,0,1-1.53,1.51,4.76,4.76,0,0,1,.81,1.77,4.7,4.7,0,0,1,0,1.94,4.71,4.71,0,0,1-2.19,3.11,4.66,4.66,0,0,1,.8,1.77,4.71,4.71,0,0,1-2.17,5.06,4.82,4.82,0,0,1,.89,3.31,4.92,4.92,0,0,1-5,4.28Zm-27.8-6.82h1.2a8.19,8.19,0,0,1,3.2.63,8.37,8.37,0,0,1,2.71,1.81,5.6,5.6,0,0,0,1.82,1.22,5.5,5.5,0,0,0,2.15.43H56.48A2.15,2.15,0,0,0,58,81.44a2.18,2.18,0,0,0,.77-1.34,2.09,2.09,0,0,0-.52-1.6,2.07,2.07,0,0,0-.69-.49,1.89,1.89,0,0,0-.84-.17,1.37,1.37,0,1,1,0-2.74h1.17a2.15,2.15,0,0,0,2.24-1.83,1.89,1.89,0,0,0-.08-.85,1.92,1.92,0,0,0-.44-.74,2,2,0,0,0-.69-.5A2.16,2.16,0,0,0,58,71a1.4,1.4,0,0,1-1-.4,1.37,1.37,0,0,1-.4-1,1.33,1.33,0,0,1,.4-1,1.35,1.35,0,0,1,1-.4h1.17a2.17,2.17,0,0,0,2.24-1.83,2.09,2.09,0,0,0-.09-.86,2,2,0,0,0-.43-.74,2.15,2.15,0,0,0-.69-.5,2.21,2.21,0,0,0-.84-.17,1.33,1.33,0,0,1-1-.4,1.36,1.36,0,0,1,0-1.93,1.33,1.33,0,0,1,1-.4h1.18A2.15,2.15,0,0,0,62,61a2.12,2.12,0,0,0,.77-1.34,1.93,1.93,0,0,0-.08-.86A2.21,2.21,0,0,0,62.3,58a2.16,2.16,0,0,0-1.53-.67H50.52a1.35,1.35,0,0,1-1-.4,1.33,1.33,0,0,1-.4-1v-8.2a4,4,0,0,0-.33-1.6,4,4,0,0,0-.92-1.34A4.13,4.13,0,0,0,46.54,44a4,4,0,0,0-1.61-.27,1.34,1.34,0,0,0-.88.44,1.37,1.37,0,0,0-.35.92v.52A17.14,17.14,0,0,1,33.31,61.34a1.41,1.41,0,0,1-.54.11H28.68Z"/><path class="cls-1" d="M27.31,83.3H16.39a1.4,1.4,0,0,1-1-.4,1.37,1.37,0,0,1-.4-1V57.35a1.33,1.33,0,0,1,.4-1,1.35,1.35,0,0,1,1-.4H27.31a1.37,1.37,0,0,1,1.37,1.36V81.93a1.37,1.37,0,0,1-1.37,1.37Zm-9.56-2.73H26V58.72h-8.2Z"/><path class="cls-1" d="M16.39,84.66h-15a1.35,1.35,0,0,1-1-.4,1.33,1.33,0,0,1-.4-1,1.37,1.37,0,0,1,1.37-1.37H15V57.35H1.37a1.37,1.37,0,1,1,0-2.73h15a1.33,1.33,0,0,1,1,.4,1.35,1.35,0,0,1,.4,1V83.3a1.37,1.37,0,0,1-1.36,1.36Z"/><path class="cls-1" d="M8.19,79.2a2.71,2.71,0,0,1-1.51-.46,2.76,2.76,0,0,1-1-1.23,2.73,2.73,0,0,1-.16-1.57,2.78,2.78,0,0,1,.75-1.4,2.64,2.64,0,0,1,1.4-.75,2.73,2.73,0,0,1,3.26,2.68A2.73,2.73,0,0,1,8.19,79.2Z"/><path class="cls-1" d="M21.85,83.3a1.37,1.37,0,0,1-1.37-1.37V73.74a1.37,1.37,0,0,1,1.37-1.37,1.37,1.37,0,0,1,1.36,1.37v8.19a1.37,1.37,0,0,1-1.36,1.37Z"/><path class="cls-1" d="M28.68,46.43a1.31,1.31,0,0,1-.52-.11,1.35,1.35,0,0,1-.85-1.26V38.23H21.85A10.93,10.93,0,0,1,10.92,27.31V10.92A10.93,10.93,0,0,1,21.85,0H43.7A10.93,10.93,0,0,1,54.62,10.92V27.31A10.93,10.93,0,0,1,43.7,38.23H37.43L29.65,46a1.37,1.37,0,0,1-.45.3A1.55,1.55,0,0,1,28.68,46.43ZM21.85,2.73a8.19,8.19,0,0,0-8.19,8.19V27.31a8.19,8.19,0,0,0,8.19,8.19h6.83A1.37,1.37,0,0,1,30,36.87v4.9L35.9,35.9a1.37,1.37,0,0,1,.45-.3,1.5,1.5,0,0,1,.52-.1H43.7a8.19,8.19,0,0,0,8.19-8.19V10.92A8.19,8.19,0,0,0,43.7,2.73Z"/><path class="cls-1" d="M26.9,28.68a1.36,1.36,0,0,1-.8-.28,1.31,1.31,0,0,1-.45-.56,1.33,1.33,0,0,1-.1-.71l.72-5.9-4.09-4.35a1.42,1.42,0,0,1-.34-.64,1.32,1.32,0,0,1,0-.71,1.36,1.36,0,0,1,1-.92l5.83-1.13,2.94-5.29a1.36,1.36,0,0,1,.5-.51,1.41,1.41,0,0,1,.69-.2,1.38,1.38,0,0,1,.74.18,1.35,1.35,0,0,1,.53.53L37,13.4l5.83,1.13a1.36,1.36,0,0,1,.65.31,1.33,1.33,0,0,1,.39.6,1.35,1.35,0,0,1,0,.72,1.31,1.31,0,0,1-.33.64l-4.1,4.35.71,5.9a1.3,1.3,0,0,1-.11.7,1.4,1.4,0,0,1-.46.54,1.29,1.29,0,0,1-.66.24,1.28,1.28,0,0,1-.69-.11l-5.46-2.5-5.4,2.5A1.26,1.26,0,0,1,26.9,28.68Zm6-5.47a1.23,1.23,0,0,1,.57.14l3.74,1.73L36.69,21a1.47,1.47,0,0,1,.06-.59,1.22,1.22,0,0,1,.3-.5l2.73-3-4.1-.79a1.38,1.38,0,0,1-.54-.24,1.41,1.41,0,0,1-.39-.45l-1.88-3.7-2,3.61a1.27,1.27,0,0,1-.39.44,1.36,1.36,0,0,1-.55.24l-4.09.79,2.84,3a1.44,1.44,0,0,1,.29.51,1.16,1.16,0,0,1,.06.58l-.5,4.1,3.76-1.78a1.29,1.29,0,0,1,.58-.09Z"/></g></g></svg>