<svg xmlns="http://www.w3.org/2000/svg" viewBox="0 0 84.39 74.9"><defs><style>.cls-1{fill:#ff6145;}</style></defs><g id="Layer_2" data-name="Layer 2"><g id="Layer_1-2" data-name="Layer 1"><path class="cls-1" d="M77.1,74.9A3.1,3.1,0,0,1,75,74.12l-10.37-9a3.92,3.92,0,0,1-1-4.49l.14-.34L59,56.21l-.62.53a22.72,22.72,0,0,1-8.2,4.19l-.37.1v3.45a.88.88,0,0,1-.88.87H.87A.87.87,0,0,1,0,64.48V.87A.87.87,0,0,1,.87,0H36s0,0,.08,0l.17,0,.13,0a.83.83,0,0,1,.16.12l0,0,.08,0,5.28,5.29,7.66,7.65a1,1,0,0,1,.17.28.81.81,0,0,1,.07.32v.08h0V17l.36.1a22.63,22.63,0,0,1,8.21,4.2l.09.06.54.47A22.59,22.59,0,0,1,63.5,50.92l-.23.37L68,55.39l.31-.18a3.84,3.84,0,0,1,1.73-.56h.3a3.92,3.92,0,0,1,2.57,1l10.37,9a3.18,3.18,0,0,1,.32,4.49L79.52,73.8a3.18,3.18,0,0,1-2.18,1.09ZM70.17,56.39a2.21,2.21,0,0,0-1.51.76l-3.09,3.57a2.21,2.21,0,0,0,.23,3.1l10.37,9a1.46,1.46,0,0,0,.94.35h.1a1.47,1.47,0,0,0,1-.49l4.09-4.73a1.45,1.45,0,0,0-.14-2l-10.37-9a2.22,2.22,0,0,0-1.44-.53ZM1.75,63.6H48.08V61.42l-.58.09-.43.05-.59.07-.63,0-.61,0-1,0h-.14c-.57,0-1.16,0-1.74-.08l-.33,0c-.7-.07-1.28-.14-1.81-.24S39,61.14,38.41,61l-.36-.09c-.55-.15-1.1-.33-1.64-.52l-.27-.11c-.71-.26-1.25-.49-1.74-.72s-1-.52-1.62-.85l-.3-.18c-.5-.3-1-.62-1.48-1l-.2-.15c-.65-.47-1.11-.83-1.53-1.2A22.75,22.75,0,0,1,27,24.15q.49-.57,1-1.11l.36-.34c.26-.25.49-.48.74-.69l.43-.37c.26-.22.49-.4.72-.58l.34-.26.13-.09c.24-.18.48-.36.73-.52l.45-.29.8-.5.53-.29L34,18.7l.55-.26.79-.35.56-.23c.27-.11.55-.21.82-.3l.57-.19.84-.25L38.7,17l.87-.19.58-.12.89-.13.57-.08c.31,0,.62-.06.93-.08l.54,0c.34,0,.69,0,1,0h.39a23.67,23.67,0,0,1,3,.24l.58.09V14.72H36a.88.88,0,0,1-.88-.87V1.75H1.75ZM43.91,18.06q-.9,0-1.77.09l-.31,0c-.62.07-1.25.17-1.93.31l-.42.1a18.36,18.36,0,0,0-1.91.52c-.62.21-1.21.44-1.86.72l-.39.17c-.6.28-1.19.59-1.73.9l-.27.17c-.52.31-1,.65-1.51,1l-.26.19c-.5.38-1,.8-1.51,1.26l-.27.25c-.61.58-1.06,1.05-1.47,1.52a21,21,0,0,0-5.11,13.23,21.53,21.53,0,0,0,.29,4A20.93,20.93,0,0,0,44.19,60a20.79,20.79,0,0,0,12.58-4.21l.2-.15V22.42l-.2-.15a20.79,20.79,0,0,0-8-3.72c-.44-.09-.87-.17-1.31-.24l-.39-.06-.93-.11-.44,0-.93-.05h-.85ZM62,53.16c-.2.25-.41.51-.62.75l-.66.73-.37.38,4.5,3.9,2-2.28-4.5-3.89Zm-3.24,1,.87-.95.15-.15a2.61,2.61,0,0,0,.23-.24l.38-.45.39-.47c.22-.3.45-.6.68-.93a20.82,20.82,0,0,0-1.83-26.14l-.87-.94ZM36.85,13h10l-10-10Z"/><path class="cls-1" d="M38.24,29.6a.88.88,0,1,1,0-1.75H48.7a.88.88,0,1,1,0,1.75Z"/><path class="cls-1" d="M38.24,37.15a.88.88,0,1,1,0-1.75H48.7a.88.88,0,1,1,0,1.75Z"/><path class="cls-1" d="M38.24,55.1a.87.87,0,0,1-.88-.87V42a.87.87,0,0,1,.88-.88H48.7a.88.88,0,0,1,.88.88V54.23a.88.88,0,0,1-.88.87Zm.88-1.75h8.7V42.86h-8.7Z"/><path class="cls-1" d="M7.55,11a.88.88,0,1,1,0-1.75h19.5a.88.88,0,1,1,0,1.75Z"/><path class="cls-1" d="M7.55,18a.88.88,0,1,1,0-1.75h19.5a.88.88,0,1,1,0,1.75Z"/><path class="cls-1" d="M7.55,24.92a.88.88,0,1,1,0-1.75H20.13a.88.88,0,1,1,0,1.75Z"/><path class="cls-1" d="M7.55,31.9a.88.88,0,0,1,0-1.76H17.3a.88.88,0,0,1,0,1.76Z"/><path class="cls-1" d="M7.55,38.87a.88.88,0,1,1,0-1.76h9.31a.88.88,0,1,1,0,1.76Z"/><path class="cls-1" d="M12.43,59.17a6.3,6.3,0,1,1,6.3-6.3A6.31,6.31,0,0,1,12.43,59.17Zm0-10.84A4.54,4.54,0,1,0,17,52.87,4.55,4.55,0,0,0,12.43,48.33Z"/></g></g></svg>