<svg xmlns="http://www.w3.org/2000/svg" viewBox="0 0 85 81.5"><defs><style>.cls-1{fill:#ff6145;fill-rule:evenodd;}</style></defs><g id="Layer_2" data-name="Layer 2"><g id="Layer_1-2" data-name="Layer 1"><path class="cls-1" d="M13.16,0A7.12,7.12,0,0,0,6.07,7.12v5.3H5.46a5.49,5.49,0,0,0,0,11h.61V35.27H5.46a5.48,5.48,0,0,0,0,11h.61V58.1H5.46a5.49,5.49,0,0,0,0,11h.61v5.31a7.11,7.11,0,0,0,7.09,7.11H50.8a1.38,1.38,0,0,0,.57-.11,1.39,1.39,0,0,0,.48-.32,1.42,1.42,0,0,0,.31-.48,1.22,1.22,0,0,0,.11-.56,1.38,1.38,0,0,0-.11-.57,1.46,1.46,0,0,0-.32-.47,1.55,1.55,0,0,0-.48-.32,1.47,1.47,0,0,0-.56-.11H13.16A4.12,4.12,0,0,1,9,74.39V69.08h.61a5.49,5.49,0,0,0,0-11H9V46.23h.61a5.48,5.48,0,0,0,0-11H9V23.4h.61a5.49,5.49,0,0,0,0-11H9V7.12a4.13,4.13,0,0,1,4.16-4.18h47.9A4.12,4.12,0,0,1,65.2,7.12V39.06a1.38,1.38,0,0,0,.12.56,1.39,1.39,0,0,0,.32.48,1.48,1.48,0,0,0,.47.31,1.38,1.38,0,0,0,.57.11,1.45,1.45,0,0,0,1-.43,1.5,1.5,0,0,0,.43-1V7.12A7.11,7.11,0,0,0,61.06,0ZM33.44,11.13a1.46,1.46,0,0,0-1,.4l-7,6.69-3-3.16a1.49,1.49,0,0,0-1-.46,1.49,1.49,0,0,0-1.38.87,1.48,1.48,0,0,0-.13.56,1.54,1.54,0,0,0,.1.56,1.3,1.3,0,0,0,.3.49l4,4.23a1.41,1.41,0,0,0,1,.46,1.45,1.45,0,0,0,1-.4l8.1-7.71a1.47,1.47,0,0,0,.46-1,1.47,1.47,0,0,0-1.42-1.51ZM43.71,15a1.39,1.39,0,0,0-.57.12,1.52,1.52,0,0,0-.79.79,1.41,1.41,0,0,0-.11.57,1.51,1.51,0,0,0,.11.56,1.39,1.39,0,0,0,.32.48,1.55,1.55,0,0,0,.48.32,1.51,1.51,0,0,0,.56.11H55.19a1.5,1.5,0,0,0,1-.43,1.47,1.47,0,0,0,0-2.08,1.46,1.46,0,0,0-.47-.32,1.56,1.56,0,0,0-.56-.12Zm-38.25.4H9.61a2.55,2.55,0,0,1,0,5.09H5.46a2.55,2.55,0,0,1,0-5.09ZM33.44,32a1.53,1.53,0,0,0-.56.09,1.57,1.57,0,0,0-.49.31l-7,6.7-3-3.17a1.44,1.44,0,0,0-1-.45,1.39,1.39,0,0,0-1,.4,1.45,1.45,0,0,0-.46,1,1.51,1.51,0,0,0,.39,1l4,4.23a1.46,1.46,0,0,0,2.06,0l8.1-7.69a1.29,1.29,0,0,0,.33-.47,1.45,1.45,0,0,0,0-1.13,1.5,1.5,0,0,0-.3-.48A1.47,1.47,0,0,0,33.44,32Zm10.27,3.85a1.51,1.51,0,0,0-.56.11,1.55,1.55,0,0,0-.48.32,1.46,1.46,0,0,0-.32.47,1.56,1.56,0,0,0-.11.57,1.36,1.36,0,0,0,.11.56,1.31,1.31,0,0,0,.32.48,1.36,1.36,0,0,0,.47.32,1.38,1.38,0,0,0,.57.11H55.19a1.55,1.55,0,0,0,.56-.11,1.63,1.63,0,0,0,.47-.32,1.47,1.47,0,0,0,0-2.08,1.5,1.5,0,0,0-1-.43ZM5.46,38.21H9.61a2.54,2.54,0,0,1,0,5.08H5.46a2.54,2.54,0,0,1,0-5.08Zm61,6A18.65,18.65,0,1,0,85,62.86,18.63,18.63,0,0,0,66.44,44.21Zm0,2.94A15.71,15.71,0,1,1,50.8,62.86,15.65,15.65,0,0,1,66.44,47.15Zm-33,5.64a1.35,1.35,0,0,0-.56.09,1.41,1.41,0,0,0-.49.31l-7,6.69-3-3.17a1.46,1.46,0,0,0-2.06-.05,1.45,1.45,0,0,0-.34.47,1.48,1.48,0,0,0-.13.56,1.63,1.63,0,0,0,.1.57,1.34,1.34,0,0,0,.3.48l4,4.24A1.46,1.46,0,0,0,26.3,63l8.1-7.7a1.49,1.49,0,0,0,.46-1,1.52,1.52,0,0,0-.4-1A1.47,1.47,0,0,0,33.44,52.79Zm31.92.76a1.55,1.55,0,0,0-.56.11,1.63,1.63,0,0,0-.47.32,1.47,1.47,0,0,0-.43,1V65.6a1.5,1.5,0,0,0,.2.75,1.45,1.45,0,0,0,.55.55l5.69,3.17A1.46,1.46,0,0,0,72,70a1.43,1.43,0,0,0,.37-.44,1.46,1.46,0,0,0,.13-1.12,1.5,1.5,0,0,0-.7-.88l-4.93-2.76V55a1.55,1.55,0,0,0-.11-.56,1.61,1.61,0,0,0-.32-.48,1.39,1.39,0,0,0-.48-.32A1.38,1.38,0,0,0,65.36,53.55ZM5.46,61H9.61a2.55,2.55,0,0,1,0,5.09H5.46a2.55,2.55,0,0,1,0-5.09Z"/></g></g></svg>