<svg xmlns="http://www.w3.org/2000/svg" viewBox="0 0 85.11 75.49"><defs><style>.cls-1{fill:#ff6145;}</style></defs><g id="Layer_2" data-name="Layer 2"><g id="Layer_1-2" data-name="Layer 1"><path class="cls-1" d="M46.12,8.52a3.65,3.65,0,1,0-3.65,3.66A3.67,3.67,0,0,0,46.12,8.52Zm-4.87,0a1.22,1.22,0,1,1,1.22,1.22A1.2,1.2,0,0,1,41.25,8.52Z"/><path class="cls-1" d="M21.52,49.93c0-.67-.14-1.22-.31-1.23H11.12c-.17.06-.3.66-.28,1.33s.17,1.17.34,1.11h10C21.37,51.14,21.52,50.61,21.52,49.93Z"/><path class="cls-1" d="M57.08,8.52a3.66,3.66,0,1,0-3.65,3.66A3.67,3.67,0,0,0,57.08,8.52Zm-4.87,0a1.22,1.22,0,1,1,1.22,1.22A1.2,1.2,0,0,1,52.21,8.52Z"/><path class="cls-1" d="M84.77,32l0,0-8.52-8.53a1.25,1.25,0,0,0-1-.34,1.22,1.22,0,0,0-.72.34l-11.3,11.3V6.09A6.11,6.11,0,0,0,57.08,0H32.19V2.44H57.08a3.61,3.61,0,0,1,3.65,3.65v8.52H32.19v2.44H60.73V37.21L41.59,56.35a1.22,1.22,0,0,0-.34.87v8.53A1.22,1.22,0,0,0,42.47,67H51a1.21,1.21,0,0,0,.88-.34l8.86-8.86V69.4a3.62,3.62,0,0,1-3.65,3.65H26.72v2.44H57.08a6.11,6.11,0,0,0,6.09-6.09V55.32L84.74,33.75A1.22,1.22,0,0,0,84.77,32ZM50.46,64.53H43.69V57.76l25-25,6.77,6.77ZM77.17,37.82,70.4,31.05l4.94-4.95,6.77,6.77Z"/><path class="cls-1" d="M32.67,73.05H6.09A3.61,3.61,0,0,1,2.44,69.4V17.05h30V14.61h-30V6.09A3.61,3.61,0,0,1,6.09,2.44H32.46V0H6.09A6.11,6.11,0,0,0,0,6.09V69.4a6.11,6.11,0,0,0,6.09,6.09H32.67Z"/><path class="cls-1" d="M57.24,29.24A1.22,1.22,0,0,0,56,28H12a1.23,1.23,0,1,0,.23,2.44H56A1.22,1.22,0,0,0,57.24,29.24Z"/><path class="cls-1" d="M12.18,41.4H41.4a1.22,1.22,0,0,0,0-2.44H12a1.22,1.22,0,0,0-1.11,1.33A1.24,1.24,0,0,0,12.18,41.4Z"/><path class="cls-1" d="M41.4,59.66H12a1.22,1.22,0,1,0,.23,2.43H41.4a1.22,1.22,0,1,0,0-2.43Z"/></g></g></svg>