<svg xmlns="http://www.w3.org/2000/svg" viewBox="0 0 63.78 85.04"><defs><style>.cls-1{fill:#ff6145;}</style></defs><g id="Layer_2" data-name="Layer 2"><g id="Layer_1-2" data-name="Layer 1"><path class="cls-1" d="M17.27,50.49a1.3,1.3,0,0,0,1.33-1.33,1.33,1.33,0,1,0-1.33,1.33Z"/><path class="cls-1" d="M7,72.14a1.33,1.33,0,1,0,1.89,0A1.4,1.4,0,0,0,7,72.14Z"/><path class="cls-1" d="M18.6,57.14H8a1.33,1.33,0,0,0-1.33,1.33v8A1.34,1.34,0,0,0,8,67.77H18.6a1.33,1.33,0,0,0,1.33-1.33v-8A1.32,1.32,0,0,0,18.6,57.14Zm-1.33,8h-8V59.79h8Z"/><path class="cls-1" d="M13.29,63.78a1.32,1.32,0,0,0,1.33-1.3v0a1.38,1.38,0,0,0-.39-.94,1.4,1.4,0,0,0-1.89,0,1.37,1.37,0,0,0-.38.94,1.31,1.31,0,0,0,1.3,1.33Z"/><path class="cls-1" d="M12,55.81h2.66a1.33,1.33,0,1,0,0-2.66H12a1.33,1.33,0,1,0,0,2.66Z"/><path class="cls-1" d="M48.57,16.08l-2.06,1-2.07-1a1.38,1.38,0,0,0-1.19,0l-2.06,1-2.06-1a1.38,1.38,0,0,0-1.19,0l-2.06,1-2.07-1a1.38,1.38,0,0,0-1.19,0l-2.06,1-2.06-1a1.38,1.38,0,0,0-1.19,0l-2.66,1.33a1.33,1.33,0,0,0,1.19,2.38h0l2.06-1,2.07,1a1.31,1.31,0,0,0,1.19,0l2.06-1,2.06,1a1.31,1.31,0,0,0,1.19,0l2.06-1,2.07,1a1.31,1.31,0,0,0,1.19,0l2.06-1,2.06,1a1.31,1.31,0,0,0,1.19,0l2.66-1.33a1.33,1.33,0,0,0-1.19-2.38Z"/><path class="cls-1" d="M48.57,24.06l-2.06,1-2.07-1a1.31,1.31,0,0,0-1.19,0l-2.06,1-2.06-1a1.31,1.31,0,0,0-1.19,0l-2.06,1-2.07-1a1.31,1.31,0,0,0-1.19,0l-2.06,1-2.06-1a1.31,1.31,0,0,0-1.19,0l-2.66,1.33a1.33,1.33,0,1,0,1.19,2.37l2.06-1,2.07,1a1.31,1.31,0,0,0,1.19,0l2.06-1,2.06,1a1.31,1.31,0,0,0,1.19,0l2.06-1,2.07,1a1.31,1.31,0,0,0,1.19,0l2.06-1,2.06,1a1.31,1.31,0,0,0,1.19,0l2.66-1.32a1.34,1.34,0,0,0,.59-1.79A1.32,1.32,0,0,0,48.57,24.06Z"/><path class="cls-1" d="M48.57,32l-2.06,1-2.07-1a1.31,1.31,0,0,0-1.19,0l-2.06,1-2.06-1a1.31,1.31,0,0,0-1.19,0l-2.06,1-2.07-1a1.31,1.31,0,0,0-1.19,0l-2.06,1L28.5,32a1.31,1.31,0,0,0-1.19,0l-2.66,1.33a1.33,1.33,0,0,0,1.19,2.38l2.06-1,2.07,1a1.38,1.38,0,0,0,1.19,0l2.06-1,2.06,1a1.38,1.38,0,0,0,1.19,0l2.06-1,2.07,1a1.38,1.38,0,0,0,1.19,0l2.06-1,2.06,1a1.38,1.38,0,0,0,1.19,0l2.66-1.33a1.34,1.34,0,0,0,.59-1.79A1.32,1.32,0,0,0,48.57,32Z"/><path class="cls-1" d="M48.57,40l-2.06,1-2.07-1a1.38,1.38,0,0,0-1.19,0l-2.06,1-2.06-1a1.38,1.38,0,0,0-1.19,0l-2.06,1-2.07-1a1.38,1.38,0,0,0-1.19,0L30,41.33a1.33,1.33,0,1,0,1.19,2.38l2.06-1,2.06,1a1.31,1.31,0,0,0,1.19,0l2.06-1,2.07,1a1.31,1.31,0,0,0,1.19,0l2.06-1,2.06,1a1.31,1.31,0,0,0,1.19,0l2.66-1.33A1.33,1.33,0,0,0,48.57,40Z"/><path class="cls-1" d="M48.57,48l-2.06,1-2.07-1a1.31,1.31,0,0,0-1.19,0l-2.06,1-2.06-1a1.31,1.31,0,0,0-1.19,0l-2.06,1-2.07-1a1.31,1.31,0,0,0-1.19,0L30,49.3a1.32,1.32,0,0,0-.6,1.78,1.34,1.34,0,0,0,1.79.6l2.06-1,2.06,1a1.31,1.31,0,0,0,1.19,0l2.06-1,2.07,1a1.31,1.31,0,0,0,1.19,0l2.06-1,2.06,1a1.31,1.31,0,0,0,1.19,0l2.66-1.33A1.33,1.33,0,0,0,48.57,48Z"/><path class="cls-1" d="M48.57,56l-2.06,1-2.07-1a1.31,1.31,0,0,0-1.19,0l-2.06,1-2.06-1a1.31,1.31,0,0,0-1.19,0l-2.06,1-2.07-1a1.31,1.31,0,0,0-1.19,0L30,57.28a1.33,1.33,0,1,0,1.19,2.37l2.06-1,2.06,1a1.31,1.31,0,0,0,1.19,0l2.06-1,2.07,1a1.31,1.31,0,0,0,1.19,0l2.06-1,2.06,1a1.31,1.31,0,0,0,1.19,0l2.66-1.32a1.34,1.34,0,0,0,.59-1.79A1.32,1.32,0,0,0,48.57,56Z"/><path class="cls-1" d="M63.76,11.88a1,1,0,0,0-.07-.35s0-.09,0-.13a1.42,1.42,0,0,0-.26-.38h0L52.76.39h0a1.42,1.42,0,0,0-.38-.26l-.12,0A1.53,1.53,0,0,0,51.9,0l-.08,0H12a1.32,1.32,0,0,0-1.33,1.33V37.21H4a4,4,0,0,0-4,4V81.05a4,4,0,0,0,4,4h18.6a4,4,0,0,0,4-4V74.41H62.45a1.32,1.32,0,0,0,1.33-1.33V12A.19.19,0,0,0,63.76,11.88Zm-4.52-1.25H53.15V4.54ZM2.66,41.19A1.33,1.33,0,0,1,4,39.86h18.6a1.34,1.34,0,0,1,1.33,1.33v1.33H2.66ZM23.92,73.08v4H2.66V74.41H4a1.33,1.33,0,0,0,0-2.66H2.66V45.18H23.92v2.66H21.26a1.33,1.33,0,1,0,0,2.65h2.66Zm0,8a1.33,1.33,0,0,1-1.33,1.33H4a1.32,1.32,0,0,1-1.33-1.33V79.73H23.92Zm37.2-9.3H26.58V41.19a4,4,0,0,0-4-4h-9.3V2.66h37.2V12a1.34,1.34,0,0,0,1.33,1.33h9.3Z"/></g></g></svg>