<svg xmlns="http://www.w3.org/2000/svg" viewBox="0 0 80.84 80.84"><defs><style>.cls-1{fill:#ff6145;}</style></defs><g id="Layer_2" data-name="Layer 2"><g id="Layer_1-2" data-name="Layer 1"><path class="cls-1" d="M75.45,12.36h0a1.35,1.35,0,0,0,.91,1.27,2.7,2.7,0,0,1,1.79,2.54V56.59H2.69V16.17a2.7,2.7,0,0,1,1.79-2.54,1.35,1.35,0,0,0,.91-1.27h0a1.36,1.36,0,0,0-1.81-1.27A5.4,5.4,0,0,0,0,16.17V62a5.39,5.39,0,0,0,5.39,5.39H31.87L28.64,78.15h-3v2.69H55.24V78.15h-3L49,67.37H75.45A5.39,5.39,0,0,0,80.84,62V16.17a5.4,5.4,0,0,0-3.57-5.08A1.36,1.36,0,0,0,75.45,12.36ZM49.39,78.15H31.45l3.24-10.78H46.15ZM78.15,62a2.69,2.69,0,0,1-2.7,2.69H5.39A2.69,2.69,0,0,1,2.69,62v-2.7H78.15Z"/><path class="cls-1" d="M10.78,5.39a2.7,2.7,0,0,1,2.69-2.7H56.59V8.08H45.81a1.35,1.35,0,0,0-1,.4l-26.95,27a1.33,1.33,0,0,0,0,1.9L34.08,53.5a1.33,1.33,0,0,0,1.9,0l27-26.95a1.35,1.35,0,0,0,.4-.95V16.17h6.73V52.55a1.35,1.35,0,0,0,1.35,1.34h0a1.35,1.35,0,0,0,1.35-1.34V14.82s0-.05,0-.08a1.36,1.36,0,0,0-.07-.35.65.65,0,0,0,0-.13,1.51,1.51,0,0,0-.27-.39L58.88.39a1.16,1.16,0,0,0-.39-.26l-.13,0A1.37,1.37,0,0,0,58,0S58,0,57.94,0H13.47A5.39,5.39,0,0,0,8.08,5.39V52.55a1.35,1.35,0,0,0,1.35,1.34h0a1.34,1.34,0,0,0,1.35-1.34ZM60.63,25,35,50.64,20.77,36.38l25.6-25.6H56.72a6.78,6.78,0,0,0,3.91,4.82Zm7.53-11.57H63.33a4,4,0,0,1-4-4V4.6Z"/><rect class="cls-1" x="13.47" y="5.39" width="2.69" height="2.69"/><rect class="cls-1" x="18.86" y="5.39" width="2.69" height="2.69"/><rect class="cls-1" x="24.25" y="5.39" width="2.69" height="2.69"/><circle class="cls-1" cx="55.24" cy="16.17" r="2.69"/><rect class="cls-1" x="30.32" y="33.08" width="2.69" height="13.34" transform="translate(-18.83 34.03) rotate(-45)"/><rect class="cls-1" x="34.36" y="29.04" width="2.69" height="13.34" transform="translate(-14.79 35.7) rotate(-45)"/><path class="cls-1" d="M51.17,21.29a1.35,1.35,0,0,0-1.05-1.06l-6.74-1.35a1.38,1.38,0,0,0-1.21.37l-4.05,4a1.37,1.37,0,0,0-.36,1.22l1.34,6.73a1.36,1.36,0,0,0,1.06,1.06l6.74,1.35a1.09,1.09,0,0,0,.26,0,1.36,1.36,0,0,0,1-.39l4-4A1.35,1.35,0,0,0,52.52,28Zm-4.46,9.58-5.14-1-1-5.14,3-3,5.15,1,1,5.15Z"/><rect class="cls-1" x="13.47" y="13.47" width="13.47" height="2.69"/><rect class="cls-1" x="13.47" y="18.86" width="13.47" height="2.69"/><rect class="cls-1" x="13.47" y="24.25" width="8.08" height="2.69"/><rect class="cls-1" x="64.67" y="40.42" width="2.69" height="2.69"/><rect class="cls-1" x="53.89" y="45.81" width="13.47" height="2.69"/><rect class="cls-1" x="53.89" y="51.2" width="13.47" height="2.69"/><rect class="cls-1" x="53.89" y="40.42" width="8.08" height="2.69"/><rect class="cls-1" x="13.47" y="45.81" width="9.43" height="2.69"/><rect class="cls-1" x="13.47" y="51.2" width="13.47" height="2.69"/></g></g></svg>