<svg xmlns="http://www.w3.org/2000/svg" viewBox="0 0 84.22 80.35"><defs><style>.cls-1{fill:#ff6145;}</style></defs><g id="Layer_2" data-name="Layer 2"><g id="Layer_1-2" data-name="Layer 1"><path class="cls-1" d="M84.09,49.31V4.08A4.22,4.22,0,0,0,79.89,0H4.2A4.24,4.24,0,0,0,0,4.2V59.88a4.24,4.24,0,0,0,4.2,4.21H31.6l-4.08,8.66H14A1.2,1.2,0,0,0,12.7,74v5A1.2,1.2,0,0,0,14,80.35H70.25a1.2,1.2,0,0,0,1.27-1.27V74a1.2,1.2,0,0,0-1.27-1.28H56.7l-4.08-8.66H80a4.24,4.24,0,0,0,4.21-4.21ZM69,77.81H15.25V75.3H69ZM30.32,72.75l4.08-8.66H49.69l4.08,8.66ZM4.2,2.55H80A1.66,1.66,0,0,1,81.54,4.2v44H69.44L60,38a1.36,1.36,0,0,0-1.78-.13L55.81,40,52.88,37a18,18,0,0,0,4.84-10.83H68.29l-3.82,3.82a1.26,1.26,0,0,0,1.78,1.79L72,26a1.33,1.33,0,0,0,.63-1.14,1.15,1.15,0,0,0-.38-.9l-5.86-6.11a1.26,1.26,0,0,0-1.78,1.78l4,3.95H57.84A18.25,18.25,0,0,0,27.27,11.21a17.79,17.79,0,0,0-5.86,12.62v.76H11.21a1.28,1.28,0,0,0,0,2.55H21.66a17.58,17.58,0,0,0,4.59,9.68A18.27,18.27,0,0,0,51,38.61l2.93,3-2.42,2.17a1.23,1.23,0,0,0,0,1.78l2.17,2.3H2.55V4.2A1.68,1.68,0,0,1,4.2,2.55ZM54.15,45,59,40.52l9.43,10.19a3.23,3.23,0,0,1-.13,4.59A3.35,3.35,0,0,1,63.71,55ZM24,24a14.84,14.84,0,0,1,5.1-10.83,15.81,15.81,0,0,1,22.17.9,15.08,15.08,0,0,1,4.08,9.55H51.35l-2.42-7.52a1.23,1.23,0,0,0-1.15-.89,1.52,1.52,0,0,0-1.27.89l-2.94,8.16h-3a1.32,1.32,0,0,0-1.15.64L36.44,30.2,33.38,15.54a1.38,1.38,0,0,0-1.14-1,1.42,1.42,0,0,0-1.28.77l-4.08,9.3H23.83A1.2,1.2,0,0,0,24,24Zm3.95,3.19a1.12,1.12,0,0,0,1.15-.77L31.85,20l3.06,14.15a1.39,1.39,0,0,0,1,1h.13a1.33,1.33,0,0,0,1.14-.64l4.21-7.65h3.18A1.23,1.23,0,0,0,45.74,26l1.91-5.48,1.53,4.84a1.27,1.27,0,0,0,1.27.9H55.3a15.31,15.31,0,0,1-5,9.81,15.7,15.7,0,0,1-26.12-8.92Zm52,34.4H4.2a1.68,1.68,0,0,1-1.65-1.66v-9.3H55.93l5.86,6.25a6,6,0,0,0,8.29.38,5.78,5.78,0,0,0,1.4-6.63H81.67v9.3A1.9,1.9,0,0,1,79.89,61.54Z"/><path class="cls-1" d="M42.05,51.72a4.21,4.21,0,1,0,4.2,4.21A4.24,4.24,0,0,0,42.05,51.72Zm0,5.86a1.66,1.66,0,1,1,1.65-1.65A1.68,1.68,0,0,1,42.05,57.58Z"/></g></g></svg>