<svg id="Layer_1" data-name="Layer 1" xmlns="http://www.w3.org/2000/svg" viewBox="0 0 85 85"><defs><style>.cls-1,.cls-2{fill:#ff6145;}.cls-1{fill-rule:evenodd;}</style></defs><path class="cls-1" d="M15.41,55.57H30.49a2.24,2.24,0,0,0,1.58-.66,2.22,2.22,0,0,0,.65-1.58V38.25A2.22,2.22,0,0,0,30.49,36H15.41a2.22,2.22,0,0,0-1.58.65,2.24,2.24,0,0,0-.66,1.58V53.33a2.25,2.25,0,0,0,2.24,2.24ZM16,38.81h14v14H16Z"/><path class="cls-1" d="M58.42,58.36h-43a2.25,2.25,0,0,0-2.24,2.24v9.49a2.25,2.25,0,0,0,2.24,2.24h43a2.25,2.25,0,0,0,2.24-2.24V60.6A2.21,2.21,0,0,0,60,59,2.24,2.24,0,0,0,58.42,58.36Zm-.56,11.17H16V61.15H57.86Z"/><path class="cls-1" d="M35.52,43a1.4,1.4,0,0,0,1.39,1.4H59.26a1.4,1.4,0,0,0,0-2.8H36.91A1.4,1.4,0,0,0,35.52,43Z"/><path class="cls-1" d="M59.26,47.19H36.91a1.4,1.4,0,0,0,0,2.79H59.26a1.4,1.4,0,1,0,0-2.79Z"/><path class="cls-1" d="M59.26,52.77H36.91a1.4,1.4,0,0,0,0,2.8H59.26a1.4,1.4,0,0,0,0-2.8Z"/><circle class="cls-2" cx="8.98" cy="20.65" r="1.4"/><circle class="cls-2" cx="14.57" cy="20.65" r="1.4"/><circle class="cls-2" cx="20.16" cy="20.65" r="1.4"/><path class="cls-1" d="M59.26,8.09a5.59,5.59,0,1,0,5.58,5.58A5.59,5.59,0,0,0,59.26,8.09Zm0,8.37a2.79,2.79,0,1,1,2.79-2.79A2.79,2.79,0,0,1,59.26,16.46Z"/><path class="cls-1" d="M81.77,3.73a4.16,4.16,0,0,0-3-1.23H39.71a4.18,4.18,0,0,0-4.19,4.19v7H6.19A4.2,4.2,0,0,0,2,17.86V79.31A4.2,4.2,0,0,0,6.19,83.5H67.64a4.2,4.2,0,0,0,4.19-4.19V34.62h7A4.2,4.2,0,0,0,83,30.43V6.69A4.16,4.16,0,0,0,81.77,3.73Zm-77,14.13a1.4,1.4,0,0,1,1.4-1.4H35.52v8.38H4.79ZM69,79.31a1.4,1.4,0,0,1-1.39,1.4H6.19a1.4,1.4,0,0,1-1.4-1.4V27.64H35.52v2.79a4.18,4.18,0,0,0,4.19,4.19H41.1v2.17a2.24,2.24,0,0,0,3.82,1.58l3.74-3.75H69Zm-14-47.48V29a4.19,4.19,0,0,1,8.38,0v2.8Zm25.14-1.4a1.4,1.4,0,0,1-1.4,1.4H66.24V29a7,7,0,0,0-14,0v2.8H48.09a1.37,1.37,0,0,0-1,.41l-3.2,3.2V33.22a1.4,1.4,0,0,0-1.4-1.39H39.71a1.4,1.4,0,0,1-1.4-1.4V6.69a1.4,1.4,0,0,1,1.4-1.4h39.1a1.4,1.4,0,0,1,1.4,1.4Z"/></svg>