<svg xmlns="http://www.w3.org/2000/svg" viewBox="0 0 82.89 82.77"><defs><style>.cls-1{fill:#ff6145;}</style></defs><g id="Layer_2" data-name="Layer 2"><g id="Layer_1-2" data-name="Layer 1"><path class="cls-1" d="M80.88,68.59H79.5V14.92a5.29,5.29,0,0,0-5.26-5.26H65.08a1.18,1.18,0,0,0-1.25,1.25,1.18,1.18,0,0,0,1.25,1.25h9.16a2.9,2.9,0,0,1,2.88,2.76V68.59H5.89V14.92a2.82,2.82,0,0,1,2.89-2.76h9a1.18,1.18,0,0,0,1.25-1.25,1.18,1.18,0,0,0-1.25-1.25H8.65a5.41,5.41,0,0,0-5.39,5.26V68.59H1.88A1.93,1.93,0,0,0,0,70.48,12.31,12.31,0,0,0,12.29,82.77H70.6A12.31,12.31,0,0,0,82.89,70.48,2.14,2.14,0,0,0,80.88,68.59ZM70.48,80.26H12.29A9.85,9.85,0,0,1,2.51,71.1H80.26A9.77,9.77,0,0,1,70.48,80.26Z"/><path class="cls-1" d="M49,74.49H33.73a1.26,1.26,0,0,0,0,2.51H49a1.19,1.19,0,0,0,1.26-1.26A1.26,1.26,0,0,0,49,74.49Z"/><path class="cls-1" d="M17.68,17.43a1.26,1.26,0,1,0,0-2.51H11.16a1.18,1.18,0,0,0-1.25,1.26v48.4a1.19,1.19,0,0,0,1.25,1.26H71.6a1.19,1.19,0,0,0,1.26-1.26V16.18a1.19,1.19,0,0,0-1.26-1.26H65.71a1.26,1.26,0,0,0,0,2.51h4.64v45.9H12.41V17.43Z"/><path class="cls-1" d="M21.57,49.66h39.5a1.18,1.18,0,0,0,1.25-1.25V12.92A1.35,1.35,0,0,0,62,12h0L49.78.38h0A1.35,1.35,0,0,0,48.91,0H21.57a1.18,1.18,0,0,0-1.25,1.25V48.41A1.25,1.25,0,0,0,21.57,49.66ZM50.16,4.14l7.9,7.52h-7.9ZM22.82,2.51H47.65V12.92a1.18,1.18,0,0,0,1.26,1.25h11v33H22.82Z"/><path class="cls-1" d="M27,9H43.64a1.18,1.18,0,0,0,1.25-1.26,1.18,1.18,0,0,0-1.25-1.25H27a1.18,1.18,0,0,0-1.25,1.25A1.18,1.18,0,0,0,27,9Z"/><path class="cls-1" d="M27,15.93H43.64a1.26,1.26,0,0,0,0-2.51H27a1.18,1.18,0,0,0-1.25,1.25A1.26,1.26,0,0,0,27,15.93Z"/><path class="cls-1" d="M55.05,24.58H27a1.26,1.26,0,0,0,0,2.51H55.05a1.19,1.19,0,0,0,1.26-1.26A1.35,1.35,0,0,0,55.05,24.58Z"/><path class="cls-1" d="M55.05,32.73H27a1.26,1.26,0,0,0,0,2.51H55.05A1.19,1.19,0,0,0,56.31,34,1.26,1.26,0,0,0,55.05,32.73Z"/><path class="cls-1" d="M55.05,40.88H27a1.26,1.26,0,0,0,0,2.51H55.05a1.19,1.19,0,0,0,1.26-1.25A1.26,1.26,0,0,0,55.05,40.88Z"/><path class="cls-1" d="M24.08,61.7H51.41l14-3.51a1.36,1.36,0,0,0,1-1.26,1.21,1.21,0,0,0-1-1.25l-14-3.51H24.08a4.76,4.76,0,0,0-4.77,4.76A4.69,4.69,0,0,0,24.08,61.7Zm28.34-2.76V55.05l7.65,2Zm-2.51.25H29V54.55H49.91ZM24.08,54.68h2.38v4.64H24.08a2.25,2.25,0,0,1-2.26-2.26A2.2,2.2,0,0,1,24.08,54.68Z"/></g></g></svg>