<svg id="Layer_1" data-name="Layer 1" xmlns="http://www.w3.org/2000/svg" viewBox="0 0 85 85"><defs><style>.cls-1{fill:#ff6145;}</style></defs><path class="cls-1" d="M9.27,18.52A7.3,7.3,0,0,0,2,25.79v40a7.3,7.3,0,0,0,7.27,7.27H74.73A7.3,7.3,0,0,0,82,65.79v-40a7.3,7.3,0,0,0-7.27-7.27Zm0,3.64H26.8l3.64,7.27H5.64V25.79A3.59,3.59,0,0,1,9.27,22.16Zm21.59,0H74.73a3.59,3.59,0,0,1,3.63,3.63v3.64H34.5ZM12,24a1.82,1.82,0,1,0,1.82,1.82A1.83,1.83,0,0,0,12,24Zm5.45,0a1.82,1.82,0,1,0,1.82,1.82A1.82,1.82,0,0,0,17.45,24Zm5.46,0a1.82,1.82,0,1,0,1.82,1.82A1.82,1.82,0,0,0,22.91,24ZM5.64,33.06H78.36V65.79a3.59,3.59,0,0,1-3.63,3.64H9.27a3.59,3.59,0,0,1-3.63-3.64Zm5.28,3.64a1.82,1.82,0,0,0-1.65,1.82V56.7a1.82,1.82,0,0,0,1.82,1.82H27.45a1.81,1.81,0,0,0,1.82-1.82V38.52a1.82,1.82,0,0,0-1.82-1.82H10.92Zm23.64,0a1.82,1.82,0,1,0,.17,3.64H49.27a1.82,1.82,0,1,0,0-3.64H34.56ZM12.91,40.34H25.64V54.88H12.91ZM56.38,44a1.82,1.82,0,0,0-1.65,1.82V64a1.81,1.81,0,0,0,1.82,1.82H72.91A1.82,1.82,0,0,0,74.73,64V45.79A1.83,1.83,0,0,0,72.91,44H56.38ZM34.56,45.79a1.82,1.82,0,1,0,.17,3.64H49.27a1.82,1.82,0,1,0,0-3.64H34.56Zm23.8,1.82H71.09V62.16H58.36Zm-23.8,7.27a1.82,1.82,0,1,0,.17,3.64H49.27a1.82,1.82,0,1,0,0-3.64H34.56ZM10.92,62.16a1.82,1.82,0,0,0,.17,3.63H49.27a1.82,1.82,0,1,0,0-3.63H10.92Z"/></svg>