<svg xmlns="http://www.w3.org/2000/svg" viewBox="0 0 84 84"><defs><style>.cls-1{fill:#ff6145;}</style></defs><g id="Layer_2" data-name="Layer 2"><g id="Layer_1-2" data-name="Layer 1"><rect class="cls-1" x="10.84" y="59.61" width="27.1" height="2.71"/><rect class="cls-1" x="10.84" y="54.19" width="27.1" height="2.71"/><rect class="cls-1" x="10.84" y="65.03" width="27.1" height="2.71"/><rect class="cls-1" x="35.23" y="70.45" width="2.71" height="2.71"/><rect class="cls-1" x="10.84" y="70.45" width="21.68" height="2.71"/><rect class="cls-1" x="59.61" y="27.1" width="13.55" height="2.71"/><rect class="cls-1" x="56.9" y="32.52" width="16.26" height="2.71"/><rect class="cls-1" x="70.45" y="37.94" width="2.71" height="2.71"/><rect class="cls-1" x="56.9" y="37.94" width="10.84" height="2.71"/><path class="cls-1" d="M54.19,67.63v5.53h19v-19H64.1a9.48,9.48,0,1,0-9.91,13.44Zm8.13-9.37A6.79,6.79,0,0,1,56.9,64.9v-8h5.29A6.75,6.75,0,0,1,62.32,58.26Zm8.13-1.36V70.45H56.9V67.63A9.48,9.48,0,0,0,65,58.26a8.81,8.81,0,0,0-.11-1.36Zm-14.9-5.42a6.75,6.75,0,0,1,5.38,2.71H54.19V64.9a6.78,6.78,0,0,1,1.36-13.42Z"/><rect class="cls-1" x="40.65" width="2.71" height="5.42"/><rect class="cls-1" x="30.48" y="2.72" width="2.71" height="5.42" transform="translate(1.55 16.65) rotate(-30)"/><rect class="cls-1" x="23.04" y="10.16" width="2.71" height="5.42" transform="translate(1.05 27.57) rotate(-60)"/><rect class="cls-1" x="56.89" y="11.52" width="5.42" height="2.71" transform="translate(1.55 31.52) rotate(-29.99)"/><rect class="cls-1" x="49.45" y="4.08" width="5.42" height="2.71" transform="translate(21.38 47.89) rotate(-60.01)"/><path class="cls-1" d="M78.58,24.39v-.64a2.07,2.07,0,0,0-2.07-2.07H56.83a14.89,14.89,0,0,0-29.66,0h-19a2.71,2.71,0,0,0-2.71,2.71h-2A3.38,3.38,0,0,0,0,27.77V81.64A2.36,2.36,0,0,0,2.36,84H81.81A2.19,2.19,0,0,0,84,81.81V27.16a2.77,2.77,0,0,0-2.77-2.77ZM32.52,34.51v3.43H29.81v2.71h2.71v5.41h2.71v2.71H13.55v-19H28.74A14.83,14.83,0,0,0,32.52,34.51Zm2.71,8.84v-2.7H48.77v2.7ZM42,25.74A2.71,2.71,0,1,1,44.71,23,2.71,2.71,0,0,1,42,25.74Zm9.48,20.32V40.65h2.71V37.94H51.48V34.51a14.76,14.76,0,0,0,5.35-10.12h19V75.87H43.35V46.06ZM42,10.84A12.21,12.21,0,0,1,54.19,23a12.06,12.06,0,0,1-4.88,9.74l-.54.41v4.76H43.35V28.26a5.42,5.42,0,1,0-2.7,0v9.68H35.23V33.18l-.54-.41A12.06,12.06,0,0,1,29.81,23,12.21,12.21,0,0,1,42,10.84ZM8.13,24.39h19a14.56,14.56,0,0,0,.51,2.71H10.84V51.48h27.1V46.06h2.71V75.87H8.13ZM2.71,27.1H5.42V78.58H40.65v2.71H2.71ZM81.29,81.29H43.35V78.58H78.58V27.1h2.71Z"/></g></g></svg>