<svg xmlns="http://www.w3.org/2000/svg" viewBox="0 0 84.48 84.49"><defs><style>.cls-1,.cls-2{fill:#ff6145;}.cls-1{fill-rule:evenodd;}</style></defs><g id="Layer_2" data-name="Layer 2"><g id="Layer_1-2" data-name="Layer 1"><path class="cls-1" d="M32,37.29A2.32,2.32,0,0,0,29.71,35H14a2.3,2.3,0,0,0-1.64.68,2.33,2.33,0,0,0-.69,1.65V53A2.34,2.34,0,0,0,14,55.35H29.71a2.36,2.36,0,0,0,1.65-.68A2.32,2.32,0,0,0,32,53Zm-17.47.58V52.44H29.13V37.87Z"/><path class="cls-1" d="M61.17,60.59a2.32,2.32,0,0,0-.68-1.65,2.36,2.36,0,0,0-1.65-.68H14a2.34,2.34,0,0,0-2.33,2.33V70.5A2.36,2.36,0,0,0,14,72.83H58.84a2.33,2.33,0,0,0,1.65-.69,2.3,2.3,0,0,0,.68-1.64Zm-46.6,9.32H58.26V61.17H14.57Z"/><path class="cls-1" d="M36.41,43.7H59.72a1.46,1.46,0,0,0,0-2.92H36.41a1.46,1.46,0,0,0,0,2.92Z"/><path class="cls-1" d="M36.41,49.52H59.72a1.46,1.46,0,0,0,0-2.91H36.41a1.46,1.46,0,0,0,0,2.91Z"/><path class="cls-1" d="M36.41,55.35H59.72a1.46,1.46,0,0,0,0-2.91H36.41a1.46,1.46,0,0,0,0,2.91Z"/><circle class="cls-2" cx="7.28" cy="18.94" r="1.46"/><circle class="cls-2" cx="13.11" cy="18.94" r="1.46"/><circle class="cls-2" cx="18.94" cy="18.94" r="1.46"/><path class="cls-1" d="M59.72,5.83a5.83,5.83,0,1,0,5.82,5.82A5.83,5.83,0,0,0,59.72,5.83Zm0,2.91a2.92,2.92,0,1,1-2.92,2.91A2.91,2.91,0,0,1,59.72,8.74Z"/><path class="cls-1" d="M35,11.65H4.37A4.37,4.37,0,0,0,0,16V80.11a4.37,4.37,0,0,0,4.37,4.37H59.72a1.46,1.46,0,0,0,0-2.91H4.37a1.47,1.47,0,0,1-1.46-1.46V26.22H8.74a1.46,1.46,0,0,0,0-2.92H2.91V16a1.46,1.46,0,0,1,1.46-1.45H35V23.3H11.65a1.46,1.46,0,0,0,0,2.92H35v2.91a4.37,4.37,0,0,0,4.37,4.37h1.45v2.26a2.33,2.33,0,0,0,4,1.65l3.91-3.91H69.91V80.11a1.46,1.46,0,0,1-1.45,1.46H65.54a1.46,1.46,0,0,0,0,2.91h2.92a4.37,4.37,0,0,0,4.37-4.37V33.5h7.28a4.37,4.37,0,0,0,4.37-4.37V4.37A4.37,4.37,0,0,0,80.11,0H39.33A4.37,4.37,0,0,0,35,4.37ZM67,30.59H80.11a1.47,1.47,0,0,0,1.46-1.46V4.37a1.47,1.47,0,0,0-1.46-1.46H39.33a1.46,1.46,0,0,0-1,.43,1.42,1.42,0,0,0-.43,1V29.13a1.42,1.42,0,0,0,.43,1,1.46,1.46,0,0,0,1,.43h2.91A1.46,1.46,0,0,1,43.7,32v2.31L47,31a1.45,1.45,0,0,1,1-.42h4.37V27.67a7.28,7.28,0,1,1,14.56,0Zm-2.91,0V27.67a4.37,4.37,0,0,0-8.74,0v2.92Z"/><polygon class="cls-1" points="56.36 81.57 67.92 81.57 67.92 84.48 56.05 84.49 56.36 81.57"/><polygon class="cls-1" points="11.65 23.3 11.65 26.22 4.96 26.22 5.54 23.3 11.65 23.3"/></g></g></svg>