<svg xmlns="http://www.w3.org/2000/svg" viewBox="0 0 82.77 82.76"><defs><style>.cls-1{fill:#ff6145;}</style></defs><g id="Layer_2" data-name="Layer 2"><g id="Layer_1-2" data-name="Layer 1"><path class="cls-1" d="M74.49,62.82V50.24l1.82-.68a3.73,3.73,0,0,0,2.44-3.74A3.7,3.7,0,0,0,76,42.38L74.49,42V5.52A5.53,5.53,0,0,0,69,0H5.52A5.53,5.53,0,0,0,0,5.52V69a5.53,5.53,0,0,0,5.52,5.52H42L42.38,76a3.79,3.79,0,0,0,3.47,2.78,3.78,3.78,0,0,0,3.71-2.45l.68-1.81H62.83L70,81.69a3.66,3.66,0,0,0,5.17,0l6.49-6.48a3.66,3.66,0,0,0,0-5.17Zm-2.76-2.75-6.4-6.41,6.4-2.39ZM5.52,2.76H69a2.77,2.77,0,0,1,2.76,2.76V11h-69V5.52A2.77,2.77,0,0,1,5.52,2.76Zm0,69A2.77,2.77,0,0,1,2.76,69V13.79h69V41.25L36.46,31.86a3.79,3.79,0,0,0-2,0,3.85,3.85,0,0,0-1.68,1,3.77,3.77,0,0,0-1,1.68,3.69,3.69,0,0,0,0,2l9.41,35.27Zm45.75,0,2.39-6.4,6.4,6.4Zm28.47,1.53-6.48,6.49a.94.94,0,0,1-1.28,0L54.1,61.87a1.38,1.38,0,0,0-1-.4,1.38,1.38,0,0,0-.9.33,1.29,1.29,0,0,0-.39.56L47,75.33a1,1,0,0,1-.39.5A1.06,1.06,0,0,1,46,76a1.07,1.07,0,0,1-.59-.22,1,1,0,0,1-.33-.53L34.5,35.75a1,1,0,0,1,0-.52,1.07,1.07,0,0,1,.26-.45,1.13,1.13,0,0,1,.45-.26,1.19,1.19,0,0,1,.53,0L75.26,45.05a1,1,0,0,1,.53.33A1,1,0,0,1,76,46a1,1,0,0,1-.16.62,1.09,1.09,0,0,1-.5.4l-13,4.85a1.36,1.36,0,0,0-.86,1,1.42,1.42,0,0,0,0,.68,1.54,1.54,0,0,0,.35.59L79.74,72a.9.9,0,0,1,.26.64.82.82,0,0,1-.06.34A1,1,0,0,1,79.74,73.26Z"/><path class="cls-1" d="M6.9,8.28H8.28a1.38,1.38,0,0,0,0-2.76H6.9a1.38,1.38,0,0,0,0,2.76Z"/><path class="cls-1" d="M13.79,8.28h1.38a1.39,1.39,0,0,0,1-.41,1.38,1.38,0,0,0-1-2.35H13.79a1.37,1.37,0,0,0-1,.4,1.39,1.39,0,0,0,1,2.36Z"/><path class="cls-1" d="M20.69,8.28h1.38a1.39,1.39,0,0,0,1-.41,1.39,1.39,0,0,0,0-1.95,1.38,1.38,0,0,0-1-.4H20.69a1.34,1.34,0,0,0-1,.4,1.36,1.36,0,0,0,0,2A1.35,1.35,0,0,0,20.69,8.28Z"/><path class="cls-1" d="M59.31,8.28h8.28a1.39,1.39,0,0,0,1-.41,1.39,1.39,0,0,0,0-1.95,1.38,1.38,0,0,0-1-.4H59.31a1.37,1.37,0,0,0-1,.4,1.39,1.39,0,0,0,1,2.36Z"/><path class="cls-1" d="M25.8,23.85a1.39,1.39,0,0,0-1-.39,1.4,1.4,0,0,0-1,.41,1.33,1.33,0,0,0-.4,1,1.35,1.35,0,0,0,.38,1L28,29.94a1.4,1.4,0,0,0,1,.39,1.42,1.42,0,0,0,1-.41,1.37,1.37,0,0,0,.4-1,1.4,1.4,0,0,0-.39-1Z"/><path class="cls-1" d="M26,44.09l-5.66,1.52a1.3,1.3,0,0,0-.78.56,1.39,1.39,0,0,0-.22.95,1.35,1.35,0,0,0,.45.85,1.42,1.42,0,0,0,.91.35,1.49,1.49,0,0,0,.36,0l5.65-1.52a1.33,1.33,0,0,0,.84-.64,1.42,1.42,0,0,0,.14-1,1.46,1.46,0,0,0-.64-.84A1.38,1.38,0,0,0,26,44.09Z"/><path class="cls-1" d="M26.67,36,21,34.49a1.45,1.45,0,0,0-.55-.05,1.38,1.38,0,0,0-.52.17,1.57,1.57,0,0,0-.42.35,1.54,1.54,0,0,0-.24.5,1.4,1.4,0,0,0,0,.54,1.36,1.36,0,0,0,.19.52,1.32,1.32,0,0,0,.37.41,1.52,1.52,0,0,0,.5.23L26,38.67a1.12,1.12,0,0,0,.36,0,1.37,1.37,0,0,0,.91-.34,1.43,1.43,0,0,0,.46-.86,1.45,1.45,0,0,0-.22-1,1.4,1.4,0,0,0-.79-.56Z"/><path class="cls-1" d="M45.06,27.64a1.49,1.49,0,0,0,.36.05,1.34,1.34,0,0,0,.84-.29,1.35,1.35,0,0,0,.49-.74L48.27,21a1.45,1.45,0,0,0,0-.55,1.38,1.38,0,0,0-.17-.52,1.57,1.57,0,0,0-.35-.42,1.59,1.59,0,0,0-.49-.24,1.46,1.46,0,0,0-.55,0,1.42,1.42,0,0,0-.52.19,1.18,1.18,0,0,0-.4.37,1.34,1.34,0,0,0-.23.5L44.09,26A1.34,1.34,0,0,0,44.23,27,1.41,1.41,0,0,0,45.06,27.64Z"/><path class="cls-1" d="M36,26.67a1.39,1.39,0,0,0,1.33,1,1.49,1.49,0,0,0,.36-.05,1.35,1.35,0,0,0,.48-.24,1.25,1.25,0,0,0,.36-.4,1.34,1.34,0,0,0,.17-.51,1.64,1.64,0,0,0,0-.54L37.16,20.3a1.34,1.34,0,0,0-.23-.5,1.46,1.46,0,0,0-.92-.56,1.45,1.45,0,0,0-.55,0,1.4,1.4,0,0,0-.49.24,1.44,1.44,0,0,0-.36.42,1.38,1.38,0,0,0-.17.52,1.45,1.45,0,0,0,.05.55Z"/></g></g></svg>