<svg xmlns="http://www.w3.org/2000/svg" viewBox="0 0 84.87 83.59"><defs><style>.cls-1{fill:#ff6145;}</style></defs><g id="Layer_2" data-name="Layer 2"><g id="Layer_1-2" data-name="Layer 1"><path class="cls-1" d="M11.19,22A11.6,11.6,0,0,0,22.76,33.56c10.16,0,15.43-12.47,8.23-19.8a11.55,11.55,0,0,0-8.23-3.34h0A11.52,11.52,0,0,0,11.19,22Zm11.57-9.65a9.44,9.44,0,0,1,6,2.19l-6,6-6-6A9.44,9.44,0,0,1,22.76,12.34Zm3.6,18.52-2.57-8.61,6.43-6.43A9.67,9.67,0,0,1,26.36,30.86Zm-11.06-15,6.56,6.68,2.7,9A9.79,9.79,0,0,1,15.3,15.82Z"/><path class="cls-1" d="M82.7,0H2.92A2.92,2.92,0,0,0,0,2.92V61.58a1.17,1.17,0,0,0,1.18,1.17h32.9L22.76,82.56l1.67.9L36.26,62.75h5.28V79h1.92V62.88h5.28l11.7,20.71,1.67-.9L50.79,62.88h32.9a1.18,1.18,0,0,0,1.18-1.18V2.18A2.17,2.17,0,0,0,82.7,0Zm-.93,61H3.11a1.17,1.17,0,0,1-1.18-1.17V4.15A2.23,2.23,0,0,1,4.15,1.93H81.6a1.34,1.34,0,0,1,1.34,1.34V59.78A1.17,1.17,0,0,1,81.77,61Z"/><path class="cls-1" d="M79.73,5.14H5.14V56.43a1.18,1.18,0,0,0,1.18,1.18H78.55a1.18,1.18,0,0,0,1.18-1.18ZM76.62,55.81H8.25a1.18,1.18,0,0,1-1.18-1.18V7.07H77.8V54.63A1.18,1.18,0,0,1,76.62,55.81Z"/><path class="cls-1" d="M33.05,49.77h7.59V41.15H33.05ZM35,43.08h3.73v4.76H35Z"/><path class="cls-1" d="M44.24,49.77h7.58V37H44.24ZM46.16,39h3.73v8.88H46.16Z"/><path class="cls-1" d="M55.55,49.77H63V30.35H55.42V49.77Zm1.93-17.49h3.73V47.84H57.48Z"/><path class="cls-1" d="M74.33,19.55H66.74V49.77h7.59ZM72.4,47.84H68.67V21.47H72.4Z"/><polygon class="cls-1" points="38.71 36.39 61.85 18.77 60.44 23.15 62.37 23.66 64.94 15.17 55.94 15.43 56.07 17.36 60.7 17.23 37.55 34.85 38.71 36.39"/></g></g></svg>