<svg xmlns="http://www.w3.org/2000/svg" viewBox="0 0 66.77 81.43"><defs><style>.cls-1{fill:#ff6145;fill-rule:evenodd;}</style></defs><g id="Layer_2" data-name="Layer 2"><g id="Layer_1-2" data-name="Layer 1"><path class="cls-1" d="M61,78v.84a2.55,2.55,0,0,1-2.54,2.55H7.77a2.55,2.55,0,0,1-2.55-2.55v-2H2.55A2.54,2.54,0,0,1,0,74.29V2.55A2.55,2.55,0,0,1,2.55,0H53.26A2.55,2.55,0,0,1,55.8,2.55v2h2.68A2.55,2.55,0,0,1,61,7.14V52a7.73,7.73,0,0,1,1.54,1.19,7.37,7.37,0,0,1,2.18,5.24v4h0a2,2,0,0,1,1.4.59h0a1.94,1.94,0,0,1,.59,1.4V76.06a2,2,0,0,1-.59,1.4h0a2,2,0,0,1-1.4.58Zm-7.53-7,2,2a1,1,0,0,0,1.35,0l4.28-4.27a1,1,0,0,0,0-1.35.94.94,0,0,0-1.35,0L56.2,71l-1.36-1.36A1,1,0,1,0,53.45,71l0,0Zm5.62-19.79V7.14a.63.63,0,0,0-.63-.63H7.77a.64.64,0,0,0-.64.63V78.89a.65.65,0,0,0,.64.63H58.48a.63.63,0,0,0,.63-.63v-.84H49.85a2,2,0,0,1-2-2V73.67H15.51a1,1,0,0,1,0-1.9H47.87V65.85H15.51a1,1,0,0,1,0-1.91H47.92a1.94,1.94,0,0,1,.53-1l.07-.07a2,2,0,0,1,1.33-.52h0v-4c0-.13,0-.26,0-.39H15.51a1,1,0,0,1,0-1.91H50.26A7.41,7.41,0,0,1,59.11,51.21ZM51.8,62.39h.63v-4a4.89,4.89,0,0,1,9.77,0v4h.63v-4a5.52,5.52,0,0,0-11,0v4Zm2.54,0h5.95v-4a3,3,0,0,0-5.95,0ZM64.78,64.3h-15v0a.05.05,0,0,0,0,0V76.06a.11.11,0,0,0,.08.08H64.78a.09.09,0,0,0,.06,0h0a.08.08,0,0,0,0-.06V64.38a.08.08,0,0,0-.07-.08ZM15.51,50.2H52.67a1,1,0,0,0,.06-1.91H15.51a.94.94,0,0,0-.92,1A1,1,0,0,0,15.51,50.2ZM38.62,31.06a1,1,0,0,0-1-.95h-4a1,1,0,0,0-1,.95h0V33.4a1,1,0,0,0,1,1h4a1,1,0,0,0,1-1h0V31.06Zm-1.91,1.39V32H34.57v.43Zm1.6,6.74h0a1,1,0,0,0,.06-1.91h-.06a1,1,0,0,0-1,.93.94.94,0,0,0,.92,1Zm-6.09,0h0a1,1,0,0,0,0-1.91h0a1,1,0,0,0-1,.93,1,1,0,0,0,.93,1Zm7.23-4.08H32l-1.73-7.32a.25.25,0,0,1,0-.07,1.62,1.62,0,0,0-.63-.89,1.83,1.83,0,0,0-1.06-.34H26.8a1,1,0,1,0,0,1.91h1.62l1.86,7.86a1,1,0,0,0,.94.77h8.23a1,1,0,0,0,.93-1,1,1,0,0,0-.93-.92ZM36.82,13.23V20H45l-3.35-6.75Zm0,8.66v3.57a1,1,0,0,1-1,.95,1,1,0,0,1-.62-.22l-2.13-1.56-2.18,1.6A1,1,0,0,1,29.61,26a.94.94,0,0,1-.18-.56h0V21.9H20.64V40.19h25V21.9ZM29.43,20V13.23H24.58L21.23,20Zm1.91-6.75V23.58l1.21-.89a.94.94,0,0,1,1.14,0l1.22.9V13.23ZM18.87,20.45a.86.86,0,0,0-.13.49V40.66a1.43,1.43,0,0,0,1.44,1.44H46.07a1.45,1.45,0,0,0,1.44-1.44V20.94a1,1,0,0,0-.13-.49l-4.14-8.32A1.44,1.44,0,0,0,42,11.32H24.29a1.45,1.45,0,0,0-1.29.81l-4.13,8.32ZM5.22,74.93V7.14A2.55,2.55,0,0,1,7.77,4.59H53.89v-2a.64.64,0,0,0-.63-.64H2.55a.65.65,0,0,0-.64.64V74.29a.66.66,0,0,0,.64.64Z"/></g></g></svg>