<svg xmlns="http://www.w3.org/2000/svg" viewBox="0 0 84.48 70.62"><defs><style>.cls-1{fill:#ff6145;}</style></defs><g id="Layer_2" data-name="Layer 2"><g id="Layer_1-2" data-name="Layer 1"><path class="cls-1" d="M62.15,37H73.26a1.32,1.32,0,1,0,0-2.64H62.88A21.45,21.45,0,0,1,62.15,37Z"/><path class="cls-1" d="M59.52,42.24H73.26a1.3,1.3,0,0,0,1.32-1.32,1.31,1.31,0,0,0-1.32-1.32H61.05A21.59,21.59,0,0,1,59.52,42.24Z"/><path class="cls-1" d="M54.54,47.52H73.26a1.3,1.3,0,0,0,1.32-1.32,1.31,1.31,0,0,0-1.32-1.32H57.42A21.78,21.78,0,0,1,54.54,47.52Z"/><path class="cls-1" d="M2.64,4A1.33,1.33,0,0,1,4,2.64H37a1.29,1.29,0,0,0,.93-.39,1.3,1.3,0,0,0,0-1.86A1.29,1.29,0,0,0,37,0H4A4,4,0,0,0,0,4V47.52l2.64-1.89Z"/><path class="cls-1" d="M80.52,0H45.07a4.15,4.15,0,0,0-4.15,4.13V9.9A19.79,19.79,0,0,0,24.69,41L22.9,42.45l-2.37-3.06a2.82,2.82,0,0,0-4-.54L.81,50.16A1.35,1.35,0,0,0,.3,51a1.31,1.31,0,0,0,1.08,1.5,1.33,1.33,0,0,0,1-.21L18.16,41a.19.19,0,0,1,.15,0,.17.17,0,0,1,.13.07L25,49.5a.25.25,0,0,1,0,.07.22.22,0,0,1,0,.08.17.17,0,0,1-.06.12L.53,68.25a1.32,1.32,0,0,0-.52.87,1.37,1.37,0,0,0,.26,1,1.33,1.33,0,0,0,1.85.26L26.61,51.88A2.86,2.86,0,0,0,27.69,50a2.79,2.79,0,0,0-.56-2.09l-2.64-3.38,1.83-1.45a19.8,19.8,0,1,0,17.22-33V4.15a1.43,1.43,0,0,1,.12-.58,1.29,1.29,0,0,1,.33-.5,1.43,1.43,0,0,1,.49-.32,1.51,1.51,0,0,1,.59-.11H80.35a1.53,1.53,0,0,1,1.05.43,1.5,1.5,0,0,1,.44,1.06V51.32a1.49,1.49,0,0,1-1.5,1.48h-51A5.7,5.7,0,0,1,28.22,54L26.3,55.44h10v4.62H31a1.33,1.33,0,0,0-1.32,1.32A1.31,1.31,0,0,0,31,62.7H53.46a1.3,1.3,0,0,0,1.32-1.32,1.31,1.31,0,0,0-1.32-1.32H48.18V55.44H80.52a4,4,0,0,0,2.8-1.16,3.93,3.93,0,0,0,1.16-2.8V4a3.93,3.93,0,0,0-1.16-2.8A4,4,0,0,0,80.52,0ZM58.08,29.7a17.09,17.09,0,1,1-1.3-6.57A17.15,17.15,0,0,1,58.08,29.7ZM38.94,60.06V55.44h6.6v4.62Z"/><path class="cls-1" d="M40,16.51A13.25,13.25,0,0,0,29.7,26.79a1.35,1.35,0,0,0,0,.53,1.28,1.28,0,0,0,.19.49,1.3,1.3,0,0,0,.86.58H31a1.37,1.37,0,0,0,.85-.29,1.3,1.3,0,0,0,.47-.76,10.62,10.62,0,0,1,8.19-8.19,1.4,1.4,0,0,0,.86-.58,1.38,1.38,0,0,0,.19-1A1.36,1.36,0,0,0,41,16.7,1.28,1.28,0,0,0,40,16.51Z"/><path class="cls-1" d="M30.36,33.66A1.32,1.32,0,1,0,29,32.34,1.32,1.32,0,0,0,30.36,33.66Z"/><path class="cls-1" d="M11.22,7.92a1.29,1.29,0,0,0-.93.39,1.31,1.31,0,0,0-.39.93V19.8a1.32,1.32,0,0,0,2.64,0V10.56H23.1a1.33,1.33,0,0,0,1.32-1.32A1.31,1.31,0,0,0,24,8.31a1.29,1.29,0,0,0-.93-.39Z"/><path class="cls-1" d="M63.27,31.68h10a1.32,1.32,0,1,0,0-2.64h-9.9v.66Q63.36,30.69,63.27,31.68Z"/><path class="cls-1" d="M73.26,26.4a1.3,1.3,0,0,0,1.32-1.32,1.31,1.31,0,0,0-1.32-1.32H62.56a23.83,23.83,0,0,1,.56,2.64Z"/><path class="cls-1" d="M73.26,21.12a1.32,1.32,0,1,0,0-2.64H60.35a25,25,0,0,1,1.32,2.64Z"/><path class="cls-1" d="M73.26,15.84a1.32,1.32,0,1,0,0-2.64H56.1a22.58,22.58,0,0,1,2.44,2.64Z"/><path class="cls-1" d="M74.58,9.24a1.31,1.31,0,0,0-1.32-1.32H52.14a1.3,1.3,0,0,0-.58.14,1.26,1.26,0,0,0-.47.39,1.36,1.36,0,0,0-.22,1.15c.6.3,1.18.62,1.75,1H73.26a1.31,1.31,0,0,0,1.32-1.32Z"/></g></g></svg>