<svg xmlns="http://www.w3.org/2000/svg" viewBox="0 0 85 76.7"><defs><style>.cls-1{fill:#ff6145;}</style></defs><g id="Layer_2" data-name="Layer 2"><g id="Layer_1-2" data-name="Layer 1"><path class="cls-1" d="M53.49,0h-46A1.26,1.26,0,0,0,6.24,1.25V6.61h-5A1.25,1.25,0,0,0,0,7.86V64.19a1.25,1.25,0,0,0,1.25,1.25h46a1.24,1.24,0,0,0,1.24-1.25h0V58.83h5a1.25,1.25,0,0,0,1.25-1.25V1.25A1.25,1.25,0,0,0,53.49,0Zm-51,62.94V9.11H34.27V19.68a1.25,1.25,0,0,0,1.25,1.25H46V63Zm34.27-52,7.49,7.54H36.76ZM52.24,56.33H48.49V19.68a1.27,1.27,0,0,0-.36-.88L36.4,7a1.22,1.22,0,0,0-.88-.37H8.74V2.5h43.5ZM8.17,23.41a1.25,1.25,0,0,1,1.25-1.24h9.09a1.25,1.25,0,0,1,.07,2.49H9.42A1.25,1.25,0,0,1,8.17,23.41Zm29.28,6a1.25,1.25,0,0,1-1.25,1.25H9.42a1.25,1.25,0,1,1,0-2.49H36.2A1.25,1.25,0,0,1,37.45,29.41ZM57.89,16H80.64a1.25,1.25,0,0,0,1.25-1.25V1.25A1.25,1.25,0,0,0,80.64,0H57.89a1.25,1.25,0,0,0-1.24,1.25v13.5A1.25,1.25,0,0,0,57.89,16ZM59.14,2.5H79.39v11H59.14ZM67.06,5a1.26,1.26,0,0,1-1.25,1.25H62.07a1.25,1.25,0,0,1,0-2.5h3.74A1.26,1.26,0,0,1,67.06,5ZM57.89,34.78H80.64a1.25,1.25,0,0,0,1.25-1.25V20a1.25,1.25,0,0,0-1.25-1.25H57.89A1.25,1.25,0,0,0,56.65,20V33.54A1.24,1.24,0,0,0,57.89,34.78Zm1.25-13.51H79.39v11H59.14Zm13.25,5.51A1.25,1.25,0,0,1,71.14,28H67.4a1.25,1.25,0,0,1,0-2.5h3.74a1.27,1.27,0,0,1,1.25,1.26ZM84.31,51.92a3.83,3.83,0,0,0-.8-5.23L82,45.5a1.27,1.27,0,0,1-.52-.94l-.12-1.42a3.82,3.82,0,0,0-4-3.48l-2,.08a1.24,1.24,0,0,1-1-.39l-1-1a3.84,3.84,0,0,0-5.29-.11l-1.45,1.32a1.21,1.21,0,0,1-1,.34l-1.42-.12a3.81,3.81,0,0,0-4.12,3.31L59.83,45a1.25,1.25,0,0,1-.56.91l-1.17.82a3.83,3.83,0,0,0-1,5.19l1,1.65a1.24,1.24,0,0,1,.16,1.06L57.91,56a3.83,3.83,0,0,0,2.24,4.5v10.9a1.24,1.24,0,0,0,2,1L65,70.29l3,2.15a1.26,1.26,0,0,0,1.74-.27,1.27,1.27,0,0,0,.24-.73V64.67l.6-.25a1.25,1.25,0,0,1,1.07,0l.07,0v11a1.25,1.25,0,0,0,2.09.92l2.71-2.5,2.85,2.52a1.24,1.24,0,0,0,2.07-.94v-15a3.81,3.81,0,0,0,2.37-4.38l-.42-1.91a1.27,1.27,0,0,1,.21-1ZM65.67,67.73a1.24,1.24,0,0,0-1.49,0l-1.54,1.17V61.42a1.19,1.19,0,0,1,.5.54l.6,1.29a3.83,3.83,0,0,0,3.47,2.2l.17,0V69Zm11.55,3.52a1.25,1.25,0,0,0-1.67,0L74.1,72.6V65.37a3.8,3.8,0,0,0,3.74-2l.91-1.74a.87.87,0,0,1,.09-.11V72.68Zm5-20.75-.82,1.17a3.74,3.74,0,0,0-.6,3l.42,1.91a1.33,1.33,0,0,1-1,1.57l-1.38.38a3.74,3.74,0,0,0-2.39,1.92l-.9,1.73a1.34,1.34,0,0,1-1.75.59l-1.3-.6a3.77,3.77,0,0,0-3.07-.07l-1.8.75A1.34,1.34,0,0,1,66,62.19l-.61-1.29a3.73,3.73,0,0,0-2.31-2l-1.86-.59a1.33,1.33,0,0,1-.89-1.61l.37-1.38a3.71,3.71,0,0,0-.47-3l-1-1.65a1.33,1.33,0,0,1,.36-1.81L60.71,48a3.72,3.72,0,0,0,1.59-2.62l.27-1.94a1.33,1.33,0,0,1,1.32-1.16H64l1.43.12a3.74,3.74,0,0,0,2.9-1l1.45-1.31a1.34,1.34,0,0,1,1.84,0l1,1a3.79,3.79,0,0,0,2.86,1.11l2-.08a1.35,1.35,0,0,1,1.38,1.23L79,44.79a3.69,3.69,0,0,0,1.48,2.69L82,48.67A1.36,1.36,0,0,1,82.27,50.5ZM70.74,42.83a8.51,8.51,0,1,0,8.52,8.51A8.51,8.51,0,0,0,70.74,42.83Zm0,14.53a6,6,0,1,1,6-6,6,6,0,0,1-6,6Z"/></g></g></svg>