<svg xmlns="http://www.w3.org/2000/svg" viewBox="0 0 80.43 60.58"><defs><style>.cls-1{fill:#ff6145;}</style></defs><g id="Layer_2" data-name="Layer 2"><g id="Layer_1-2" data-name="Layer 1"><path class="cls-1" d="M66.92,50.41H13.51a1.27,1.27,0,0,1-1.26-1.26V30.3A1.26,1.26,0,0,1,13.51,29H66.92a1.25,1.25,0,0,1,1.26,1.26V49.15A1.26,1.26,0,0,1,66.92,50.41ZM14.77,47.89h50.9V31.55H14.77Z"/><path class="cls-1" d="M79.18,60.58H59.07a1.25,1.25,0,0,1-1.26-1.26v-10a1.26,1.26,0,1,1,2.52,0v8.8H77l-4-6.92A1.26,1.26,0,0,1,73,50l4.11-8.23H66.92a1.26,1.26,0,0,1,0-2.52H79.18a1.27,1.27,0,0,1,1.07.6,1.24,1.24,0,0,1,0,1.22l-4.72,9.46,4.69,8.21a1.26,1.26,0,0,1-1.09,1.88Z"/><path class="cls-1" d="M21.37,60.58H1.26A1.25,1.25,0,0,1,.17,60a1.22,1.22,0,0,1,0-1.25l4.69-8.21L.13,41a1.26,1.26,0,0,1,1.13-1.82H13.51a1.26,1.26,0,1,1,0,2.52H3.29L7.41,50a1.28,1.28,0,0,1,0,1.19l-4,6.92H20.11v-8.8a1.26,1.26,0,1,1,2.51,0v10A1.25,1.25,0,0,1,21.37,60.58Z"/><path class="cls-1" d="M24.76,24.46a1.19,1.19,0,0,1-.58-.15L20,22.13l-4.15,2.18a1.24,1.24,0,0,1-1.32-.09,1.25,1.25,0,0,1-.5-1.23l.79-4.62L11.5,15.1A1.25,1.25,0,0,1,12.2,13l4.63-.67,2.07-4.2a1.26,1.26,0,0,1,2.26,0l2.07,4.2,4.63.67a1.25,1.25,0,0,1,.7,2.14l-3.35,3.27L26,23a1.26,1.26,0,0,1-1.24,1.47Zm-4.73-5a1.25,1.25,0,0,1,.59.14l2.47,1.3-.47-2.75A1.26,1.26,0,0,1,23,17l2-2-2.77-.4a1.26,1.26,0,0,1-.94-.69L20,11.48,18.79,14a1.25,1.25,0,0,1-.94.69l-2.77.4,2,2a1.26,1.26,0,0,1,.36,1.12L17,20.9l2.48-1.3A1.18,1.18,0,0,1,20,19.46Z"/><path class="cls-1" d="M65.13,24.46a1.19,1.19,0,0,1-.58-.15L60.4,22.13l-4.14,2.18A1.25,1.25,0,0,1,54.44,23l.79-4.62L51.87,15.1a1.26,1.26,0,0,1,.7-2.14l4.63-.67,2.08-4.2a1.25,1.25,0,0,1,2.25,0l2.07,4.2,4.64.67a1.26,1.26,0,0,1,.7,2.14l-3.36,3.27L66.37,23a1.25,1.25,0,0,1-.5,1.23A1.23,1.23,0,0,1,65.13,24.46Zm-4.73-5a1.2,1.2,0,0,1,.59.14l2.48,1.3L63,18.15A1.29,1.29,0,0,1,63.35,17l2-2-2.77-.4a1.28,1.28,0,0,1-1-.69L60.4,11.48,59.17,14a1.28,1.28,0,0,1-1,.69l-2.77.4,2,2a1.29,1.29,0,0,1,.36,1.12l-.48,2.75,2.48-1.3A1.18,1.18,0,0,1,60.4,19.46Z"/><path class="cls-1" d="M44.87,17.07a1.38,1.38,0,0,1-.59-.14l-4.14-2.18L36,16.93a1.26,1.26,0,0,1-1.82-1.33L35,11,31.61,7.72a1.26,1.26,0,0,1,.69-2.15l4.64-.67L39,.7a1.26,1.26,0,0,1,2.26,0l2.07,4.2L48,5.57a1.26,1.26,0,0,1,.7,2.15L45.32,11l.79,4.61a1.27,1.27,0,0,1-.5,1.23A1.26,1.26,0,0,1,44.87,17.07Zm-4.73-5a1.19,1.19,0,0,1,.58.15l2.48,1.3-.47-2.76a1.24,1.24,0,0,1,.36-1.11l2-2-2.77-.4a1.23,1.23,0,0,1-.94-.68L40.14,4.1,38.9,6.61a1.25,1.25,0,0,1-.95.68l-2.76.4,2,2a1.24,1.24,0,0,1,.36,1.11l-.47,2.76,2.47-1.3A1.26,1.26,0,0,1,40.14,12.07Z"/><path class="cls-1" d="M59.07,38h-39a1.26,1.26,0,0,1,0-2.52h39a1.26,1.26,0,0,1,0,2.52Z"/><path class="cls-1" d="M59.07,44.24h-39a1.26,1.26,0,1,1,0-2.51h39a1.26,1.26,0,1,1,0,2.51Z"/></g></g></svg>