<svg xmlns="http://www.w3.org/2000/svg" viewBox="0 0 80.38 82.5"><defs><style>.cls-1{fill:#ff6145;}</style></defs><g id="Layer_2" data-name="Layer 2"><g id="Layer_1-2" data-name="Layer 1"><path class="cls-1" d="M77.3,0H24.36a3.08,3.08,0,0,0-3.08,3.07V9.18A47.65,47.65,0,0,0,.9,9.69L0,9.91V79.59l1.91-1.48a35.54,35.54,0,0,1,19.37-6.39v7.71a3.07,3.07,0,0,0,3.07,3.07h53a3.07,3.07,0,0,0,3.08-3.07V3.07A3.08,3.08,0,0,0,77.3,0ZM2.36,11.78a44,44,0,0,1,24.81,1.54V69.85c-11.52-2-20.92,2.68-24.81,5.1ZM78,79.43a.71.71,0,0,1-.71.71H24.36a.71.71,0,0,1-.71-.71V71.79a29.49,29.49,0,0,1,3.52.45v.21H74.49V11.35H28.61a32.48,32.48,0,0,0-5-1.64V3.07a.7.7,0,0,1,.7-.71h53a.71.71,0,0,1,.71.71V79.43ZM72.12,21.76l-8.3-8h8.3Zm-10-6.44,8.3,8.05h-8.3ZM60.91,25.73H72.12V70.09H29.54V13.71H59.72V24.55A1.18,1.18,0,0,0,60.91,25.73Z"/><rect class="cls-1" x="48.23" y="74.9" width="5.2" height="2.36"/><path class="cls-1" d="M57,15.49H31.83V25.73H57V15.49Zm-2.36,7.88H34.19V17.85H54.62v5.52Z"/><rect class="cls-1" x="32.07" y="28.72" width="37.35" height="2.36"/><rect class="cls-1" x="32.07" y="33.45" width="37.35" height="2.36"/><rect class="cls-1" x="32.07" y="38.18" width="37.35" height="2.36"/><rect class="cls-1" x="32.07" y="44.8" width="37.35" height="2.36"/><rect class="cls-1" x="32.07" y="49.53" width="37.35" height="2.36"/><rect class="cls-1" x="32.07" y="54.25" width="23.02" height="2.36"/><rect class="cls-1" x="32.07" y="59.93" width="37.35" height="2.36"/><rect class="cls-1" x="64.53" y="65.76" width="4.89" height="2.36"/><path class="cls-1" d="M24,18.58l.73-2.25c-8.86-2.89-19.07-.9-19.51-.82l.47,2.32C5.77,17.81,15.7,15.87,24,18.58Z"/><path class="cls-1" d="M24,24.74l.63-2.28c-8.69-2.41-19-.11-19.48,0l.52,2.31C5.8,24.73,15.92,22.49,24,24.74Z"/><path class="cls-1" d="M25.53,62.45V31.4l-.83-.26A28.26,28.26,0,0,0,16.29,30,54.14,54.14,0,0,0,5.81,31.12l-.93.2v35.1L6.7,65.26c4.11-2.63,9.66-3.18,13.6-3.18a35.24,35.24,0,0,1,3.9.2Zm-2.37-2.64c-.72-.05-1.7-.09-2.86-.09-3.71,0-8.77.47-13,2.53v-29a52.6,52.6,0,0,1,9-.85,27.66,27.66,0,0,1,6.87.76Z"/><rect class="cls-1" x="48.92" y="5.8" width="3.83" height="2.36"/></g></g></svg>