<svg xmlns="http://www.w3.org/2000/svg" viewBox="0 0 83.86 83.86"><defs><style>.cls-1{fill:#ff6145;}</style></defs><g id="Layer_2" data-name="Layer 2"><g id="Layer_1-2" data-name="Layer 1"><path class="cls-1" d="M80.09,0H52.67A3.77,3.77,0,0,0,48.9,3.77V15a3.78,3.78,0,0,0,3.77,3.77h2.16v6.85A1.14,1.14,0,0,0,56,26.76c.68,0,.27.2,8.48-8H80.09A3.77,3.77,0,0,0,83.86,15V3.77A3.77,3.77,0,0,0,80.09,0Zm1.48,15a1.48,1.48,0,0,1-1.48,1.48H64c-.68,0-.4-.08-6.86,6.38V17.61A1.15,1.15,0,0,0,56,16.46h-3.3A1.48,1.48,0,0,1,51.19,15V3.77a1.48,1.48,0,0,1,1.48-1.48H80.09a1.48,1.48,0,0,1,1.48,1.48V15Z"/><path class="cls-1" d="M74.36,7.71h-16a1.15,1.15,0,0,0,0,2.29h16A1.15,1.15,0,0,0,74.36,7.71Z"/><path class="cls-1" d="M0,65.11c-.63,5.32,5.77,9.9,10.54,6.16l1-.81a6.34,6.34,0,0,0,7.85.75l2.31,2.93a3.23,3.23,0,0,0,4.52.54c.1-.08,0-.06,13.22,9a1.13,1.13,0,0,0,1.35,0c6.38-5,6.58-4.92,6.54-5.74s.26-.4-13.07-9.55A3.18,3.18,0,0,0,34.67,64l-2.29-2.91L36,58.22c.18-.13,0,0,18.81-8.25a3.7,3.7,0,0,0,6.56-1.86,3.54,3.54,0,0,0-.73-2.61L55,38.34c1.25-1,2.32-1.61,2.53-3.39.25-2.05-.51-2.41-6.28-9.74A3.74,3.74,0,0,0,46,24.59l-1.14.89-5.64-7.16c-2.94-3.73-8.7.84-5.72,4.61L21,39.37,5,51.94a6.31,6.31,0,0,0-1.55,8.15C1.9,61.31.38,62.41.06,65.11ZM35,20.52a1.42,1.42,0,0,1,2.44-.78l21.4,27.18c1.06,1.34-1.16,3-2.18,1.7C34.69,20.76,34.88,21.34,35,20.53Zm11.29,6.76,1.14-.9a1.46,1.46,0,0,1,2,.25c6,7.64,5.9,7.24,5.8,8.05s-.51.94-1.69,1.86l-7.29-9.26ZM53.33,48.1,35.59,55.85,23.24,40.17,35,24.78ZM21.6,41.79,33.68,57.12,19.58,68.19,7.5,52.86Zm11.45,24.3c-.06.54.17.21-8.2,6.79a.94.94,0,0,1-1.3-.15l-2.3-2.92,9.31-7.31C33.06,65.68,33.11,65.59,33.05,66.09Zm-4.83,7.06,4.22-3.32L44.31,78,40.08,81.3ZM12.81,68.4c-7.59-9.63-8.19-9.79-7.93-12a4,4,0,0,1,.89-2.09l12,15.19a4,4,0,0,1-4.93-1.14Zm-9-5.71,1-.76,5.34,6.78-1,.75a4.05,4.05,0,0,1-5.68-.68l-.34-.43A4,4,0,0,1,3.82,62.69Z"/></g></g></svg>