<svg id="Layer_1" data-name="Layer 1" xmlns="http://www.w3.org/2000/svg" viewBox="0 0 85 85"><defs><style>.cls-1{fill:#ff6145;}</style></defs><path class="cls-1" d="M9.59,5.87H56.84v8.44A1.69,1.69,0,0,0,58.53,16H67V41.31A1.69,1.69,0,0,0,68.66,43h0a1.69,1.69,0,0,0,1.68-1.69v-27a1.53,1.53,0,0,0-.5-1.18L59.71,3a1.51,1.51,0,0,0-1.18-.51H7.91A1.68,1.68,0,0,0,6.22,4.19V81.81A1.69,1.69,0,0,0,7.91,83.5H68.66a1.69,1.69,0,0,0,1.68-1.69h0a1.69,1.69,0,0,0-1.68-1.69H9.59ZM60.22,8.24l4.39,4.38H60.22ZM40,32.87V14.31a1.6,1.6,0,0,0-1.69-1.69H21.41a1.6,1.6,0,0,0-1.69,1.69v18.9A5,5,0,1,0,18,43a5,5,0,0,0,5.06-5.06V22.75h13.5v5.4a4.91,4.91,0,0,0-1.68-.34A5.07,5.07,0,1,0,40,32.87ZM18,39.62a1.69,1.69,0,1,1,0-3.37,1.69,1.69,0,1,1,0,3.37Zm5.06-20.25V16h13.5v3.37Zm10.13,13.5a1.69,1.69,0,1,1,1.69,1.69A1.59,1.59,0,0,1,33.22,32.87Zm-3.38,40.5H53.47v3.38H29.84Zm-3.37,5.07H23.09V71.69h3.38ZM13,73.37h6.75v3.38H13ZM78.78,48.06v27a1.6,1.6,0,0,1-1.69,1.69H56.84V73.37H75.41V49.75H38.28V70H34.91V48.06a1.59,1.59,0,0,1,1.68-1.69h40.5A1.6,1.6,0,0,1,78.78,48.06ZM53.47,68.31a1.24,1.24,0,0,0,.84-.17l8.44-5.06a1.8,1.8,0,0,0,0-3L54.31,55a1.24,1.24,0,0,0-.84-.17H51.78a1.6,1.6,0,0,0-1.69,1.69V66.62a1.6,1.6,0,0,0,1.69,1.69Zm0-9.79,5.23,3-5.23,3Zm-37.13-5.4V56.5H13V53.12Zm6.75,3.38H19.72V53.12h3.37Zm6.75,0H26.47V53.12h3.37Zm33.75-27H43.34V26.12H63.59ZM56.84,19.37v3.38H43.34V19.37Zm6.75,16.88H43.34V32.87H63.59ZM43.34,39.62H63.59V43H43.34Z"/></svg>