<svg xmlns="http://www.w3.org/2000/svg" viewBox="0 0 83.78 83.78"><defs><style>.cls-1{fill:#ff6145;}</style></defs><g id="Layer_2" data-name="Layer 2"><g id="Layer_1-2" data-name="Layer 1"><path class="cls-1" d="M32.4,34.73a7.56,7.56,0,1,0-7.55-7.56A7.57,7.57,0,0,0,32.4,34.73Zm0-12.5a4.94,4.94,0,1,1-4.93,4.94A4.94,4.94,0,0,1,32.4,22.23Zm19,12.5a7.56,7.56,0,1,0-7.56-7.56A7.56,7.56,0,0,0,51.38,34.73Zm0-12.5a4.94,4.94,0,1,1-4.94,4.94A5,5,0,0,1,51.38,22.23Zm0,13.24a10.89,10.89,0,0,0-4.46,1,7.49,7.49,0,0,0-10.06,0,10.76,10.76,0,0,0-15.25,9.81,1.3,1.3,0,0,0,1.31,1.31H36.73a7.49,7.49,0,0,0,10.32,0H60.87a1.3,1.3,0,0,0,1.3-1.31A10.8,10.8,0,0,0,51.38,35.47Zm-19,2.62a8.24,8.24,0,0,1,2.79.5A7.46,7.46,0,0,0,34.91,45H24.33A8.19,8.19,0,0,1,32.4,38.09Zm4.55,4A4.94,4.94,0,1,1,41.89,47,5,5,0,0,1,37,42.07ZM48.87,45a7.46,7.46,0,0,0-.28-6.36A8.15,8.15,0,0,1,59.45,45Zm-7,5.42a10.81,10.81,0,0,0-10.8,10.79,1.31,1.31,0,0,0,1.31,1.31h19a1.31,1.31,0,0,0,1.31-1.31A10.81,10.81,0,0,0,41.89,50.37Zm-8.07,9.48a8.18,8.18,0,0,1,16.14,0Zm46-21.92H78.13A36.66,36.66,0,0,0,45.85,5.65V4a4,4,0,0,0-7.92,0V5.65A36.66,36.66,0,0,0,5.65,37.93H4a4,4,0,0,0,0,7.92H5.65A36.65,36.65,0,0,0,37.93,78.13v1.69a4,4,0,0,0,7.92,0V78.13A36.65,36.65,0,0,0,78.13,45.85h1.69a4,4,0,1,0,0-7.92Zm-4.32,0H71.73A30.06,30.06,0,0,0,45.85,12.06V8.28A34,34,0,0,1,75.5,37.93ZM68,45.85h1.06A27.43,27.43,0,0,1,45.85,69.08V68a4,4,0,0,0-7.92,0v1.06A27.43,27.43,0,0,1,14.7,45.85h1.06a4,4,0,0,0,0-7.92H14.7A27.43,27.43,0,0,1,37.93,14.7v1.06a4,4,0,0,0,7.92,0V14.7A27.43,27.43,0,0,1,69.08,37.93H68a4,4,0,1,0,0,7.92ZM40.55,4a1.34,1.34,0,1,1,2.68,0v11.8a1.34,1.34,0,1,1-2.68,0ZM37.93,8.28v3.78A30,30,0,0,0,12.06,37.93H8.28A34,34,0,0,1,37.93,8.28ZM2.62,41.89A1.34,1.34,0,0,1,4,40.55h11.8a1.34,1.34,0,0,1,0,2.68H4A1.34,1.34,0,0,1,2.62,41.89Zm5.66,4h3.78A30,30,0,0,0,37.93,71.73V75.5A34,34,0,0,1,8.28,45.85Zm34.95,34a1.34,1.34,0,0,1-2.68,0V68a1.34,1.34,0,0,1,2.68,0Zm2.62-4.32V71.73A30,30,0,0,0,71.72,45.85H75.5A34,34,0,0,1,45.85,75.5Zm34-32.27H68a1.34,1.34,0,1,1,0-2.68h11.8a1.34,1.34,0,0,1,0,2.68Z"/></g></g></svg>