<svg xmlns="http://www.w3.org/2000/svg" viewBox="0 0 77.5 85.06"><defs><style>.cls-1{fill:#ff6145;}</style></defs><g id="Layer_2" data-name="Layer 2"><g id="Layer_1-2" data-name="Layer 1"><path class="cls-1" d="M4.57,9.13A4.57,4.57,0,0,0,8.92,5.89H27a27.86,27.86,0,0,0-16,23.53A27.5,27.5,0,0,0,18.34,49.7a22.92,22.92,0,0,1,6.21,15.49V78.77a1.33,1.33,0,0,0,1.33,1.33H31.6a1.51,1.51,0,0,0-.07.37c0,2.62,3.1,4.59,7.22,4.59s7.23-2,7.23-4.59a1.17,1.17,0,0,0-.08-.37h5.72A1.32,1.32,0,0,0,53,78.77V65.19A22,22,0,0,1,58.88,50,27.69,27.69,0,0,0,58,11a28,28,0,0,0-7.39-5.09h18a4.57,4.57,0,1,0,0-2.65H43.32V1.33A1.34,1.34,0,0,0,42,0H35.51a1.34,1.34,0,0,0-1.33,1.33V3.24H8.92A4.56,4.56,0,1,0,4.57,9.13ZM72.93,2.66A1.91,1.91,0,1,1,71,4.56,1.9,1.9,0,0,1,72.93,2.66ZM43.32,80.47c0,.77-1.83,1.93-4.57,1.93s-4.56-1.16-4.56-1.93a1.17,1.17,0,0,0-.08-.37h9.28A1.16,1.16,0,0,0,43.32,80.47Zm7-3H27.21V77.2l23.08-2.48Zm0-5.4L27.21,74.53V71.88L50.29,69.4ZM34.85,31.72l3.9-7.5,3.9,7.5Zm8.47,2.66v30H40.08v-30Zm-5.9,0v30H34.19v-30Zm7.23,32.67h2.62L27.21,69.21V67.05H44.65ZM36.84,2.66h3.82V6.47H36.84ZM35.51,9.13H42A1.33,1.33,0,0,0,43.32,7.8V6.32A25,25,0,0,1,57,48.17,24.53,24.53,0,0,0,50.3,64.39H46V32.67a1.44,1.44,0,0,0-.15-.61l-5.9-11.34a1.33,1.33,0,0,0-2.36,0L31.68,32.06a1.31,1.31,0,0,0-.15.61V64.39H27.2A25.6,25.6,0,0,0,20.29,47.9a25,25,0,0,1-6.58-18.33A25.24,25.24,0,0,1,34.18,6.34V7.8A1.33,1.33,0,0,0,35.51,9.13ZM4.57,2.66a1.91,1.91,0,1,1-1.91,1.9A1.91,1.91,0,0,1,4.57,2.66Z"/></g></g></svg>