<svg xmlns="http://www.w3.org/2000/svg" viewBox="0 0 84.33 84.71"><defs><style>.cls-1{fill:#ff6145;}</style></defs><g id="Layer_2" data-name="Layer 2"><g id="Layer_1-2" data-name="Layer 1"><path class="cls-1" d="M65.24,65.44a1.63,1.63,0,0,1-1.63-1.64V56.11a1.63,1.63,0,1,1,3.26,0V63.8A1.63,1.63,0,0,1,65.24,65.44Z"/><path class="cls-1" d="M65.24,84.3h-54A11.06,11.06,0,0,1,0,73.44V13.34A13.6,13.6,0,0,1,13.82,0H65.24a1.63,1.63,0,0,1,1.63,1.63v9.53a1.63,1.63,0,0,1-3.26,0V3.27H13.82A10.32,10.32,0,0,0,3.27,13.34v60.1a7.8,7.8,0,0,0,8,7.59h54a1.64,1.64,0,0,1,0,3.27Z"/><path class="cls-1" d="M65.24,84.71H11.46a11.08,11.08,0,1,1,0-22.15H65.24a1.64,1.64,0,0,1,0,3.27H11.46a7.81,7.81,0,1,0,0,15.61H65.24a1.64,1.64,0,0,1,0,3.27Z"/><path class="cls-1" d="M62,71.93H9.58a1.64,1.64,0,0,1,0-3.27H62a1.64,1.64,0,0,1,0,3.27Z"/><path class="cls-1" d="M62,78.57H9.58a1.64,1.64,0,0,1,0-3.27H62a1.64,1.64,0,0,1,0,3.27Z"/><path class="cls-1" d="M9.9,65.83A1.63,1.63,0,0,1,8.27,64.2V2.68a1.63,1.63,0,1,1,3.26,0V64.2A1.63,1.63,0,0,1,9.9,65.83Z"/><path class="cls-1" d="M48.38,20.82H16.78a1.64,1.64,0,0,1-1.64-1.63V10.07a1.64,1.64,0,0,1,1.64-1.63h31.6A1.64,1.64,0,0,1,50,10.07v9.12A1.64,1.64,0,0,1,48.38,20.82Zm-30-3.27H46.75V11.71H18.41Z"/><path class="cls-1" d="M68.34,53.22h-6.2a1.63,1.63,0,0,1-1.64-1.64v-3.4a16,16,0,0,1-1.84-.77l-2.41,2.41a1.63,1.63,0,0,1-2.31,0l-4.39-4.39a1.63,1.63,0,0,1-.48-1.16,1.64,1.64,0,0,1,.48-1.15L52,40.73a14.17,14.17,0,0,1-.75-1.84H47.79a1.63,1.63,0,0,1-1.64-1.63V31a1.64,1.64,0,0,1,1.64-1.64H51.2A14.19,14.19,0,0,1,52,27.56l-2.41-2.39A1.65,1.65,0,0,1,49.07,24a1.6,1.6,0,0,1,.48-1.15l4.39-4.39a1.63,1.63,0,0,1,2.31,0l2.39,2.38a14.06,14.06,0,0,1,1.86-.77V16.7a1.63,1.63,0,0,1,1.64-1.63h6.2A1.63,1.63,0,0,1,70,16.7v3.38a13.64,13.64,0,0,1,1.87.77l2.39-2.38a1.63,1.63,0,0,1,2.31,0l4.39,4.39A1.6,1.6,0,0,1,81.41,24a1.65,1.65,0,0,1-.48,1.16l-2.41,2.39a14.19,14.19,0,0,1,.76,1.83h3.41A1.64,1.64,0,0,1,84.33,31v6.23a1.63,1.63,0,0,1-1.64,1.63H79.27a14.17,14.17,0,0,1-.75,1.84l2.41,2.39a1.64,1.64,0,0,1,.48,1.15,1.63,1.63,0,0,1-.48,1.16l-4.39,4.39a1.63,1.63,0,0,1-2.31,0l-2.41-2.41a15.41,15.41,0,0,1-1.85.77v3.4A1.63,1.63,0,0,1,68.34,53.22ZM63.77,50h2.94v-3A1.64,1.64,0,0,1,68,45.33,10.52,10.52,0,0,0,71.25,44a1.63,1.63,0,0,1,2,.23l2.13,2.13,2.07-2.07-2.12-2.1a1.65,1.65,0,0,1-.24-2,11,11,0,0,0,1.35-3.26A1.64,1.64,0,0,1,78,35.62h3v-3H78a1.63,1.63,0,0,1-1.6-1.29,10.28,10.28,0,0,0-1.34-3.24,1.63,1.63,0,0,1,.24-2L77.46,24l-2.07-2.08L73.28,24a1.63,1.63,0,0,1-2,.23A10.43,10.43,0,0,0,68,22.93a1.64,1.64,0,0,1-1.29-1.6v-3H63.77v3a1.64,1.64,0,0,1-1.29,1.6,10.43,10.43,0,0,0-3.27,1.34,1.63,1.63,0,0,1-2-.23l-2.11-2.11L53,24l2.12,2.1a1.63,1.63,0,0,1,.24,2A10.5,10.5,0,0,0,54,31.38a1.62,1.62,0,0,1-1.59,1.28h-3v3h3A1.64,1.64,0,0,1,54,36.88a10.8,10.8,0,0,0,1.35,3.27,1.64,1.64,0,0,1-.24,2L53,44.28l2.07,2.07,2.13-2.13a1.65,1.65,0,0,1,2-.23,10.28,10.28,0,0,0,3.24,1.34,1.64,1.64,0,0,1,1.29,1.6Z"/><path class="cls-1" d="M65.63,42.29a8.15,8.15,0,1,1,8.15-8.15A8.16,8.16,0,0,1,65.63,42.29Zm0-13a4.88,4.88,0,1,0,4.88,4.88A4.89,4.89,0,0,0,65.63,29.26Z"/></g></g></svg>