<svg xmlns="http://www.w3.org/2000/svg" viewBox="0 0 48.77 81.83"><defs><style>.cls-1{fill:#ff6145;}</style></defs><g id="Layer_2" data-name="Layer 2"><g id="Layer_1-2" data-name="Layer 1"><path class="cls-1" d="M38.68,56.06a26.51,26.51,0,0,1,5.12-15.7,26.16,26.16,0,0,0,2.39-4,1.34,1.34,0,0,0,.12-.3A25.46,25.46,0,0,0,40.67,6.48a.69.69,0,0,0-.13-.11A23.87,23.87,0,0,0,25.76.07a1.41,1.41,0,0,0-.41,0c-.32,0-.64,0-1,0A24.17,24.17,0,0,0,4.1,11.22v0h0a25.75,25.75,0,0,0,.82,29A25.49,25.49,0,0,1,7.64,45,26.45,26.45,0,0,1,9.93,55.84v5.41a1.3,1.3,0,0,0,.11.51l2.3,5.54a1.35,1.35,0,0,0,1.25.83H35.18a1.35,1.35,0,0,0,1.26-.87l2.07-5.52a1.31,1.31,0,0,0,.17-.62s0,0,0,0v-5Zm-2.7,0v3.71H32.27V45h0V37H42.71c-.35.59-.67,1.19-1.08,1.75A29.23,29.23,0,0,0,36,56.06Zm-6.41-4.64a9.08,9.08,0,0,0-2.88.9,3.82,3.82,0,0,1-4.51-.76,3.73,3.73,0,0,1-1-2.82,3.79,3.79,0,0,1,3.59-3.5,3.68,3.68,0,0,1,1.76.35,8.42,8.42,0,0,0,3,.71Zm16.5-26.28a22.83,22.83,0,0,1-2,9.17H32.27V27a5.7,5.7,0,0,1,1.89.45,6.31,6.31,0,0,0,2.74.62h.27a6.52,6.52,0,0,0,6.18-6,6.4,6.4,0,0,0-1.73-4.84,6.6,6.6,0,0,0-7.73-1.29,6.23,6.23,0,0,1-1.62.6V8.73h6.85A22.72,22.72,0,0,1,46.07,25.14ZM24.38,2.7h.29A3.65,3.65,0,0,1,25,3.78,3.8,3.8,0,0,1,22.28,8,3.58,3.58,0,0,1,20.5,8a8.24,8.24,0,0,0-3.66,0l-.8.18a1.35,1.35,0,0,0-1,1.61l1.86,8.26L9.41,19.79a5.28,5.28,0,0,1,.06-1.95,6.51,6.51,0,0,0-.07-3.07,6.39,6.39,0,0,0-2.16-3.31A21.37,21.37,0,0,1,24.38,2.7ZM5.72,13.78A3.73,3.73,0,0,1,6.8,15.46a3.74,3.74,0,0,1,0,1.79,8.54,8.54,0,0,0,0,3.66l.19.8a1.35,1.35,0,0,0,1.31,1.05,1,1,0,0,0,.29,0l10.12-2.26h0a1.24,1.24,0,0,0,.37-.17l.12-.05a.81.81,0,0,0,.09-.1,1.3,1.3,0,0,0,.45-.76,1.19,1.19,0,0,0,0-.53L18,10.61a5.28,5.28,0,0,1,1.95.06A6.63,6.63,0,0,0,23,10.6,6.53,6.53,0,0,0,27.7,3.36c0-.13-.08-.26-.11-.39A21,21,0,0,1,35.69,6H31.51a1.32,1.32,0,0,0-.59-.15,1.34,1.34,0,0,0-1.35,1.35V18A1.45,1.45,0,0,0,31,19.32a8.89,8.89,0,0,0,4.12-1.06,3.81,3.81,0,0,1,4.5.76,3.69,3.69,0,0,1,1,2.81,3.78,3.78,0,0,1-3.6,3.51A3.4,3.4,0,0,1,35.3,25a8.37,8.37,0,0,0-3.57-.76h-.81a1.35,1.35,0,0,0-1.35,1.35v8.73H23.11a5.64,5.64,0,0,1,.45-1.88,6.28,6.28,0,0,0,.61-3,6.46,6.46,0,0,0-12.91.26,6.37,6.37,0,0,0,.75,3,6.3,6.3,0,0,1,.58,1.62H4.65A22.72,22.72,0,0,1,5.72,13.78ZM15.3,34.31a8.91,8.91,0,0,0-.91-2.89,3.76,3.76,0,0,1,.76-4.49,3.59,3.59,0,0,1,2.82-1,3.75,3.75,0,0,1,3.15,5.35,8.51,8.51,0,0,0-.71,3ZM7.08,38.67c-.39-.53-.69-1.1-1-1.66H29.57V43.6a5.46,5.46,0,0,1-1.89-.45,6.45,6.45,0,0,0-9.19,5.42,6.36,6.36,0,0,0,1.73,4.84,6.45,6.45,0,0,0,4.71,2,6.58,6.58,0,0,0,3-.74,6.58,6.58,0,0,1,1.62-.59v5.65H12.63V55.84c0-.16,0-.31,0-.47A6.46,6.46,0,0,0,10,43.12c-.1,0-.2,0-.31,0A28.53,28.53,0,0,0,7.08,38.67Zm3.85,7.38a3.66,3.66,0,0,1,1.45,6.15A29.43,29.43,0,0,0,10.93,46.05ZM34.24,65.43H14.49l-1.24-3H35.36Z"/><path class="cls-1" d="M35.26,71.24H13.5a1.35,1.35,0,0,0,0,2.7H35.26a1.35,1.35,0,0,0,0-2.7Z"/><path class="cls-1" d="M35.26,76.84H13.5a1.35,1.35,0,1,0,0,2.7h2.89A.58.58,0,0,1,17,80a2.3,2.3,0,0,0,2.26,1.83H29.72A2.3,2.3,0,0,0,32,80a.58.58,0,0,1,.57-.46h2.72a1.35,1.35,0,1,0,0-2.7Z"/></g></g></svg>