<svg xmlns="http://www.w3.org/2000/svg" viewBox="0 0 84.68 79.58"><defs><style>.cls-1{fill:#ff6145;}</style></defs><g id="Layer_2" data-name="Layer 2"><g id="Layer_1-2" data-name="Layer 1"><path class="cls-1" d="M79,73.25l-.32,0H62.83V55.94a1.28,1.28,0,0,0-1.35-1.35H51.75a1.28,1.28,0,0,0-1.35,1.35V73.37H43.24V42.7a1.28,1.28,0,0,0-1.35-1.35H32.16a1.28,1.28,0,0,0-1.35,1.35V73.37H23.65V27.7a1.28,1.28,0,0,0-1.36-1.35H12.57a1.28,1.28,0,0,0-1.36,1.35V73.23H6V1.35A1.28,1.28,0,0,0,4.59,0,1.28,1.28,0,0,0,3.24,1.35V8.24H1.35A1.28,1.28,0,0,0,0,9.59a1.28,1.28,0,0,0,1.35,1.35H3.24v5.68H1.35a1.35,1.35,0,0,0,0,2.7H3.24V25H1.35a1.35,1.35,0,0,0,0,2.7H3.24v5.67H1.35a1.36,1.36,0,0,0,0,2.71H3.24v5.67H1.35a1.35,1.35,0,0,0,0,2.7H3.24v5.68H1.35a1.35,1.35,0,1,0,0,2.7H3.24v5.68H1.35a1.35,1.35,0,1,0,0,2.7H3.24v5.54H1.35a1.35,1.35,0,0,0,0,2.7H3.24V75a1.28,1.28,0,0,0,1.35,1.35H8.78v1.89a1.28,1.28,0,0,0,1.35,1.35,1.28,1.28,0,0,0,1.36-1.35V76.34h5.67v1.89a1.35,1.35,0,1,0,2.7,0V76.34h5.68v1.89a1.35,1.35,0,1,0,2.7,0V76.34h5.67v1.89a1.36,1.36,0,0,0,2.71,0V76.34h5.54v1.89a1.35,1.35,0,1,0,2.7,0V76.34h5.67v1.89a1.36,1.36,0,0,0,2.71,0V76.34h5.67v1.89a1.35,1.35,0,1,0,2.7,0V76.34h5.68v1.89a1.35,1.35,0,0,0,2.7,0V76.34h9.32a1.4,1.4,0,0,0,1.14-2.14A1.8,1.8,0,0,0,79,73.25Zm-18.91-16V73.37h-7V57.29ZM33.51,44.05h7V73.37h-7Zm-19.59-15h7V73.23h-7Z"/><path class="cls-1" d="M42.83,31.89,24.73,14.05h2.83a1.28,1.28,0,0,0,1.36-1.35,1.28,1.28,0,0,0-1.36-1.35H21.48a1.28,1.28,0,0,0-1.35,1.35v6.08a1.35,1.35,0,1,0,2.7,0v-3l18.25,18a1.29,1.29,0,1,0,1.75-1.89Z"/><path class="cls-1" d="M72.29,23.24a1.34,1.34,0,0,0-1.76-.68c-9.32,3.65-6.08,2.44-6.89,2.71l.41-7.3a1.28,1.28,0,0,0-1.36-1.35,10.75,10.75,0,1,0,3.25,20.81C75.8,33.51,72.29,22.7,72.29,23.24ZM65.13,34.73A8.17,8.17,0,0,1,54.72,30a8,8,0,0,1,6.49-10.81L60.8,27a1.48,1.48,0,0,0,.54,1.22,1.31,1.31,0,0,0,1.22.13L70,25.54A7.77,7.77,0,0,1,65.13,34.73Z"/><path class="cls-1" d="M65.94,20.67a1.33,1.33,0,0,0,1.89,1.22l8.78-3.38a1.31,1.31,0,0,0,.68-1.89,10.89,10.89,0,0,0-10-6.76h0a1.35,1.35,0,0,0-1.35,1.35Zm8.37-4.19-5.53,2.17V12.7A8.37,8.37,0,0,1,74.31,16.48Z"/><path class="cls-1" d="M78.23,48.24a1.54,1.54,0,0,0-1.75-1h-.14l-1.89-6.21A20.15,20.15,0,1,0,46.62,14.19,20.18,20.18,0,0,0,66.21,43.78L68.1,50H68a1.44,1.44,0,0,0-.81.68A2.71,2.71,0,0,0,67,51.75L71.75,67A5.75,5.75,0,0,0,79,70.8h0a5.66,5.66,0,0,0,3.79-7.29ZM47.7,28.78A17.75,17.75,0,0,1,48.91,15.4,17.43,17.43,0,0,1,59.32,6.76a17.61,17.61,0,1,1-11.62,22ZM68.91,43.37a19,19,0,0,0,3.24-.94l1.76,5.81-3.24.94Zm9.32,24.86a3.13,3.13,0,0,1-3.92-2L70,52.29l6-1.89,4.32,13.92A2.93,2.93,0,0,1,78.23,68.23Z"/></g></g></svg>