<svg xmlns="http://www.w3.org/2000/svg" xmlns:xlink="http://www.w3.org/1999/xlink" version="1.1" x="0px" y="0px" viewBox="0 0 96 120" enable-background="new 0 0 96 96" xml:space="preserve"><g><path d="M39.2305,24.3819c-2.0606,0-3.7369,1.6763-3.7369,3.7369v5.766h7.4738v-5.766   C42.9674,26.0582,41.2912,24.3819,39.2305,24.3819z M41.0091,31.9265H37.452v-3.8077c0-0.9806,0.7975-1.7786,1.7786-1.7786   s1.7786,0.798,1.7786,1.7786V31.9265z"/><path d="M48.3844,24.3819c-2.0606,0-3.7369,1.6763-3.7369,3.7369v5.766h7.4728v-5.766   C52.1203,26.0582,50.4441,24.3819,48.3844,24.3819z M50.162,31.9265h-3.5562v-3.8077c0-0.9806,0.7975-1.7786,1.7786-1.7786   c0.9801,0,1.7776,0.798,1.7776,1.7786V31.9265z"/><path d="M57.5373,24.3819c-2.0606,0-3.7369,1.6763-3.7369,3.7369v5.766h7.4738v-5.766   C61.2742,26.0582,59.598,24.3819,57.5373,24.3819z M59.3159,31.9265h-3.5571v-3.8077c0-0.9806,0.7975-1.7786,1.7786-1.7786   s1.7786,0.798,1.7786,1.7786V31.9265z"/><rect x="66.6175" y="41.9433" width="3.9167" height="1.9583"/><rect x="40.18" y="41.9433" width="3.9167" height="1.9583"/><rect x="22.555" y="41.9433" width="3.9167" height="1.9583"/><rect x="48.9925" y="41.9433" width="3.9167" height="1.9583"/><rect x="57.805" y="41.9433" width="3.9167" height="1.9583"/><rect x="31.3675" y="41.9433" width="3.9167" height="1.9583"/><rect x="56.2273" y="47.0194" width="3.9167" height="1.9583"/><rect x="46.4356" y="47.0194" width="3.9167" height="1.9583"/><rect x="36.644" y="47.0194" width="3.9167" height="1.9583"/><rect x="66.019" y="47.0194" width="3.9167" height="1.9583"/><rect x="26.8523" y="47.0194" width="3.9167" height="1.9583"/><rect x="24.1414" y="52.096" width="3.9167" height="1.9583"/><rect x="32.9539" y="52.096" width="3.9167" height="1.9583"/><rect x="67.3777" y="52.096" width="3.9167" height="1.9583"/><rect x="58.5652" y="52.096" width="3.9167" height="1.9583"/><rect x="29.8577" y="57.172" width="3.9167" height="1.9583"/><rect x="20.066" y="57.172" width="3.9167" height="1.9583"/><rect x="56.998" y="57.172" width="3.9167" height="1.9583"/><rect x="66.7896" y="57.172" width="3.9167" height="1.9583"/><rect x="29.131" y="62.2481" width="3.9167" height="1.9583"/><rect x="20.3185" y="62.2481" width="3.9167" height="1.9583"/><rect x="59.336" y="62.2481" width="3.9167" height="1.9583"/><rect x="68.1485" y="62.2481" width="3.9167" height="1.9583"/><rect x="19.0859" y="67.3247" width="3.9167" height="1.9583"/><rect x="27.8984" y="67.3247" width="3.9167" height="1.9583"/><rect x="59.7165" y="67.3247" width="3.9167" height="1.9583"/><rect x="68.529" y="67.3247" width="3.9167" height="1.9583"/><rect x="16.4591" y="72.4007" width="3.9167" height="1.9583"/><rect x="26.2508" y="72.4007" width="3.9167" height="1.9583"/><rect x="67.9295" y="72.4007" width="3.9167" height="1.9583"/><rect x="58.1378" y="72.4007" width="3.9167" height="1.9583"/><rect x="20.4237" y="36.2973" width="3.1278" height="1.9583"/><rect x="25.6905" y="36.2973" width="3.1268" height="1.9583"/><rect x="71.5086" y="36.2973" width="3.822" height="1.9583"/><rect x="67.002" y="36.2973" width="2.1936" height="1.9583"/><path d="M95,87.5874h-3.757v-5.1062h-2.7644V77.374h-5.562L79.515,32.0374h-6.3021c0.0191-0.3361,0.0331-0.6804,0.0331-1.0246   c0-13.1857-10.7972-23.9655-24.2631-24.4661V1.6521h-1.9583v4.8946c-13.4642,0.5025-24.2592,11.2815-24.2592,24.466   c0,0.326,0.01,0.6668,0.0287,1.0246h-6.2986L13.0847,77.374H7.5224v5.1072H4.7579v5.1062H1v7.0655h94V87.5874z M89.2847,84.4395   v3.1479H64.9939v-3.1479C71.4413,84.4395,83.5648,84.4395,89.2847,84.4395z M67.3366,89.5457v3.1488H28.6643v-3.1488H67.3366z    M63.0356,84.4395v3.1479H32.9644v-3.1479H63.0356z M39.0173,79.3324c5.5156,0,15.5484,0,20.2689,0v3.1488H36.7147v-3.1488H39.0173   z M40.9364,73.8599c0.1608-2.6317,0.7171-6.0337,1.8646-9.9408c0.9467-3.2895,2.3412-6.878,3.7331-9.938   c0.1485-0.2605,0.4502-1.1781,1.4697-1.1781c1.0825,0,1.3522,1.0008,1.4238,1.1001c1.4818,3.2466,2.8031,6.6054,3.7828,10.0212   c1.1523,3.9221,1.7072,7.3351,1.8637,9.9365c0.0559,0.9018,0.0817,1.85,0.0392,3.5131h-14.219   C40.8514,75.6925,40.8897,74.6153,40.9364,73.8599z M86.5203,79.3324v3.1488H61.2446v-3.1488   C67.7046,79.3324,80.0811,79.3324,86.5203,79.3324z M32.1019,32.9353v-0.9079h-7.3476c-0.0201-0.3586-0.0306-0.6947-0.0306-1.0145   c0-2.235,0.3429-4.393,0.9719-6.4328c3.764-0.7849,26.6737-5.1596,44.7204,0.341c0.5636,1.9391,0.8717,3.9807,0.8717,6.0918   c0,0.3371-0.0143,0.6765-0.0344,1.0145h-6.3646l-0.9792,0.01v0.8979l-0.7133,4.2709H32.8143L32.1019,32.9353z M48.0057,8.481   c9.7828,0,18.1693,5.8718,21.6099,14.1627c-16.8365-4.631-37.1091-1.3716-43.1311-0.2171   C29.9804,14.25,38.3081,8.481,48.0057,8.481z M16.8032,54.0543h2.4424V52.096h-2.295l0.2346-3.1182h3.7922v-1.9583h-3.6448   c0.4248-5.5884,0.2011-1.2125,0.9798-13.0237h11.9812l0.8627,5.1688h33.6981l0.8637-5.1688h11.9802l0.5962,7.9476h-2.8643v1.9583   h3.0112l0.2339,3.1177h-2.8645v1.9583h3.0114l0.2339,3.1182h-2.8657v1.9583h3.0126l0.2339,3.1177h-2.8554v1.9583h3.0023   l0.2339,3.1177H76.961v1.9583h3.0035l0.2339,3.1182h-2.8568v1.9583h3.0037l0.2339,3.1177h-2.858v1.9583h3.0049l0.2261,3.015   H57.0606c0.0291-1.1557,0.0684-1.9927-0.032-3.6327c-0.1677-2.7699-0.7485-6.3152-1.9373-10.363   c-0.984-3.4304-2.1003-6.2527-3.4634-9.3241h2.0415V52.096h-3.0535c-0.6412-0.7856-1.5805-1.2512-2.6121-1.2512   c-1.0241,0-1.9598,0.4592-2.6107,1.2512h-3.6267v1.9583h2.6044c-0.4603,1.0408-0.8943,2.0806-1.3022,3.1177h-3.4193v1.9583h2.6758   c-0.3842,1.0476-0.7347,2.0872-1.0537,3.1177h-3.328v1.9583h2.7419c-0.3028,1.0857-0.5641,2.1233-0.777,3.1182h-3.1974v1.9583   h2.8328c-0.1903,1.0655-0.3312,2.1036-0.4316,3.1177h-3.0696v1.9583h2.9203c-0.0641,1.4951-0.05,1.4096-0.012,3.015h-23.902   L16.8032,54.0543z M9.4807,79.3324c6.4443,0,18.8363,0,25.2757,0v3.1488H9.4807V79.3324z M6.7163,84.4395   c5.7352,0,17.8525,0,24.2898,0v3.1479H6.7163V84.4395z M2.9583,89.5457c6.9879,0,13.1578,0,23.7477,0v3.1488H2.9583V89.5457z    M93.0417,92.6946H69.295v-3.1488c7.0722,0,12.9315,0,23.7467,0V92.6946z"/><path d="M77.55,22.3356c0.0478-0.0971,1.2173-2.3714,3.4405-1.4783l0.7306-1.8168c-1.639-0.6593-3.0035-0.3332-4.0285,0.3232   c-0.2878-1.1838-1.049-2.3623-2.686-3.0202l-0.7305,1.8178c2.161,0.8673,1.5395,3.1899,1.463,3.4467L77.55,22.3356z"/><path d="M87.0146,6.5236l-0.7688-1.8015c-1.6227,0.6928-2.359,1.8876-2.62,3.0776c-1.0404-0.6345-2.4135-0.9285-4.0343-0.2367   l0.7688,1.8015c2.141-0.9146,3.3429,1.1675,3.4711,1.4032l1.7967-0.7611C85.5449,9.746,84.8727,7.4377,87.0146,6.5236z"/><path d="M34.241,3.1649l-0.7305-1.8178c-1.637,0.6574-2.3982,1.8364-2.686,3.0202c-1.0251-0.6555-2.3886-0.9816-4.0285-0.3237   l0.7306,1.8178c2.1601-0.8721,3.3181,1.2393,3.4405,1.4778l1.8111-0.7277C32.7464,6.5078,32.0159,4.058,34.241,3.1649z"/><path d="M20.0861,18.0862l-0.7305-1.8168c-1.4764,0.5933-2.1897,1.6409-2.4776,2.7075c-0.9467-0.5713-2.1869-0.8353-3.6623-0.2419   l0.7286,1.8178c1.9105-0.7659,2.9337,1.1011,3.0417,1.3115l1.813-0.7219C18.7302,20.9099,18.1813,18.8516,20.0861,18.0862z"/><path d="M18.7675,6.0804l-0.7306-1.8168c-2.0243,0.8133-2.8935,2.3155-3.1727,3.7804c-1.2144-0.8654-2.8811-1.3502-4.9064-0.536   l0.7306,1.8173c2.7644-1.1097,4.236,1.5687,4.3919,1.8747l1.8111-0.7277C16.8503,10.3403,15.9227,7.2235,18.7675,6.0804z"/><path d="M64.6133,3.2299v1.9583c2.5149,0,2.8247,2.5703,2.8505,2.8586l1.9516,0.0048c0.0268-0.2931,0.3366-2.8634,2.8514-2.8634   V3.2299c-1.8818,0-3.0905,0.8821-3.8268,1.9478C67.7038,4.112,66.4952,3.2299,64.6133,3.2299z"/></g><text x="0" y="111" fill="#000000" font-size="5px" font-weight="bold" font-family="'Helvetica Neue', Helvetica, Arial-Unicode, Arial, Sans-serif">Created by ProSymbols</text><text x="0" y="116" fill="#000000" font-size="5px" font-weight="bold" font-family="'Helvetica Neue', Helvetica, Arial-Unicode, Arial, Sans-serif">from the Noun Project</text></svg>