<svg xmlns="http://www.w3.org/2000/svg" viewBox="0 0 100 125" x="0px" y="0px"><path d="M37.98633,39.42041h5.20459a1.79272,1.79272,0,1,0-.29932-3.56006,2.537,2.537,0,0,0-4.53467-.3667,1.95724,1.95724,0,0,0-.37061-.03516,1.981,1.981,0,0,0,0,3.96191Zm0-3.25293a1.26113,1.26113,0,0,1,.43115.07617l.311.11328.13428-.30225a1.82751,1.82751,0,0,1,3.44824.31885l.09424.39941.38135-.15088a1.1047,1.1047,0,0,1,1.48926,1.00586,1.08539,1.08539,0,0,1-1.085,1.0835H37.98633a1.272,1.272,0,0,1,0-2.54395ZM23.147,40.31934A1.53589,1.53589,0,1,0,24.68311,41.855,1.53748,1.53748,0,0,0,23.147,40.31934Zm0,2.36279a.8269.8269,0,1,1,.82715-.82715A.82771.82771,0,0,1,23.147,42.68213Zm55.2959,17.67236a1.7002,1.7002,0,0,0-3.40039,0V80.436h3.40039Zm-.709,19.37256H75.75146V75.09229h1.98242Zm0-5.34375H75.75146V72.57178h1.98242Zm0-2.52051H75.75146V67.228h1.98242Zm0-5.34375H75.75146V64.70752h1.98242Zm0-2.52051H75.75146v-3.644a.99121.99121,0,0,1,1.98242,0ZM36.91357,68.79346a2.69382,2.69382,0,0,0-2.69092,2.69092V78.106h5.38184V71.48438A2.69382,2.69382,0,0,0,36.91357,68.79346ZM38.89551,77.397H34.93164v-2.1748h3.96387Zm0-2.88379H34.93164v-2.127h3.96387Zm0-2.83594H34.93164v-.19287a1.98193,1.98193,0,0,1,3.96387,0Zm13.85986-.19287a2.69116,2.69116,0,0,0-5.38232,0V78.106h5.38232Zm-.709,5.9126H48.082v-2.1748h3.96436Zm0-2.88379H48.082v-2.127h3.96436Zm0-2.83594H48.082v-.19287a1.98218,1.98218,0,0,1,3.96436,0Zm11.18848-2.88379a2.69382,2.69382,0,0,0-2.69092,2.69092V78.106h5.38184V71.48438A2.69382,2.69382,0,0,0,63.23486,68.79346ZM65.2168,77.397H61.25293v-2.1748H65.2168Zm0-2.88379H61.25293v-2.127H65.2168Zm0-2.83594H61.25293v-.19287a1.98193,1.98193,0,0,1,3.96387,0ZM34.37158,65.313a6.62023,6.62023,0,0,1,2.5415-.50537,6.711,6.711,0,0,1,5.35205,2.7085.35379.35379,0,0,0,.36328.13379,3.87864,3.87864,0,0,1,1.72119,0,.36365.36365,0,0,0,.0791.00879.35429.35429,0,0,0,.28418-.14258,6.74936,6.74936,0,0,1,1.87988-1.71045.35444.35444,0,0,0,.03662-.57715,5.43968,5.43968,0,0,1-1.08057-7.30176.35428.35428,0,0,0,.00635-.38916.35787.35787,0,0,0-.355-.16064,16.39827,16.39827,0,0,0-11.26514,7.42187.35441.35441,0,0,0,.43652.51416ZM44.55518,58.2168a6.14883,6.14883,0,0,0,1.26807,7.24756,7.39944,7.39944,0,0,0-1.541,1.44873,4.5719,4.5719,0,0,0-1.58643,0,7.42115,7.42115,0,0,0-5.78271-2.81445,7.32037,7.32037,0,0,0-1.80811.22559A15.74343,15.74343,0,0,1,44.55518,58.2168ZM54.91406,57.377a.35472.35472,0,0,0-.34863.5498,5.44031,5.44031,0,0,1-1.06787,7.292.35484.35484,0,0,0,.03906.57715,6.68787,6.68787,0,0,1,1.89209,1.71777.3543.3543,0,0,0,.28467.14307.35822.35822,0,0,0,.07813-.00879,3.9422,3.9422,0,0,1,1.71582,0,.35475.35475,0,0,0,.36279-.13428,6.713,6.713,0,0,1,5.36475-2.70605,6.61248,6.61248,0,0,1,2.499.49023.35466.35466,0,0,0,.43457-.51562A16.40556,16.40556,0,0,0,54.91406,57.377Zm8.3208,6.72168a7.4249,7.4249,0,0,0-5.79639,2.813,4.65371,4.65371,0,0,0-1.57812,0,7.3416,7.3416,0,0,0-1.55566-1.46,6.14919,6.14919,0,0,0,1.25439-7.23486A15.75337,15.75337,0,0,1,65.002,64.31494,7.28391,7.28391,0,0,0,63.23486,64.09863ZM50.05713,48.32275a1.56478,1.56478,0,0,0-1.563,1.563v3.228h3.126v-3.228A1.56478,1.56478,0,0,0,50.05713,48.32275Zm.854,4.082h-1.708v-2.519a.854.854,0,1,1,1.708,0ZM83.95068,40.85144v-.6156H85.543V37.00635h-.00128l-5.58844-2.49493a38.101,38.101,0,0,0-7.39056-7.21118,2.8838,2.8838,0,0,0-1.7536-5.1806,2.91163,2.91163,0,0,0-.68018.08008,3.75792,3.75792,0,0,0-6.65161.11481,37.93212,37.93212,0,0,0-35.9317,4.89612L23.43652,8.873V6.9502h.99072v-.709h-.99072V5.25h-.709v.99121h-.99121v.709h.99121V8.87286l-4.2049,18.76337H16.05859V31.416H14.50537V44.40826l-.00928-.00348A37.93047,37.93047,0,1,0,87.92627,57.76953,37.53889,37.53889,0,0,0,83.95068,40.85144Zm.8833-1.32458H68.89111V37.74622l.06256-.03088H84.834Zm0,14.11279v1.81152H68.89111V53.63965Zm-11.65381-.709V46.18018a.99121.99121,0,0,1,1.98242,0v6.75049Zm2.69141,0V46.18018a.991.991,0,1,1,1.98193,0v6.75049Zm2.69092,0V46.18018a.99121.99121,0,0,1,1.98242,0v6.75049Zm4.6792,0H81.25391V46.18018A1.69409,1.69409,0,0,0,78.208,45.153a1.68137,1.68137,0,0,0-2.69092,0,1.69409,1.69409,0,0,0-3.0459,1.02716v6.75049H70.48291V40.23584h1.98828v2.06543h.709V40.23584H75.1626v2.06543h.709V40.23584h1.98193v2.06543h.709V40.23584h1.98242v2.06543h.709V40.23584H83.2417Zm.6756-15.92432H69.79169L76.876,33.80664ZM63.3833,23.55273l.3833.15479.09473-.40186a3.05224,3.05224,0,0,1,5.75928-.53662l.13379.30029.31006-.11133a2.18576,2.18576,0,1,1,.74463,4.24121H62.68115a1.89136,1.89136,0,1,1,0-3.78271A1.86654,1.86654,0,0,1,63.3833,23.55273ZM50,20.55225A37.064,37.064,0,0,1,62.52808,22.723a2.59467,2.59467,0,0,0,.15308,5.18518h8.12793a2.87357,2.87357,0,0,0,1.09857-.21948,37.35917,37.35917,0,0,1,6.50439,6.0752l-1.539-.74634L68.1897,37.00635h-.00757v3.22949h1.5918V52.93066h-1.5918v3.22949h1.69629V57.8241L51.62012,44.85858V41.83105H50.42334V40.69879H51.644v-.709h-1.2207V38.7691h-.709v1.2207H48.49414v.709h1.22021v1.13226H48.49414v3.08606l-18.25879,13.192v-1.949h1.59229V52.93066H30.23535V49.26007L31.8335,47.395V31.416H30.105V27.63623H28.16534A36.86165,36.86165,0,0,1,50,20.55225ZM45.74164,71.4173a4.32619,4.32619,0,0,1,8.65192.06708V79.77H45.74463V71.44678C45.74463,71.43665,45.74176,71.42737,45.74164,71.4173Zm5.16949-4.88586a4.267,4.267,0,0,0-1.708.0014V63.923a2.74842,2.74842,0,0,0,1.708,0Zm-.854-3.18134a2.3584,2.3584,0,1,1,2.3584-2.3584A2.36124,2.36124,0,0,1,50.05713,63.3501Zm.854-5.28979a2.749,2.749,0,0,0-1.708.00006V55.5376h1.708Zm-3.25879-3.23169A18.53463,18.53463,0,0,0,30.23535,67.334V58.98322l19.853-14.34308,19.79,14.05334v8.64038a18.534,18.534,0,0,0-17.4165-12.50525ZM19.47119,36.811V34.64551h1.98193V36.811h.709V34.64551h1.98242V36.811h.709V34.64551h1.98193V36.811h.709V34.64551h1.98193V46.06934H27.54443v-2.9248a4.39111,4.39111,0,1,0-8.78223,0v2.9248H16.77979V34.64551h1.98242V36.811Zm10.05518,9.96729v6.15234H27.54443V46.77832Zm-4.67285-.709v-.12109a.991.991,0,1,1,1.98193,0v.12109Zm1.98193.709v6.15234H24.85352V46.77832ZM25.84424,44.248a1.692,1.692,0,0,0-1.34521.673,1.68185,1.68185,0,0,0-2.69141,0,1.67865,1.67865,0,0,0-2.33643-.34833V43.14453a3.68213,3.68213,0,1,1,7.36426,0v1.42834A1.68557,1.68557,0,0,0,25.84424,44.248Zm-3.68213,1.82129v-.12109a.99121.99121,0,1,1,1.98242,0v.12109Zm1.98242.709v6.15234H22.16211V46.77832Zm-4.67334-.709v-.12109a.991.991,0,1,1,1.98193,0v.12109Zm1.98193.709v6.15234H19.47119V46.77832Zm-2.69092,0v6.15234H16.76758V50.09l.01221.01453V46.77832Zm12.35645,6.86133v1.81152H15.17578V53.63965Zm18.08447-9.2348V42.54h1.708V44.3551l-.82666-.587ZM30.23535,48.15723V34.64551h.85693v12.4917Zm-3.32129-20.521H24.928L23.83386,13.88879ZM23.082,13.37939,24.2168,27.63623h-2.27Zm-.752.50958L21.23566,27.63623H19.24951Zm-5.5625,14.45624H29.396V31.416H16.76758ZM15.21436,32.125H31.15674v1.81152H15.21436Zm0,2.52051h.84424V48.1427l-.84424-1.00549ZM16.05859,73.001a37.155,37.155,0,0,1-1.55322-26.43677V47.395l1.55322,1.85034v3.6853H14.4668v3.22949h1.5918Zm3.4126,6.05554V75.09229h1.98193v4.63477H19.96777C19.80328,79.50256,19.631,79.28534,19.47119,79.05658Zm1.98193-14.34906V66.519H19.47119V64.70752Zm-1.98193-.709v-3.644a.991.991,0,0,1,1.98193,0v3.644ZM21.45313,67.228v4.63477H19.47119V67.228Zm0,5.34375V74.3833H19.47119V72.57178Zm6.71094,13.80566V87.883a37.24118,37.24118,0,0,1-7.6712-7.447h7.05157V60.35449A1.69383,1.69383,0,0,0,24.499,59.3277a1.682,1.682,0,0,0-2.69141,0,1.69383,1.69383,0,0,0-3.04541,1.02679V77.96161a37.22212,37.22212,0,0,1-1.99463-3.449V56.16016H29.52637V77.72583l-1.3623,2.30151ZM24.14453,64.70752V66.519H22.16211V64.70752Zm-1.98242-.709v-3.644a.99121.99121,0,0,1,1.98242,0v3.644ZM24.14453,67.228v4.63477H22.16211V67.228Zm0,5.34375V74.3833H22.16211V72.57178Zm0,2.52051v4.63477H22.16211V75.09229Zm2.69092-10.38477V66.519H24.85352V64.70752Zm-1.98193-.709v-3.644a.991.991,0,0,1,1.98193,0v3.644ZM26.83545,67.228v4.63477H24.85352V67.228Zm0,5.34375V74.3833H24.85352V72.57178Zm0,2.52051v4.63477H24.85352V75.09229ZM30.88916,89.697q-1.02777-.61514-2.01611-1.29547V86.73193h2.01611Zm0-3.67407H28.873V80.22168l.99512-1.68115,1.021,1.68311Zm-.65381-8.24335V71.78125c0-8.65332,8.13867-16.24365,17.417-16.24365h.8418V58.217h-.00177v.15924a3.03475,3.03475,0,0,0,.00177,5.24023v3.10474a5.02545,5.02545,0,0,0-3.23859,3.34021,2.22816,2.22816,0,0,0-3.53326-.00043A5.02449,5.02449,0,0,0,31.875,71.48438V79.77h-.43182Zm11.00079-6.36475c-.00018.01086-.00323.021-.00323.03192V79.77H32.584V71.48438a4.32633,4.32633,0,0,1,8.65216-.06952Zm-4.89923,20.957c-.82062-.32434-1.62659-.68146-2.42139-1.06274v-.3833h2.42139Zm0-2.155H33.92859a2.76444,2.76444,0,0,1,2.40833-2.61115Zm3.13037,3.23242c-.81653-.24139-1.62518-.50458-2.42139-.8006V90.92578h2.42139ZM37.0459,90.2168V87.60565a2.76444,2.76444,0,0,1,2.40833,2.61115Zm4.72559-3.48486v7.317q-.80338-.18256-1.59521-.40106V90.3457a3.48486,3.48486,0,0,0-6.96973,0v.61877c-.54395-.27527-1.07855-.56726-1.6084-.8689V86.77637l5.15234-4.43555L41.752,86.646l.01953-.02264Zm0-1.0047-5.021-4.322-5.15234,4.43555V80.479H41.77148Zm2.72559,8.83264q-1.01532-.15207-2.0166-.35773V86.73193h2.0166Zm0-8.53693h-2.0166V80.22168l.99561-1.68115,1.021,1.68311Zm.52881-6.29449-1.55762-2.56683-1.51611,2.56061V75.22217h3.07373Zm0-8.24408v3.02881H41.95215V71.48438c0-.0238-.00671-.04578-.007-.06952a1.544,1.544,0,0,1,3.08752.00244C45.03235,71.44019,45.02588,71.46143,45.02588,71.48438Zm4.67676,23.49286c-.81128-.00653-1.61816-.0423-2.42139-.10126v-3.9502h2.42139Zm0-4.76044H47.29431a2.76444,2.76444,0,0,1,2.40833-2.61115Zm3.12988,4.65082c-.80066.06061-1.60706.09937-2.4209.10828V90.92578h2.4209Zm-2.4209-4.65082V87.60571a2.76441,2.76441,0,0,1,2.40784,2.61108Zm4.521-3.48486v7.91748c-.46173.06146-.92432.11981-1.39111.16412V90.3457a3.48462,3.48462,0,1,0-6.96924,0v4.46509c-.45654-.0423-.91309-.083-1.36621-.142V86.4975l4.8291-4.15668,4.89746,4.21606Zm0-1.11066-4.89746-4.216L45.20605,85.562V80.479h9.72656Zm2.7251,8.569c-.66608.13989-1.33746.26514-2.01611.36877V86.73193h2.01611Zm0-8.16736H55.6416V80.22168l.99512-1.68115,1.021,1.68311Zm.53857-6.27838-1.56738-2.58295L55.10254,79.7403V75.22217h3.09375Zm0-8.26019v3.02881H55.10254V71.44678a1.54688,1.54688,0,0,1,3.09375,0Zm4.88086,21.1239q-1.19156.4487-2.4209.81549v-2.498h2.4209Zm0-2.39148H60.66931a2.76441,2.76441,0,0,1,2.40784-2.61108Zm3.13037,1.0495c-.79077.38409-1.60077.7334-2.42139,1.062V90.92578h2.42139Zm-2.42139-1.0495V87.60565a2.76444,2.76444,0,0,1,2.40833,2.61115Zm4.72949-3.48486v3.301q-.78781.45392-1.59912.86975V90.3457a3.48462,3.48462,0,1,0-6.96924,0v3.27991q-.78351.21771-1.58057.4007V86.72742l.00977.01135,5.10938-4.39795,5.001,4.30518.02881-.03345Zm0-.9967-5.02979-4.33L58.3667,85.81165V80.479H68.51563ZM58.90527,79.77V71.48438a4.32959,4.32959,0,0,1,8.65918,0V79.77Zm9.36816,0V71.48438a5.02459,5.02459,0,0,0-9.8501-1.41431A2.22925,2.22925,0,0,0,54.87555,70.07a5.02525,5.02525,0,0,0-3.25543-3.35309v-3.1004a3.03492,3.03492,0,0,0-.00061-5.24182v-.05194h.00061V55.5376h.8418c9.27783,0,17.4165,7.59033,17.4165,16.24365V77.725L68.668,79.77Zm2.96777,8.53339c-.65857.45953-1.328.90424-2.0166,1.32135V86.73193h2.0166Zm0-2.28046h-2.0166V80.22168l.99512-1.68115,1.02148,1.68311ZM83.2417,74.475A37.462,37.462,0,0,1,71.9502,87.79883V80.02539L70.5874,77.78021V56.16016H83.2417Zm.709-18.31488H85.543V52.93066H83.95068V42.528a37.13433,37.13433,0,0,1,0,30.45886Z"/><text x="0" y="115" fill="#000000" font-size="5px" font-weight="bold" font-family="'Helvetica Neue', Helvetica, Arial-Unicode, Arial, Sans-serif">Created by Befoolish</text><text x="0" y="120" fill="#000000" font-size="5px" font-weight="bold" font-family="'Helvetica Neue', Helvetica, Arial-Unicode, Arial, Sans-serif">from the Noun Project</text></svg>