<svg xmlns="http://www.w3.org/2000/svg" xmlns:xlink="http://www.w3.org/1999/xlink" version="1.1" x="0px" y="0px" viewBox="0 0 138 172.5" enable-background="new 0 0 138 138" xml:space="preserve"><g><path d="M56.6975,55.1053h7.7201c0.26,0,0.52-0.1104,0.71-0.29c0.1801-0.1899,0.29-0.4502,0.29-0.71l-0.01-10.48   c0-0.5503-0.4501-1-1-1h-7.74c-0.27,0-0.52,0.1099-0.7101,0.2998c-0.1899,0.1899-0.2899,0.4399-0.2899,0.71l0.0299,10.4702   C55.6975,54.6551,56.1476,55.1053,56.6975,55.1053z M63.4076,44.6253l0.01,8.48h-5.73l-0.02-8.48H63.4076z"/><path d="M68.4775,55.1053h7.72c0.55,0,1-0.4502,1-1l0.02-10.4702c0-0.27-0.0999-0.52-0.2899-0.71s-0.4401-0.2998-0.7101-0.2998   h-7.74c-0.26,0-0.52,0.1099-0.71,0.2998c-0.1799,0.1802-0.29,0.4399-0.29,0.7002v10.48   C67.4775,54.6551,67.9276,55.1053,68.4775,55.1053z M69.4775,44.6253h5.74l-0.02,8.48h-5.72V44.6253z"/><path d="M80.2676,55.1053h7.72c0.55,0,0.99-0.4399,1-1l0.04-10.4702c0-0.27-0.1-0.52-0.29-0.71s-0.44-0.2998-0.71-0.2998h-7.74   c-0.55,0-0.99,0.4497-1,1l-0.02,10.48c0,0.2598,0.1001,0.52,0.29,0.71C79.7476,54.9949,79.9976,55.1053,80.2676,55.1053z    M81.2876,44.6253h5.74l-0.04,8.48h-5.72L81.2876,44.6253z"/><path d="M133,130.1048h-4.9924l-5.72-80.8696c-0.03-0.5298-0.47-0.9302-0.99-0.9302h-8.75c-0.13-3.3301-0.58-6.6201-1.39-9.79   c0.0498-0.2156-0.0055-0.4714-0.05-0.5596c-5.09-19.1802-21.31-32.0605-40.3901-32.0605c-18.8099,0-35.0499,12.9102-40.5,32.1904   c-0.7964,0.7964-1.7148,8.0658-1.8499,10.2197h-9.1801c-0.53,0-0.9701,0.4102-1,0.9302l-5.38,80.8696H5c-0.5522,0-1,0.4482-1,1   c0,0.5527,0.4478,1,1,1c22.4825,0.0001,105.9379,0.0012,128,0c0.5522,0,1-0.4473,1-1C134,130.5531,133.5522,130.1048,133,130.1048z    M73.4976,90.1151c5.3101,4.75,13.17,15.9399,11.52,39.9897H61.6077C61.1576,125.244,59.7178,101.3753,73.4976,90.1151z    M70.7175,7.8948c17.6782,0,32.8118,11.6427,38.0801,29.2002c-19.8911-3.0958-54.8907-3.2701-76.3201,0.3799   C37.5672,20.5368,52.5739,7.8948,70.7175,7.8948z M31.7676,39.6351c22.8101-4.0498,58.06-3.5,77.49-0.4399   c0.75,2.9497,1.16,6,1.29,9.1099h-11.22c-0.55,0-1,0.4399-1,0.9902l-0.1,13.8301h-54.97l-0.09-13.8301   c0-0.5503-0.4501-0.9902-1-0.9902h-11.78C30.5676,45.3553,31.0276,42.4554,31.7676,39.6351z M20.1177,50.305h21.0599l0.08,13.8301   c0.01,0.5498,0.45,0.9902,1,0.9902h56.96c0.55,0,1-0.4404,1-0.9902l0.1-13.8301h20.04l5.65,79.7998h-38.99   c1.74-25.7798-7.28-37.3994-12.85-42.0596c-0.36-0.29-0.88-0.3101-1.25-0.02c-15.2899,11.6699-13.87,36.4194-13.3199,42.0796   h-44.78L20.1177,50.305z"/></g><text x="0" y="153" fill="#000000" font-size="5px" font-weight="bold" font-family="'Helvetica Neue', Helvetica, Arial-Unicode, Arial, Sans-serif">Created by Vectors Point</text><text x="0" y="158" fill="#000000" font-size="5px" font-weight="bold" font-family="'Helvetica Neue', Helvetica, Arial-Unicode, Arial, Sans-serif">from the Noun Project</text></svg>