<svg xmlns="http://www.w3.org/2000/svg" viewBox="0 0 83.63 85"><defs><style>.cls-1{fill:#ff6145;}</style></defs><g id="Layer_2" data-name="Layer 2"><g id="Layer_1-2" data-name="Layer 1"><path class="cls-1" d="M82.8,77.94c-4-4.06-8.09-8.13-12.19-12.16-.88-.87-.45-1.45-.06-2.44a23,23,0,0,0,1.06-3.46,19.59,19.59,0,0,0-.49-11.3,3.49,3.49,0,0,1-.19-1.21c0-4.08,0-8.16,0-12.24v-.91H68.08v8.44c-.7-.6-1.47-1.3-2.28-1.95a1.38,1.38,0,0,1-.54-1.21c0-3.33,0-6.67,0-10v-.91H62.42v9.6a18.5,18.5,0,0,0-2.11-1c-.59-.2-.7-.54-.7-1.1,0-4.06,0-8.11,0-12.17v-1H56.78V36l-2.85-.41V25.75H51.11V35.6l-2.83.4V31.4H45.47c0,1.65,0,3.25,0,4.84,0,.25-.06.63-.22.72-.81.43-1.67.79-2.64,1.23V30H39.82v.95q0,4.31,0,8.61a1.35,1.35,0,0,1-.18.84c-.84.85-1.74,1.65-2.65,2.5V32.8H34.17v1c0,4.53,0,9,0,13.57a2.45,2.45,0,0,1-.08.9A19.67,19.67,0,0,0,33,58.18H14.46V61H33.57c2.12,6.39,6.22,10.84,12.53,13s12.26,1.17,17.81-2.46l.46.43c2.65,2.65,5.3,5.31,8,8,1.72,1.71,3.48,3.38,5.22,5.07h.82a13.08,13.08,0,0,0,1.08-.89c1.12-1.1,2.23-2.22,3.34-3.33S83.91,79,82.8,77.94ZM52.56,72.27A16.95,16.95,0,1,1,69.48,55.33,16.92,16.92,0,0,1,52.56,72.27Zm25.33,9.32L66.09,69.77l2.06-2.27L80.07,79.42Z"/><path class="cls-1" d="M23.27,71.16q-3.72,0-7.44,0a7.24,7.24,0,0,1-7.15-5.76,9.81,9.81,0,0,1-.18-2.11q0-22.05,0-44.1c0-4.78,3.09-7.86,7.86-7.86H71.81c4.75,0,7.82,3.06,7.82,7.79V33.44q0,15,0,30a7.69,7.69,0,0,1-1.82,5.19l-.17.2-2.51-2.19.17-.2c1-1.09,1-2.43,1-3.84v-.35q0-15.18,0-30.36V19.22c0-3-1.54-4.6-4.58-4.6H16.43c-3,0-4.59,1.54-4.59,4.58q0,22,0,44c0,3,1.54,4.59,4.59,4.59h18v3.24l-.39,0a2.73,2.73,0,0,1-.38,0Z"/><path class="cls-1" d="M34.13,68.06v2.77c-.19,0-.35.06-.51.06-5.93,0-11.86,0-17.79,0a7,7,0,0,1-6.9-5.56,9.46,9.46,0,0,1-.18-2.06q0-22.05,0-44.1c0-4.65,3-7.61,7.6-7.61H71.81c4.59,0,7.57,3,7.57,7.54q0,22.19,0,44.36a7.43,7.43,0,0,1-1.76,5L75.5,66.62c1.17-1.27,1.06-2.83,1.06-4.37q0-21.51,0-43c0-3.19-1.66-4.86-4.84-4.86H16.43c-3.19,0-4.85,1.66-4.85,4.84v44c0,3.19,1.66,4.84,4.85,4.84h17.7Z"/><path class="cls-1" d="M5.53,59.57a6.8,6.8,0,0,1-3.64-2.18A7.13,7.13,0,0,1,0,52.46v-3.3Q0,28.3,0,7.44A7.28,7.28,0,0,1,7.62,0H63.41a7.75,7.75,0,0,1,5.87,2.41A8,8,0,0,1,71.1,8.7l0,.23H67.84V7.59a4,4,0,0,0-4.26-4.26H8c-3.06,0-4.61,1.54-4.61,4.57v13q0,15.51,0,31a4.29,4.29,0,0,0,3,4.48l.21.08-.75,3Z"/><path class="cls-1" d="M70.85,8.68H68.1c0-.39,0-.74,0-1.09a4.25,4.25,0,0,0-4.51-4.51H8c-3.18,0-4.86,1.67-4.86,4.83q0,22,0,44a4.54,4.54,0,0,0,3.18,4.72l-.66,2.67a6.6,6.6,0,0,1-3.51-2.1A6.89,6.89,0,0,1,.27,52.46q0-22.51,0-45A7,7,0,0,1,7.62.26H63.41C68.23.25,71.36,3.77,70.85,8.68Z"/><path class="cls-1" d="M22.94,38.43h2.73V55.29H22.94Z"/><path class="cls-1" d="M28.58,42.67h2.73V55.3H28.58Z"/><path class="cls-1" d="M20,55.33h-2.7V47H20Z"/><path class="cls-1" d="M8.69,8.67H6V6H8.69Z"/><path class="cls-1" d="M14.36,5.94V8.68H11.64V5.94Z"/><path class="cls-1" d="M17.28,8.67V6H20V8.67Z"/><path class="cls-1" d="M28.48,20H25.76V17.25h2.72Z"/><path class="cls-1" d="M17.2,17.26V20H14.47V17.26Z"/><path class="cls-1" d="M20.12,17.24h2.71V20H20.12Z"/><path class="cls-1" d="M52.54,41.21A14.12,14.12,0,1,1,38.43,55.3,14.13,14.13,0,0,1,52.54,41.21ZM45.45,46.7c-3.57,2.4-5.08,8.1-3.71,11.45H63.39c1.35-3.82-.46-9.39-3.79-11.42v8.55H56.8v-1c0-2.89,0-5.79,0-8.68,0-.3-.16-.77-.37-.86-.75-.29-1.55-.45-2.47-.7V55.3H51.12V44.1c-.79.19-1.44.37-2.11.52s-.74.39-.73,1c0,2.84,0,5.68,0,8.52v1.18H45.45ZM62.3,61.05H42.79c2.39,3.64,5.6,5.59,9.84,5.56S60,64.64,62.3,61.05Z"/></g></g></svg>