<svg xmlns="http://www.w3.org/2000/svg" viewBox="0 0 84.2 82.67"><defs><style>.cls-1{fill:#ff6145;fill-rule:evenodd;}</style></defs><g id="Layer_2" data-name="Layer 2"><g id="Layer_1-2" data-name="Layer 1"><path class="cls-1" d="M42.1,34.39A17.21,17.21,0,0,1,25,18.65H4.12a1.23,1.23,0,0,0-1.23,1.22v34H81.31V19.87a1.23,1.23,0,0,0-1.23-1.22H59.22A17.19,17.19,0,0,1,42.1,34.39ZM26.27,10.51A17,17,0,0,0,25,15.75H4.12A4.13,4.13,0,0,0,0,19.87V62.23a4.13,4.13,0,0,0,4.12,4.12H35.41v5H30.88a6.78,6.78,0,0,0-6.77,6.77v3.07a1.45,1.45,0,0,0,1.44,1.45H58.64a1.45,1.45,0,0,0,1.45-1.45V78.15a6.78,6.78,0,0,0-6.77-6.77H48.78v-5h31.3a4.13,4.13,0,0,0,4.12-4.12V19.87a4.13,4.13,0,0,0-4.12-4.12H59.22a17.18,17.18,0,0,0-32.95-5.24ZM42.1,2.9A14.31,14.31,0,0,1,56.39,17.19h0A14.29,14.29,0,1,1,42.1,2.9ZM38.31,66.35h7.58v5H38.31Zm-1.48,7.92H53.32a3.88,3.88,0,0,1,3.88,3.88v1.62H27V78.15a3.88,3.88,0,0,1,3.88-3.88Zm-33.94-12V56.72H81.31v5.51a1.23,1.23,0,0,1-1.23,1.22h-76A1.23,1.23,0,0,1,2.89,62.23Zm71.16-.7h2.88a1.45,1.45,0,1,0,0-2.89H74.05a1.45,1.45,0,1,0,0,2.89Zm-7,0H64.2a1.45,1.45,0,0,1,0-2.89h2.89a1.45,1.45,0,0,1,0,2.89Zm-12.73,0h2.88a1.45,1.45,0,1,0,0-2.89H54.36a1.45,1.45,0,1,0,0,2.89ZM11.22,41.77H73a1.45,1.45,0,1,0,0-2.9H11.22a1.45,1.45,0,1,0,0,2.9ZM73,49.34H11.22a1.45,1.45,0,1,1,0-2.9H73a1.45,1.45,0,0,1,0,2.9ZM33,20l4.28,4.29a1.46,1.46,0,0,0,2.05,0L51.18,12.47a1.45,1.45,0,0,0-2-2.05L38.33,21.24,35.07,18a1.45,1.45,0,0,0-2,2Z"/></g></g></svg>