<svg xmlns="http://www.w3.org/2000/svg" viewBox="0 0 84.69 84.69"><defs><style>.cls-1,.cls-2{fill:#ff6145;}.cls-2{fill-rule:evenodd;}</style></defs><g id="Layer_2" data-name="Layer 2"><g id="Layer_1-2" data-name="Layer 1"><path class="cls-1" d="M2.92,11.68H70.09V2.92H2.92ZM73,30.66a1.46,1.46,0,0,1-2.92,0V14.6H2.92V57a1.45,1.45,0,0,1-1.46,1.46A1.45,1.45,0,0,1,0,57V1.46A1.44,1.44,0,0,1,1.46,0H71.55A1.45,1.45,0,0,1,73,1.46Z"/><path class="cls-2" d="M1.46,61.33a1.46,1.46,0,1,1,0,2.92,1.46,1.46,0,1,1,0-2.92Z"/><path class="cls-1" d="M59.87,73H1.46A1.45,1.45,0,0,1,0,71.55V56.11a1.44,1.44,0,0,1,1.46-1.46,1.44,1.44,0,0,1,1.46,1.46v14h57a1.46,1.46,0,1,1,0,2.92Z"/><path class="cls-1" d="M30.66,40.88H10.22a1.44,1.44,0,0,1-1.46-1.46V21.9a1.44,1.44,0,0,1,1.46-1.46H30.66a1.44,1.44,0,0,1,1.46,1.46V39.42A1.44,1.44,0,0,1,30.66,40.88ZM11.68,38H29.2V23.36H11.68Z"/><path class="cls-1" d="M40.88,61.33h8.76V49.65H40.88Zm-14.6,0h5.84V55.49H26.28Zm-11.68,0h2.92V58.41H14.6Zm23.36,0V48.19a1.45,1.45,0,0,1,1.46-1.46H51.1a1.44,1.44,0,0,1,1.46,1.46V61.33H54a1.46,1.46,0,1,1,0,2.92H10.22a1.46,1.46,0,1,1,0-2.92h1.46V57a1.44,1.44,0,0,1,1.46-1.46H19A1.44,1.44,0,0,1,20.44,57v4.38h2.92V54a1.44,1.44,0,0,1,1.46-1.46h8.76A1.44,1.44,0,0,1,35,54v7.3Z"/><path class="cls-1" d="M62.79,23.36H39.42a1.46,1.46,0,1,1,0-2.92H62.79a1.46,1.46,0,1,1,0,2.92Z"/><path class="cls-1" d="M13.14,8.76H7.3a1.46,1.46,0,0,1,0-2.92h5.84a1.46,1.46,0,0,1,0,2.92Z"/><path class="cls-2" d="M65.71,5.84A1.46,1.46,0,1,1,64.25,7.3,1.46,1.46,0,0,1,65.71,5.84Z"/><path class="cls-2" d="M59.87,5.84A1.46,1.46,0,1,1,58.41,7.3,1.46,1.46,0,0,1,59.87,5.84Z"/><path class="cls-1" d="M74.47,84.69H62.79a1.44,1.44,0,0,1-1.46-1.46V77.39a1.44,1.44,0,0,1,1.46-1.46h4.38V73H65.71a1.44,1.44,0,0,1-1.46-1.46V65.71a1.44,1.44,0,0,1,1.46-1.46h1.46V61a13.14,13.14,0,1,1,8.76,0V83.23A1.44,1.44,0,0,1,74.47,84.69ZM64.25,81.77H73V59.87a1.41,1.41,0,0,1,1.11-1.4,10.22,10.22,0,1,0-5.14,0,1.49,1.49,0,0,1,1.11,1.4v5.84a1.45,1.45,0,0,1-1.46,1.46H67.17v2.92h1.46a1.45,1.45,0,0,1,1.46,1.46v5.84a1.45,1.45,0,0,1-1.46,1.46H64.25Zm7.3-25.9a7.3,7.3,0,1,1,7.3-7.3A7.3,7.3,0,0,1,71.55,55.87Zm0-11.68a4.38,4.38,0,1,0,4.38,4.38A4.37,4.37,0,0,0,71.55,44.19Z"/><path class="cls-1" d="M62.79,32.12H39.42a1.46,1.46,0,0,1,0-2.92H62.79a1.46,1.46,0,0,1,0,2.92Z"/><path class="cls-1" d="M54,40.88H39.42a1.46,1.46,0,0,1,0-2.92H54a1.46,1.46,0,0,1,0,2.92Z"/></g></g></svg>