<svg width="200" height="200" viewBox="0 0 200 200" fill="none" xmlns="http://www.w3.org/2000/svg">
<path d="M182.639 158.261H175.835V79.607C175.835 78.3034 174.777 77.2455 173.474 77.2455H169.199V67.8722C169.199 66.5686 168.141 65.5107 166.837 65.5107H145.595C144.291 65.5107 143.234 66.5686 143.234 67.8722V77.2455H137.933C136.63 77.2455 135.572 78.3034 135.572 79.607V84.5625H124.353V39.3614C124.353 38.0578 123.295 37 121.992 37H92.1991C90.8955 37 89.8377 38.0578 89.8377 39.3614V101.288H61.1097V78.5601C61.1097 77.2565 60.0518 76.1987 58.7482 76.1987H56.051V66.8253C56.051 65.5217 54.9932 64.4639 53.6895 64.4639H45.4289V53.8791C45.4289 52.5755 44.371 51.5176 43.0674 51.5176C41.7638 51.5176 40.706 52.5755 40.706 53.8791V64.4639H32.4453C31.1417 64.4639 30.0838 65.5217 30.0838 66.8253V76.1987H27.3866C26.083 76.1987 25.0252 77.2565 25.0252 78.5601V158.259H17.3614C16.0578 158.259 15 159.317 15 160.62C15 161.924 16.0578 162.982 17.3614 162.982H182.639C183.942 162.982 185 161.924 185 160.62C185 159.317 183.942 158.261 182.639 158.261ZM147.954 70.2336H164.476V77.2455H147.954V70.2336ZM34.8067 69.189H51.3281V76.2009H34.8067V69.189ZM29.7481 80.9238H56.3868V158.261H29.7481V80.9238ZM61.1075 106.013H89.8355V158.263H61.1075V106.013ZM94.5584 103.652V41.7251H119.628V84.5647H110.419C109.115 84.5647 108.058 85.6225 108.058 86.9262V158.263H94.5562V103.654L94.5584 103.652ZM112.783 158.261V89.2854H135.572V158.261H112.783ZM140.293 158.261V81.9684H171.112V158.261H140.293ZM45.4267 86.9547V96.7736C45.4267 98.0772 44.3688 99.135 43.0652 99.135C41.7616 99.135 40.7038 98.0772 40.7038 96.7736V86.9547C40.7038 85.6511 41.7616 84.5932 43.0652 84.5932C44.3688 84.5932 45.4267 85.6511 45.4267 86.9547ZM52.4539 86.9547V96.7736C52.4539 98.0772 51.3961 99.135 50.0925 99.135C48.7889 99.135 47.7311 98.0772 47.7311 96.7736V86.9547C47.7311 85.6511 48.7889 84.5932 50.0925 84.5932C51.3961 84.5932 52.4539 85.6511 52.4539 86.9547ZM38.3972 86.9547V96.7736C38.3972 98.0772 37.3394 99.135 36.0357 99.135C34.7321 99.135 33.6743 98.0772 33.6743 96.7736V86.9547C33.6743 85.6511 34.7321 84.5932 36.0357 84.5932C37.3394 84.5932 38.3972 85.6511 38.3972 86.9547ZM45.4245 103.355V113.174C45.4245 114.478 44.3666 115.536 43.063 115.536C41.7594 115.536 40.7016 114.478 40.7016 113.174V103.355C40.7016 102.052 41.7594 100.994 43.063 100.994C44.3666 100.994 45.4245 102.052 45.4245 103.355ZM52.4517 103.355V113.174C52.4517 114.478 51.3939 115.536 50.0903 115.536C48.7867 115.536 47.7289 114.478 47.7289 113.174V103.355C47.7289 102.052 48.7867 100.994 50.0903 100.994C51.3939 100.994 52.4517 102.052 52.4517 103.355ZM38.395 103.355V113.174C38.395 114.478 37.3372 115.536 36.0336 115.536C34.7299 115.536 33.6721 114.478 33.6721 113.174V103.355C33.6721 102.052 34.7299 100.994 36.0336 100.994C37.3372 100.994 38.395 102.052 38.395 103.355ZM45.4223 119.756V129.575C45.4223 130.878 44.3645 131.936 43.0608 131.936C41.7572 131.936 40.6994 130.878 40.6994 129.575V119.756C40.6994 118.452 41.7572 117.395 43.0608 117.395C44.3645 117.395 45.4223 118.452 45.4223 119.756ZM52.4496 119.756V129.575C52.4496 130.878 51.3917 131.936 50.0881 131.936C48.7845 131.936 47.7267 130.878 47.7267 129.575V119.756C47.7267 118.452 48.7845 117.395 50.0881 117.395C51.3917 117.395 52.4496 118.452 52.4496 119.756ZM38.3928 119.756V129.575C38.3928 130.878 37.335 131.936 36.0314 131.936C34.7277 131.936 33.6699 130.878 33.6699 129.575V119.756C33.6699 118.452 34.7277 117.395 36.0314 117.395C37.335 117.395 38.3928 118.452 38.3928 119.756ZM45.4201 136.157V145.975C45.4201 147.279 44.3623 148.337 43.0586 148.337C41.755 148.337 40.6972 147.279 40.6972 145.975V136.157C40.6972 134.853 41.755 133.795 43.0586 133.795C44.3623 133.795 45.4201 134.853 45.4201 136.157ZM52.4474 136.157V145.975C52.4474 147.279 51.3895 148.337 50.0859 148.337C48.7823 148.337 47.7245 147.279 47.7245 145.975V136.157C47.7245 134.853 48.7823 133.795 50.0859 133.795C51.3895 133.795 52.4474 134.853 52.4474 136.157ZM38.3906 136.157V145.975C38.3906 147.279 37.3328 148.337 36.0292 148.337C34.7255 148.337 33.6677 147.279 33.6677 145.975V136.157C33.6677 134.853 34.7255 133.795 36.0292 133.795C37.3328 133.795 38.3906 134.853 38.3906 136.157ZM158.148 87.4617V95.6653C158.148 96.9689 157.091 98.0267 155.787 98.0267C154.483 98.0267 153.426 96.9689 153.426 95.6653V87.4617C153.426 86.158 154.483 85.1002 155.787 85.1002C157.091 85.1002 158.148 86.158 158.148 87.4617ZM167.689 87.4617V95.6653C167.689 96.9689 166.631 98.0267 165.327 98.0267C164.023 98.0267 162.966 96.9689 162.966 95.6653V87.4617C162.966 86.158 164.023 85.1002 165.327 85.1002C166.631 85.1002 167.689 86.158 167.689 87.4617ZM148.608 87.4617V95.6653C148.608 96.9689 147.55 98.0267 146.247 98.0267C144.943 98.0267 143.885 96.9689 143.885 95.6653V87.4617C143.885 86.158 144.943 85.1002 146.247 85.1002C147.55 85.1002 148.608 86.158 148.608 87.4617ZM158.148 103.862V112.011C158.148 113.315 157.091 114.372 155.787 114.372C154.483 114.372 153.426 113.315 153.426 112.011V103.862C153.426 102.559 154.483 101.501 155.787 101.501C157.091 101.501 158.148 102.559 158.148 103.862ZM167.689 103.862V112.011C167.689 113.315 166.631 114.372 165.327 114.372C164.023 114.372 162.966 113.315 162.966 112.011V103.862C162.966 102.559 164.023 101.501 165.327 101.501C166.631 101.501 167.689 102.559 167.689 103.862ZM148.608 103.862V112.011C148.608 113.315 147.55 114.372 146.247 114.372C144.943 114.372 143.885 113.315 143.885 112.011V103.862C143.885 102.559 144.943 101.501 146.247 101.501C147.55 101.501 148.608 102.559 148.608 103.862ZM158.148 120.263V128.675C158.148 129.979 157.091 131.036 155.787 131.036C154.483 131.036 153.426 129.979 153.426 128.675V120.263C153.426 118.959 154.483 117.901 155.787 117.901C157.091 117.901 158.148 118.959 158.148 120.263ZM167.689 120.263V128.675C167.689 129.979 166.631 131.036 165.327 131.036C164.023 131.036 162.966 129.979 162.966 128.675V120.263C162.966 118.959 164.023 117.901 165.327 117.901C166.631 117.901 167.689 118.959 167.689 120.263ZM148.608 120.263V128.675C148.608 129.979 147.55 131.036 146.247 131.036C144.943 131.036 143.885 129.979 143.885 128.675V120.263C143.885 118.959 144.943 117.901 146.247 117.901C147.55 117.901 148.608 118.959 148.608 120.263ZM158.148 136.664V144.448C158.148 145.752 157.091 146.809 155.787 146.809C154.483 146.809 153.426 145.752 153.426 144.448V136.664C153.426 135.36 154.483 134.302 155.787 134.302C157.091 134.302 158.148 135.36 158.148 136.664ZM167.689 136.664V144.448C167.689 145.752 166.631 146.809 165.327 146.809C164.023 146.809 162.966 145.752 162.966 144.448V136.664C162.966 135.36 164.023 134.302 165.327 134.302C166.631 134.302 167.689 135.36 167.689 136.664ZM148.608 136.664V144.448C148.608 145.752 147.55 146.809 146.247 146.809C144.943 146.809 143.885 145.752 143.885 144.448V136.664C143.885 135.36 144.943 134.302 146.247 134.302C147.55 134.302 148.608 135.36 148.608 136.664ZM107.579 82.0628C106.276 82.0628 105.218 81.005 105.218 79.7014V49.4788C105.218 48.1752 106.276 47.1173 107.579 47.1173C108.883 47.1173 109.941 48.1752 109.941 49.4788V79.7014C109.941 81.005 108.883 82.0628 107.579 82.0628ZM112.247 79.7014V49.4788C112.247 48.1752 113.305 47.1173 114.609 47.1173C115.912 47.1173 116.97 48.1752 116.97 49.4788V79.7014C116.97 81.005 115.912 82.0628 114.609 82.0628C113.305 82.0628 112.247 81.005 112.247 79.7014ZM102.913 49.4788V143.302C102.913 144.606 101.856 145.664 100.552 145.664C99.2483 145.664 98.1905 144.606 98.1905 143.302V49.481C98.1905 48.1774 99.2483 47.1195 100.552 47.1195C101.856 47.1195 102.913 48.1752 102.913 49.4788ZM77.9514 121.185V123.237C77.9514 124.54 76.8936 125.598 75.59 125.598C74.2863 125.598 73.2285 124.54 73.2285 123.237V121.185C73.2285 119.881 74.2863 118.823 75.59 118.823C76.8936 118.823 77.9514 119.881 77.9514 121.185ZM86.3789 121.185V123.237C86.3789 124.54 85.3211 125.598 84.0174 125.598C82.7138 125.598 81.656 124.54 81.656 123.237V121.185C81.656 119.881 82.7138 118.823 84.0174 118.823C85.3211 118.823 86.3789 119.881 86.3789 121.185ZM69.5239 121.185V123.237C69.5239 124.54 68.4661 125.598 67.1625 125.598C65.8589 125.598 64.8011 124.54 64.8011 123.237V121.185C64.8011 119.881 65.8589 118.823 67.1625 118.823C68.4661 118.823 69.5239 119.881 69.5239 121.185ZM78.0458 112.285V114.337C78.0458 115.641 76.988 116.699 75.6843 116.699C74.3807 116.699 73.3229 115.641 73.3229 114.337V112.285C73.3229 110.982 74.3807 109.924 75.6843 109.924C76.988 109.924 78.0458 110.982 78.0458 112.285ZM86.4733 112.285V114.337C86.4733 115.641 85.4154 116.699 84.1118 116.699C82.8082 116.699 81.7504 115.641 81.7504 114.337V112.285C81.7504 110.982 82.8082 109.924 84.1118 109.924C85.4154 109.924 86.4733 110.982 86.4733 112.285ZM69.6183 112.285V114.337C69.6183 115.641 68.5605 116.699 67.2569 116.699C65.9533 116.699 64.8954 115.641 64.8954 114.337V112.285C64.8954 110.982 65.9533 109.924 67.2569 109.924C68.5605 109.924 69.6183 110.982 69.6183 112.285ZM77.7605 139.343V141.395C77.7605 142.699 76.7027 143.757 75.399 143.757C74.0954 143.757 73.0376 142.699 73.0376 141.395V139.343C73.0376 138.04 74.0954 136.982 75.399 136.982C76.7027 136.982 77.7605 138.04 77.7605 139.343ZM86.188 139.343V141.395C86.188 142.699 85.1301 143.757 83.8265 143.757C82.5229 143.757 81.4651 142.699 81.4651 141.395V139.343C81.4651 138.04 82.5229 136.982 83.8265 136.982C85.1301 136.982 86.188 138.04 86.188 139.343ZM69.333 139.343V141.395C69.333 142.699 68.2752 143.757 66.9716 143.757C65.6679 143.757 64.6101 142.699 64.6101 141.395V139.343C64.6101 138.04 65.6679 136.982 66.9716 136.982C68.2752 136.982 69.333 138.04 69.333 139.343ZM77.8549 130.444V132.496C77.8549 133.8 76.797 134.857 75.4934 134.857C74.1898 134.857 73.132 133.8 73.132 132.496V130.444C73.132 129.14 74.1898 128.082 75.4934 128.082C76.797 128.082 77.8549 129.14 77.8549 130.444ZM86.2823 130.444V132.496C86.2823 133.8 85.2245 134.857 83.9209 134.857C82.6173 134.857 81.5594 133.8 81.5594 132.496V130.444C81.5594 129.14 82.6173 128.082 83.9209 128.082C85.2245 128.082 86.2823 129.14 86.2823 130.444ZM69.4274 130.444V132.496C69.4274 133.8 68.3696 134.857 67.0659 134.857C65.7623 134.857 64.7045 133.8 64.7045 132.496V130.444C64.7045 129.14 65.7623 128.082 67.0659 128.082C68.3696 128.082 69.4274 129.14 69.4274 130.444ZM117.892 119.859V117.807C117.892 116.503 118.95 115.446 120.253 115.446C121.557 115.446 122.615 116.503 122.615 117.807V119.859C122.615 121.163 121.557 122.221 120.253 122.221C118.95 122.221 117.892 121.163 117.892 119.859ZM126.319 119.859V117.807C126.319 116.503 127.377 115.446 128.681 115.446C129.984 115.446 131.042 116.503 131.042 117.807V119.859C131.042 121.163 129.984 122.221 128.681 122.221C127.377 122.221 126.319 121.163 126.319 119.859ZM122.424 138.018C122.424 139.321 121.366 140.379 120.062 140.379C118.759 140.379 117.701 139.321 117.701 138.018V135.966C117.701 134.662 118.759 133.604 120.062 133.604C121.366 133.604 122.424 134.662 122.424 135.966V138.018ZM126.128 138.018V135.966C126.128 134.662 127.186 133.604 128.49 133.604C129.794 133.604 130.851 134.662 130.851 135.966V138.018C130.851 139.321 129.794 140.379 128.49 140.379C127.186 140.379 126.128 139.321 126.128 138.018ZM117.798 129.118V127.066C117.798 125.763 118.855 124.705 120.159 124.705C121.463 124.705 122.52 125.763 122.52 127.066V129.118C122.52 130.422 121.463 131.48 120.159 131.48C118.855 131.48 117.798 130.422 117.798 129.118ZM126.225 129.118V127.066C126.225 125.763 127.283 124.705 128.586 124.705C129.89 124.705 130.948 125.763 130.948 127.066V129.118C130.948 130.422 129.89 131.48 128.586 131.48C127.283 131.48 126.225 130.422 126.225 129.118ZM117.988 110.96V108.908C117.988 107.604 119.046 106.546 120.35 106.546C121.654 106.546 122.711 107.604 122.711 108.908V110.96C122.711 112.263 121.654 113.321 120.35 113.321C119.046 113.321 117.988 112.263 117.988 110.96ZM126.416 110.96V108.908C126.416 107.604 127.474 106.546 128.777 106.546C130.081 106.546 131.139 107.604 131.139 108.908V110.96C131.139 112.263 130.081 113.321 128.777 113.321C127.474 113.321 126.416 112.263 126.416 110.96ZM118.085 102.06V100.008C118.085 98.7049 119.143 97.647 120.446 97.647C121.75 97.647 122.808 98.7049 122.808 100.008V102.06C122.808 103.364 121.75 104.422 120.446 104.422C119.143 104.422 118.085 103.364 118.085 102.06ZM126.513 102.06V100.008C126.513 98.7049 127.57 97.647 128.874 97.647C130.178 97.647 131.235 98.7049 131.235 100.008V102.06C131.235 103.364 130.178 104.422 128.874 104.422C127.57 104.422 126.513 103.364 126.513 102.06Z" fill="#071D26"/>
</svg>
