<svg width="200" height="200" viewBox="0 0 200 200" fill="none" xmlns="http://www.w3.org/2000/svg">
<path d="M168.661 51.6232V39.1131C168.661 38.5527 168.438 38.0152 168.042 37.619C167.646 37.2227 167.108 37 166.548 37H131.013C129.094 36.9951 127.193 37.3713 125.421 38.1068C123.649 38.8423 122.04 39.9225 120.689 41.2847L106.607 55.3979L105.515 54.304C104.339 53.1244 102.941 52.1884 101.403 51.5498C99.8639 50.9112 98.2144 50.5825 96.5485 50.5825C94.8825 50.5825 93.233 50.9112 91.6943 51.5498C90.1557 52.1884 88.7581 53.1244 87.5818 54.304L76.0356 65.8741L71.1474 64.0101C68.868 63.1351 66.4047 62.8491 63.9855 63.1786C61.5663 63.5081 59.2692 64.4423 57.3068 65.8949L37.316 80.6181C34.6415 82.5745 32.7138 85.3841 31.851 88.5834C30.9881 91.7827 31.2416 95.1806 32.5697 98.2165L34.8046 103.382C35.1289 104.124 35.2217 104.946 35.0709 105.741C34.9201 106.536 34.5327 107.267 33.9594 107.838C32.4168 109.389 31.5508 111.487 31.5508 113.675C31.5508 115.862 32.4168 117.961 33.9594 119.511L35.1973 120.752L30.5313 125.426C29.2348 126.731 28.4011 128.424 28.1576 130.247C27.9141 132.071 28.2741 133.923 29.1828 135.523L17.3697 147.693C15.8353 149.288 14.9849 151.419 15.0002 153.631C15.0155 155.844 15.8951 157.963 17.4514 159.536C18.2336 160.324 19.1646 160.949 20.1903 161.374C21.216 161.8 22.316 162.017 23.4264 162.014C24.5369 162.017 25.637 161.8 26.6627 161.374C27.6885 160.949 28.6196 160.324 29.4019 159.536L41.3182 147.595C42.9052 148.433 44.7192 148.741 46.4941 148.473C48.2689 148.205 49.9109 147.375 51.1792 146.104L55.8466 141.429C57.3558 142.794 59.3199 143.548 61.355 143.542C62.4388 143.545 63.5123 143.332 64.5132 142.917C65.5142 142.502 66.4227 141.892 67.1861 141.122L123.845 84.3459C125.387 82.7951 126.253 80.6966 126.253 78.5091C126.253 76.3216 125.387 74.2231 123.845 72.6722L118.419 67.2357L128.852 56.7809C129.812 55.8132 130.954 55.0458 132.213 54.5233C133.472 54.0008 134.822 53.7335 136.185 53.737H166.548C166.825 53.737 167.1 53.6823 167.357 53.5761C167.613 53.4698 167.846 53.3141 168.042 53.1178C168.238 52.9216 168.394 52.6885 168.5 52.4321C168.606 52.1756 168.661 51.9008 168.661 51.6232ZM26.4104 156.55C26.0189 156.943 25.5539 157.254 25.0418 157.467C24.5298 157.679 23.9809 157.788 23.4266 157.788C22.8723 157.788 22.3234 157.679 21.8114 157.467C21.2994 157.254 20.8343 156.943 20.4428 156.55C19.6656 155.765 19.2263 154.707 19.2187 153.602C19.2111 152.497 19.6357 151.433 20.4019 150.637L31.9534 138.733L38.0729 144.865L26.4104 156.55ZM48.1878 143.119C47.8017 143.507 47.343 143.814 46.8378 144.024C46.3327 144.234 45.7912 144.341 45.2443 144.341C44.6973 144.341 44.1558 144.234 43.6507 144.024C43.1456 143.814 42.6868 143.507 42.3008 143.119L33.5227 134.323C32.7415 133.537 32.303 132.475 32.303 131.367C32.303 130.259 32.7415 129.197 33.5227 128.411L38.1817 123.742L52.8527 138.444L48.1878 143.119ZM73.7134 128.597L57.2782 112.128L82.2731 87.0809C85.1461 84.1981 88.9791 82.4727 93.0421 82.2334C97.1051 81.9941 101.114 83.2576 104.306 85.7832L100.001 85.8589C93.6506 85.9652 87.5726 88.4574 82.9757 92.8401C79.656 95.9971 77.1313 98.4841 75.4718 100.233C74.6164 101.138 74.0594 102.284 73.8761 103.516C73.6927 104.748 73.8917 106.007 74.4462 107.122C74.8711 107.986 75.4976 108.734 76.2727 109.305C77.0478 109.875 77.9488 110.251 78.8995 110.4C79.2279 110.453 79.56 110.481 79.8927 110.481C80.6856 110.481 81.4706 110.324 82.2021 110.018C82.9337 109.713 83.5972 109.265 84.1541 108.7C85.6385 107.213 87.5096 105.396 89.7164 103.298C93.4977 99.6955 98.4804 97.6233 103.701 97.4818L104.797 97.4519L73.7134 128.597ZM109.132 93.106L103.584 93.2571C97.3197 93.4264 91.3407 95.9126 86.8031 100.235C84.5696 102.358 82.6714 104.201 81.1612 105.714C80.956 105.92 80.7047 106.074 80.4281 106.163C80.1515 106.253 79.8576 106.275 79.5707 106.228C79.2839 106.181 79.0124 106.066 78.7788 105.893C78.5451 105.72 78.356 105.494 78.2272 105.234C78.0586 104.895 77.9979 104.514 78.0532 104.14C78.1085 103.766 78.2771 103.418 78.5365 103.143C80.1473 101.446 82.6217 99.01 85.8878 95.9023C89.7182 92.2492 94.783 90.1711 100.075 90.0812L108.614 89.9311L110.456 91.7772L109.132 93.106ZM120.853 75.6577C121.607 76.4153 122.03 77.4404 122.03 78.5091C122.03 79.5777 121.607 80.6029 120.853 81.3605L113.442 88.7873L108.758 84.0938C106.824 82.1547 104.527 80.6162 101.998 79.5665C99.4687 78.5167 96.7573 77.9764 94.0189 77.9764C91.2806 77.9764 88.5692 78.5167 86.04 79.5665C83.5109 80.6162 81.2138 82.1547 79.2803 84.0938L52.7964 110.633C52.401 111.029 52.1789 111.566 52.1789 112.126C52.1789 112.685 52.401 113.222 52.7964 113.618L70.7286 131.588L64.1943 138.137C63.8219 138.51 63.3794 138.807 62.8922 139.009C62.4049 139.211 61.8826 139.315 61.355 139.315C60.8275 139.315 60.3052 139.211 59.8179 139.009C59.3307 138.807 58.8882 138.51 58.5158 138.137L36.9498 116.525C36.1961 115.768 35.773 114.743 35.773 113.674C35.773 112.605 36.1961 111.58 36.9498 110.823C38.1237 109.654 38.9172 108.158 39.2265 106.531C39.5359 104.904 39.3465 103.221 38.6832 101.703L36.4486 96.5373C35.5037 94.3783 35.3231 91.9617 35.9365 89.6862C36.5499 87.4107 37.9208 85.4124 39.8228 84.0209L59.8118 69.2977C61.2054 68.2661 62.8367 67.6027 64.5548 67.3688C66.2728 67.1348 68.0221 67.338 69.6408 67.9594L75.8095 70.3116C76.1907 70.4571 76.6059 70.4892 77.005 70.4039C77.404 70.3186 77.7698 70.1196 78.0582 69.8309L90.5725 57.2908C91.3563 56.5045 92.2875 55.8806 93.3129 55.4549C94.3382 55.0292 95.4375 54.8101 96.5478 54.8101C97.658 54.8101 98.7573 55.0292 99.7826 55.4549C100.808 55.8806 101.739 56.5045 102.523 57.2908L120.853 75.6577ZM164.435 49.5101H136.185C134.266 49.5051 132.365 49.8813 130.593 50.6169C128.821 51.3525 127.212 52.4328 125.861 53.7951L115.434 64.2435L109.591 58.3886L123.681 44.2694C124.641 43.3018 125.783 42.5344 127.042 42.0119C128.3 41.4894 129.65 41.2221 131.013 41.2255H164.435L164.435 49.5101Z" fill="#071D26"/>
<path d="M88.6141 62.9986L79.9226 71.7083C79.724 71.9042 79.5662 72.1374 79.4581 72.3946C79.3501 72.6517 79.2941 72.9277 79.2932 73.2066C79.2924 73.4856 79.3468 73.7619 79.4533 74.0197C79.5598 74.2775 79.7163 74.5117 79.9137 74.7087C80.1111 74.9057 80.3456 75.0617 80.6037 75.1676C80.8617 75.2736 81.1381 75.3274 81.4171 75.326C81.696 75.3246 81.9719 75.2679 82.2288 75.1594C82.4857 75.0508 82.7186 74.8924 82.914 74.6934L91.6055 65.984C91.8015 65.7876 91.9569 65.5545 92.0628 65.298C92.1688 65.0415 92.2232 64.7667 92.2229 64.4892C92.2226 64.2117 92.1677 63.937 92.0612 63.6807C91.9548 63.4244 91.7989 63.1916 91.6025 62.9956C91.4061 62.7996 91.1729 62.6442 90.9165 62.5382C90.66 62.4323 90.3851 62.3779 90.1076 62.3782C89.8301 62.3785 89.5554 62.4334 89.2991 62.5398C89.0429 62.6463 88.8101 62.8022 88.6141 62.9986Z" fill="#071D26"/>
<path d="M96.5477 57.4638C95.7835 57.4616 95.0265 57.6114 94.3207 57.9043C93.615 58.1972 92.9744 58.6275 92.4363 59.1701C92.2404 59.3666 92.085 59.5999 91.9792 59.8564C91.8734 60.113 91.8192 60.3879 91.8196 60.6655C91.82 60.943 91.8751 61.2178 91.9817 61.474C92.0883 61.7303 92.2443 61.9631 92.4409 62.159C92.6375 62.355 92.8707 62.5103 93.1273 62.6161C93.3839 62.7219 93.6588 62.7762 93.9363 62.7758C94.2139 62.7753 94.4886 62.7202 94.7449 62.6136C95.0011 62.507 95.2339 62.351 95.4298 62.1544C95.5756 62.0058 95.7499 61.888 95.9422 61.8082C96.1345 61.7284 96.3409 61.6882 96.5491 61.6899C97.1095 61.6899 97.647 61.4673 98.0432 61.071C98.4395 60.6747 98.6621 60.1373 98.6621 59.5768C98.6621 59.0164 98.4395 58.4789 98.0432 58.0827C97.647 57.6864 97.1095 57.4638 96.5491 57.4638H96.5477Z" fill="#071D26"/>
<path d="M168.626 71.709C168.439 71.3905 168.173 71.1264 167.853 70.9428C167.533 70.7592 167.17 70.6626 166.802 70.6626C166.433 70.6626 166.07 70.7592 165.75 70.9428C165.43 71.1264 165.164 71.3905 164.977 71.709L151.097 95.4547C149.063 98.9356 148.238 102.991 148.751 106.99C149.264 110.989 151.085 114.705 153.93 117.561C155.619 119.254 157.625 120.598 159.834 121.514C162.042 122.431 164.41 122.903 166.801 122.903C169.193 122.903 171.561 122.431 173.769 121.514C175.978 120.598 177.984 119.254 179.672 117.561C182.518 114.705 184.339 110.989 184.852 106.99C185.364 102.991 184.54 98.9356 182.506 95.4547L168.626 71.709ZM176.681 114.576C175.385 115.876 173.845 116.907 172.15 117.611C170.455 118.314 168.637 118.677 166.802 118.677C164.966 118.677 163.148 118.314 161.453 117.611C159.758 116.907 158.218 115.876 156.922 114.576C154.735 112.381 153.336 109.525 152.942 106.452C152.548 103.379 153.182 100.263 154.745 97.5879L166.801 76.9625L178.858 97.5879C180.421 100.263 181.055 103.379 180.661 106.452C180.267 109.525 178.868 112.381 176.681 114.576Z" fill="#071D26"/>
<path d="M175.996 102.359C175.724 102.305 175.444 102.304 175.172 102.358C174.899 102.411 174.64 102.518 174.409 102.671C174.178 102.825 173.979 103.023 173.825 103.253C173.67 103.484 173.562 103.743 173.507 104.015C173.272 105.185 172.735 106.273 171.95 107.173C171.165 108.072 170.159 108.751 169.032 109.142C168.767 109.231 168.523 109.371 168.313 109.555C168.103 109.739 167.931 109.962 167.808 110.212C167.685 110.463 167.612 110.735 167.595 111.013C167.577 111.292 167.615 111.571 167.706 111.835C167.797 112.098 167.939 112.341 168.125 112.55C168.31 112.758 168.535 112.928 168.786 113.049C169.038 113.17 169.31 113.24 169.589 113.256C169.868 113.271 170.146 113.231 170.409 113.138C172.233 112.506 173.861 111.409 175.131 109.955C176.401 108.502 177.269 106.742 177.65 104.849C177.705 104.577 177.706 104.297 177.653 104.025C177.599 103.752 177.493 103.493 177.339 103.262C177.186 103.03 176.988 102.832 176.758 102.677C176.527 102.522 176.268 102.414 175.996 102.359Z" fill="#071D26"/>
</svg>
