<svg width="200" height="200" viewBox="0 0 200 200" fill="none" xmlns="http://www.w3.org/2000/svg">
<path d="M116.812 135.195C115.249 135.195 113.981 133.929 113.981 132.364V125.732C113.981 124.166 115.249 122.901 116.812 122.901C118.374 122.901 119.642 124.166 119.642 125.732V132.364C119.642 133.929 118.377 135.195 116.812 135.195Z" fill="#071D26"/>
<path d="M83.1149 135.195C81.5523 135.195 80.2842 133.929 80.2842 132.364V125.732C80.2842 124.166 81.5523 122.901 83.1149 122.901C84.6774 122.901 85.9456 124.166 85.9456 125.732V132.364C85.9456 133.929 84.6774 135.195 83.1149 135.195Z" fill="#071D26"/>
<path d="M99.9635 101.903C87.1489 101.903 76.7263 91.7717 76.7263 79.3167C76.7263 66.8616 87.1518 56.7306 99.9635 56.7306C112.775 56.7306 123.201 66.8616 123.201 79.3167C123.201 91.7717 112.778 101.903 99.9635 101.903ZM99.9635 62.3948C90.2712 62.3948 82.3877 69.9867 82.3877 79.3195C82.3877 88.6523 90.274 96.2442 99.9635 96.2442C109.653 96.2442 117.539 88.6523 117.539 79.3195C117.539 69.9867 109.656 62.3948 99.9635 62.3948Z" fill="#071D26"/>
<path d="M132.426 137.219H67.5746C66.012 137.219 64.7439 135.953 64.7439 134.388V120.917C64.7439 107.87 73.335 96.2103 86.1213 91.9076C87.0271 91.5991 88.032 91.7718 88.785 92.3719C95.0719 97.368 104.889 97.3595 111.164 92.3577C111.915 91.7633 112.917 91.5764 113.825 91.8878C126.643 96.1791 135.256 107.844 135.256 120.917V134.388C135.256 135.953 133.988 137.219 132.426 137.219ZM70.4053 131.557H129.595V120.917C129.595 110.746 123.141 101.608 113.387 97.7502C105.582 103.117 94.3869 103.123 86.5685 97.77C76.8423 101.634 70.4053 110.769 70.4053 120.917V131.557Z" fill="#071D26"/>
<path d="M99.9632 127.588C99.0999 127.588 98.2847 127.192 97.7468 126.518L91.4287 118.559C91.0324 118.058 90.8145 117.438 90.8145 116.798V98.0955H96.4758V115.813L99.9632 120.206L103.451 115.813V98.0955H109.112V116.798C109.112 117.438 108.897 118.058 108.498 118.559L102.18 126.518C101.645 127.192 100.827 127.588 99.9632 127.588Z" fill="#071D26"/>
<path d="M29.9404 149.444C28.9949 149.444 28.0721 148.971 27.5343 148.108C6.9495 115.06 12.1183 72.8202 40.1026 45.3936C61.3752 24.5428 91.5844 16.3139 120.913 23.3708C122.433 23.7388 123.37 25.2674 123.002 26.7875C122.634 28.3076 121.108 29.2332 119.588 28.8765C92.1675 22.264 63.9342 29.9635 44.0655 49.4359C17.992 74.9942 13.1685 114.338 32.338 145.116C33.1645 146.444 32.7597 148.187 31.4322 149.014C30.9679 149.305 30.4499 149.444 29.9404 149.444Z" fill="#071D26"/>
<path d="M30.9766 150.803C30.6879 150.803 30.3992 150.758 30.1189 150.67L20.5229 147.624C19.0339 147.151 18.2102 145.56 18.6829 144.069C19.1557 142.58 20.7578 141.753 22.2383 142.229L28.5196 144.222L29.1084 138.526C29.2697 136.969 30.6426 135.868 32.2165 135.998C33.7705 136.163 34.9 137.552 34.7415 139.107L33.796 148.261C33.7083 149.11 33.244 149.872 32.5335 150.336C32.0636 150.644 31.523 150.803 30.9766 150.803Z" fill="#071D26"/>
<path d="M99.765 179.447C93.3394 179.447 86.8514 178.739 80.4031 177.29C78.8774 176.947 77.9178 175.436 78.2603 173.91C78.6028 172.384 80.1285 171.425 81.6401 171.767C108.665 177.836 136.431 170.038 155.934 150.922C182.011 125.366 186.831 86.0197 167.662 55.2388C166.835 53.9112 167.24 52.1675 168.568 51.3409C169.895 50.5144 171.642 50.922 172.466 52.2468C193.05 85.2951 187.882 127.535 159.897 154.961C143.678 170.861 122.122 179.447 99.765 179.447Z" fill="#071D26"/>
<path d="M168.078 64.3706C167.982 64.3706 167.883 64.365 167.784 64.3565C166.23 64.1923 165.1 62.8024 165.259 61.2484L166.204 52.0939C166.292 51.2447 166.756 50.4833 167.47 50.0162C168.18 49.552 169.066 49.4331 169.878 49.6878L179.474 52.7365C180.963 53.2092 181.787 54.8001 181.314 56.2918C180.842 57.7836 179.248 58.6102 177.759 58.1318L171.478 56.1362L170.889 61.8315C170.742 63.2865 169.513 64.3706 168.078 64.3706Z" fill="#071D26"/>
<path d="M54.5872 187.503C41.9198 187.503 31.6133 177.377 31.6133 164.928C31.6133 152.479 41.9198 142.353 54.5872 142.353C67.2545 142.353 77.5611 152.479 77.5611 164.928C77.5611 177.377 67.2545 187.503 54.5872 187.503ZM54.5872 148.018C45.0421 148.018 37.2747 155.607 37.2747 164.931C37.2747 174.255 45.0421 181.841 54.5872 181.841C64.1323 181.841 71.8997 174.252 71.8997 164.928C71.8997 155.604 64.1323 148.018 54.5872 148.018Z" fill="#071D26"/>
<path d="M145.413 57.1467C132.746 57.1467 122.439 47.0213 122.439 34.5719C122.439 22.1226 132.746 12 145.413 12C158.08 12 168.387 22.1254 168.387 34.5748C168.387 47.0241 158.08 57.1467 145.413 57.1467ZM145.413 17.6614C135.868 17.6614 128.1 25.2505 128.1 34.5748C128.1 43.8991 135.868 51.4881 145.413 51.4881C154.958 51.4881 162.725 43.8991 162.725 34.5748C162.725 25.2505 154.958 17.6614 145.413 17.6614Z" fill="#071D26"/>
<path d="M56.8375 162.57L56.0534 162.372V155.309C56.8233 155.445 57.4687 155.717 57.9698 156.119C58.7482 156.728 59.1785 157.58 59.286 158.715L59.3172 159.035H62.7678L62.7508 158.664C62.6602 156.643 61.8874 155.026 60.4523 153.86C59.3115 152.94 57.8311 152.382 56.0562 152.204V150.364H53.803V152.17C51.9149 152.334 50.3552 152.94 49.1578 153.985C47.7566 155.216 47.0461 156.889 47.0461 158.967C47.0461 160.631 47.5953 161.998 48.6766 163.032C49.724 164.048 51.3997 164.855 53.653 165.418L53.803 165.457V173.16C52.7528 173.01 51.9319 172.681 51.3658 172.186C50.5845 171.484 50.1627 170.312 50.1146 168.704L50.1061 168.362H46.5847V168.888C46.5847 171.314 47.3037 173.191 48.7276 174.465C49.9193 175.512 51.6262 176.143 53.8001 176.339V179.503H56.0534V176.361C58.0858 176.214 59.7559 175.572 61.0184 174.448C62.4706 173.143 63.2065 171.374 63.2065 169.188C63.2065 167.456 62.6857 166.038 61.6582 164.976C60.6419 163.92 59.0171 163.116 56.8375 162.57ZM56.0534 166.018L56.2006 166.055C57.3583 166.349 58.2274 166.799 58.785 167.388C59.3398 167.985 59.6116 168.718 59.6116 169.633C59.6116 170.824 59.2577 171.699 58.5302 172.308C57.933 172.803 57.1007 173.1 56.0534 173.202V166.018ZM53.8001 155.244V161.78C52.8037 161.494 52.0366 161.11 51.513 160.64C50.9355 160.11 50.6581 159.488 50.6581 158.729C50.6581 157.571 50.9978 156.688 51.6658 156.108C52.1895 155.652 52.9057 155.363 53.8001 155.244Z" fill="#071D26"/>
<path d="M152.487 34.6088C151.468 33.5642 149.846 32.7603 147.666 32.214L146.882 32.0158V24.9533C147.652 25.0891 148.297 25.3609 148.798 25.7628C149.577 26.3714 150.007 27.2235 150.114 28.3586L150.146 28.6785H153.593L153.579 28.3076C153.492 26.2865 152.719 24.6702 151.281 23.504C150.14 22.584 148.66 22.0263 146.885 21.848V20.008H144.631V21.814C142.743 21.9782 141.184 22.584 139.986 23.6285C138.585 24.857 137.875 26.53 137.875 28.6105C137.875 30.275 138.424 31.6422 139.505 32.6754C140.552 33.6916 142.228 34.4984 144.481 35.0617L144.631 35.1013V42.8036C143.581 42.6536 142.76 42.3252 142.194 41.827C141.413 41.1278 140.991 39.9559 140.943 38.3481L140.935 38.0056H137.416V38.5321C137.416 40.958 138.135 42.8376 139.559 44.1086C140.751 45.1559 142.457 45.7872 144.631 45.9796V49.1472H146.885V46.0051C148.92 45.8579 150.587 45.2154 151.85 44.0887C153.302 42.7866 154.038 41.0174 154.038 38.8321C154.032 37.0884 153.514 35.6703 152.487 34.6088ZM146.879 35.6618L147.026 35.6957C148.184 35.9901 149.053 36.4402 149.611 37.0347C150.168 37.6263 150.437 38.3594 150.437 39.2737C150.437 40.4655 150.083 41.3401 149.356 41.9516C148.759 42.4469 147.926 42.7442 146.879 42.8461V35.6618ZM144.626 24.891V31.4271C143.629 31.1412 142.862 30.7562 142.339 30.2863C141.761 29.757 141.484 29.1342 141.484 28.3756C141.484 27.2178 141.823 26.3346 142.491 25.7544C143.015 25.2958 143.731 25.0071 144.626 24.891Z" fill="#071D26"/>
</svg>
