<svg width="200" height="200" viewBox="0 0 200 200" fill="none" xmlns="http://www.w3.org/2000/svg">
<path d="M158.094 148C150.933 157.926 141.437 166.152 130.635 171.801C119.456 177.657 106.852 180.748 94.1612 180.748C76.0615 180.748 58.6315 174.549 44.6359 163.232L46.0784 174.377C46.2673 175.837 45.237 177.159 43.7945 177.348C43.6743 177.365 43.5712 177.365 43.451 177.365C42.1288 177.365 40.9954 176.386 40.8237 175.047L38.471 156.896C38.2821 155.436 39.3125 154.114 40.755 153.925L58.9062 151.572C60.3659 151.383 61.6882 152.414 61.8771 153.856C62.066 155.316 61.0356 156.638 59.5931 156.827L47.1775 158.441C60.3659 169.414 76.9373 175.425 94.1784 175.425C117.722 175.425 140.012 164.005 153.818 144.875C154.677 143.69 156.343 143.415 157.528 144.274C158.678 145.15 158.953 146.816 158.094 148ZM68.3682 32.9966L63.5428 44.5708C62.9761 45.9275 63.6115 47.473 64.9681 48.0397C65.2944 48.1771 65.655 48.2457 65.9813 48.2457C67.0288 48.2457 68.0076 47.6275 68.4369 46.6144L75.4948 29.7167C75.7696 29.0641 75.7696 28.3429 75.4948 27.6903C75.22 27.0378 74.7049 26.5226 74.0523 26.2479L57.1546 19.2072C55.798 18.6405 54.2525 19.2758 53.6858 20.6325C53.1191 21.9891 53.7545 23.5346 55.1111 24.1013L65.4833 28.4116C48.6886 34.8684 34.6072 46.8548 25.5574 62.5332C19.2207 73.5236 15.5802 85.9908 15.065 98.5953C14.567 110.788 16.9368 123.135 21.9512 134.28C22.3976 135.258 23.3593 135.842 24.3725 135.842C24.7331 135.842 25.1109 135.774 25.4543 135.602C26.7938 135.001 27.3948 133.438 26.7938 132.099C17.1257 110.582 18.3793 85.5614 30.1596 65.1778C38.7801 50.2549 52.2777 38.9211 68.3682 32.9966ZM120.882 59.4422V66.7061H133.314C137.522 66.7061 140.956 70.1234 140.956 74.3307V90.2667C140.956 93.2719 139.273 95.8993 136.56 97.17V126.707C136.56 130.914 133.143 134.348 128.935 134.348H115.06C115.009 145.94 105.564 155.35 93.9723 155.35C82.381 155.35 72.9361 145.94 72.8846 134.348H59.0264C54.8192 134.348 51.4019 130.931 51.4019 126.707V97.3074L51.213 97.2044C48.5856 95.8821 47.0057 93.3406 47.0057 90.3869V74.3135C47.0057 70.1063 50.423 66.6889 54.6303 66.6889H67.0631V59.425C67.0631 56.4713 68.2137 53.6894 70.3087 51.5944C72.4038 49.4993 75.1857 48.3488 78.1394 48.3488H109.805C112.759 48.3488 115.541 49.4993 117.636 51.5944C119.731 53.7066 120.882 56.4885 120.882 59.4422ZM72.3694 66.7061H74.1897V59.4422C74.1897 58.4118 74.5847 57.433 75.3231 56.6774C75.3403 56.6602 75.3403 56.6602 75.3574 56.6431C76.0958 55.9047 77.109 55.4753 78.1394 55.4753H109.805C110.853 55.4753 111.849 55.8875 112.587 56.6431C113.343 57.3987 113.755 58.3947 113.755 59.4422V66.7061H115.575V59.4422C115.575 57.9138 114.974 56.4542 113.875 55.3551C112.793 54.2733 111.334 53.6722 109.805 53.6722H78.1394C76.611 53.6722 75.1514 54.2733 74.0695 55.3551C72.9705 56.4542 72.3694 57.8967 72.3694 59.4422V66.7061ZM108.449 66.7061V60.7988H79.496V66.7061H108.449ZM93.9723 150.01C97.1149 150.01 100.034 149.082 102.49 147.502C102.009 144.583 99.4847 142.334 96.428 142.334H91.551C88.4943 142.334 85.9528 144.583 85.4892 147.502C87.9276 149.099 90.847 150.01 93.9723 150.01ZM97.5786 129.437C97.5786 127.445 95.9643 125.831 93.9723 125.831C91.9975 125.831 90.3833 127.445 90.3833 129.437C90.3833 131.412 91.9975 133.026 93.9723 133.026C95.9643 133.026 97.5786 131.412 97.5786 129.437ZM109.754 134.228C109.754 125.522 102.679 118.447 93.9723 118.447C85.2659 118.447 78.1909 125.522 78.1909 134.228C78.1909 137.697 79.3243 140.908 81.2132 143.501C82.8103 140.221 85.9185 137.817 89.6277 137.182C86.9145 135.653 85.077 132.751 85.077 129.42C85.077 124.509 89.0782 120.507 93.9895 120.507C98.9008 120.507 102.902 124.509 102.902 129.42C102.902 132.751 101.065 135.653 98.3341 137.182C102.043 137.8 105.152 140.204 106.749 143.484C108.638 140.891 109.754 137.697 109.754 134.228ZM131.254 126.689V99.5742L121.397 104.056C119.336 105.001 117.327 105.43 115.043 105.43H104.173V105.688C104.173 108.057 102.249 109.963 99.8797 109.963H88.0822C85.7124 109.963 83.8063 108.04 83.8063 105.688V105.43H71.2017C68.7289 105.43 66.5308 104.915 64.3155 103.799L56.7253 99.9863V126.689C56.7253 127.977 57.7557 129.008 59.0436 129.008H73.5543C75.8898 119.889 84.1669 113.123 93.9895 113.123C103.812 113.123 112.106 119.889 114.425 129.008H128.935C130.189 129.025 131.254 127.96 131.254 126.689ZM98.8493 100.896H89.0954V104.657H98.8493V100.896ZM133.314 72.0124H54.6303C53.3595 72.0124 52.312 73.0427 52.312 74.3307V90.4041C52.312 91.3314 52.7585 92.0526 53.5828 92.4819L66.6682 99.0762C68.1622 99.8317 69.5016 100.141 71.1673 100.141H83.7719V99.8833C83.7719 97.5135 85.6952 95.6073 88.0479 95.6073H99.8453C102.215 95.6073 104.138 97.5306 104.138 99.8833V100.141H115.009C116.537 100.141 117.773 99.8661 119.164 99.2479L134.259 92.3789C135.135 91.9839 135.615 91.2283 135.615 90.2839V74.3478C135.65 73.0599 134.602 72.0124 133.314 72.0124ZM184.454 107.577C183.561 106.409 181.895 106.186 180.727 107.079L171.798 113.896C174.597 96.1225 171.265 77.9369 162.216 62.2585C155.862 51.2681 146.881 41.8919 136.234 35.1432C125.93 28.6005 114.047 24.4963 101.872 23.2598C100.412 23.1053 99.1069 24.17 98.9695 25.6296C98.815 27.0893 99.8797 28.3944 101.339 28.5318C124.797 30.9188 145.833 44.5193 157.613 64.903C166.234 79.843 169.308 97.1872 166.389 114.085L158.781 104.142C157.888 102.974 156.222 102.751 155.055 103.644C153.887 104.537 153.664 106.203 154.557 107.37L165.667 121.915C166.182 122.602 166.972 122.963 167.779 122.963C168.346 122.963 168.913 122.791 169.394 122.413L183.939 111.303C185.124 110.41 185.347 108.744 184.454 107.577Z" fill="#071D26"/>
</svg>
