<svg width="200" height="200" viewBox="0 0 200 200" fill="none" xmlns="http://www.w3.org/2000/svg">
<path d="M97.867 24.0616V17.0326C97.867 16.4935 98.0812 15.9765 98.4624 15.5953C98.8435 15.2141 99.3605 15 99.8996 15C100.439 15 100.956 15.2141 101.337 15.5953C101.718 15.9765 101.932 16.4935 101.932 17.0326V24.0616C101.932 24.6007 101.718 25.1177 101.337 25.4988C100.956 25.88 100.439 26.0942 99.8996 26.0942C99.3605 26.0942 98.8435 25.88 98.4624 25.4988C98.0812 25.1177 97.867 24.6007 97.867 24.0616ZM76.1434 34.7477C76.331 34.9414 76.5554 35.0957 76.8033 35.2018C77.0512 35.3079 77.3177 35.3636 77.5874 35.3657C77.857 35.3677 78.1244 35.3161 78.3739 35.2138C78.6234 35.1115 78.85 34.9606 79.0406 34.7699C79.2312 34.5792 79.382 34.3524 79.4841 34.1029C79.5862 33.8533 79.6377 33.5859 79.6354 33.3162C79.6332 33.0466 79.5773 32.7801 79.4711 32.5323C79.3648 32.2844 79.2103 32.0602 79.0166 31.8727L74.0352 26.8951C73.6519 26.5241 73.1381 26.3186 72.6047 26.3231C72.0713 26.3275 71.5609 26.5415 71.1839 26.9188C70.8068 27.2961 70.5931 27.8066 70.5891 28.34C70.585 28.8735 70.7908 29.3871 71.162 29.7702L76.1434 34.7477ZM61.2957 57.6672H68.3323C68.6043 57.6754 68.8752 57.629 69.129 57.5307C69.3827 57.4323 69.6141 57.284 69.8094 57.0945C70.0048 56.905 70.1601 56.6783 70.2661 56.4276C70.3722 56.177 70.4268 55.9077 70.4268 55.6355C70.4268 55.3634 70.3722 55.094 70.2661 54.8434C70.1601 54.5928 70.0048 54.366 69.8094 54.1765C69.6141 53.9871 69.3827 53.8387 69.129 53.7404C68.8752 53.642 68.6043 53.5956 68.3323 53.6039H61.2901C61.0181 53.5956 60.7471 53.642 60.4934 53.7404C60.2397 53.8387 60.0083 53.9871 59.8129 54.1765C59.6176 54.366 59.4623 54.5928 59.3562 54.8434C59.2502 55.094 59.1955 55.3634 59.1955 55.6355C59.1955 55.9077 59.2502 56.177 59.3562 56.4276C59.4623 56.6783 59.6176 56.905 59.8129 57.0945C60.0083 57.284 60.2397 57.4323 60.4934 57.5307C60.7471 57.629 61.0181 57.6754 61.2901 57.6672H61.2957ZM122.226 35.3485C122.493 35.3488 122.757 35.2964 123.003 35.1943C123.249 35.0922 123.473 34.9423 123.662 34.7534L128.637 29.7778C128.826 29.5891 128.977 29.365 129.079 29.1183C129.182 28.8716 129.235 28.607 129.236 28.3398C129.236 28.0725 129.184 27.8078 129.082 27.5608C128.98 27.3137 128.831 27.0891 128.642 26.8998C128.453 26.7106 128.229 26.5603 127.982 26.4576C127.736 26.355 127.471 26.3019 127.204 26.3014C126.937 26.301 126.672 26.3532 126.425 26.4551C126.178 26.5569 125.953 26.7065 125.764 26.8951L120.788 31.8708C120.504 32.155 120.31 32.5173 120.232 32.9116C120.153 33.306 120.194 33.7148 120.347 34.0862C120.501 34.4577 120.762 34.7752 121.096 34.9985C121.431 35.2219 121.824 35.341 122.226 35.3409V35.3485ZM131.473 57.6728H138.509C138.781 57.6811 139.052 57.6347 139.306 57.5363C139.56 57.438 139.791 57.2896 139.986 57.1002C140.182 56.9107 140.337 56.6839 140.443 56.4333C140.549 56.1827 140.604 55.9133 140.604 55.6412C140.604 55.369 140.549 55.0997 140.443 54.8491C140.337 54.5984 140.182 54.3717 139.986 54.1822C139.791 53.9927 139.56 53.8444 139.306 53.746C139.052 53.6477 138.781 53.6013 138.509 53.6095H131.473C131.201 53.6013 130.93 53.6477 130.676 53.746C130.422 53.8444 130.191 53.9927 129.995 54.1822C129.8 54.3717 129.645 54.5984 129.539 54.8491C129.433 55.0997 129.378 55.369 129.378 55.6412C129.378 55.9133 129.433 56.1827 129.539 56.4333C129.645 56.6839 129.8 56.9107 129.995 57.1002C130.191 57.2896 130.422 57.438 130.676 57.5363C130.93 57.6347 131.201 57.6811 131.473 57.6728ZM44.9558 76.1852C48.7601 76.0612 52.5479 76.7389 56.0731 78.1745C59.5984 79.61 62.7821 81.7712 65.4176 84.5176C68.4483 87.6897 72.1184 90.1815 76.1849 91.8281C76.4252 91.9249 76.6815 91.9755 76.9405 91.9773C77.4121 91.9774 77.869 91.8136 78.233 91.5139C78.5971 91.2142 78.8456 90.7973 78.936 90.3345C79.0264 89.8717 78.9531 89.3918 78.7286 88.9772C78.5042 88.5625 78.1425 88.2387 77.7056 88.0614C74.1739 86.6308 70.9861 84.4668 68.3531 81.7124C65.3219 78.5552 61.6606 76.0707 57.607 74.42C53.5534 72.7694 49.198 71.9897 44.8235 72.1313C44.2952 72.1635 43.8002 72.4004 43.4439 72.7918C43.0876 73.1833 42.898 73.6982 42.9155 74.2272C42.9329 74.7563 43.1561 75.2576 43.5375 75.6247C43.9188 75.9917 44.4283 76.1955 44.9576 76.1927L44.9558 76.1852ZM44.9558 108.652C48.7612 108.53 52.5497 109.211 56.0749 110.65C59.6001 112.088 62.7833 114.252 65.4176 117.001C68.3308 120.033 71.826 122.446 75.6938 124.095C79.5615 125.744 83.7223 126.596 87.927 126.599C88.1745 126.599 88.4239 126.599 88.6826 126.599C89.2212 126.586 89.7326 126.36 90.1042 125.97C90.4758 125.58 90.6773 125.058 90.6642 124.519C90.6512 123.981 90.4248 123.469 90.0347 123.098C89.6447 122.726 89.123 122.525 88.5844 122.538C84.8173 122.622 81.0737 121.923 77.591 120.484C74.1084 119.046 70.9626 116.899 68.3531 114.181C65.3223 111.023 61.6612 108.538 57.6075 106.887C53.5538 105.236 49.1982 104.456 44.8235 104.598C44.2952 104.63 43.8002 104.867 43.4439 105.258C43.0876 105.65 42.898 106.165 42.9155 106.694C42.9329 107.223 43.1561 107.724 43.5375 108.091C43.9188 108.458 44.4283 108.662 44.9576 108.659L44.9558 108.652ZM65.4176 149.454C68.3305 152.487 71.8255 154.9 75.6933 156.55C79.5612 158.199 83.7222 159.051 87.927 159.054C88.1745 159.054 88.4239 159.054 88.6826 159.054C89.2147 159.032 89.7166 158.801 90.0803 158.412C90.4441 158.023 90.6406 157.507 90.6278 156.974C90.6149 156.442 90.3936 155.936 90.0115 155.565C89.6294 155.194 89.1169 154.988 88.5844 154.991C84.8181 155.078 81.0748 154.381 77.592 152.945C74.1092 151.509 70.963 149.364 68.3531 146.647C65.3222 143.49 61.661 141.005 57.6073 139.354C53.5536 137.704 49.1981 136.924 44.8235 137.066C44.2952 137.098 43.8002 137.335 43.4439 137.727C43.0876 138.118 42.898 138.633 42.9155 139.162C42.9329 139.691 43.1561 140.192 43.5375 140.559C43.9188 140.927 44.4283 141.13 44.9576 141.128C48.7615 141.005 52.5487 141.683 56.0734 143.119C59.5982 144.554 62.7818 146.715 65.4176 149.46V149.454ZM122.844 91.9792C123.103 91.9774 123.359 91.9267 123.599 91.83C127.666 90.1834 131.336 87.6916 134.367 84.5195C137.006 81.7748 140.193 79.6156 143.72 78.1821C147.248 76.7485 151.038 76.0727 154.843 76.1984C155.373 76.2012 155.882 75.9974 156.264 75.6303C156.645 75.2633 156.868 74.7619 156.886 74.2329C156.903 73.7039 156.714 73.1889 156.357 72.7975C156.001 72.4061 155.506 72.1691 154.978 72.137C150.603 71.994 146.248 72.7726 142.194 74.4222C138.14 76.0719 134.478 78.5557 131.446 81.7124C128.809 84.4713 125.616 86.638 122.079 88.0689C121.642 88.2463 121.28 88.57 121.055 88.9847C120.831 89.3994 120.758 89.8792 120.848 90.342C120.939 90.8048 121.187 91.2218 121.551 91.5215C121.915 91.8212 122.372 91.985 122.844 91.9849V91.9792ZM154.976 104.592C150.601 104.451 146.245 105.232 142.191 106.884C138.138 108.536 134.477 111.022 131.446 114.181C128.837 116.894 125.694 119.036 122.215 120.471C118.736 121.907 114.996 122.605 111.234 122.521C110.695 122.508 110.173 122.709 109.783 123.081C109.393 123.452 109.167 123.964 109.154 124.502C109.141 125.041 109.342 125.563 109.714 125.953C110.086 126.343 110.597 126.569 111.135 126.582C111.385 126.582 111.632 126.582 111.891 126.582C116.091 126.579 120.248 125.728 124.112 124.082C127.976 122.436 131.469 120.028 134.382 117.001C137.018 114.255 140.201 112.094 143.727 110.659C147.252 109.223 151.039 108.544 154.843 108.667C155.373 108.67 155.882 108.466 156.264 108.099C156.645 107.732 156.868 107.23 156.886 106.701C156.903 106.172 156.714 105.657 156.357 105.266C156.001 104.874 155.506 104.638 154.978 104.605L154.976 104.592ZM154.976 137.061C150.601 136.92 146.245 137.7 142.192 139.352C138.138 141.004 134.477 143.489 131.446 146.647C128.839 149.362 125.696 151.505 122.216 152.941C118.737 154.377 114.997 155.074 111.234 154.987C110.701 154.984 110.189 155.19 109.807 155.561C109.425 155.932 109.203 156.438 109.19 156.971C109.177 157.503 109.374 158.019 109.738 158.408C110.102 158.797 110.603 159.028 111.135 159.051C111.385 159.051 111.632 159.051 111.891 159.051C116.096 159.047 120.257 158.195 124.125 156.546C127.993 154.896 131.488 152.483 134.401 149.451C137.037 146.705 140.221 144.544 143.746 143.109C147.271 141.673 151.058 140.995 154.862 141.118C155.392 141.121 155.901 140.917 156.283 140.55C156.664 140.183 156.887 139.682 156.905 139.153C156.922 138.624 156.732 138.109 156.376 137.717C156.02 137.326 155.525 137.089 154.996 137.057L154.976 137.061ZM179.805 72.5412V164.859C179.804 165.199 179.719 165.533 179.556 165.83C179.393 166.128 179.159 166.381 178.873 166.565C178.588 166.749 178.261 166.859 177.923 166.884C177.584 166.909 177.245 166.85 176.935 166.71C170.843 163.969 164.052 163.179 157.493 164.449C150.934 165.719 144.929 168.986 140.3 173.804C135.198 179.115 128.607 182.755 121.395 184.246C114.183 185.736 106.689 185.007 99.8996 182.153C93.1101 185.004 85.6164 185.733 78.4049 184.242C71.1934 182.752 64.6023 179.113 59.4993 173.804C54.8712 168.987 48.8667 165.72 42.3089 164.45C35.751 163.18 28.9609 163.97 22.8694 166.71C22.5599 166.85 22.2204 166.909 21.8819 166.884C21.5435 166.859 21.2167 166.749 20.9315 166.565C20.6463 166.381 20.4117 166.128 20.249 165.83C20.0863 165.533 20.0007 165.199 20 164.859V72.5412C20.0001 72.1501 20.1132 71.7673 20.3257 71.4389C20.5381 71.1105 20.8409 70.8505 21.1976 70.69C24.5718 69.1651 28.1598 68.1662 31.8366 67.728V60.7897C31.8363 60.3987 31.949 60.016 32.1612 59.6876C32.3733 59.3591 32.6758 59.099 33.0323 58.9385C38.9065 56.295 45.4545 55.5332 51.7787 56.7574C58.1028 57.9817 63.8935 61.1321 68.3569 65.7767C71.9792 69.5468 76.6126 72.1914 81.7009 73.3932C80.9291 71.1491 79.9009 69.0016 78.6369 66.9932C76.1229 63.1577 74.6929 58.7138 74.4983 54.132C74.3037 49.5501 75.3517 45.001 77.5314 40.9661C79.7111 36.9313 82.9413 33.5609 86.88 31.212C90.8187 28.863 95.3193 27.6229 99.9053 27.6229C104.491 27.6229 108.992 28.863 112.931 31.212C116.869 33.5609 120.099 36.9313 122.279 40.9661C124.459 45.001 125.507 49.5501 125.312 54.132C125.118 58.7138 123.688 63.1577 121.174 66.9932C119.911 69.0023 118.883 71.1496 118.11 73.3932C123.195 72.1893 127.825 69.5448 131.446 65.7767C135.909 61.1321 141.7 57.9817 148.024 56.7574C154.348 55.5332 160.897 56.295 166.771 58.9385C167.127 59.099 167.43 59.3591 167.642 59.6876C167.854 60.016 167.967 60.3987 167.966 60.7897V67.728C171.643 68.1654 175.231 69.1644 178.605 70.69C178.962 70.8502 179.266 71.1101 179.478 71.4386C179.691 71.767 179.805 72.1499 179.805 72.5412ZM116.638 77.8173C116.512 78.2404 116.386 78.6616 116.26 79.081C116.19 79.3058 116.119 79.5363 116.049 79.7648C116.472 79.8872 116.844 80.1436 117.108 80.4956C117.373 80.8475 117.516 81.2758 117.517 81.7162V85.1957C117.515 86.4567 117.082 87.6792 116.289 88.6597C115.496 89.6402 114.391 90.3197 113.159 90.5851V92.1549C113.158 93.5081 112.66 94.8139 111.759 95.824C110.858 96.834 109.618 97.4778 108.274 97.633C107.704 98.9426 106.834 100.1 105.734 101.01C104.634 101.92 103.335 102.559 101.942 102.873V165.184C106.945 167.152 112.421 167.589 117.673 166.441C122.926 165.293 127.72 162.611 131.446 158.735C135.546 154.47 140.772 151.457 146.518 150.047C152.263 148.636 158.291 148.887 163.899 150.769V62.1366C158.893 60.1672 153.415 59.7292 148.16 60.878C142.905 62.0269 138.109 64.7108 134.382 68.5894C129.638 73.5266 123.404 76.7688 116.638 77.8173ZM86.3554 85.1957C86.3559 85.5795 86.5084 85.9475 86.7796 86.219C87.0508 86.4906 87.4186 86.6436 87.8024 86.6446H111.989C112.373 86.6441 112.742 86.4913 113.013 86.2197C113.285 85.9481 113.438 85.5799 113.438 85.1957V83.7544H86.3554V85.1957ZM90.7133 92.1549C90.7138 92.539 90.8666 92.9072 91.1383 93.1788C91.4099 93.4504 91.7781 93.6032 92.1622 93.6037H107.645C108.029 93.6032 108.397 93.4504 108.669 93.1788C108.94 92.9072 109.093 92.539 109.093 92.1549V90.7079H90.7133V92.1549ZM96.4389 97.667C97.3768 98.5491 98.6159 99.0402 99.9034 99.0402C101.191 99.0402 102.43 98.5491 103.368 97.667H96.4389ZM82.0277 64.7604C84.4301 68.8416 86.2439 73.2418 87.4151 77.8305C87.604 78.4671 87.7929 79.0791 87.9818 79.6836H97.8614V61.1996C96.4856 60.7657 95.2837 59.9048 94.4302 58.7419C93.5766 57.5789 93.1157 56.1742 93.1143 54.7316C93.106 54.4596 93.1524 54.1887 93.2508 53.935C93.3491 53.6812 93.4974 53.4498 93.6869 53.2545C93.8764 53.0591 94.1032 52.9038 94.3538 52.7978C94.6044 52.6917 94.8738 52.6371 95.1459 52.6371C95.418 52.6371 95.6874 52.6917 95.938 52.7978C96.1887 52.9038 96.4154 53.0591 96.6049 53.2545C96.7944 53.4498 96.9427 53.6812 97.0411 53.935C97.1394 54.1887 97.1858 54.4596 97.1775 54.7316C97.1775 55.4521 97.4637 56.143 97.9732 56.6524C98.4826 57.1618 99.1735 57.448 99.8939 57.448C100.614 57.448 101.305 57.1618 101.815 56.6524C102.324 56.143 102.61 55.4521 102.61 54.7316C102.602 54.4596 102.648 54.1887 102.747 53.935C102.845 53.6812 102.994 53.4498 103.183 53.2545C103.372 53.0591 103.599 52.9038 103.85 52.7978C104.1 52.6917 104.37 52.6371 104.642 52.6371C104.914 52.6371 105.183 52.6917 105.434 52.7978C105.685 52.9038 105.911 53.0591 106.101 53.2545C106.29 53.4498 106.439 53.6812 106.537 53.935C106.635 54.1887 106.682 54.4596 106.674 54.7316C106.672 56.1742 106.211 57.5789 105.358 58.7419C104.504 59.9048 103.302 60.7657 101.927 61.1996V79.6836H111.806C111.995 79.098 112.171 78.5049 112.36 77.889C113.536 73.2807 115.356 68.8611 117.766 64.7604C119.878 61.5377 121.078 57.8039 121.241 53.9545C121.404 50.105 120.524 46.2831 118.692 42.8933C116.861 39.5036 114.146 36.6722 110.837 34.6988C107.528 32.7255 103.747 31.6837 99.8939 31.6837C96.041 31.6837 92.2598 32.7255 88.9506 34.6988C85.6414 36.6722 82.9274 39.5036 81.0958 42.8933C79.2643 46.2831 78.3834 50.105 78.5465 53.9545C78.7095 57.8039 79.9104 61.5377 82.022 64.7604H82.0277ZM35.8998 150.769C41.5083 148.887 47.5361 148.636 53.2816 150.046C59.027 151.456 64.2537 154.47 68.3531 158.735C72.0806 162.613 76.8761 165.296 82.1311 166.445C87.386 167.593 92.8637 167.154 97.8689 165.184V102.867C96.4789 102.549 95.1829 101.909 94.0846 100.999C92.9864 100.09 92.1164 98.9356 91.5445 97.6292C90.1986 97.4762 88.9561 96.8332 88.0539 95.8229C87.1516 94.8126 86.6526 93.5057 86.652 92.1511V90.5813C85.4192 90.3159 84.3145 89.6364 83.5217 88.6559C82.7288 87.6754 82.2955 86.453 82.294 85.192V81.7162C82.2941 81.2761 82.4371 80.8479 82.7015 80.496C82.9658 80.1441 83.3372 79.8875 83.7599 79.7648C83.6843 79.5174 83.6069 79.268 83.5313 79.0225C83.4054 78.622 83.2794 78.2203 83.1535 77.8173C76.3883 76.7684 70.1549 73.5262 65.4119 68.5894C61.6848 64.712 56.8902 62.0287 51.6361 60.8799C46.382 59.731 40.905 60.1684 35.8998 62.1366V150.769ZM175.734 73.8862C173.24 72.879 170.629 72.1885 167.963 71.831V153.748C167.963 154.088 167.878 154.422 167.715 154.72C167.553 155.018 167.318 155.271 167.033 155.455C166.748 155.639 166.421 155.749 166.083 155.775C165.744 155.8 165.405 155.741 165.095 155.601C159.988 153.303 154.294 152.641 148.796 153.706C143.297 154.771 138.262 157.51 134.382 161.548C130.027 166.08 124.406 169.192 118.253 170.477C112.101 171.762 105.704 171.16 99.8996 168.749C94.0951 171.159 87.6983 171.761 81.546 170.476C75.3937 169.191 69.7724 166.079 65.4176 161.548C61.5367 157.51 56.502 154.771 51.0034 153.706C45.5049 152.641 39.8117 153.303 34.7041 155.601C34.3945 155.741 34.055 155.8 33.7164 155.775C33.3778 155.749 33.0511 155.639 32.7659 155.455C32.4808 155.271 32.2463 155.018 32.084 154.72C31.9216 154.422 31.8366 154.088 31.8366 153.748V71.8253C29.1703 72.1837 26.5595 72.8748 24.0652 73.8824V161.856C30.663 159.538 37.7882 159.167 44.591 160.787C51.3938 162.407 57.5873 165.949 62.4329 170.991C67.0614 175.807 73.0659 179.074 79.6236 180.343C86.1812 181.613 92.9711 180.824 99.0628 178.084C99.3258 177.966 99.6111 177.904 99.8996 177.904C100.188 177.904 100.473 177.966 100.736 178.084C106.828 180.824 113.618 181.614 120.176 180.344C126.733 179.074 132.738 175.807 137.366 170.991C142.212 165.949 148.405 162.407 155.208 160.787C162.011 159.167 169.136 159.538 175.734 161.856V73.8862Z" fill="#071D26"/>
</svg>
