<svg width="200" height="200" viewBox="0 0 200 200" fill="none" xmlns="http://www.w3.org/2000/svg">
<mask id="path-1-outside-1_2500_1706" maskUnits="userSpaceOnUse" x="19" y="14" width="161" height="172" fill="black">
<rect fill="white" x="19" y="14" width="161" height="172"/>
<path fill-rule="evenodd" clip-rule="evenodd" d="M55.2579 118.609L28.4564 72.0936C27.9032 71.1285 28.2334 69.8971 29.1936 69.3399L29.1918 69.3362L122.644 15.2727C123.609 14.7129 124.844 15.0426 125.403 16.0095L130.256 24.4308L142.172 17.5371C143.137 16.9813 144.369 17.315 144.923 18.282L179.04 77.4935C179.593 78.4586 179.263 79.69 178.302 80.2472L178.304 80.2509L146.735 98.5145C142.066 106.698 130.769 120.675 121.352 132.326C117.353 137.275 113.697 141.798 111.018 145.302C107.089 150.441 102.464 154.578 97.2552 157.141C92.432 159.514 87.1388 160.528 81.4683 159.737C78.7922 159.557 76.1382 159.72 73.5825 160.14C71.552 160.473 69.5778 160.968 67.6982 161.582L71.1755 167.434C73.0356 170.565 72.0728 174.675 69.0302 176.647L57.7547 183.953C54.5737 186.02 50.3437 184.905 48.6018 181.682L20.9479 135.148C19.0874 132.018 20.0506 127.906 23.0932 125.935L34.3687 118.629C37.4518 116.63 41.5349 117.556 43.4381 120.76L45.8215 124.77C48.6776 122.283 51.8144 120.124 55.2579 118.609ZM117.966 83.2182C121.288 80.5087 120.194 75.0871 115.984 73.9568C113.56 73.3062 112.129 74.3956 110.194 75.5116C108.711 76.3664 107.456 74.1526 108.904 73.3132L112.806 71.0514C113.771 70.4957 114.104 69.2613 113.549 68.2944C112.995 67.3274 111.763 66.994 110.798 67.5494L109.406 68.3545L108.796 67.2949C108.237 66.328 107.001 65.9979 106.036 66.5581C105.071 67.1183 104.742 68.3563 105.301 69.3233L105.967 70.4791C102.889 73.28 104.082 78.4582 108.165 79.5539C110.599 80.2074 112.048 79.1029 113.971 77.9898C115.415 77.1549 116.696 79.3573 115.245 80.1971L115.246 80.2004L111.343 82.4588C110.378 83.0146 110.045 84.2489 110.599 85.2159C111.154 86.1829 112.386 86.5163 113.351 85.9609L114.507 85.2922L115.114 86.3459C115.668 87.3129 116.9 87.6462 117.865 87.0908C118.83 86.5351 119.163 85.3007 118.609 84.3338L117.966 83.2182ZM83.1845 86.458C81.6689 87.1679 80.4536 88.8968 80.0381 90.4505C79.613 92.0411 79.8165 94.0156 80.7672 95.4757C84.0464 100.512 91.0632 98.953 92.4463 93.7792C93.8983 88.351 88.1369 83.7688 83.1845 86.458ZM86.8598 89.8121C84.9117 89.2892 83.0531 91.3323 84.2349 93.399C85.1635 95.0224 87.9713 94.8638 88.5407 92.7337C88.8829 91.4533 88.1288 90.1529 86.8598 89.8121ZM134.751 56.2106C133.235 56.9205 132.019 58.6494 131.604 60.2031C131.179 61.7937 131.383 63.7682 132.334 65.2282C135.613 70.2644 142.629 68.7056 144.013 63.5318C145.464 58.1036 139.703 53.5214 134.751 56.2106ZM138.426 59.5647C136.478 59.0418 134.619 61.0849 135.801 63.1516C136.729 64.775 139.537 64.6164 140.106 62.4863C140.449 61.2055 139.695 59.9051 138.426 59.5647ZM72.9789 75.54C71.9337 76.0637 71.5487 77.3552 72.1317 78.3653C73.8674 81.3731 72.8361 85.2436 69.8222 86.9872L69.824 86.9909C68.8634 87.5481 68.5333 88.7795 69.0868 89.7447L79.2902 107.453C79.871 108.535 81.1157 108.878 82.1098 108.302C85.1105 106.564 88.9702 107.594 90.7143 110.616C91.2734 111.583 92.5089 111.913 93.4739 111.353L151.154 77.9843C151.838 77.6207 152.294 76.9889 152.294 76.1592H152.289C152.289 75.8144 152.202 75.4651 152.017 75.145C150.281 72.1371 151.312 68.2667 154.326 66.5231L154.324 66.5197C155.285 65.9625 155.615 64.7311 155.062 63.766L144.799 45.9531C144.244 44.9861 143.012 44.6527 142.047 45.2081C139.032 46.9484 135.162 45.9066 133.435 42.9017C132.88 41.9347 131.648 41.6013 130.683 42.1567L72.9789 75.54ZM131.119 46.5689L76.4658 78.1868C77.8139 82.1468 76.6347 86.5576 73.4916 89.3106L81.932 103.959C85.883 102.609 90.283 103.789 93.0308 106.936L147.682 75.3198C146.336 71.3605 147.516 66.9523 150.658 64.1997L142.216 49.5488C138.262 50.903 133.868 49.7221 131.119 46.5689ZM53.2163 163.401C53.17 163.423 53.1243 163.447 53.079 163.474C49.9919 165.261 48.9315 169.206 50.7188 172.308C53.6039 177.316 61.0726 176.284 62.5522 170.752C64.0082 165.307 58.2155 160.657 53.2163 163.401ZM56.938 166.737C54.8324 166.172 53.1519 168.453 54.2134 170.295C55.2711 172.132 58.0841 171.807 58.6461 169.706C58.9958 168.398 58.2254 167.083 56.938 166.737ZM96.6196 127.507C92.944 131.724 90.0014 134.494 85.9794 135.954C81.9287 137.424 77.0249 137.451 69.4468 136.151C68.3463 135.963 67.6066 134.917 67.7943 133.814C67.982 132.711 69.0265 131.97 70.1269 132.158C76.9789 133.334 81.2776 133.358 84.6037 132.151C87.4925 131.102 89.8362 129.029 92.6491 125.9C89.9164 123.079 85.7104 121.256 80.9011 120.315C78.1069 119.769 75.1246 119.524 72.1114 119.557C71.6915 119.709 71.2432 119.713 70.8336 119.588C67.3784 119.715 63.9114 120.202 60.6682 121.014C55.8261 122.227 51.644 124.964 47.9242 128.307L65.5841 158.024C70.6941 156.243 76.295 155.318 81.8054 155.701C81.8551 155.704 81.9055 155.709 81.9556 155.717C92.6182 157.241 101.398 151.23 107.807 142.846C110.445 139.395 114.159 134.801 118.221 129.774C125.353 120.951 133.575 110.778 139.059 102.955L96.6196 127.507ZM63.07 161.681C63.0064 161.592 62.9489 161.496 62.8993 161.394L43.7023 129.091C43.6442 129.008 43.593 128.922 43.5489 128.833L39.924 122.745C39.1905 121.609 37.7002 121.285 36.5667 122.019L25.2912 129.325C24.0689 130.117 23.6733 131.845 24.4112 133.087L52.0625 179.617C52.4891 180.273 52.8755 180.7 53.683 180.889C54.3157 181.038 54.9763 180.938 55.5564 180.561L66.8318 173.255C68.0545 172.463 68.4498 170.735 67.7118 169.493L63.07 161.681ZM95.7816 123.319L174.537 77.7571L142.438 22.047L49.6124 75.748L72.52 115.505C80.7977 115.484 90.3106 117.453 95.7816 123.319ZM67.9742 115.71L45.1086 76.0253C44.5338 75.0292 44.8764 73.7819 45.9559 73.2L126.758 26.4544L122.917 19.7878L32.9591 71.8299L59.1198 117.233C61.8117 116.496 65.1039 115.958 67.9742 115.71Z"/>
</mask>
<path fill-rule="evenodd" clip-rule="evenodd" d="M55.2579 118.609L28.4564 72.0936C27.9032 71.1285 28.2334 69.8971 29.1936 69.3399L29.1918 69.3362L122.644 15.2727C123.609 14.7129 124.844 15.0426 125.403 16.0095L130.256 24.4308L142.172 17.5371C143.137 16.9813 144.369 17.315 144.923 18.282L179.04 77.4935C179.593 78.4586 179.263 79.69 178.302 80.2472L178.304 80.2509L146.735 98.5145C142.066 106.698 130.769 120.675 121.352 132.326C117.353 137.275 113.697 141.798 111.018 145.302C107.089 150.441 102.464 154.578 97.2552 157.141C92.432 159.514 87.1388 160.528 81.4683 159.737C78.7922 159.557 76.1382 159.72 73.5825 160.14C71.552 160.473 69.5778 160.968 67.6982 161.582L71.1755 167.434C73.0356 170.565 72.0728 174.675 69.0302 176.647L57.7547 183.953C54.5737 186.02 50.3437 184.905 48.6018 181.682L20.9479 135.148C19.0874 132.018 20.0506 127.906 23.0932 125.935L34.3687 118.629C37.4518 116.63 41.5349 117.556 43.4381 120.76L45.8215 124.77C48.6776 122.283 51.8144 120.124 55.2579 118.609ZM117.966 83.2182C121.288 80.5087 120.194 75.0871 115.984 73.9568C113.56 73.3062 112.129 74.3956 110.194 75.5116C108.711 76.3664 107.456 74.1526 108.904 73.3132L112.806 71.0514C113.771 70.4957 114.104 69.2613 113.549 68.2944C112.995 67.3274 111.763 66.994 110.798 67.5494L109.406 68.3545L108.796 67.2949C108.237 66.328 107.001 65.9979 106.036 66.5581C105.071 67.1183 104.742 68.3563 105.301 69.3233L105.967 70.4791C102.889 73.28 104.082 78.4582 108.165 79.5539C110.599 80.2074 112.048 79.1029 113.971 77.9898C115.415 77.1549 116.696 79.3573 115.245 80.1971L115.246 80.2004L111.343 82.4588C110.378 83.0146 110.045 84.2489 110.599 85.2159C111.154 86.1829 112.386 86.5163 113.351 85.9609L114.507 85.2922L115.114 86.3459C115.668 87.3129 116.9 87.6462 117.865 87.0908C118.83 86.5351 119.163 85.3007 118.609 84.3338L117.966 83.2182ZM83.1845 86.458C81.6689 87.1679 80.4536 88.8968 80.0381 90.4505C79.613 92.0411 79.8165 94.0156 80.7672 95.4757C84.0464 100.512 91.0632 98.953 92.4463 93.7792C93.8983 88.351 88.1369 83.7688 83.1845 86.458ZM86.8598 89.8121C84.9117 89.2892 83.0531 91.3323 84.2349 93.399C85.1635 95.0224 87.9713 94.8638 88.5407 92.7337C88.8829 91.4533 88.1288 90.1529 86.8598 89.8121ZM134.751 56.2106C133.235 56.9205 132.019 58.6494 131.604 60.2031C131.179 61.7937 131.383 63.7682 132.334 65.2282C135.613 70.2644 142.629 68.7056 144.013 63.5318C145.464 58.1036 139.703 53.5214 134.751 56.2106ZM138.426 59.5647C136.478 59.0418 134.619 61.0849 135.801 63.1516C136.729 64.775 139.537 64.6164 140.106 62.4863C140.449 61.2055 139.695 59.9051 138.426 59.5647ZM72.9789 75.54C71.9337 76.0637 71.5487 77.3552 72.1317 78.3653C73.8674 81.3731 72.8361 85.2436 69.8222 86.9872L69.824 86.9909C68.8634 87.5481 68.5333 88.7795 69.0868 89.7447L79.2902 107.453C79.871 108.535 81.1157 108.878 82.1098 108.302C85.1105 106.564 88.9702 107.594 90.7143 110.616C91.2734 111.583 92.5089 111.913 93.4739 111.353L151.154 77.9843C151.838 77.6207 152.294 76.9889 152.294 76.1592H152.289C152.289 75.8144 152.202 75.4651 152.017 75.145C150.281 72.1371 151.312 68.2667 154.326 66.5231L154.324 66.5197C155.285 65.9625 155.615 64.7311 155.062 63.766L144.799 45.9531C144.244 44.9861 143.012 44.6527 142.047 45.2081C139.032 46.9484 135.162 45.9066 133.435 42.9017C132.88 41.9347 131.648 41.6013 130.683 42.1567L72.9789 75.54ZM131.119 46.5689L76.4658 78.1868C77.8139 82.1468 76.6347 86.5576 73.4916 89.3106L81.932 103.959C85.883 102.609 90.283 103.789 93.0308 106.936L147.682 75.3198C146.336 71.3605 147.516 66.9523 150.658 64.1997L142.216 49.5488C138.262 50.903 133.868 49.7221 131.119 46.5689ZM53.2163 163.401C53.17 163.423 53.1243 163.447 53.079 163.474C49.9919 165.261 48.9315 169.206 50.7188 172.308C53.6039 177.316 61.0726 176.284 62.5522 170.752C64.0082 165.307 58.2155 160.657 53.2163 163.401ZM56.938 166.737C54.8324 166.172 53.1519 168.453 54.2134 170.295C55.2711 172.132 58.0841 171.807 58.6461 169.706C58.9958 168.398 58.2254 167.083 56.938 166.737ZM96.6196 127.507C92.944 131.724 90.0014 134.494 85.9794 135.954C81.9287 137.424 77.0249 137.451 69.4468 136.151C68.3463 135.963 67.6066 134.917 67.7943 133.814C67.982 132.711 69.0265 131.97 70.1269 132.158C76.9789 133.334 81.2776 133.358 84.6037 132.151C87.4925 131.102 89.8362 129.029 92.6491 125.9C89.9164 123.079 85.7104 121.256 80.9011 120.315C78.1069 119.769 75.1246 119.524 72.1114 119.557C71.6915 119.709 71.2432 119.713 70.8336 119.588C67.3784 119.715 63.9114 120.202 60.6682 121.014C55.8261 122.227 51.644 124.964 47.9242 128.307L65.5841 158.024C70.6941 156.243 76.295 155.318 81.8054 155.701C81.8551 155.704 81.9055 155.709 81.9556 155.717C92.6182 157.241 101.398 151.23 107.807 142.846C110.445 139.395 114.159 134.801 118.221 129.774C125.353 120.951 133.575 110.778 139.059 102.955L96.6196 127.507ZM63.07 161.681C63.0064 161.592 62.9489 161.496 62.8993 161.394L43.7023 129.091C43.6442 129.008 43.593 128.922 43.5489 128.833L39.924 122.745C39.1905 121.609 37.7002 121.285 36.5667 122.019L25.2912 129.325C24.0689 130.117 23.6733 131.845 24.4112 133.087L52.0625 179.617C52.4891 180.273 52.8755 180.7 53.683 180.889C54.3157 181.038 54.9763 180.938 55.5564 180.561L66.8318 173.255C68.0545 172.463 68.4498 170.735 67.7118 169.493L63.07 161.681ZM95.7816 123.319L174.537 77.7571L142.438 22.047L49.6124 75.748L72.52 115.505C80.7977 115.484 90.3106 117.453 95.7816 123.319ZM67.9742 115.71L45.1086 76.0253C44.5338 75.0292 44.8764 73.7819 45.9559 73.2L126.758 26.4544L122.917 19.7878L32.9591 71.8299L59.1198 117.233C61.8117 116.496 65.1039 115.958 67.9742 115.71Z" fill="#071D26"/>
<path fill-rule="evenodd" clip-rule="evenodd" d="M55.2579 118.609L28.4564 72.0936C27.9032 71.1285 28.2334 69.8971 29.1936 69.3399L29.1918 69.3362L122.644 15.2727C123.609 14.7129 124.844 15.0426 125.403 16.0095L130.256 24.4308L142.172 17.5371C143.137 16.9813 144.369 17.315 144.923 18.282L179.04 77.4935C179.593 78.4586 179.263 79.69 178.302 80.2472L178.304 80.2509L146.735 98.5145C142.066 106.698 130.769 120.675 121.352 132.326C117.353 137.275 113.697 141.798 111.018 145.302C107.089 150.441 102.464 154.578 97.2552 157.141C92.432 159.514 87.1388 160.528 81.4683 159.737C78.7922 159.557 76.1382 159.72 73.5825 160.14C71.552 160.473 69.5778 160.968 67.6982 161.582L71.1755 167.434C73.0356 170.565 72.0728 174.675 69.0302 176.647L57.7547 183.953C54.5737 186.02 50.3437 184.905 48.6018 181.682L20.9479 135.148C19.0874 132.018 20.0506 127.906 23.0932 125.935L34.3687 118.629C37.4518 116.63 41.5349 117.556 43.4381 120.76L45.8215 124.77C48.6776 122.283 51.8144 120.124 55.2579 118.609ZM117.966 83.2182C121.288 80.5087 120.194 75.0871 115.984 73.9568C113.56 73.3062 112.129 74.3956 110.194 75.5116C108.711 76.3664 107.456 74.1526 108.904 73.3132L112.806 71.0514C113.771 70.4957 114.104 69.2613 113.549 68.2944C112.995 67.3274 111.763 66.994 110.798 67.5494L109.406 68.3545L108.796 67.2949C108.237 66.328 107.001 65.9979 106.036 66.5581C105.071 67.1183 104.742 68.3563 105.301 69.3233L105.967 70.4791C102.889 73.28 104.082 78.4582 108.165 79.5539C110.599 80.2074 112.048 79.1029 113.971 77.9898C115.415 77.1549 116.696 79.3573 115.245 80.1971L115.246 80.2004L111.343 82.4588C110.378 83.0146 110.045 84.2489 110.599 85.2159C111.154 86.1829 112.386 86.5163 113.351 85.9609L114.507 85.2922L115.114 86.3459C115.668 87.3129 116.9 87.6462 117.865 87.0908C118.83 86.5351 119.163 85.3007 118.609 84.3338L117.966 83.2182ZM83.1845 86.458C81.6689 87.1679 80.4536 88.8968 80.0381 90.4505C79.613 92.0411 79.8165 94.0156 80.7672 95.4757C84.0464 100.512 91.0632 98.953 92.4463 93.7792C93.8983 88.351 88.1369 83.7688 83.1845 86.458ZM86.8598 89.8121C84.9117 89.2892 83.0531 91.3323 84.2349 93.399C85.1635 95.0224 87.9713 94.8638 88.5407 92.7337C88.8829 91.4533 88.1288 90.1529 86.8598 89.8121ZM134.751 56.2106C133.235 56.9205 132.019 58.6494 131.604 60.2031C131.179 61.7937 131.383 63.7682 132.334 65.2282C135.613 70.2644 142.629 68.7056 144.013 63.5318C145.464 58.1036 139.703 53.5214 134.751 56.2106ZM138.426 59.5647C136.478 59.0418 134.619 61.0849 135.801 63.1516C136.729 64.775 139.537 64.6164 140.106 62.4863C140.449 61.2055 139.695 59.9051 138.426 59.5647ZM72.9789 75.54C71.9337 76.0637 71.5487 77.3552 72.1317 78.3653C73.8674 81.3731 72.8361 85.2436 69.8222 86.9872L69.824 86.9909C68.8634 87.5481 68.5333 88.7795 69.0868 89.7447L79.2902 107.453C79.871 108.535 81.1157 108.878 82.1098 108.302C85.1105 106.564 88.9702 107.594 90.7143 110.616C91.2734 111.583 92.5089 111.913 93.4739 111.353L151.154 77.9843C151.838 77.6207 152.294 76.9889 152.294 76.1592H152.289C152.289 75.8144 152.202 75.4651 152.017 75.145C150.281 72.1371 151.312 68.2667 154.326 66.5231L154.324 66.5197C155.285 65.9625 155.615 64.7311 155.062 63.766L144.799 45.9531C144.244 44.9861 143.012 44.6527 142.047 45.2081C139.032 46.9484 135.162 45.9066 133.435 42.9017C132.88 41.9347 131.648 41.6013 130.683 42.1567L72.9789 75.54ZM131.119 46.5689L76.4658 78.1868C77.8139 82.1468 76.6347 86.5576 73.4916 89.3106L81.932 103.959C85.883 102.609 90.283 103.789 93.0308 106.936L147.682 75.3198C146.336 71.3605 147.516 66.9523 150.658 64.1997L142.216 49.5488C138.262 50.903 133.868 49.7221 131.119 46.5689ZM53.2163 163.401C53.17 163.423 53.1243 163.447 53.079 163.474C49.9919 165.261 48.9315 169.206 50.7188 172.308C53.6039 177.316 61.0726 176.284 62.5522 170.752C64.0082 165.307 58.2155 160.657 53.2163 163.401ZM56.938 166.737C54.8324 166.172 53.1519 168.453 54.2134 170.295C55.2711 172.132 58.0841 171.807 58.6461 169.706C58.9958 168.398 58.2254 167.083 56.938 166.737ZM96.6196 127.507C92.944 131.724 90.0014 134.494 85.9794 135.954C81.9287 137.424 77.0249 137.451 69.4468 136.151C68.3463 135.963 67.6066 134.917 67.7943 133.814C67.982 132.711 69.0265 131.97 70.1269 132.158C76.9789 133.334 81.2776 133.358 84.6037 132.151C87.4925 131.102 89.8362 129.029 92.6491 125.9C89.9164 123.079 85.7104 121.256 80.9011 120.315C78.1069 119.769 75.1246 119.524 72.1114 119.557C71.6915 119.709 71.2432 119.713 70.8336 119.588C67.3784 119.715 63.9114 120.202 60.6682 121.014C55.8261 122.227 51.644 124.964 47.9242 128.307L65.5841 158.024C70.6941 156.243 76.295 155.318 81.8054 155.701C81.8551 155.704 81.9055 155.709 81.9556 155.717C92.6182 157.241 101.398 151.23 107.807 142.846C110.445 139.395 114.159 134.801 118.221 129.774C125.353 120.951 133.575 110.778 139.059 102.955L96.6196 127.507ZM63.07 161.681C63.0064 161.592 62.9489 161.496 62.8993 161.394L43.7023 129.091C43.6442 129.008 43.593 128.922 43.5489 128.833L39.924 122.745C39.1905 121.609 37.7002 121.285 36.5667 122.019L25.2912 129.325C24.0689 130.117 23.6733 131.845 24.4112 133.087L52.0625 179.617C52.4891 180.273 52.8755 180.7 53.683 180.889C54.3157 181.038 54.9763 180.938 55.5564 180.561L66.8318 173.255C68.0545 172.463 68.4498 170.735 67.7118 169.493L63.07 161.681ZM95.7816 123.319L174.537 77.7571L142.438 22.047L49.6124 75.748L72.52 115.505C80.7977 115.484 90.3106 117.453 95.7816 123.319ZM67.9742 115.71L45.1086 76.0253C44.5338 75.0292 44.8764 73.7819 45.9559 73.2L126.758 26.4544L122.917 19.7878L32.9591 71.8299L59.1198 117.233C61.8117 116.496 65.1039 115.958 67.9742 115.71Z" stroke="#071D26" stroke-width="0.6" mask="url(#path-1-outside-1_2500_1706)"/>
</svg>
