<svg width="200" height="200" viewBox="0 0 200 200" fill="none" xmlns="http://www.w3.org/2000/svg">
<path d="M161.094 95.7499H166.406C167.111 95.7499 167.786 95.47 168.284 94.9719C168.783 94.4737 169.062 93.7981 169.062 93.0936C169.062 92.3891 168.783 91.7135 168.284 91.2154C167.786 90.7172 167.111 90.4374 166.406 90.4374H161.094C160.389 90.4374 159.714 90.7172 159.215 91.2154C158.717 91.7135 158.438 92.3891 158.438 93.0936C158.438 93.7981 158.717 94.4737 159.215 94.9719C159.714 95.47 160.389 95.7499 161.094 95.7499Z" fill="#071D26"/>
<path d="M161.094 109.031H166.406C167.111 109.031 167.786 108.751 168.284 108.253C168.783 107.755 169.062 107.079 169.062 106.375C169.062 105.67 168.783 104.995 168.284 104.497C167.786 103.998 167.111 103.719 166.406 103.719H161.094C160.389 103.719 159.714 103.998 159.215 104.497C158.717 104.995 158.438 105.67 158.438 106.375C158.438 107.079 158.717 107.755 159.215 108.253C159.714 108.751 160.389 109.031 161.094 109.031Z" fill="#071D26"/>
<path d="M147.812 90.4374H142.5C141.796 90.4374 141.12 90.7172 140.622 91.2154C140.124 91.7135 139.844 92.3891 139.844 93.0936C139.844 93.7981 140.124 94.4737 140.622 94.9719C141.12 95.47 141.796 95.7499 142.5 95.7499H147.812C148.517 95.7499 149.193 95.47 149.691 94.9719C150.189 94.4737 150.469 93.7981 150.469 93.0936C150.469 92.3891 150.189 91.7135 149.691 91.2154C149.193 90.7172 148.517 90.4374 147.812 90.4374Z" fill="#071D26"/>
<path d="M143.828 117C143.124 117 142.448 117.28 141.95 117.778C141.452 118.276 141.172 118.952 141.172 119.656C141.172 120.361 141.452 121.036 141.95 121.534C142.448 122.032 143.124 122.312 143.828 122.312H149.141C149.845 122.312 150.521 122.032 151.019 121.534C151.517 121.036 151.797 120.361 151.797 119.656C151.797 118.952 151.517 118.276 151.019 117.778C150.521 117.28 149.845 117 149.141 117H143.828Z" fill="#071D26"/>
<path d="M105.313 95.7499H110.625C111.33 95.7499 112.005 95.47 112.503 94.9719C113.002 94.4737 113.281 93.7981 113.281 93.0936C113.281 92.3891 113.002 91.7135 112.503 91.2154C112.005 90.7172 111.33 90.4374 110.625 90.4374H105.313C104.608 90.4374 103.933 90.7172 103.434 91.2154C102.936 91.7135 102.656 92.3891 102.656 93.0936C102.656 93.7981 102.936 94.4737 103.434 94.9719C103.933 95.47 104.608 95.7499 105.313 95.7499Z" fill="#071D26"/>
<path d="M105.313 109.031H110.625C111.33 109.031 112.005 108.751 112.503 108.253C113.002 107.755 113.281 107.079 113.281 106.375C113.281 105.67 113.002 104.995 112.503 104.497C112.005 103.998 111.33 103.719 110.625 103.719H105.313C104.608 103.719 103.933 103.998 103.434 104.497C102.936 104.995 102.656 105.67 102.656 106.375C102.656 107.079 102.936 107.755 103.434 108.253C103.933 108.751 104.608 109.031 105.313 109.031Z" fill="#071D26"/>
<path d="M105.313 122.312H110.625C111.33 122.312 112.005 122.032 112.503 121.534C113.002 121.036 113.281 120.361 113.281 119.656C113.281 118.952 113.002 118.276 112.503 117.778C112.005 117.28 111.33 117 110.625 117H105.313C104.608 117 103.933 117.28 103.434 117.778C102.936 118.276 102.656 118.952 102.656 119.656C102.656 120.361 102.936 121.036 103.434 121.534C103.933 122.032 104.608 122.312 105.313 122.312Z" fill="#071D26"/>
<path d="M152.789 99.7537C152.542 99.5069 152.25 99.3112 151.927 99.1777C151.605 99.0442 151.26 98.9755 150.911 98.9755C150.562 98.9755 150.217 99.0442 149.895 99.1777C149.572 99.3112 149.28 99.5069 149.033 99.7537L145.03 103.756L144.949 103.674C144.702 103.427 144.409 103.231 144.087 103.097C143.765 102.964 143.419 102.894 143.07 102.894C142.721 102.894 142.375 102.963 142.053 103.096C141.73 103.229 141.437 103.425 141.19 103.672C140.943 103.919 140.747 104.212 140.614 104.534C140.48 104.856 140.411 105.202 140.411 105.551C140.411 105.9 140.48 106.246 140.614 106.568C140.747 106.891 140.943 107.184 141.19 107.431L143.15 109.392C143.648 109.89 144.324 110.17 145.028 110.17C145.733 110.17 146.409 109.891 146.907 109.393L146.913 109.386L152.789 103.51C153.036 103.263 153.232 102.97 153.365 102.648C153.499 102.326 153.567 101.981 153.567 101.632C153.567 101.283 153.499 100.938 153.365 100.615C153.231 100.293 153.036 100 152.789 99.7537Z" fill="#071D26"/>
<path d="M123.906 95.7499H129.219C129.923 95.7499 130.599 95.47 131.097 94.9719C131.595 94.4737 131.875 93.7981 131.875 93.0936C131.875 92.3891 131.595 91.7135 131.097 91.2154C130.599 90.7172 129.923 90.4374 129.219 90.4374H123.906C123.202 90.4374 122.526 90.7172 122.028 91.2154C121.53 91.7135 121.25 92.3891 121.25 93.0936C121.25 93.7981 121.53 94.4737 122.028 94.9719C122.526 95.47 123.202 95.7499 123.906 95.7499Z" fill="#071D26"/>
<path d="M123.906 109.031H129.219C129.923 109.031 130.599 108.751 131.097 108.253C131.595 107.755 131.875 107.079 131.875 106.375C131.875 105.67 131.595 104.995 131.097 104.497C130.599 103.998 129.923 103.719 129.219 103.719H123.906C123.202 103.719 122.526 103.998 122.028 104.497C121.53 104.995 121.25 105.67 121.25 106.375C121.25 107.079 121.53 107.755 122.028 108.253C122.526 108.751 123.202 109.031 123.906 109.031Z" fill="#071D26"/>
<path d="M123.906 122.312H129.219C129.923 122.312 130.599 122.032 131.097 121.534C131.595 121.036 131.875 120.361 131.875 119.656C131.875 118.952 131.595 118.276 131.097 117.778C130.599 117.28 129.923 117 129.219 117H123.906C123.202 117 122.526 117.28 122.028 117.778C121.53 118.276 121.25 118.952 121.25 119.656C121.25 120.361 121.53 121.036 122.028 121.534C122.526 122.032 123.202 122.312 123.906 122.312Z" fill="#071D26"/>
<path d="M161.094 122.312H166.406C167.111 122.312 167.786 122.032 168.284 121.534C168.783 121.036 169.062 120.361 169.062 119.656C169.062 118.952 168.783 118.276 168.284 117.778C167.786 117.28 167.111 117 166.406 117H161.094C160.389 117 159.714 117.28 159.215 117.778C158.717 118.276 158.438 118.952 158.438 119.656C158.438 120.361 158.717 121.036 159.215 121.534C159.714 122.032 160.389 122.312 161.094 122.312Z" fill="#071D26"/>
<path d="M52.1877 68.8016C56.5962 68.7845 60.8199 67.0293 63.9422 63.917C67.0645 60.8048 68.8333 56.5867 68.8647 52.1784L68.8682 52.11C68.8684 52.0828 68.8722 52.0567 68.8722 52.0295C68.8724 51.3459 68.8308 50.6628 68.7477 49.9842C70.1872 49.5775 71.5052 48.8246 72.5868 47.7913C73.6683 46.7579 74.4805 45.4756 74.9524 44.0561C75.4243 42.6367 75.5416 41.1233 75.2941 39.6481C75.0465 38.1728 74.4416 36.7806 73.5322 35.593C72.6228 34.4053 71.4365 33.4583 70.0769 32.8346C68.7173 32.2109 67.2257 31.9295 65.7323 32.015C64.2389 32.1004 62.7891 32.5501 61.5095 33.3247C60.2298 34.0994 59.1593 35.1755 58.3912 36.4591C55.5453 35.3114 52.4363 34.9771 49.4114 35.4937C46.3865 36.0103 43.5647 37.3574 41.2609 39.3846C41.212 39.4229 41.171 39.4674 41.1253 39.5086C38.5907 41.7635 36.7998 44.7342 35.989 48.0283C35.1783 51.3225 35.3859 54.7851 36.5844 57.9588C37.7829 61.1325 39.916 63.8679 42.7019 65.8038C45.4877 67.7397 48.7953 68.785 52.1877 68.8016ZM52.1877 63.4891C50.1409 63.4738 48.1356 62.9105 46.3802 61.8578C44.6249 60.805 43.1836 59.3012 42.2062 57.5028C41.2289 55.7044 40.7511 53.677 40.8226 51.6314C40.8942 49.5858 41.5124 47.5967 42.613 45.871C45.0682 48.7548 48.1262 51.0649 51.5713 52.6384C55.0164 54.212 58.7647 55.0107 62.552 54.9782C62.758 54.9782 62.9642 54.9587 63.1703 54.9538C62.5386 57.3892 61.1187 59.5472 59.132 61.0911C57.1454 62.635 54.7037 63.4782 52.1877 63.4891ZM58.3549 42.4117C58.7276 42.6574 59.1563 42.8053 59.6012 42.8416C60.0462 42.8779 60.4931 42.8014 60.9007 42.6192C61.3083 42.4371 61.6634 42.1551 61.9332 41.7994C62.203 41.4437 62.3788 41.0258 62.4443 40.5842C62.5636 39.8651 62.8861 39.1952 63.3736 38.6534C63.8612 38.1117 64.4936 37.7206 65.1961 37.5265C65.8987 37.3324 66.6421 37.3433 67.3387 37.5579C68.0352 37.7725 68.6559 38.1819 69.1274 38.7377C69.5989 39.2935 69.9016 39.9726 69.9997 40.6948C70.0979 41.4171 69.9874 42.1523 69.6814 42.8138C69.3753 43.4753 68.8864 44.0355 68.2724 44.4282C67.6584 44.8209 66.9449 45.0298 66.216 45.0303C66.1072 45.0322 65.9984 45.0266 65.8905 45.0134C65.443 44.9494 64.9867 45.0007 64.5646 45.1623C64.1425 45.3239 63.7686 45.5906 63.4784 45.9371C63.1881 46.2836 62.9911 46.6984 62.9059 47.1423C62.8207 47.5862 62.8503 48.0445 62.9917 48.4738C63.1066 48.8565 63.201 49.245 63.2744 49.6378C56.654 49.8615 49.9573 46.8785 46.4535 42.1498C48.2622 41.0728 50.3373 40.5263 52.4418 40.5726C54.5463 40.6189 56.5954 41.2562 58.3549 42.4117Z" fill="#071D26"/>
<path d="M33.1557 104.32V111.149L23.9341 140.108C23.6323 141.118 23.5725 142.185 23.7595 143.222C23.9465 144.259 24.3751 145.238 25.0106 146.078C25.6621 146.953 26.5103 147.662 27.4866 148.148C28.463 148.633 29.54 148.883 30.6305 148.875H38.9066V164.812C38.9066 165.517 39.1865 166.192 39.6846 166.69C40.1828 167.189 40.8584 167.468 41.5628 167.468H62.8128C63.5173 167.468 64.1929 167.189 64.691 166.69C65.1892 166.192 65.469 165.517 65.4691 164.812V148.875H73.8256C74.9161 148.883 75.9931 148.633 76.9694 148.148C77.9458 147.662 78.794 146.953 79.4455 146.078C80.0864 145.226 80.516 144.233 80.699 143.182C80.8821 142.132 80.8134 141.052 80.4987 140.033L72.5938 115.907C74.5921 115.672 76.4911 114.907 78.094 113.691C79.697 112.475 80.9455 110.852 81.7101 108.991C82.4283 107.189 82.6373 105.223 82.3142 103.311C84.3462 103.007 86.1955 101.966 87.5102 100.387C88.1923 99.5742 88.7053 98.6331 89.0192 97.6192C89.333 96.6053 89.4412 95.539 89.3377 94.4827C89.2274 93.4057 88.9036 92.3614 88.3852 91.411C87.8667 90.4605 87.1641 89.6229 86.3183 88.9471L68.2236 74.3291C67.1942 73.2118 65.9522 72.3112 64.5704 71.6801C63.1885 71.0489 61.6945 70.7 60.176 70.6537H44.3151C41.2886 70.6937 38.3923 71.8912 36.2213 74.0003L18.0691 88.9374C17.2203 89.6138 16.515 90.4528 15.9945 91.4052C15.4741 92.3577 15.1489 93.4044 15.038 94.484C14.9345 95.5401 15.0429 96.6062 15.3567 97.6199C15.6705 98.6336 16.1834 99.5744 16.8655 100.387C17.5802 101.247 18.4591 101.955 19.4508 102.471C20.4424 102.986 21.527 103.299 22.641 103.39L33.1557 104.32ZM48.4162 99.2021C47.7725 100.016 47.199 100.883 46.702 101.795C45.6366 102.691 44.2886 103.182 42.8962 103.182C42.1573 103.226 41.4171 103.119 40.7212 102.867C40.0252 102.615 39.3882 102.223 38.8493 101.715C38.3104 101.208 37.881 100.595 37.5875 99.9159C37.294 99.2364 37.1426 98.504 37.1426 97.7638C37.1426 97.0235 37.294 96.2911 37.5875 95.6116C37.881 94.9321 38.3104 94.3197 38.8493 93.8123C39.3882 93.3048 40.0252 92.913 40.7212 92.6608C41.4171 92.4086 42.1573 92.3014 42.8962 92.3459C44.3765 92.3047 45.8128 92.8516 46.8909 93.8669C47.9689 94.8823 48.6008 96.2833 48.6483 97.7634C48.6408 98.2517 48.5626 98.7363 48.4162 99.2021ZM44.2191 148.875H49.5316V162.156H44.2191V148.875ZM60.1566 162.156H54.8441V148.875H60.1566V162.156ZM75.19 142.898C75.0306 143.108 74.824 143.278 74.587 143.393C74.35 143.508 74.0892 143.566 73.8256 143.562H30.6305C30.3669 143.566 30.1061 143.508 29.8691 143.393C29.6321 143.278 29.4255 143.108 29.266 142.898C29.1313 142.727 29.0381 142.526 28.994 142.312C28.9499 142.098 28.956 141.877 29.0118 141.666L38.3424 112.364C38.3553 112.324 38.3572 112.283 38.3681 112.243C38.4168 112.063 38.4459 111.878 38.4548 111.692C38.4571 111.647 38.4682 111.604 38.4682 111.559V107.591C41.1056 108.717 44.073 108.793 46.7646 107.804C46.8529 107.853 46.944 107.898 47.0374 107.936L66.7614 115.167L75.4274 141.613C75.4923 141.831 75.5046 142.061 75.4634 142.284C75.4221 142.508 75.3284 142.718 75.19 142.898ZM76.7737 107.027C76.1494 108.476 74.9891 109.628 73.5355 110.241C72.0818 110.855 70.4473 110.883 68.9736 110.319L51.8499 104.043C52.3604 103.365 52.7878 102.628 53.1231 101.849C54.483 100.342 56.157 99.1516 58.027 98.362L58.2552 100.715C58.3828 101.902 58.9462 102.999 59.8363 103.794C60.7263 104.59 61.8798 105.027 63.0735 105.021C63.2175 105.021 63.3627 105.014 63.5093 105.001L77.0051 103.809C77.2625 104.88 77.1817 106.004 76.7737 107.027ZM54.5784 76.2035C54.305 76.5823 53.9446 76.8898 53.5275 77.1002C53.1105 77.3107 52.649 77.4179 52.1818 77.4128C51.7147 77.4077 51.2557 77.2906 50.8432 77.0711C50.4308 76.8517 50.0772 76.5365 49.812 76.1519L54.5784 76.2035ZM20.3246 94.9976C20.3655 94.6183 20.4831 94.2513 20.6704 93.919C20.8578 93.5866 21.1107 93.2959 21.414 93.0644L39.6303 78.0745C39.6767 78.0363 39.7113 77.9899 39.7545 77.9494C39.8004 77.9062 39.8515 77.8719 39.8949 77.8248C40.8221 76.9235 41.9952 76.3167 43.2666 76.0809L44.2029 76.0911C44.554 77.9419 45.5351 79.614 46.9794 80.8234C48.4237 82.0328 50.2422 82.7048 52.1259 82.7252C54.0096 82.7456 55.8422 82.1132 57.3125 80.9355C58.7827 79.7577 59.7998 78.1072 60.1909 76.2645L61.8268 76.2822C62.8555 76.6928 63.7796 77.3279 64.5314 78.1413C64.5724 78.1852 64.6211 78.2163 64.6642 78.2569C64.7135 78.3032 64.7542 78.3556 64.8077 78.3988L82.9916 93.0892C83.2876 93.3193 83.534 93.6068 83.7161 93.9346C83.8982 94.2623 84.0122 94.6234 84.0512 94.9963C84.0843 95.3542 84.0458 95.715 83.938 96.0578C83.8302 96.4006 83.6553 96.7185 83.4234 96.9931C83.1556 97.3113 82.827 97.573 82.4569 97.7628C82.0868 97.9527 81.6826 98.0669 81.2679 98.0987L63.4911 99.6701L63.1928 96.6033L73.7413 95.6734C74.2699 95.6269 74.7725 95.4231 75.1842 95.0882C75.5959 94.7534 75.8979 94.3029 76.0512 93.7948C76.2044 93.2867 76.202 92.7444 76.0441 92.2378C75.8862 91.7311 75.5801 91.2834 75.1654 90.9523L70.2653 87.0373C69.7378 86.6159 69.0695 86.4112 68.3964 86.4649C67.7234 86.5185 67.096 86.8265 66.6419 87.3262C66.1878 87.8259 65.941 88.4798 65.9518 89.155C65.9626 89.8301 66.2301 90.4758 66.6999 90.9607L62.2382 91.3544C61.3473 91.4346 60.4959 91.7598 59.7784 92.294C57.5634 92.7461 55.4421 93.5744 53.5068 94.7428C52.7951 92.492 51.3805 90.5287 49.4707 89.1412C47.561 87.7536 45.2567 87.0149 42.8961 87.0334C42.1399 87.0334 41.3855 87.1086 40.6442 87.2579C40.6338 86.7638 40.4852 86.2825 40.2152 85.8686C39.9451 85.4547 39.5645 85.1247 39.1165 84.9162C38.6684 84.7077 38.1709 84.6289 37.6803 84.6888C37.1898 84.7488 36.7258 84.945 36.3411 85.2553L29.2103 90.9523C28.7955 91.2834 28.4895 91.7311 28.3316 92.2378C28.1737 92.7444 28.1712 93.2868 28.3245 93.7948C28.4777 94.3029 28.7797 94.7534 29.1914 95.0882C29.6031 95.4231 30.1057 95.6269 30.6344 95.6734L32.0251 95.7959C31.8236 96.8094 31.778 97.8478 31.8899 98.875L23.1079 98.0988C22.6932 98.0669 22.289 97.9527 21.9189 97.7628C21.5488 97.573 21.2202 97.3113 20.9524 96.9931C20.7206 96.7187 20.5457 96.401 20.4379 96.0584C20.3301 95.7159 20.2916 95.3553 20.3246 94.9976Z" fill="#071D26"/>
<path d="M92.0315 87.3051V81.1405H179.688V131.609H92.0315V103.203C91.8874 103.396 91.7522 103.594 91.597 103.781C90.4961 105.096 89.1553 106.191 87.6458 107.005C87.4878 108.284 87.1766 109.539 86.719 110.743V132.319C86.7203 133.539 87.2057 134.709 88.0687 135.572C88.9316 136.435 90.1016 136.92 91.322 136.922H180.397C181.617 136.92 182.787 136.435 183.65 135.572C184.513 134.709 184.999 133.539 185 132.319V61.8373C184.999 60.617 184.513 59.4469 183.65 58.584C182.787 57.721 181.617 57.2357 180.397 57.2343H175.333C174.771 54.9599 173.463 52.9393 171.619 51.4949C169.774 50.0506 167.499 49.2658 165.156 49.2658C162.813 49.2658 160.538 50.0506 158.693 51.4949C156.849 52.9393 155.541 54.9599 154.979 57.2343H147.365C146.803 54.9599 145.495 52.9393 143.65 51.4949C141.806 50.0506 139.53 49.2658 137.188 49.2658C134.845 49.2658 132.57 50.0506 130.725 51.4949C128.88 52.9393 127.573 54.9599 127.011 57.2343H119.918C119.355 54.9598 118.048 52.9391 116.203 51.4948C114.358 50.0504 112.083 49.2656 109.74 49.2656C107.397 49.2656 105.122 50.0504 103.277 51.4948C101.432 52.9391 100.125 54.9598 99.5625 57.2343H91.322C90.1016 57.2357 88.9316 57.721 88.0687 58.584C87.2057 59.4469 86.7203 60.617 86.719 61.8373V82.441L89.6567 84.8143C90.553 85.538 91.3513 86.3753 92.0315 87.3051ZM165.156 54.5781C166.074 54.5812 166.975 54.8289 167.766 55.2958C168.556 55.7627 169.208 56.4318 169.655 57.2343H160.657C161.104 56.4318 161.756 55.7627 162.546 55.2958C163.337 54.8289 164.238 54.5812 165.156 54.5781ZM137.188 54.5781C138.106 54.5812 139.007 54.8289 139.797 55.2958C140.588 55.7627 141.24 56.4318 141.686 57.2343H132.689C133.135 56.4318 133.787 55.7627 134.578 55.2958C135.369 54.8289 136.269 54.5812 137.188 54.5781ZM109.739 54.5781C110.658 54.5812 111.559 54.829 112.349 55.2958C113.14 55.7627 113.792 56.4318 114.239 57.2343H105.241C105.687 56.4318 106.339 55.7627 107.13 55.2958C107.92 54.8289 108.821 54.5812 109.739 54.5781ZM99.6276 62.5468C100.238 64.7614 101.557 66.7149 103.383 68.1084C105.21 69.5019 107.442 70.2586 109.739 70.2626C110.444 70.2626 111.119 69.9828 111.618 69.4846C112.116 68.9865 112.396 68.3109 112.396 67.6064C112.396 66.9019 112.116 66.2263 111.618 65.7281C111.119 65.23 110.444 64.9501 109.739 64.9501C108.869 64.9486 108.013 64.7276 107.251 64.3075C106.488 63.8874 105.844 63.2819 105.378 62.5468H127.076C127.686 64.7614 129.006 66.7149 130.832 68.1084C132.658 69.5019 134.891 70.2586 137.188 70.2626C137.892 70.2626 138.568 69.9828 139.066 69.4846C139.564 68.9865 139.844 68.3109 139.844 67.6064C139.844 66.9019 139.564 66.2263 139.066 65.7281C138.568 65.23 137.892 64.9501 137.188 64.9501C136.317 64.9486 135.461 64.7276 134.699 64.3075C133.937 63.8874 133.293 63.2819 132.827 62.5468H155.044C155.655 64.7614 156.974 66.7149 158.8 68.1084C160.626 69.5019 162.859 70.2586 165.156 70.2626C165.861 70.2626 166.536 69.9828 167.034 69.4846C167.532 68.9865 167.812 68.3109 167.812 67.6064C167.812 66.9019 167.532 66.2263 167.034 65.7281C166.536 65.23 165.861 64.9501 165.156 64.9501C164.286 64.9486 163.43 64.7276 162.667 64.3075C161.905 63.8875 161.261 63.2819 160.795 62.5468H179.688V75.828H92.0315V62.5468H99.6276Z" fill="#071D26"/>
</svg>
