<svg width="200" height="200" viewBox="0 0 200 200" fill="none" xmlns="http://www.w3.org/2000/svg">
<path d="M184.298 129.767C183.338 125.85 181.251 122.299 178.294 119.556C175.338 116.812 171.642 114.996 167.663 114.332C163.49 113.677 159.216 114.382 155.475 116.343V25.316C155.475 24.7018 155.231 24.1127 154.796 23.6783C154.362 23.244 153.773 23 153.159 23H51.9795C51.6754 23 51.3744 23.0599 51.0935 23.1763C50.8126 23.2927 50.5574 23.4634 50.3425 23.6785C50.1276 23.8935 49.9571 24.1489 49.8409 24.4299C49.7248 24.7108 49.6651 25.012 49.6653 25.316V35.4264H38.4673C37.853 35.4264 37.2639 35.6704 36.8296 36.1048C36.3953 36.5391 36.1513 37.1282 36.1513 37.7424V77.409C29.5706 82.478 23.7212 84.7556 17.3233 84.7556C17.0185 84.7544 16.7164 84.8134 16.4345 84.9293C16.1526 85.0452 15.8963 85.2156 15.6804 85.4308C15.4645 85.646 15.2933 85.9017 15.1765 86.1833C15.0597 86.4649 14.9998 86.7668 15 87.0716V109.534C15 121.256 26.3333 132.345 36.1513 133.917V162.721C36.1513 163.026 36.2112 163.327 36.3276 163.607C36.444 163.888 36.6146 164.144 36.8297 164.358C37.0448 164.573 37.3001 164.744 37.5811 164.86C37.8621 164.976 38.1632 165.036 38.4673 165.036H128.721C129.534 165.533 130.349 166.019 131.155 166.498C136.214 169.152 140.772 172.668 144.624 176.886C144.841 177.145 145.112 177.352 145.418 177.495C145.724 177.637 146.058 177.711 146.395 177.711C146.733 177.711 147.066 177.637 147.372 177.495C147.678 177.352 147.949 177.145 148.166 176.886C152.019 172.668 156.576 169.152 161.635 166.498C164.356 164.952 166.98 163.243 169.495 161.38C181.653 152.001 187.045 140.481 184.298 129.767ZM54.301 27.6302H150.837V119.465C149.194 120.873 147.705 122.452 146.395 124.174C145.085 122.452 143.596 120.873 141.953 119.465V37.7424C141.953 37.4384 141.894 37.1373 141.778 36.8563C141.661 36.5753 141.491 36.32 141.276 36.1049C141.061 35.8898 140.806 35.7192 140.525 35.6028C140.244 35.4863 139.943 35.4264 139.639 35.4264H54.301V27.6302ZM118.828 44.5077L132.887 58.5665H118.813L118.828 44.5077ZM120.924 40.0566H137.338V56.4698L120.924 40.0566ZM114.198 40.0566V60.8825C114.198 61.1866 114.257 61.4876 114.374 61.7685C114.49 62.0494 114.661 62.3046 114.876 62.5195C115.091 62.7345 115.346 62.9049 115.627 63.0211C115.908 63.1373 116.21 63.1969 116.514 63.1967H137.323V116.344C134.868 115.058 132.17 114.305 129.404 114.133C126.638 113.961 123.867 114.374 121.272 115.346C121.16 115.329 121.047 115.32 120.934 115.319H61.0407C61.6225 113.445 61.9231 111.495 61.9327 109.534V107.623H124.255C124.869 107.623 125.457 107.379 125.891 106.945C126.325 106.511 126.569 105.923 126.569 105.309C126.569 104.695 126.325 104.107 125.891 103.673C125.457 103.239 124.869 102.995 124.255 102.995H61.9327V95.2992H124.255C124.858 95.2823 125.43 95.0309 125.85 94.5986C126.271 94.1663 126.506 93.5871 126.506 92.9841C126.506 92.3811 126.271 91.8019 125.85 91.3696C125.43 90.9373 124.858 90.686 124.255 90.669H61.9327V87.0716C61.9327 86.4578 61.6889 85.8692 61.2549 85.4352C60.8209 85.0012 60.2323 84.7574 59.6185 84.7574C53.2061 84.7574 47.3566 82.4798 40.7906 77.4109V40.0566H114.198ZM19.6302 109.534V89.3035C26.5498 88.6321 33.1102 85.9054 38.4673 81.4744C43.8215 85.9043 50.3786 88.6309 57.2952 89.3035V109.534C57.2952 120.158 45.5561 129.48 38.4673 129.48C31.3785 129.48 19.6302 120.158 19.6302 109.534ZM40.7741 133.917C47.5577 132.82 55.0669 127.195 59.0537 119.949H114.075C111.888 122.123 110.203 124.75 109.14 127.645H53.8495C53.2468 127.662 52.6744 127.913 52.254 128.345C51.8337 128.778 51.5985 129.357 51.5985 129.96C51.5985 130.563 51.8337 131.142 52.254 131.574C52.6744 132.007 53.2468 132.258 53.8495 132.275H108.006C107.657 134.836 107.743 137.437 108.262 139.969H53.8495C53.2468 139.986 52.6744 140.237 52.254 140.67C51.8337 141.102 51.5985 141.681 51.5985 142.284C51.5985 142.887 51.8337 143.466 52.254 143.899C52.6744 144.331 53.2468 144.582 53.8495 144.599H109.668C109.943 145.285 110.248 145.968 110.582 146.646H104.036C103.726 146.638 103.418 146.691 103.13 146.804C102.841 146.916 102.578 147.085 102.356 147.301C102.134 147.517 101.958 147.775 101.837 148.06C101.717 148.345 101.655 148.652 101.655 148.962C101.655 149.271 101.717 149.578 101.837 149.863C101.958 150.148 102.134 150.406 102.356 150.622C102.578 150.838 102.841 151.007 103.13 151.119C103.418 151.232 103.726 151.285 104.036 151.277H113.359C115.836 154.697 118.764 157.768 122.063 160.405H40.7741V133.917ZM166.676 157.711C164.306 159.461 161.833 161.066 159.269 162.519C154.566 165.056 150.234 168.228 146.395 171.945C142.556 168.228 138.224 165.056 133.521 162.519C130.958 161.066 128.484 159.461 126.114 157.711C123.611 155.803 121.308 153.647 119.237 151.277H123.531C124.042 151.277 124.538 151.108 124.943 150.796C125.348 150.485 125.638 150.048 125.769 149.555L127.564 142.778L128.627 148.495C128.725 149.019 129 149.493 129.407 149.838C129.814 150.182 130.327 150.376 130.86 150.386C131.393 150.396 131.913 150.221 132.332 149.892C132.751 149.563 133.044 149.099 133.161 148.579L135.552 137.945L139.288 160.678C139.376 161.212 139.648 161.698 140.057 162.052C140.466 162.406 140.986 162.605 141.527 162.615H141.573C142.106 162.616 142.623 162.431 143.037 162.094C143.45 161.756 143.733 161.286 143.84 160.764L147.241 144.098H165.369C165.679 144.107 165.987 144.054 166.275 143.941C166.564 143.829 166.827 143.66 167.049 143.444C167.271 143.228 167.447 142.97 167.568 142.684C167.688 142.399 167.75 142.093 167.75 141.783C167.75 141.474 167.688 141.167 167.568 140.882C167.447 140.597 167.271 140.338 167.049 140.123C166.827 139.907 166.564 139.738 166.275 139.625C165.987 139.513 165.679 139.459 165.369 139.468H145.35C144.816 139.468 144.299 139.653 143.886 139.991C143.473 140.329 143.189 140.799 143.083 141.322L141.816 147.517L138.188 125.442C138.101 124.912 137.832 124.428 137.428 124.074C137.023 123.72 136.508 123.517 135.971 123.502C135.433 123.486 134.907 123.658 134.483 123.988C134.059 124.318 133.762 124.786 133.645 125.311L131.115 136.563L130.234 131.822C130.138 131.305 129.868 130.837 129.47 130.494C129.072 130.15 128.569 129.953 128.044 129.933C127.519 129.914 127.002 130.073 126.58 130.386C126.158 130.699 125.854 131.146 125.719 131.654L121.749 146.643H115.863C114.345 144.352 113.307 141.778 112.811 139.075C112.316 136.372 112.372 133.597 112.978 130.917C113.714 127.875 115.326 125.116 117.614 122.981C119.902 120.846 122.766 119.429 125.851 118.905C132.76 117.823 139.535 121.671 144.436 129.462C144.644 129.793 144.933 130.066 145.276 130.255C145.619 130.444 146.004 130.543 146.395 130.543C146.787 130.543 147.172 130.444 147.514 130.255C147.857 130.066 148.146 129.793 148.355 129.462C153.255 121.671 160.032 117.825 166.94 118.905C170.025 119.429 172.888 120.846 175.176 122.981C177.464 125.116 179.076 127.875 179.812 130.917C182.075 139.753 177.289 149.527 166.676 157.711ZM51.5353 79.6209C51.5353 79.317 51.5952 79.016 51.7115 78.7353C51.8278 78.4545 51.9982 78.1994 52.2131 77.9845C52.428 77.7696 52.6831 77.5991 52.9639 77.4828C53.2447 77.3665 53.5456 77.3067 53.8495 77.3067H101.976C102.579 77.3236 103.151 77.575 103.571 78.0073C103.992 78.4396 104.227 79.0188 104.227 79.6218C104.227 80.2248 103.992 80.804 103.571 81.2363C103.151 81.6686 102.579 81.9199 101.976 81.9369H53.8495C53.5454 81.9369 53.2444 81.877 52.9635 81.7606C52.6826 81.6441 52.4274 81.4735 52.2125 81.2584C51.9976 81.0433 51.8271 80.788 51.7109 80.507C51.5948 80.226 51.5351 79.9249 51.5353 79.6209ZM51.5353 72.1043C51.5353 71.8004 51.5952 71.4995 51.7115 71.2187C51.8278 70.9379 51.9982 70.6828 52.2131 70.4679C52.428 70.2531 52.6831 70.0826 52.9639 69.9663C53.2447 69.85 53.5456 69.7901 53.8495 69.7901H58.3719C58.6814 69.7814 58.9895 69.8349 59.2779 69.9473C59.5664 70.0597 59.8294 70.2289 60.0514 70.4447C60.2734 70.6606 60.4499 70.9187 60.5704 71.2039C60.6909 71.4891 60.7529 71.7956 60.7529 72.1052C60.7529 72.4149 60.6909 72.7213 60.5704 73.0065C60.4499 73.2918 60.2734 73.5499 60.0514 73.7657C59.8294 73.9816 59.5664 74.1507 59.2779 74.2632C58.9895 74.3756 58.6814 74.429 58.3719 74.4203H53.8495C53.5454 74.4203 53.2444 74.3604 52.9635 74.244C52.6826 74.1276 52.4274 73.957 52.2125 73.7419C51.9976 73.5268 51.8271 73.2715 51.7109 72.9905C51.5948 72.7095 51.5351 72.4084 51.5353 72.1043ZM65.9085 69.7901H85.1733C85.7761 69.8071 86.3484 70.0584 86.7688 70.4907C87.1891 70.923 87.4243 71.5023 87.4243 72.1052C87.4243 72.7082 87.1891 73.2874 86.7688 73.7197C86.3484 74.1521 85.7761 74.4034 85.1733 74.4203H65.9085C65.3058 74.4034 64.7334 74.1521 64.3131 73.7197C63.8927 73.2874 63.6576 72.7082 63.6576 72.1052C63.6576 71.5023 63.8927 70.923 64.3131 70.4907C64.7334 70.0584 65.3058 69.8071 65.9085 69.7901ZM51.5353 64.5878C51.5353 64.2839 51.5952 63.9829 51.7115 63.7022C51.8278 63.4214 51.9982 63.1663 52.2131 62.9514C52.428 62.7365 52.6831 62.566 52.9639 62.4497C53.2447 62.3334 53.5456 62.2736 53.8495 62.2736H76.3699C76.9726 62.2905 77.545 62.5419 77.9653 62.9742C78.3857 63.4065 78.6208 63.9857 78.6208 64.5887C78.6208 65.1917 78.3857 65.7709 77.9653 66.2032C77.545 66.6355 76.9726 66.8869 76.3699 66.9038H53.8495C53.5454 66.9038 53.2444 66.8439 52.9635 66.7275C52.6826 66.611 52.4274 66.4404 52.2125 66.2253C51.9976 66.0103 51.8271 65.7549 51.7109 65.4739C51.5948 65.193 51.5351 64.8918 51.5353 64.5878ZM44.8669 118.026V112.111H50.7822C51.3964 112.111 51.9855 111.867 52.4199 111.433C52.8542 110.998 53.0982 110.409 53.0982 109.795V101.635C53.0982 101.021 52.8542 100.432 52.4199 99.9972C51.9855 99.5629 51.3964 99.3189 50.7822 99.3189H44.8669V93.3945C44.8669 92.7803 44.6229 92.1912 44.1886 91.7568C43.7543 91.3225 43.1652 91.0785 42.5509 91.0785H34.3763C33.7621 91.0785 33.173 91.3225 32.7386 91.7568C32.3043 92.1912 32.0603 92.7803 32.0603 93.3945V99.3098H26.1505C25.8456 99.3098 25.5437 99.37 25.2621 99.4869C24.9805 99.6039 24.7248 99.7753 24.5096 99.9913C24.2944 100.207 24.124 100.464 24.0082 100.746C23.8923 101.028 23.8333 101.33 23.8345 101.635V109.804C23.8369 110.417 24.082 111.003 24.5161 111.436C24.9501 111.868 25.5379 112.111 26.1505 112.111H32.0658V118.026C32.0658 118.639 32.3091 119.227 32.7423 119.661C33.1755 120.095 33.7632 120.339 34.3763 120.34H42.5454C42.85 120.341 43.1517 120.282 43.4333 120.166C43.7149 120.05 43.9709 119.88 44.1865 119.665C44.4022 119.45 44.5733 119.195 44.6901 118.913C44.8068 118.632 44.8669 118.331 44.8669 118.026ZM40.2367 109.8V115.71H36.696V109.795C36.6955 109.491 36.6351 109.19 36.5183 108.909C36.4014 108.628 36.2304 108.374 36.0149 108.159C35.7995 107.944 35.5439 107.774 35.2628 107.659C34.9816 107.543 34.6804 107.484 34.3763 107.484H28.4647V103.94H34.3763C34.9894 103.941 35.5781 103.699 36.013 103.267C36.4479 102.835 36.6936 102.248 36.696 101.635V95.7087H40.2367V101.635C40.2367 102.249 40.4805 102.837 40.9145 103.271C41.3485 103.705 41.9372 103.949 42.5509 103.949H48.468V107.484H42.5509C41.9378 107.484 41.3497 107.728 40.9158 108.161C40.4819 108.594 40.2377 109.182 40.2367 109.795V109.8Z" fill="#071D26"/>
</svg>
