<svg width="200" height="200" viewBox="0 0 200 200" fill="none" xmlns="http://www.w3.org/2000/svg">
<mask id="path-1-outside-1_2500_1712" maskUnits="userSpaceOnUse" x="31" y="14" width="137" height="172" fill="black">
<rect fill="white" x="31" y="14" width="137" height="172"/>
<path d="M74.8143 181.849C75.1711 180.65 75.2523 180.403 75.3353 180.129C77.4876 173.144 78.5222 169.791 76.8098 160.76C76.0679 156.824 75.1428 154.443 73.504 153.271C71.8369 152.072 69.073 151.842 64.6589 152.227C63.3222 152.336 63.0107 152.374 62.6803 152.401C54.7868 153.156 43.9084 154.215 42.1696 145.753C41.7242 143.282 41.7885 140.745 42.3584 138.299C42.6644 137.02 42.7664 135.701 42.6604 134.389C42.4444 133.387 41.9744 132.457 41.2954 131.688C39.6208 129.454 38.3936 127.823 41.0575 124.821C37.7517 120.562 38.7051 118.64 39.9588 116.076C40.7195 114.747 41.0493 113.214 40.9027 111.689C40.0701 111.241 39.0809 110.782 38.101 110.335C36.3102 109.589 34.6018 108.659 33.0035 107.56C32.5548 107.214 32.2561 106.709 32.169 106.149C31.1533 99.9512 34.8896 95.152 38.707 90.2433C41.2646 87.4082 43.2403 84.0982 44.522 80.5014C45.4187 76.9577 44.9977 76.1591 44.5031 75.2265C43.14 72.6438 41.4181 69.3946 47.0027 49.807C48.9446 42.3873 52.7675 35.594 58.102 30.0835C63.2272 25.0874 69.4162 21.3155 76.2057 19.0503C86.8857 15.6661 98.1204 14.3838 109.288 15.2743C120.359 16.0069 131.247 18.5896 139.167 23.2604C146.24 27.2061 152.348 32.6746 157.048 39.2702C161.748 45.8659 164.923 53.4238 166.344 61.3972C169.412 78.2 165.255 96.7889 155.851 113.316C154.55 115.582 152.995 117.877 151.411 120.211C148.517 124.026 146.149 128.212 144.369 132.656C140.568 144.55 146.274 160.547 150.714 173.01C151.847 176.17 152.895 179.11 153.735 181.883C153.845 182.153 153.901 182.443 153.899 182.734C153.9 183.032 153.843 183.328 153.73 183.603C153.616 183.879 153.449 184.129 153.239 184.34C153.028 184.55 152.778 184.717 152.502 184.831C152.227 184.944 151.931 185.001 151.633 185H76.9023C76.3015 185 75.7252 184.761 75.3004 184.336C74.8755 183.912 74.6368 183.335 74.6368 182.734C74.6371 182.442 74.6962 182.152 74.8105 181.883L74.8143 181.849ZM103.402 63.5344H117.156V74.0446H127.668V90.0602H117.156V100.574H101.14V90.0602H90.6278V74.0446H101.14V63.5344H103.402ZM112.632 68.056H105.664V78.5682H95.1589V85.5366H105.671V96.0431H112.64V85.5366H123.152V78.5682H112.632V68.056ZM71.3706 51.0436C76.3117 46.1405 82.8717 43.2083 89.8204 42.7967C96.7692 42.3852 103.629 44.5227 109.115 48.8083C114.6 44.5229 121.461 42.3856 128.41 42.7972C135.359 43.2087 141.919 46.1407 146.861 51.0436C164.708 68.8905 150.871 88.8519 134.096 105.628C129.673 110.04 124.845 114.409 120.424 118.419C116.853 121.651 113.548 124.636 110.718 127.466C110.293 127.889 109.718 128.126 109.119 128.126C108.52 128.126 107.946 127.889 107.521 127.466C104.95 124.893 101.818 122.091 98.3647 118.987C93.9053 114.985 88.9154 110.509 84.2994 105.893C67.6532 89.2465 53.5237 68.8999 71.3706 51.0436ZM90.911 47.2526C84.7703 47.3936 78.9202 49.8954 74.5764 54.238C59.4482 69.3663 72.4147 87.6153 87.5051 102.698C92.2666 107.46 97.0657 111.772 101.368 115.627C104.253 118.219 106.927 120.617 109.109 122.705C111.49 120.424 114.348 117.834 117.397 115.078C121.645 111.232 126.271 107.046 130.885 102.428C146.075 87.2452 158.777 69.353 143.659 54.2343C139.298 49.9028 133.445 47.4049 127.301 47.2536C121.157 47.1023 115.188 49.309 110.619 53.4206C110.204 53.7921 109.666 53.9975 109.109 53.9975C108.552 53.9975 108.014 53.7921 107.599 53.4206C103.035 49.2934 97.0563 47.0831 90.9053 47.2488L90.911 47.2526ZM81.2409 159.937C82.9092 166.741 82.462 173.892 79.9589 180.435H148.564C147.95 178.604 147.227 176.589 146.476 174.484C141.814 161.402 135.826 144.626 140.092 131.267C141.986 126.395 144.547 121.809 147.703 117.641C149.251 115.376 150.771 113.137 151.943 111.068C160.852 95.4277 164.798 77.8998 161.932 62.1694C160.614 54.8401 157.684 47.8952 153.355 41.8361C149.025 35.7769 143.404 30.7549 136.898 27.1326C129.609 22.8375 119.444 20.4568 109.024 19.7696C98.4668 18.9161 87.8443 20.1177 77.7444 23.3076C71.5898 25.3466 65.9751 28.749 61.3191 33.2609C56.5281 38.2357 53.0978 44.3596 51.3583 51.0436C46.2778 68.8999 47.5219 71.2448 48.5112 73.1214C49.4552 74.898 50.2425 76.3895 48.9133 81.6002C47.5238 85.8254 45.2703 89.7153 42.296 93.0224C39.3206 96.8493 36.4075 100.604 36.5548 104.514C37.4704 105.064 38.7335 105.647 40.006 106.236C41.4454 106.864 42.8462 107.576 44.201 108.37C44.4673 108.536 44.6959 108.757 44.8724 109.017C45.0489 109.277 45.1694 109.571 45.2262 109.88C45.8559 112.664 45.4251 115.583 44.0179 118.066C43.3948 119.348 42.9361 120.264 45.8114 123.46L45.8303 123.477C46.2233 123.928 46.4218 124.517 46.3826 125.114C46.3433 125.711 46.0694 126.268 45.6207 126.664C44.1462 127.946 44.4653 128.363 44.9146 128.963C46.0747 130.312 46.8443 131.952 47.1406 133.706C47.3397 135.5 47.2311 137.314 46.8196 139.072C46.3703 140.965 46.2959 142.928 46.6006 144.851C47.5163 149.336 56.0687 148.513 62.2707 147.909L64.2851 147.72C69.7885 147.245 73.4512 147.675 76.1528 149.608C78.8904 151.577 80.2912 154.819 81.2503 159.937H81.2409Z"/>
</mask>
<path d="M74.8143 181.849C75.1711 180.65 75.2523 180.403 75.3353 180.129C77.4876 173.144 78.5222 169.791 76.8098 160.76C76.0679 156.824 75.1428 154.443 73.504 153.271C71.8369 152.072 69.073 151.842 64.6589 152.227C63.3222 152.336 63.0107 152.374 62.6803 152.401C54.7868 153.156 43.9084 154.215 42.1696 145.753C41.7242 143.282 41.7885 140.745 42.3584 138.299C42.6644 137.02 42.7664 135.701 42.6604 134.389C42.4444 133.387 41.9744 132.457 41.2954 131.688C39.6208 129.454 38.3936 127.823 41.0575 124.821C37.7517 120.562 38.7051 118.64 39.9588 116.076C40.7195 114.747 41.0493 113.214 40.9027 111.689C40.0701 111.241 39.0809 110.782 38.101 110.335C36.3102 109.589 34.6018 108.659 33.0035 107.56C32.5548 107.214 32.2561 106.709 32.169 106.149C31.1533 99.9512 34.8896 95.152 38.707 90.2433C41.2646 87.4082 43.2403 84.0982 44.522 80.5014C45.4187 76.9577 44.9977 76.1591 44.5031 75.2265C43.14 72.6438 41.4181 69.3946 47.0027 49.807C48.9446 42.3873 52.7675 35.594 58.102 30.0835C63.2272 25.0874 69.4162 21.3155 76.2057 19.0503C86.8857 15.6661 98.1204 14.3838 109.288 15.2743C120.359 16.0069 131.247 18.5896 139.167 23.2604C146.24 27.2061 152.348 32.6746 157.048 39.2702C161.748 45.8659 164.923 53.4238 166.344 61.3972C169.412 78.2 165.255 96.7889 155.851 113.316C154.55 115.582 152.995 117.877 151.411 120.211C148.517 124.026 146.149 128.212 144.369 132.656C140.568 144.55 146.274 160.547 150.714 173.01C151.847 176.17 152.895 179.11 153.735 181.883C153.845 182.153 153.901 182.443 153.899 182.734C153.9 183.032 153.843 183.328 153.73 183.603C153.616 183.879 153.449 184.129 153.239 184.34C153.028 184.55 152.778 184.717 152.502 184.831C152.227 184.944 151.931 185.001 151.633 185H76.9023C76.3015 185 75.7252 184.761 75.3004 184.336C74.8755 183.912 74.6368 183.335 74.6368 182.734C74.6371 182.442 74.6962 182.152 74.8105 181.883L74.8143 181.849ZM103.402 63.5344H117.156V74.0446H127.668V90.0602H117.156V100.574H101.14V90.0602H90.6278V74.0446H101.14V63.5344H103.402ZM112.632 68.056H105.664V78.5682H95.1589V85.5366H105.671V96.0431H112.64V85.5366H123.152V78.5682H112.632V68.056ZM71.3706 51.0436C76.3117 46.1405 82.8717 43.2083 89.8204 42.7967C96.7692 42.3852 103.629 44.5227 109.115 48.8083C114.6 44.5229 121.461 42.3856 128.41 42.7972C135.359 43.2087 141.919 46.1407 146.861 51.0436C164.708 68.8905 150.871 88.8519 134.096 105.628C129.673 110.04 124.845 114.409 120.424 118.419C116.853 121.651 113.548 124.636 110.718 127.466C110.293 127.889 109.718 128.126 109.119 128.126C108.52 128.126 107.946 127.889 107.521 127.466C104.95 124.893 101.818 122.091 98.3647 118.987C93.9053 114.985 88.9154 110.509 84.2994 105.893C67.6532 89.2465 53.5237 68.8999 71.3706 51.0436ZM90.911 47.2526C84.7703 47.3936 78.9202 49.8954 74.5764 54.238C59.4482 69.3663 72.4147 87.6153 87.5051 102.698C92.2666 107.46 97.0657 111.772 101.368 115.627C104.253 118.219 106.927 120.617 109.109 122.705C111.49 120.424 114.348 117.834 117.397 115.078C121.645 111.232 126.271 107.046 130.885 102.428C146.075 87.2452 158.777 69.353 143.659 54.2343C139.298 49.9028 133.445 47.4049 127.301 47.2536C121.157 47.1023 115.188 49.309 110.619 53.4206C110.204 53.7921 109.666 53.9975 109.109 53.9975C108.552 53.9975 108.014 53.7921 107.599 53.4206C103.035 49.2934 97.0563 47.0831 90.9053 47.2488L90.911 47.2526ZM81.2409 159.937C82.9092 166.741 82.462 173.892 79.9589 180.435H148.564C147.95 178.604 147.227 176.589 146.476 174.484C141.814 161.402 135.826 144.626 140.092 131.267C141.986 126.395 144.547 121.809 147.703 117.641C149.251 115.376 150.771 113.137 151.943 111.068C160.852 95.4277 164.798 77.8998 161.932 62.1694C160.614 54.8401 157.684 47.8952 153.355 41.8361C149.025 35.7769 143.404 30.7549 136.898 27.1326C129.609 22.8375 119.444 20.4568 109.024 19.7696C98.4668 18.9161 87.8443 20.1177 77.7444 23.3076C71.5898 25.3466 65.9751 28.749 61.3191 33.2609C56.5281 38.2357 53.0978 44.3596 51.3583 51.0436C46.2778 68.8999 47.5219 71.2448 48.5112 73.1214C49.4552 74.898 50.2425 76.3895 48.9133 81.6002C47.5238 85.8254 45.2703 89.7153 42.296 93.0224C39.3206 96.8493 36.4075 100.604 36.5548 104.514C37.4704 105.064 38.7335 105.647 40.006 106.236C41.4454 106.864 42.8462 107.576 44.201 108.37C44.4673 108.536 44.6959 108.757 44.8724 109.017C45.0489 109.277 45.1694 109.571 45.2262 109.88C45.8559 112.664 45.4251 115.583 44.0179 118.066C43.3948 119.348 42.9361 120.264 45.8114 123.46L45.8303 123.477C46.2233 123.928 46.4218 124.517 46.3826 125.114C46.3433 125.711 46.0694 126.268 45.6207 126.664C44.1462 127.946 44.4653 128.363 44.9146 128.963C46.0747 130.312 46.8443 131.952 47.1406 133.706C47.3397 135.5 47.2311 137.314 46.8196 139.072C46.3703 140.965 46.2959 142.928 46.6006 144.851C47.5163 149.336 56.0687 148.513 62.2707 147.909L64.2851 147.72C69.7885 147.245 73.4512 147.675 76.1528 149.608C78.8904 151.577 80.2912 154.819 81.2503 159.937H81.2409Z" fill="#071D26"/>
<path d="M74.8143 181.849C75.1711 180.65 75.2523 180.403 75.3353 180.129C77.4876 173.144 78.5222 169.791 76.8098 160.76C76.0679 156.824 75.1428 154.443 73.504 153.271C71.8369 152.072 69.073 151.842 64.6589 152.227C63.3222 152.336 63.0107 152.374 62.6803 152.401C54.7868 153.156 43.9084 154.215 42.1696 145.753C41.7242 143.282 41.7885 140.745 42.3584 138.299C42.6644 137.02 42.7664 135.701 42.6604 134.389C42.4444 133.387 41.9744 132.457 41.2954 131.688C39.6208 129.454 38.3936 127.823 41.0575 124.821C37.7517 120.562 38.7051 118.64 39.9588 116.076C40.7195 114.747 41.0493 113.214 40.9027 111.689C40.0701 111.241 39.0809 110.782 38.101 110.335C36.3102 109.589 34.6018 108.659 33.0035 107.56C32.5548 107.214 32.2561 106.709 32.169 106.149C31.1533 99.9512 34.8896 95.152 38.707 90.2433C41.2646 87.4082 43.2403 84.0982 44.522 80.5014C45.4187 76.9577 44.9977 76.1591 44.5031 75.2265C43.14 72.6438 41.4181 69.3946 47.0027 49.807C48.9446 42.3873 52.7675 35.594 58.102 30.0835C63.2272 25.0874 69.4162 21.3155 76.2057 19.0503C86.8857 15.6661 98.1204 14.3838 109.288 15.2743C120.359 16.0069 131.247 18.5896 139.167 23.2604C146.24 27.2061 152.348 32.6746 157.048 39.2702C161.748 45.8659 164.923 53.4238 166.344 61.3972C169.412 78.2 165.255 96.7889 155.851 113.316C154.55 115.582 152.995 117.877 151.411 120.211C148.517 124.026 146.149 128.212 144.369 132.656C140.568 144.55 146.274 160.547 150.714 173.01C151.847 176.17 152.895 179.11 153.735 181.883C153.845 182.153 153.901 182.443 153.899 182.734C153.9 183.032 153.843 183.328 153.73 183.603C153.616 183.879 153.449 184.129 153.239 184.34C153.028 184.55 152.778 184.717 152.502 184.831C152.227 184.944 151.931 185.001 151.633 185H76.9023C76.3015 185 75.7252 184.761 75.3004 184.336C74.8755 183.912 74.6368 183.335 74.6368 182.734C74.6371 182.442 74.6962 182.152 74.8105 181.883L74.8143 181.849ZM103.402 63.5344H117.156V74.0446H127.668V90.0602H117.156V100.574H101.14V90.0602H90.6278V74.0446H101.14V63.5344H103.402ZM112.632 68.056H105.664V78.5682H95.1589V85.5366H105.671V96.0431H112.64V85.5366H123.152V78.5682H112.632V68.056ZM71.3706 51.0436C76.3117 46.1405 82.8717 43.2083 89.8204 42.7967C96.7692 42.3852 103.629 44.5227 109.115 48.8083C114.6 44.5229 121.461 42.3856 128.41 42.7972C135.359 43.2087 141.919 46.1407 146.861 51.0436C164.708 68.8905 150.871 88.8519 134.096 105.628C129.673 110.04 124.845 114.409 120.424 118.419C116.853 121.651 113.548 124.636 110.718 127.466C110.293 127.889 109.718 128.126 109.119 128.126C108.52 128.126 107.946 127.889 107.521 127.466C104.95 124.893 101.818 122.091 98.3647 118.987C93.9053 114.985 88.9154 110.509 84.2994 105.893C67.6532 89.2465 53.5237 68.8999 71.3706 51.0436ZM90.911 47.2526C84.7703 47.3936 78.9202 49.8954 74.5764 54.238C59.4482 69.3663 72.4147 87.6153 87.5051 102.698C92.2666 107.46 97.0657 111.772 101.368 115.627C104.253 118.219 106.927 120.617 109.109 122.705C111.49 120.424 114.348 117.834 117.397 115.078C121.645 111.232 126.271 107.046 130.885 102.428C146.075 87.2452 158.777 69.353 143.659 54.2343C139.298 49.9028 133.445 47.4049 127.301 47.2536C121.157 47.1023 115.188 49.309 110.619 53.4206C110.204 53.7921 109.666 53.9975 109.109 53.9975C108.552 53.9975 108.014 53.7921 107.599 53.4206C103.035 49.2934 97.0563 47.0831 90.9053 47.2488L90.911 47.2526ZM81.2409 159.937C82.9092 166.741 82.462 173.892 79.9589 180.435H148.564C147.95 178.604 147.227 176.589 146.476 174.484C141.814 161.402 135.826 144.626 140.092 131.267C141.986 126.395 144.547 121.809 147.703 117.641C149.251 115.376 150.771 113.137 151.943 111.068C160.852 95.4277 164.798 77.8998 161.932 62.1694C160.614 54.8401 157.684 47.8952 153.355 41.8361C149.025 35.7769 143.404 30.7549 136.898 27.1326C129.609 22.8375 119.444 20.4568 109.024 19.7696C98.4668 18.9161 87.8443 20.1177 77.7444 23.3076C71.5898 25.3466 65.9751 28.749 61.3191 33.2609C56.5281 38.2357 53.0978 44.3596 51.3583 51.0436C46.2778 68.8999 47.5219 71.2448 48.5112 73.1214C49.4552 74.898 50.2425 76.3895 48.9133 81.6002C47.5238 85.8254 45.2703 89.7153 42.296 93.0224C39.3206 96.8493 36.4075 100.604 36.5548 104.514C37.4704 105.064 38.7335 105.647 40.006 106.236C41.4454 106.864 42.8462 107.576 44.201 108.37C44.4673 108.536 44.6959 108.757 44.8724 109.017C45.0489 109.277 45.1694 109.571 45.2262 109.88C45.8559 112.664 45.4251 115.583 44.0179 118.066C43.3948 119.348 42.9361 120.264 45.8114 123.46L45.8303 123.477C46.2233 123.928 46.4218 124.517 46.3826 125.114C46.3433 125.711 46.0694 126.268 45.6207 126.664C44.1462 127.946 44.4653 128.363 44.9146 128.963C46.0747 130.312 46.8443 131.952 47.1406 133.706C47.3397 135.5 47.2311 137.314 46.8196 139.072C46.3703 140.965 46.2959 142.928 46.6006 144.851C47.5163 149.336 56.0687 148.513 62.2707 147.909L64.2851 147.72C69.7885 147.245 73.4512 147.675 76.1528 149.608C78.8904 151.577 80.2912 154.819 81.2503 159.937H81.2409Z" stroke="#071D26" stroke-width="0.6" mask="url(#path-1-outside-1_2500_1712)"/>
</svg>
