<svg width="200" height="200" viewBox="0 0 200 200" fill="none" xmlns="http://www.w3.org/2000/svg">
<path d="M135.956 121.338L103.997 138.791C104.145 136.984 103.887 135.096 103.183 133.263C101.299 128.358 96.8191 125.18 91.751 125.139C79.2595 124.164 73.1907 120.812 68.3132 118.119C60.8312 113.988 55.9226 111.995 42.0784 119.111L31.6251 124.483L31.1797 122.819C30.9286 121.882 30.3274 121.099 29.4861 120.614C28.6447 120.128 27.666 120 26.7312 120.251L17.6948 122.672C16.7581 122.923 15.9755 123.524 15.4897 124.366C15.004 125.207 14.8739 126.186 15.125 127.121L28.6539 177.613C28.905 178.549 29.5062 179.332 30.3475 179.818C30.9084 180.142 31.5298 180.307 32.1585 180.307C32.4738 180.307 32.7909 180.265 33.1025 180.182L42.1388 177.761C44.0726 177.242 45.2255 175.246 44.7068 173.313L44.4117 172.215C56.1517 169.451 62.7961 170.99 68.6963 172.361C71.7628 173.072 74.6369 173.74 77.7969 173.74C81.5452 173.74 85.6932 172.799 91.0343 169.88L146.743 139.418C149.472 137.926 151.477 135.426 152.242 132.561C152.949 129.912 152.562 127.187 151.157 124.886C148.163 119.985 141.343 118.394 135.956 121.338ZM32.899 175.395L19.909 126.919L26.9309 125.038L39.9192 173.514L32.899 175.395ZM147.725 131.353C147.289 132.988 146.114 134.432 144.501 135.314L88.7927 165.774C80.5151 170.299 76.0024 169.253 69.7558 167.803C63.6374 166.382 56.1022 164.637 43.2038 167.695L32.8623 129.104L44.2156 123.27C56.5183 116.948 59.7039 118.707 66.0532 122.212C71.059 124.976 77.916 128.763 91.4779 129.808C91.5384 129.811 91.5971 129.815 91.6575 129.815C95.4884 129.815 97.8694 132.462 98.8207 134.94C99.695 137.216 99.7591 140.431 97.3177 142.631C95.5085 144.261 87.9275 148.722 66.2787 137.706C65.1276 137.121 63.7199 137.579 63.1352 138.731C62.5505 139.882 63.0087 141.289 64.1598 141.874C75.656 147.723 83.8272 149.613 89.5882 149.613C95.2464 149.613 98.5806 147.789 100.448 146.104C100.485 146.071 100.516 146.037 100.551 146.004L138.2 125.442C141.378 123.706 145.487 124.567 147.172 127.324C147.901 128.521 148.099 129.953 147.725 131.353ZM64.5154 110.263H142.382C143.094 110.263 143.766 109.939 144.21 109.383C144.653 108.828 144.82 108.098 144.661 107.406L138.909 82.2081C137.463 75.8717 133.604 71.0327 127.748 68.2137L119.63 64.304C123.329 60.343 125.6 55.033 125.6 49.1987C125.6 36.984 115.662 27.0458 103.447 27.0458C91.2323 27.0458 81.2941 36.984 81.2941 49.1987C81.2941 55.033 83.5651 60.3448 87.264 64.304L79.1459 68.2137C73.2897 71.0327 69.4313 75.8735 67.9851 82.2081L62.2334 107.406C62.0757 108.098 62.2407 108.828 62.6843 109.383C63.1315 109.939 63.8042 110.263 64.5154 110.263ZM103.449 31.7198C113.086 31.7198 120.926 39.5593 120.926 49.1969C120.926 58.8345 113.086 66.674 103.449 66.674C93.8112 66.674 85.9718 58.8345 85.9718 49.1969C85.9718 39.5593 93.8131 31.7198 103.449 31.7198ZM72.5473 83.2474C73.6654 78.348 76.6494 74.6051 81.1786 72.4239L91.1608 67.6161C94.6801 69.9714 98.9068 71.348 103.451 71.348C107.995 71.348 112.221 69.9714 115.741 67.6161L125.723 72.4239C130.25 74.6051 133.236 78.3461 134.354 83.2474L139.453 105.587H67.4481L72.5473 83.2474ZM158.399 20C143.73 20 131.797 31.9324 131.797 46.6015C131.797 61.2705 143.73 73.2029 158.399 73.2029C173.068 73.2029 185 61.2705 185 46.6015C185 31.9324 173.068 20 158.399 20ZM158.399 68.5271C146.308 68.5271 136.473 58.6915 136.473 46.6015C136.473 34.5114 146.308 24.6758 158.399 24.6758C170.489 24.6758 180.324 34.5114 180.324 46.6015C180.324 58.6915 170.489 68.5271 158.399 68.5271ZM172.584 35.459C170.239 33.1807 166.478 33.232 164.198 35.5763L154.92 45.1278L152.462 42.7651C151.32 41.6672 149.811 41.0825 148.235 41.11C146.651 41.1411 145.174 41.7863 144.076 42.9282C141.809 45.2836 141.882 49.0466 144.237 51.3139L144.239 51.3158L150.949 57.7659C152.062 58.8363 153.519 59.421 155.064 59.421C155.116 59.421 155.167 59.421 155.218 59.4192C156.802 59.3789 158.27 58.7282 159.352 57.5863L172.699 43.8465C174.979 41.5022 174.926 37.7392 172.584 35.459ZM169.347 40.5857L155.986 54.3383C155.977 54.3475 155.968 54.3566 155.961 54.3658C155.664 54.6829 155.295 54.7379 155.103 54.7434C154.898 54.7507 154.52 54.7085 154.192 54.3933L147.482 47.9432C147.24 47.7104 147.104 47.3988 147.097 47.0634C147.089 46.7279 147.214 46.4108 147.447 46.1689C147.927 45.6703 148.722 45.6557 149.221 46.1359L153.356 50.1097C154.284 51.0023 155.757 50.9767 156.654 50.0529L167.55 38.8353C168.032 38.3404 168.828 38.3294 169.323 38.8096C169.818 39.2935 169.829 40.089 169.347 40.5857Z" fill="#071D26"/>
</svg>
