<svg width="200" height="200" viewBox="0 0 200 200" fill="none" xmlns="http://www.w3.org/2000/svg">
<path d="M154.508 162.849C154.51 163.484 154.26 164.094 153.813 164.545C153.365 164.996 152.757 165.251 152.122 165.254H31.1325C30.4973 165.251 29.8892 164.996 29.4417 164.545C28.9942 164.094 28.744 163.484 28.7458 162.849V58.507C28.744 57.8718 28.9942 57.2617 29.4417 56.8108C29.8892 56.3598 30.4973 56.1048 31.1325 56.1017H35.8644V51.356H31.1325C29.2391 51.3607 27.4249 52.1162 26.0878 53.4568C24.7506 54.7974 23.9998 56.6136 24 58.507V162.849C23.9998 164.742 24.7506 166.559 26.0878 167.899C27.4249 169.24 29.2391 169.995 31.1325 170H152.122C154.015 169.995 155.829 169.24 157.166 167.899C158.504 166.559 159.254 164.742 159.254 162.849V159.322H154.508V162.849Z" fill="#071D26"/>
<path d="M56.0338 73.8982H65.5254C66.7836 73.897 67.99 73.3966 68.8797 72.5068C69.7695 71.6171 70.2699 70.4107 70.2711 69.1524V59.6609C70.2699 58.4027 69.7695 57.1963 68.8797 56.3066C67.99 55.4168 66.7836 54.9164 65.5254 54.9152H56.0338C54.7756 54.9164 53.5692 55.4168 52.6795 56.3066C51.7897 57.1963 51.2893 58.4027 51.2881 59.6609V69.1524C51.2893 70.4107 51.7897 71.6171 52.6795 72.5068C53.5692 73.3966 54.7756 73.897 56.0338 73.8982ZM56.0338 59.6609H65.5254L65.5288 69.1524H56.0338V59.6609Z" fill="#071D26"/>
<path d="M79.7626 73.8982H89.2541C90.5124 73.897 91.7188 73.3966 92.6085 72.5068C93.4982 71.6171 93.9986 70.4107 93.9999 69.1524V59.6609C93.9986 58.4027 93.4982 57.1963 92.6085 56.3066C91.7188 55.4168 90.5124 54.9164 89.2541 54.9152H79.7626C78.5043 54.9164 77.298 55.4168 76.4082 56.3066C75.5185 57.1963 75.0181 58.4027 75.0168 59.6609V69.1524C75.0181 70.4107 75.5185 71.6171 76.4082 72.5068C77.298 73.3966 78.5043 73.897 79.7626 73.8982ZM79.7626 59.6609H89.2541L89.2576 69.1524H79.7626V59.6609Z" fill="#071D26"/>
<path d="M112.983 73.8982C114.241 73.897 115.448 73.3966 116.338 72.5068C117.227 71.6171 117.728 70.4107 117.729 69.1524V59.6609C117.728 58.4027 117.227 57.1963 116.338 56.3066C115.448 55.4168 114.241 54.9164 112.983 54.9152H103.492C102.233 54.9164 101.027 55.4168 100.137 56.3066C99.2475 57.1963 98.7471 58.4027 98.7458 59.6609V69.1524C98.7471 70.4107 99.2475 71.6171 100.137 72.5068C101.027 73.3966 102.233 73.897 103.492 73.8982H112.983ZM103.492 59.6609H112.983L112.987 69.1524H103.492V59.6609Z" fill="#071D26"/>
<path d="M127.22 73.8982H136.712C137.97 73.897 139.177 73.3966 140.066 72.5068C140.956 71.6171 141.456 70.4107 141.458 69.1524V59.6609C141.456 58.4027 140.956 57.1963 140.066 56.3066C139.177 55.4168 137.97 54.9164 136.712 54.9152H127.22C125.962 54.9164 124.756 55.4168 123.866 56.3066C122.976 57.1963 122.476 58.4027 122.475 59.6609V69.1524C122.476 70.4107 122.976 71.6171 123.866 72.5068C124.756 73.3966 125.962 73.897 127.22 73.8982ZM127.22 59.6609H136.712L136.715 69.1524H127.22V59.6609Z" fill="#071D26"/>
<path d="M150.949 73.8982H160.441C161.699 73.897 162.905 73.3966 163.795 72.5068C164.685 71.6171 165.185 70.4107 165.186 69.1524V59.6609C165.185 58.4027 164.685 57.1963 163.795 56.3066C162.905 55.4168 161.699 54.9164 160.441 54.9152H150.949C149.691 54.9164 148.484 55.4168 147.595 56.3066C146.705 57.1963 146.205 58.4027 146.203 59.6609V69.1524C146.205 70.4107 146.705 71.6171 147.595 72.5068C148.484 73.3966 149.691 73.897 150.949 73.8982ZM150.949 59.6609H160.441L160.444 69.1524H150.949V59.6609Z" fill="#071D26"/>
<path d="M51.2881 92.8813C51.2893 94.1396 51.7897 95.346 52.6795 96.2357C53.5692 97.1254 54.7756 97.6258 56.0338 97.6271H65.5254C66.7836 97.6258 67.99 97.1254 68.8797 96.2357C69.7695 95.346 70.2699 94.1396 70.2711 92.8813V83.3898C70.2699 82.1315 69.7695 80.9252 68.8797 80.0354C67.99 79.1457 66.7836 78.6453 65.5254 78.644H56.0338C54.7756 78.6453 53.5692 79.1457 52.6795 80.0354C51.7897 80.9252 51.2893 82.1315 51.2881 83.3898V92.8813ZM56.0338 83.3898H65.5254L65.5288 92.8813H56.0338V83.3898Z" fill="#071D26"/>
<path d="M75.0168 116.61C75.0181 117.868 75.5185 119.075 76.4082 119.965C77.298 120.854 78.5043 121.355 79.7626 121.356H112.983C114.241 121.355 115.448 120.854 116.337 119.965C117.227 119.075 117.727 117.868 117.729 116.61V83.3898C117.727 82.1315 117.227 80.9252 116.337 80.0354C115.448 79.1457 114.241 78.6453 112.983 78.644H79.7626C78.5043 78.6453 77.298 79.1457 76.4082 80.0354C75.5185 80.9252 75.0181 82.1315 75.0168 83.3898V116.61ZM79.7626 83.3898H112.983L112.986 116.61H79.7626V83.3898Z" fill="#071D26"/>
<path d="M122.475 92.8813C122.476 94.1396 122.976 95.346 123.866 96.2357C124.756 97.1254 125.962 97.6258 127.22 97.6271H136.712C137.97 97.6258 139.177 97.1254 140.066 96.2357C140.956 95.346 141.456 94.1396 141.458 92.8813V83.3898C141.456 82.1315 140.956 80.9252 140.066 80.0354C139.177 79.1457 137.97 78.6453 136.712 78.644H127.22C125.962 78.6453 124.756 79.1457 123.866 80.0354C122.976 80.9252 122.476 82.1315 122.475 83.3898V92.8813ZM127.22 83.3898H136.712L136.715 92.8813H127.22V83.3898Z" fill="#071D26"/>
<path d="M146.203 92.8813C146.205 94.1396 146.705 95.346 147.595 96.2357C148.484 97.1254 149.691 97.6258 150.949 97.6271H160.441C161.699 97.6258 162.905 97.1254 163.795 96.2357C164.685 95.346 165.185 94.1396 165.186 92.8813V83.3898C165.185 82.1315 164.685 80.9252 163.795 80.0354C162.905 79.1457 161.699 78.6453 160.441 78.644H150.949C149.691 78.6453 148.484 79.1457 147.595 80.0354C146.705 80.9252 146.205 82.1315 146.203 83.3898V92.8813ZM150.949 83.3898H160.441L160.444 92.8813H150.949V83.3898Z" fill="#071D26"/>
<path d="M51.2881 116.61C51.2893 117.868 51.7897 119.075 52.6795 119.965C53.5692 120.854 54.7756 121.355 56.0338 121.356H65.5254C66.7836 121.355 67.99 120.854 68.8797 119.965C69.7695 119.075 70.2699 117.868 70.2711 116.61V107.119C70.2699 105.86 69.7695 104.654 68.8797 103.764C67.99 102.875 66.7836 102.374 65.5254 102.373H56.0338C54.7756 102.374 53.5692 102.875 52.6795 103.764C51.7897 104.654 51.2893 105.86 51.2881 107.119V116.61ZM56.0338 107.119H65.5254L65.5288 116.61H56.0338V107.119Z" fill="#071D26"/>
<path d="M122.475 116.61C122.476 117.868 122.976 119.075 123.866 119.965C124.756 120.854 125.962 121.355 127.22 121.356H136.712C137.97 121.355 139.177 120.854 140.066 119.965C140.956 119.075 141.456 117.868 141.458 116.61V107.119C141.456 105.86 140.956 104.654 140.066 103.764C139.177 102.875 137.97 102.374 136.712 102.373H127.22C125.962 102.374 124.756 102.875 123.866 103.764C122.976 104.654 122.476 105.86 122.475 107.119V116.61ZM127.22 107.119H136.712L136.715 116.61H127.22V107.119Z" fill="#071D26"/>
<path d="M146.203 116.61C146.205 117.868 146.705 119.075 147.595 119.965C148.484 120.854 149.691 121.355 150.949 121.356H160.441C161.699 121.355 162.905 120.854 163.795 119.965C164.685 119.075 165.185 117.868 165.186 116.61V107.119C165.185 105.86 164.685 104.654 163.795 103.764C162.905 102.875 161.699 102.374 160.441 102.373H150.949C149.691 102.374 148.484 102.875 147.595 103.764C146.705 104.654 146.205 105.86 146.203 107.119V116.61ZM150.949 107.119H160.441L160.444 116.61H150.949V107.119Z" fill="#071D26"/>
<path d="M122.475 140.339C122.476 141.597 122.976 142.804 123.866 143.693C124.756 144.583 125.962 145.083 127.22 145.085H136.712C137.97 145.083 139.177 144.583 140.066 143.693C140.956 142.804 141.456 141.597 141.458 140.339V130.847C141.456 129.589 140.956 128.383 140.066 127.493C139.177 126.603 137.97 126.103 136.712 126.102H127.22C125.962 126.103 124.756 126.603 123.866 127.493C122.976 128.383 122.476 129.589 122.475 130.847V140.339ZM127.22 130.847H136.712L136.715 140.339H127.22V130.847Z" fill="#071D26"/>
<path d="M146.203 140.339C146.205 141.597 146.705 142.804 147.595 143.693C148.484 144.583 149.691 145.083 150.949 145.085H160.441C161.699 145.083 162.905 144.583 163.795 143.693C164.685 142.804 165.185 141.597 165.186 140.339V130.847C165.185 129.589 164.685 128.383 163.795 127.493C162.905 126.603 161.699 126.103 160.441 126.102H150.949C149.691 126.103 148.484 126.603 147.595 127.493C146.705 128.383 146.205 129.589 146.203 130.847V140.339ZM150.949 130.847H160.441L160.444 140.339H150.949V130.847Z" fill="#071D26"/>
<path d="M168.746 30H47.7288C45.8414 30.0021 44.0319 30.7527 42.6974 32.0873C41.3628 33.4218 40.6122 35.2313 40.6101 37.1186V121.702L44.5448 119.735C44.808 119.606 45.0789 119.492 45.3559 119.396V50.1695H171.119V147.458C171.118 148.087 170.868 148.69 170.423 149.135C169.978 149.579 169.375 149.83 168.746 149.83H47.7288C47.0997 149.83 46.4966 149.579 46.0518 149.135C45.607 148.69 45.3567 148.087 45.3559 147.458V144.676C45.0788 144.578 44.8079 144.464 44.5448 144.333L40.6101 142.365V147.458C40.6122 149.345 41.3628 151.154 42.6974 152.489C44.0319 153.824 45.8414 154.574 47.7288 154.576H168.746C170.633 154.574 172.443 153.824 173.777 152.489C175.112 151.154 175.862 149.345 175.864 147.458V37.1186C175.862 35.2313 175.112 33.4218 173.777 32.0873C172.443 30.7527 170.633 30.0021 168.746 30ZM47.7288 34.7458H52.4745V38.3051C52.4745 38.9344 52.7245 39.538 53.1695 39.983C53.6145 40.428 54.2181 40.678 54.8474 40.678C55.4767 40.678 56.0803 40.428 56.5253 39.983C56.9703 39.538 57.2203 38.9344 57.2203 38.3051V34.7458H64.3389V38.3051C64.3389 38.9344 64.5889 39.538 65.0339 39.983C65.4789 40.428 66.0825 40.678 66.7118 40.678C67.3411 40.678 67.9447 40.428 68.3897 39.983C68.8347 39.538 69.0847 38.9344 69.0847 38.3051V34.7458H76.2033V38.3051C76.2033 38.9344 76.4533 39.538 76.8983 39.983C77.3433 40.428 77.9469 40.678 78.5762 40.678C79.2055 40.678 79.8091 40.428 80.2541 39.983C80.6991 39.538 80.9491 38.9344 80.9491 38.3051V34.7458H88.0677V38.3051C88.0677 38.9344 88.3177 39.538 88.7627 39.983C89.2077 40.428 89.8113 40.678 90.4406 40.678C91.0699 40.678 91.6735 40.428 92.1185 39.983C92.5635 39.538 92.8135 38.9344 92.8135 38.3051V34.7458H99.9321V38.3051C99.9321 38.9344 100.182 39.538 100.627 39.983C101.072 40.428 101.676 40.678 102.305 40.678C102.934 40.678 103.538 40.428 103.983 39.983C104.428 39.538 104.678 38.9344 104.678 38.3051V34.7458H111.797V38.3051C111.797 38.9344 112.047 39.538 112.492 39.983C112.937 40.428 113.54 40.678 114.169 40.678C114.799 40.678 115.402 40.428 115.847 39.983C116.292 39.538 116.542 38.9344 116.542 38.3051V34.7458H123.661V38.3051C123.661 38.9344 123.911 39.538 124.356 39.983C124.801 40.428 125.405 40.678 126.034 40.678C126.663 40.678 127.267 40.428 127.712 39.983C128.157 39.538 128.407 38.9344 128.407 38.3051V34.7458H135.525V38.3051C135.525 38.9344 135.775 39.538 136.22 39.983C136.665 40.428 137.269 40.678 137.898 40.678C138.528 40.678 139.131 40.428 139.576 39.983C140.021 39.538 140.271 38.9344 140.271 38.3051V34.7458H147.39V38.3051C147.39 38.9344 147.64 39.538 148.085 39.983C148.53 40.428 149.133 40.678 149.763 40.678C150.392 40.678 150.996 40.428 151.441 39.983C151.886 39.538 152.136 38.9344 152.136 38.3051V34.7458H159.254V38.3051C159.254 38.9344 159.504 39.538 159.949 39.983C160.394 40.428 160.998 40.678 161.627 40.678C162.256 40.678 162.86 40.428 163.305 39.983C163.75 39.538 164 38.9344 164 38.3051V34.7458H168.746C169.375 34.7466 169.978 34.9968 170.423 35.4417C170.868 35.8865 171.118 36.4896 171.119 37.1186V45.4237H45.3559V37.1186C45.3567 36.4896 45.607 35.8865 46.0518 35.4417C46.4966 34.9968 47.0997 34.7466 47.7288 34.7458Z" fill="#071D26"/>
<path d="M49.8514 125.04C49.7121 124.762 49.5193 124.513 49.2839 124.309C49.0485 124.104 48.7751 123.948 48.4794 123.85C48.1837 123.751 47.8714 123.712 47.5605 123.734C47.2496 123.756 46.9462 123.84 46.6674 123.979L34.803 129.911C34.4089 130.109 34.0775 130.412 33.8458 130.786C33.6142 131.161 33.4915 131.593 33.4915 132.034C33.4915 132.475 33.6142 132.907 33.8458 133.282C34.0775 133.656 34.4089 133.959 34.803 134.157L46.6674 140.089C46.9462 140.228 47.2497 140.312 47.5606 140.334C47.8716 140.356 48.1838 140.317 48.4795 140.218C48.7753 140.12 49.0487 139.964 49.2842 139.759C49.5197 139.555 49.7127 139.307 49.8521 139.028C49.9915 138.749 50.0746 138.446 50.0967 138.135C50.1187 137.824 50.0793 137.511 49.9807 137.216C49.8821 136.92 49.7262 136.647 49.5219 136.411C49.3176 136.176 49.0689 135.983 48.7901 135.844L45.9162 134.407H109.424C110.053 134.408 110.656 134.658 111.101 135.103C111.545 135.548 111.796 136.151 111.797 136.78V142.712C111.797 143.341 112.047 143.945 112.492 144.39C112.937 144.835 113.54 145.085 114.169 145.085C114.799 145.085 115.402 144.835 115.847 144.39C116.292 143.945 116.542 143.341 116.542 142.712V136.78C116.54 134.892 115.79 133.083 114.455 131.748C113.12 130.414 111.311 129.663 109.424 129.661H45.9162L48.7901 128.224C49.0688 128.085 49.3174 127.892 49.5216 127.657C49.7259 127.421 49.8817 127.148 49.9803 126.852C50.0788 126.557 50.1182 126.244 50.096 125.934C50.0739 125.623 49.9908 125.319 49.8514 125.04Z" fill="#071D26"/>
<path d="M92.5772 88.3337C92.1541 88.1492 91.6862 88.092 91.2311 88.1691C90.7759 88.2463 90.3531 88.4545 90.0143 88.7682L85.2686 93.1641C84.8083 93.5922 84.5367 94.1854 84.5134 94.8135C84.49 95.4416 84.7169 96.0534 85.1442 96.5144C85.5714 96.9754 86.1642 97.248 86.7922 97.2725C87.4203 97.2969 88.0325 97.0711 88.4942 96.6446L89.2543 95.9413V109.492C89.2543 110.121 89.5043 110.724 89.9493 111.169C90.3943 111.614 90.9978 111.864 91.6272 111.864C92.2565 111.864 92.8601 111.614 93.3051 111.169C93.7501 110.724 94.0001 110.121 94.0001 109.492V90.5085C94.0001 90.0469 93.8655 89.5953 93.6128 89.2091C93.3601 88.8228 93.0002 88.5186 92.5772 88.3337Z" fill="#071D26"/>
<path d="M106.814 88.3337C106.391 88.1492 105.923 88.092 105.468 88.1691C105.013 88.2463 104.59 88.4545 104.251 88.7682L99.5056 93.1641C99.0454 93.5922 98.7737 94.1854 98.7504 94.8135C98.7271 95.4416 98.954 96.0534 99.3812 96.5144C99.8085 96.9754 100.401 97.248 101.029 97.2725C101.657 97.2969 102.27 97.0711 102.731 96.6446L103.491 95.9413V109.492C103.491 110.121 103.741 110.724 104.186 111.169C104.631 111.614 105.235 111.864 105.864 111.864C106.494 111.864 107.097 111.614 107.542 111.169C107.987 110.724 108.237 110.121 108.237 109.492V90.5085C108.237 90.0469 108.103 89.5953 107.85 89.2091C107.597 88.8228 107.237 88.5186 106.814 88.3337Z" fill="#071D26"/>
</svg>
