<svg width="200" height="200" viewBox="0 0 200 200" fill="none" xmlns="http://www.w3.org/2000/svg">
<path d="M87.0597 17.7699C86.9856 17.4904 86.9673 17.1991 87.006 16.9126C87.0446 16.6261 87.1394 16.35 87.2849 16.1001C87.4304 15.8502 87.6238 15.6313 87.854 15.456C88.0842 15.2807 88.3467 15.1525 88.6266 15.0785C88.9065 15.0017 89.1988 14.981 89.4867 15.0176C89.7746 15.0543 90.0525 15.1476 90.304 15.2921C90.5556 15.4366 90.776 15.6295 90.9525 15.8597C91.1289 16.0898 91.258 16.3526 91.3321 16.6328L95.2495 31.2576C95.4004 31.8219 95.3214 32.423 95.0297 32.9293C94.738 33.4356 94.2574 33.806 93.693 33.9594C93.4125 34.0341 93.1199 34.0529 92.8321 34.0147C92.5443 33.9765 92.2668 33.882 92.0156 33.7367C91.7643 33.5914 91.5442 33.3981 91.3678 33.1678C91.1914 32.9375 91.0621 32.6748 90.9874 32.3946L87.0597 17.7699ZM107.994 16.6328C108.068 16.3526 108.197 16.0898 108.373 15.8597C108.55 15.6295 108.77 15.4366 109.022 15.2921C109.273 15.1476 109.551 15.0543 109.839 15.0176C110.127 14.981 110.419 15.0017 110.699 15.0785C110.979 15.1525 111.242 15.2808 111.472 15.456C111.702 15.6313 111.895 15.8502 112.041 16.1001C112.186 16.35 112.281 16.6261 112.32 16.9126C112.359 17.1991 112.34 17.4904 112.266 17.7699L108.338 32.3947C108.264 32.6748 108.134 32.9376 107.958 33.1678C107.782 33.3981 107.562 33.5914 107.31 33.7367C107.059 33.882 106.782 33.9765 106.494 34.0147C106.206 34.0529 105.913 34.0341 105.633 33.9594C105.352 33.8848 105.089 33.7557 104.859 33.5795C104.628 33.4034 104.434 33.1835 104.289 32.9327C104.143 32.6818 104.049 32.4047 104.011 32.1173C103.972 31.8299 103.991 31.5378 104.066 31.2576L107.994 16.6328ZM167.025 57.7325C167.532 57.4422 168.134 57.3649 168.698 57.5174C169.262 57.67 169.742 58.04 170.033 58.5462C170.177 58.796 170.27 59.0718 170.307 59.3577C170.344 59.6435 170.324 59.9339 170.249 60.212C170.173 60.4902 170.043 60.7507 169.866 60.9786C169.689 61.2065 169.469 61.3972 169.219 61.54L156.088 69.1132C155.838 69.2569 155.561 69.3499 155.275 69.3868C154.989 69.4236 154.698 69.4037 154.419 69.3281C154.141 69.2525 153.88 69.1227 153.652 68.9462C153.424 68.7697 153.233 68.5499 153.09 68.2995C152.945 68.0503 152.851 67.7751 152.814 67.4896C152.776 67.2041 152.795 66.914 152.87 66.6359C152.944 66.3578 153.073 66.0972 153.249 65.8689C153.425 65.6406 153.644 65.4493 153.894 65.3058L167.025 57.7325ZM151.418 43.7648C151.561 43.5144 151.752 43.2947 151.98 43.1182C152.209 42.9417 152.47 42.8119 152.748 42.7363C153.027 42.6607 153.317 42.6408 153.604 42.6777C153.89 42.7145 154.166 42.8075 154.416 42.9512C154.923 43.2418 155.294 43.7215 155.447 44.2849C155.599 44.8482 155.522 45.4491 155.231 45.9555L147.647 59.0678C147.504 59.3176 147.312 59.5367 147.084 59.7124C146.855 59.8881 146.594 60.017 146.315 60.0916C146.037 60.1663 145.746 60.1852 145.46 60.1473C145.174 60.1095 144.899 60.0155 144.649 59.871C144.398 59.7282 144.178 59.5375 144.002 59.3096C143.825 59.0817 143.695 58.8212 143.619 58.543C143.543 58.2649 143.523 57.9745 143.56 57.6886C143.597 57.4028 143.69 57.127 143.834 56.8771L151.418 43.7648ZM30.0969 61.54C29.5933 61.2488 29.2259 60.7702 29.0751 60.2091C28.9243 59.6479 29.0025 59.0499 29.2924 58.5461C29.4356 58.296 29.6268 58.0764 29.855 57.9001C30.0832 57.7238 30.3441 57.5941 30.6225 57.5186C30.901 57.443 31.1916 57.423 31.4778 57.4597C31.7641 57.4964 32.0402 57.5891 32.2905 57.7325L45.4213 65.3057C45.6719 65.4487 45.8917 65.6396 46.0683 65.8675C46.2448 66.0954 46.3747 66.3559 46.4504 66.6339C46.526 66.912 46.5461 67.2022 46.5093 67.488C46.4725 67.7738 46.3797 68.0496 46.2361 68.2995C45.9451 68.8056 45.4647 69.1757 44.9005 69.3283C44.3364 69.4808 43.7346 69.4035 43.2276 69.1132L30.0969 61.54ZM44.0946 45.9555C43.9498 45.7055 43.8558 45.4295 43.8178 45.1432C43.7799 44.8569 43.7988 44.5659 43.8735 44.2869C43.9482 44.0079 44.0772 43.7464 44.2532 43.5172C44.4291 43.288 44.6486 43.0957 44.899 42.9512C45.406 42.6609 46.0077 42.5836 46.5719 42.7361C47.136 42.8887 47.6164 43.2587 47.9075 43.7648L55.4914 56.8771C55.6353 57.127 55.7284 57.4028 55.7653 57.6886C55.8023 57.9745 55.7823 58.2649 55.7066 58.543C55.6309 58.8212 55.501 59.0817 55.3242 59.3096C55.1475 59.5374 54.9274 59.7282 54.6766 59.871C54.4263 60.0156 54.1499 60.1095 53.8632 60.1474C53.5765 60.1853 53.2851 60.1664 53.0057 60.0918C52.7264 60.0172 52.4644 59.8884 52.2349 59.7127C52.0054 59.537 51.8128 59.3178 51.6681 59.0678L44.0946 45.9555ZM108.464 131.702L111.169 138.325C111.216 138.435 111.292 138.529 111.389 138.597C111.484 138.664 111.596 138.704 111.712 138.711L129.732 140.047C130.736 140.114 131.697 140.481 132.49 141.1C133.28 141.721 133.866 142.564 134.172 143.52C134.489 144.472 134.511 145.498 134.234 146.462C133.957 147.428 133.397 148.289 132.626 148.934L118.837 160.586C118.742 160.659 118.67 160.756 118.628 160.868C118.596 160.987 118.596 161.113 118.628 161.233L120.372 168.358H147.438V104.017H108.464V131.702ZM121.459 172.77L122.932 178.758C123.169 179.729 123.115 180.748 122.775 181.689C122.428 182.632 121.806 183.45 120.989 184.036C120.177 184.629 119.205 184.964 118.2 184.996C117.197 185.036 116.206 184.77 115.358 184.234L100.002 174.742C99.9014 174.671 99.7807 174.635 99.6577 174.637C99.5381 174.636 99.4212 174.673 99.3233 174.742L83.9571 184.234C83.1104 184.772 82.1186 185.038 81.1158 184.996C80.114 184.962 79.1457 184.627 78.3371 184.036C77.5198 183.45 76.8975 182.632 76.5508 181.689C76.2006 180.751 76.146 179.728 76.3941 178.758L77.867 172.77H49.6729C49.0856 172.77 48.5225 172.537 48.1073 172.122C47.692 171.707 47.4586 171.145 47.4583 170.559V104.017H42.862C42.2764 104.017 41.7145 103.785 41.2994 103.373C40.8844 102.96 40.6499 102.4 40.6474 101.816V75.9458C40.6477 75.3593 40.8812 74.797 41.2964 74.3823C41.7117 73.9677 42.2748 73.7346 42.862 73.7343H74.9108C74.8168 73.6508 74.7332 73.5569 74.6392 73.4735C71.6464 70.4897 69.963 66.4411 69.9593 62.218C69.9631 57.995 71.6464 53.9463 74.6392 50.9625C76.1167 49.4793 77.8729 48.3021 79.8072 47.4983C81.7414 46.6946 83.8156 46.2802 85.9106 46.2788C88.0059 46.2781 90.0806 46.6917 92.0151 47.4955C93.9496 48.2994 95.7056 49.4777 97.1819 50.9625C98.1391 51.9138 98.971 52.9829 99.6577 54.1441C100.348 52.9852 101.179 51.9165 102.133 50.9625C103.611 49.4793 105.367 48.3021 107.301 47.4983C109.236 46.6946 111.31 46.2802 113.405 46.2788C115.5 46.2781 117.575 46.6917 119.509 47.4955C121.444 48.2994 123.2 49.4777 124.676 50.9625C126.161 52.4379 127.34 54.1917 128.145 56.1232C128.95 58.0547 129.365 60.126 129.366 62.218C129.365 64.3101 128.95 66.3813 128.145 68.3128C127.34 70.2443 126.161 71.9981 124.676 73.4735C124.593 73.5569 124.499 73.6508 124.415 73.7343H156.464C157.051 73.7346 157.614 73.9677 158.029 74.3823C158.445 74.797 158.678 75.3593 158.678 75.9458V101.816C158.676 102.4 158.441 102.96 158.026 103.373C157.611 103.785 157.049 104.017 156.464 104.017H151.857V170.559C151.858 170.848 151.802 171.136 151.692 171.404C151.581 171.672 151.419 171.915 151.214 172.121C151.01 172.326 150.766 172.489 150.498 172.601C150.23 172.712 149.943 172.77 149.653 172.77L121.459 172.77ZM78.9535 168.358L80.6979 161.233C80.7314 161.113 80.7278 160.986 80.6874 160.868C80.6497 160.757 80.5808 160.659 80.489 160.586L66.6897 148.934C65.9217 148.286 65.3622 147.426 65.0809 146.462C64.8131 145.496 64.8385 144.472 65.1541 143.52C65.456 142.565 66.0383 141.722 66.8254 141.1C67.6214 140.48 68.586 140.112 69.5937 140.047L87.6132 138.711C87.7297 138.704 87.8418 138.664 87.9371 138.597C88.0342 138.529 88.1102 138.435 88.1565 138.326L90.862 131.702V104.017H51.8875V168.358H78.9535ZM95.2807 121.009C95.6659 120.339 96.198 119.765 96.8372 119.33C97.671 118.77 98.6532 118.473 99.6577 118.475C100.663 118.47 101.646 118.768 102.478 119.33C103.122 119.759 103.656 120.335 104.035 121.009V104.017H95.2807V121.009ZM107.095 139.984L104.296 133.141C104.227 133.011 104.172 132.875 104.129 132.734L100.263 123.283C100.217 123.166 100.137 123.065 100.034 122.991C99.9204 122.924 99.7896 122.891 99.6577 122.897C99.5292 122.892 99.402 122.925 99.292 122.991C99.1888 123.065 99.109 123.166 99.0623 123.283L95.1971 132.734C95.1542 132.875 95.0982 133.011 95.03 133.141L92.2305 139.984C91.8765 140.857 91.2871 141.616 90.5277 142.175C89.7611 142.723 88.8569 143.048 87.9162 143.113L69.9071 144.438C69.7828 144.448 69.6636 144.491 69.5623 144.563C69.4616 144.65 69.3858 144.761 69.3429 144.887C69.3032 145.005 69.2996 145.132 69.3325 145.252C69.3678 145.375 69.4409 145.485 69.5414 145.565L83.3408 157.217C84.0621 157.821 84.598 158.617 84.8867 159.512C85.1744 160.403 85.207 161.357 84.9808 162.266L82.8603 170.903C82.84 171.027 82.8085 171.149 82.7662 171.268L80.677 179.79C80.6486 179.914 80.6521 180.044 80.6874 180.166C80.7356 180.288 80.8193 180.394 80.9277 180.468C81.0288 180.543 81.1476 180.59 81.2724 180.604C81.4049 180.604 81.5348 180.568 81.6485 180.5L97.0043 170.997C97.8001 170.499 98.7187 170.232 99.6577 170.225C100.6 170.23 101.522 170.497 102.321 170.997L117.677 180.5C117.788 180.566 117.914 180.602 118.043 180.604C118.171 180.59 118.293 180.543 118.398 180.468C118.504 180.393 118.584 180.288 118.628 180.166C118.674 180.045 118.677 179.913 118.638 179.79L116.549 171.268C116.51 171.149 116.482 171.027 116.465 170.903L114.345 162.266C114.115 161.358 114.144 160.404 114.428 159.512C114.725 158.618 115.264 157.824 115.985 157.217L129.774 145.565C129.877 145.485 129.954 145.376 129.993 145.252C130.022 145.131 130.015 145.004 129.972 144.887C129.937 144.76 129.864 144.648 129.763 144.563C129.661 144.493 129.543 144.45 129.419 144.438L111.399 143.113C110.459 143.045 109.556 142.72 108.788 142.175C108.031 141.615 107.445 140.857 107.095 139.984ZM113.405 50.7018C111.892 50.7026 110.395 51.0016 108.999 51.5816C107.602 52.1616 106.334 53.0111 105.267 54.0815C104.191 55.1464 103.337 56.4138 102.754 57.8104C102.171 59.207 101.872 60.7051 101.872 62.218V73.7343H113.405C114.919 73.7345 116.418 73.436 117.816 72.856C119.215 72.276 120.484 71.4259 121.553 70.3545C123.719 68.1986 124.94 65.2722 124.948 62.218C124.946 60.7054 124.645 59.208 124.063 57.8117C123.48 56.4154 122.627 55.1478 121.553 54.0815C120.484 53.0101 119.215 52.1601 117.816 51.5801C116.418 51.0001 114.919 50.7016 113.405 50.7018ZM85.9105 50.7018C84.3981 50.7026 82.9008 51.0016 81.5044 51.5816C80.1079 52.1616 78.8399 53.0111 77.773 54.0815C76.6967 55.1464 75.8425 56.4138 75.2597 57.8104C74.677 59.207 74.3773 60.7051 74.378 62.218C74.3794 63.7307 74.68 65.2282 75.2626 66.6245C75.8452 68.0208 76.6983 69.2884 77.773 70.3545C78.8399 71.4249 80.1079 72.2745 81.5043 72.8544C82.9008 73.4344 84.3981 73.7334 85.9105 73.7343H97.4535V62.218C97.4518 60.7054 97.151 59.208 96.5684 57.8117C95.9858 56.4154 95.1328 55.1478 94.0584 54.0815C92.9901 53.0101 91.7203 52.1601 90.3221 51.5801C88.9238 51.0001 87.4246 50.7016 85.9105 50.7018ZM112.099 78.1572V99.6042H154.26V78.1572H112.099ZM87.2267 99.6042V78.1572H45.0661V99.6042H87.2267ZM91.6455 78.1572V99.6042H107.67V78.1572L91.6455 78.1572Z" fill="#071D26"/>
</svg>
