<svg width="200" height="200" viewBox="0 0 200 200" fill="none" xmlns="http://www.w3.org/2000/svg">
<path d="M142.67 90.2517C141.962 90.2517 141.253 90.3367 140.545 90.365V63.1933C140.545 53.7017 132.838 45.9667 123.403 45.9667H103.598V35.03C103.598 29.505 99.1217 25 93.5967 25H61.9483C56.4517 25 51.9467 29.505 51.9467 35.03V45.9383H32.1417C22.7067 45.9383 15 53.6733 15 63.165V113.57C15 123.062 22.7067 130.797 32.1417 130.797H100.425C100.397 131.477 100.312 132.157 100.312 132.865C100.312 156.382 119.295 175.478 142.642 175.478C165.988 175.478 185 156.382 185 132.865C185 109.377 166.017 90.2517 142.67 90.2517ZM57.6133 35.03C57.6133 32.6217 59.5683 30.6667 61.9483 30.6667H93.5967C95.9767 30.6667 97.9317 32.6217 97.9317 35.03V45.9383H57.6133V35.03ZM32.1417 51.605H123.375C129.693 51.605 134.85 56.79 134.85 63.165V76.7933L90.9333 87.3333V84.9533C90.9333 81.4117 88.0433 78.5217 84.5017 78.5217H70.9867C67.445 78.5217 64.555 81.4117 64.555 84.9533V87.3617L20.6667 76.7933V63.165C20.6667 56.79 25.8233 51.605 32.1417 51.605ZM85.295 84.9533V101.925C85.295 102.35 84.955 102.69 84.53 102.69H71.015C70.59 102.69 70.25 102.35 70.25 101.925V84.9533C70.25 84.5283 70.59 84.1883 71.015 84.1883H84.53C84.955 84.1883 85.295 84.5283 85.295 84.9533ZM32.1417 125.13C25.8233 125.13 20.6667 119.945 20.6667 113.57V82.63L64.5833 93.17V101.925C64.5833 105.467 67.4733 108.357 71.015 108.357H84.53C88.0717 108.357 90.9617 105.467 90.9617 101.925V93.17L134.878 82.63V91.0167C117.737 94.2467 104.222 107.875 101.077 125.158H32.1417V125.13ZM142.67 169.84C122.44 169.84 106.007 153.265 106.007 132.893C106.007 112.522 122.468 95.9467 142.67 95.9467C162.872 95.9467 179.333 112.493 179.333 132.865C179.333 153.237 162.872 169.84 142.67 169.84Z" fill="#071D26"/>
<path d="M155.845 130.032H145.475V114.42C145.475 112.862 144.2 111.587 142.642 111.587C141.084 111.587 139.809 112.862 139.809 114.42V132.865C139.809 134.423 141.084 135.698 142.642 135.698H155.845C157.404 135.698 158.679 134.423 158.679 132.865C158.679 131.307 157.432 130.032 155.845 130.032Z" fill="#071D26"/>
<path d="M142.67 105.353C144.229 105.353 145.504 104.078 145.504 102.52V101.103C145.504 99.545 144.229 98.27 142.67 98.27C141.112 98.27 139.837 99.545 139.837 101.103V102.52C139.837 104.078 141.084 105.353 142.67 105.353Z" fill="#071D26"/>
<path d="M174.432 130.031H173.015C171.457 130.031 170.182 131.306 170.182 132.865C170.182 134.423 171.457 135.698 173.015 135.698H174.432C175.99 135.698 177.265 134.423 177.265 132.865C177.265 131.306 176.018 130.031 174.432 130.031Z" fill="#071D26"/>
<path d="M142.67 160.405C141.112 160.405 139.837 161.68 139.837 163.238V164.655C139.837 166.213 141.112 167.488 142.67 167.488C144.229 167.488 145.504 166.213 145.504 164.655V163.238C145.504 161.68 144.229 160.405 142.67 160.405Z" fill="#071D26"/>
<path d="M112.297 130.031H110.88C109.322 130.031 108.047 131.306 108.047 132.865C108.047 134.423 109.322 135.698 110.88 135.698H112.297C113.855 135.698 115.13 134.423 115.13 132.865C115.13 131.306 113.855 130.031 112.297 130.031Z" fill="#071D26"/>
</svg>
