<svg width="623" height="397" viewBox="0 0 623 397" fill="none" xmlns="http://www.w3.org/2000/svg">
<g opacity="0.07">
<path d="M227.006 82.4827L138.901 -70.1053C138.134 -71.4326 136.257 -71.5343 135.351 -70.2974L56.4348 37.5415C55.5541 38.7449 56.1573 40.4574 57.5979 40.8434L224.62 85.5924C226.445 86.0816 227.951 84.1194 227.006 82.4827Z" fill="#071D26"/>
<path d="M207.68 184.358L37.7713 137.659C36.2933 137.253 34.8855 138.5 35.1104 140.016L54.7167 272.196C54.9355 273.671 56.5677 274.466 57.864 273.728L208.166 188.248C209.809 187.313 209.502 184.859 207.68 184.358Z" fill="#071D26"/>
<path d="M311.24 39.6824L223.135 -112.906C222.369 -114.233 223.22 -115.91 224.744 -116.075L357.602 -130.493C359.085 -130.654 360.266 -129.275 359.88 -127.835L315.127 39.1708C314.638 40.9964 312.186 41.3191 311.24 39.6824Z" fill="#071D26"/>
<path d="M410.912 67.0459L455.42 -103.434C455.807 -104.917 457.591 -105.513 458.792 -104.56L563.471 -21.4926C564.639 -20.5655 564.511 -18.7543 563.224 -18.0004L414.037 69.4121C412.407 70.3676 410.435 68.8746 410.912 67.0459Z" fill="#071D26"/>
<path fill-rule="evenodd" clip-rule="evenodd" d="M459.403 385.282C479.222 373.841 486.013 348.499 474.569 328.681L411.145 218.838L515.456 246.785C537.58 252.713 560.321 239.585 566.25 217.462C572.178 195.34 559.048 172.601 536.924 166.673L304.514 104.405C300.634 103.366 296.645 105.668 295.606 109.549L276.02 182.635L276.071 182.649L230.736 351.825C225.97 369.609 236.525 387.888 254.31 392.653L270.023 396.863C287.809 401.628 306.09 391.075 310.855 373.291L340.581 262.365L402.797 370.115C414.24 389.933 439.583 396.724 459.403 385.282Z" fill="#FF6145"/>
</g>
</svg>
