<svg id="Layer_1" data-name="Layer 1" xmlns="http://www.w3.org/2000/svg" viewBox="0 0 1080 1080"><defs><style>.cls-1{fill:#071d26;}.cls-2{fill:#ff6145;fill-rule:evenodd;}</style></defs><path class="cls-1" d="M448.87,466.9,372.69,335a11.24,11.24,0,0,0-18.81-1l-68.23,93.25a11.25,11.25,0,0,0,6.17,17.5l144.4,38.69A11.24,11.24,0,0,0,448.87,466.9Z"/><path class="cls-1" d="M418.25,588.52l-146.9-40.37a11.23,11.23,0,0,0-14.1,12.48l16.95,114.3a11.25,11.25,0,0,0,16.68,8.13l130-73.93A11.24,11.24,0,0,0,418.25,588.52Z"/><path class="cls-1" d="M538.63,421.27,462.45,289.33a11.25,11.25,0,0,1,8.52-16.8l114.87-12.46a11.25,11.25,0,0,1,12.08,14.08l-38.7,144.41A11.24,11.24,0,0,1,538.63,421.27Z"/><path class="cls-1" d="M661.23,448.24l38.48-147.42a11.24,11.24,0,0,1,17.87-6l90.51,71.83a11.24,11.24,0,0,1-1.31,18.5l-129,75.59A11.24,11.24,0,0,1,661.23,448.24Z"/><path class="cls-2" d="M707.47,808.39a44.17,44.17,0,0,0,16.17-60.34L656,631l111.18,29.79a44.21,44.21,0,0,0,22.89-85.4L559.22,513.49a25.18,25.18,0,0,0-30.83,17.81l-2.62,9.75h0L465.93,764.34a44.21,44.21,0,0,0,85.4,22.89l29.46-109.94,66.35,114.93A44.18,44.18,0,0,0,707.47,808.39Z"/></svg>