<svg id="Vrstva_1" data-name="Vrstva 1" xmlns="http://www.w3.org/2000/svg" viewBox="0 0 99.07 99.07"><defs><style>.cls-1,.cls-3{fill:#f6f6f6;}.cls-1,.cls-2{stroke:#1d1d1b;stroke-miterlimit:10;stroke-width:0.25px;}.cls-2{fill:#014510;}</style></defs><path class="cls-1" d="M27.56,6V94A49.43,49.43,0,0,1,27.56,6Z" transform="translate(-0.46 -0.46)"/><path class="cls-2" d="M99.41,50A49.43,49.43,0,0,1,27.56,94V6A49.39,49.39,0,0,1,99.41,50Z" transform="translate(-0.46 -0.46)"/><path class="cls-3" d="M53.9,30.37A21,21,0,1,0,81.84,58.31,19.76,19.76,0,0,1,53.9,30.37Z" transform="translate(-0.46 -0.46)"/><polygon class="cls-3" points="74.85 34.28 71.46 30.98 72.14 35.66 67.95 37.87 72.61 38.67 73.42 43.33 75.62 39.14 80.3 39.82 77 36.43 79.09 32.19 74.85 34.28"/></svg>