<svg id="Vrstva_1" data-name="Vrstva 1" xmlns="http://www.w3.org/2000/svg" viewBox="0 0 97.53 97.53"><defs><style>.cls-1{fill:#fff;}.cls-2{fill:#004673;}.cls-3{fill:#bf001b;}.cls-4{fill:none;stroke:#1d1d1b;stroke-miterlimit:10;stroke-width:0.25px;}</style></defs><path class="cls-1" d="M98.53,49.87v.22H1.47v-.22c0-.54,0-1.07,0-1.6,0-.34,0-.69,0-1A48.53,48.53,0,0,1,4,34.42c.49-1.45,1-2.86,1.65-4.24.2-.45.41-.9.62-1.35.34-.7.7-1.4,1.08-2.09q.27-.51.57-1c.16-.29.33-.57.5-.85a48.63,48.63,0,0,1,9.68-11.55l.06-.05a48.54,48.54,0,0,1,12.8-8c1-.41,2-.8,3-1.15A48.34,48.34,0,0,1,50,1.34c.35,0,.69,0,1,0A48.59,48.59,0,0,1,90.31,22.84c.45.66.88,1.34,1.29,2,.17.28.34.56.5.85s.39.68.57,1c.38.69.74,1.39,1.08,2.09s.54,1.16.79,1.75a47.56,47.56,0,0,1,2.6,7.74,47,47,0,0,1,1.24,7.74C98.48,47.31,98.53,48.59,98.53,49.87Z" transform="translate(-1.23 -1.32)"/><path class="cls-1" d="M98.64,50.09v.22c0,1.17,0,2.34-.14,3.49a48.2,48.2,0,0,1-1.22,7.74A48.09,48.09,0,0,1,90.51,77a48.65,48.65,0,0,1-81,0,48.5,48.5,0,0,1-8-23.22c-.09-1.15-.13-2.32-.14-3.49v-.22c0-.58,0-1.15,0-1.72,0-.38,0-.76.05-1.14A49.08,49.08,0,0,1,3.92,34.45C4.42,33,5,31.56,5.62,30.16c.2-.44.4-.89.63-1.33.34-.7.7-1.4,1.08-2.09q.27-.51.57-1c.16-.29.33-.57.5-.85a48.63,48.63,0,0,1,9.68-11.55l.06-.05a48.54,48.54,0,0,1,12.8-8c1-.41,2-.8,3-1.15A48.34,48.34,0,0,1,50,1.34c.35,0,.69,0,1,0A48.59,48.59,0,0,1,90.31,22.84c.45.66.88,1.34,1.29,2,.17.28.34.56.5.85s.39.68.57,1c.38.69.74,1.39,1.08,2.09s.56,1.16.81,1.75a48.29,48.29,0,0,1,3.91,15.48C98.58,47.39,98.64,48.73,98.64,50.09Z" transform="translate(-1.23 -1.32)"/><path class="cls-2" d="M51,1.36V53.8H1.5c-.09-1.15-.13-2.32-.14-3.49v-.22c0-.58,0-1.15,0-1.72,0-.38,0-.76.05-1.14A49.08,49.08,0,0,1,3.92,34.45C4.42,33,5,31.56,5.62,30.16c.2-.44.4-.89.63-1.33.34-.7.7-1.4,1.08-2.09q.27-.51.57-1c.16-.29.33-.57.5-.85a48.63,48.63,0,0,1,9.68-11.55l.06-.05a48.54,48.54,0,0,1,12.8-8c1-.41,2-.8,3-1.15A48.34,48.34,0,0,1,50,1.34C50.35,1.34,50.69,1.34,51,1.36Z" transform="translate(-1.23 -1.32)"/><path class="cls-1" d="M34.64,6.1,35,8l-1.73-.91L31.51,8l.33-1.93L31,5.3l-.08-.08c1-.41,2-.8,3-1.15l0,.09.14.29L36,4.73Z" transform="translate(-1.23 -1.32)"/><path class="cls-1" d="M18.16,13.33v0h0l-.06,0,.06-.05Z" transform="translate(-1.23 -1.32)"/><polygon class="cls-1" points="26.4 11.12 28.13 12.03 27.8 10.11 29.2 8.74 27.27 8.46 26.4 6.7 25.54 8.46 23.6 8.74 25 10.11 24.67 12.03 26.4 11.12"/><polygon class="cls-1" points="37.61 11.12 39.34 12.03 39.01 10.11 40.41 8.74 38.47 8.46 37.61 6.7 36.74 8.46 34.81 8.74 36.21 10.11 35.88 12.03 37.61 11.12"/><polygon class="cls-1" points="15.2 21.78 16.93 22.69 16.59 20.76 18 19.4 16.06 19.12 15.2 17.36 14.33 19.12 12.39 19.4 13.79 20.76 13.46 22.69 15.2 21.78"/><polygon class="cls-1" points="26.4 21.78 28.13 22.69 27.8 20.76 29.2 19.4 27.27 19.12 26.4 17.36 25.54 19.12 23.6 19.4 25 20.76 24.67 22.69 26.4 21.78"/><polygon class="cls-1" points="37.61 21.78 39.34 22.69 39.01 20.76 40.41 19.4 38.47 19.12 37.61 17.36 36.74 19.12 34.81 19.4 36.21 20.76 35.88 22.69 37.61 21.78"/><path class="cls-1" d="M6.62,32.75,7,34.68l-1.73-.91L4,34.42l-.06,0C4.42,33,5,31.56,5.62,30.16v0l.46.92L8,31.38Z" transform="translate(-1.23 -1.32)"/><polygon class="cls-1" points="15.2 32.44 16.93 33.35 16.59 31.42 18 30.06 16.06 29.78 15.2 28.02 14.33 29.78 12.39 30.06 13.79 31.42 13.46 33.35 15.2 32.44"/><polygon class="cls-1" points="26.4 32.44 28.13 33.35 27.8 31.42 29.2 30.06 27.27 29.78 26.4 28.02 25.54 29.78 23.6 30.06 25 31.42 24.67 33.35 26.4 32.44"/><polygon class="cls-1" points="37.61 32.44 39.34 33.35 39.01 31.42 40.41 30.06 38.47 29.78 37.61 28.02 36.74 29.78 34.81 30.06 36.21 31.42 35.88 33.35 37.61 32.44"/><polygon class="cls-1" points="3.99 43.1 5.72 44.01 5.39 42.08 6.79 40.72 4.85 40.44 3.99 38.68 3.12 40.44 1.19 40.72 2.59 42.08 2.25 44.01 3.99 43.1"/><polygon class="cls-1" points="15.2 43.1 16.93 44.01 16.59 42.08 18 40.72 16.06 40.44 15.2 38.68 14.33 40.44 12.39 40.72 13.79 42.08 13.46 44.01 15.2 43.1"/><polygon class="cls-1" points="26.4 43.1 28.13 44.01 27.8 42.08 29.2 40.72 27.27 40.44 26.4 38.68 25.54 40.44 23.6 40.72 25 42.08 24.67 44.01 26.4 43.1"/><polygon class="cls-1" points="37.61 43.1 39.34 44.01 39.01 42.08 40.41 40.72 38.47 40.44 37.61 38.68 36.74 40.44 34.81 40.72 36.21 42.08 35.88 44.01 37.61 43.1"/><polygon class="cls-1" points="43.21 5.79 44.94 6.7 44.61 4.78 46.02 3.41 44.08 3.13 43.21 1.37 42.35 3.13 40.41 3.41 41.81 4.78 41.48 6.7 43.21 5.79"/><polygon class="cls-1" points="20.8 16.45 22.53 17.36 22.2 15.43 23.6 14.07 21.66 13.79 20.8 12.03 19.93 13.79 18 14.07 19.4 15.43 19.07 17.36 20.8 16.45"/><polygon class="cls-1" points="32.01 16.45 33.74 17.36 33.41 15.43 34.81 14.07 32.87 13.79 32.01 12.03 31.14 13.79 29.2 14.07 30.6 15.43 30.27 17.36 32.01 16.45"/><polygon class="cls-1" points="43.21 16.45 44.94 17.36 44.61 15.43 46.02 14.07 44.08 13.79 43.21 12.03 42.35 13.79 40.41 14.07 41.81 15.43 41.48 17.36 43.21 16.45"/><polygon class="cls-1" points="9.59 27.11 11.32 28.02 10.99 26.09 12.39 24.73 10.46 24.45 9.59 22.69 8.72 24.45 6.79 24.73 8.19 26.09 7.86 28.02 9.59 27.11"/><polygon class="cls-1" points="20.8 27.11 22.53 28.02 22.2 26.09 23.6 24.73 21.66 24.45 20.8 22.69 19.93 24.45 18 24.73 19.4 26.09 19.07 28.02 20.8 27.11"/><polygon class="cls-1" points="32.01 27.11 33.74 28.02 33.41 26.09 34.81 24.73 32.87 24.45 32.01 22.69 31.14 24.45 29.2 24.73 30.6 26.09 30.27 28.02 32.01 27.11"/><polygon class="cls-1" points="43.21 27.11 44.94 28.02 44.61 26.09 46.02 24.73 44.08 24.45 43.21 22.69 42.35 24.45 40.41 24.73 41.81 26.09 41.48 28.02 43.21 27.11"/><polygon class="cls-1" points="9.59 37.77 11.32 38.68 10.99 36.75 12.39 35.39 10.46 35.11 9.59 33.35 8.72 35.11 6.79 35.39 8.19 36.75 7.86 38.68 9.59 37.77"/><polygon class="cls-1" points="20.8 37.77 22.53 38.68 22.2 36.75 23.6 35.39 21.66 35.11 20.8 33.35 19.93 35.11 18 35.39 19.4 36.75 19.07 38.68 20.8 37.77"/><polygon class="cls-1" points="32.01 37.77 33.74 38.68 33.41 36.75 34.81 35.39 32.87 35.11 32.01 33.35 31.14 35.11 29.2 35.39 30.6 36.75 30.27 38.68 32.01 37.77"/><polygon class="cls-1" points="43.21 37.77 44.94 38.68 44.61 36.75 46.02 35.39 44.08 35.11 43.21 33.35 42.35 35.11 40.41 35.39 41.81 36.75 41.48 38.68 43.21 37.77"/><path class="cls-1" d="M2.42,47.37l-.92.9-.11.1c0-.38,0-.76.05-1.14h.1Z" transform="translate(-1.23 -1.32)"/><polygon class="cls-1" points="9.59 48.43 11.32 49.34 10.99 47.41 12.39 46.05 10.46 45.77 9.59 44.01 8.72 45.77 6.79 46.05 8.19 47.41 7.86 49.34 9.59 48.43"/><polygon class="cls-1" points="20.8 48.43 22.53 49.34 22.2 47.41 23.6 46.05 21.66 45.77 20.8 44.01 19.93 45.77 18 46.05 19.4 47.41 19.07 49.34 20.8 48.43"/><polygon class="cls-1" points="32.01 48.43 33.74 49.34 33.41 47.41 34.81 46.05 32.87 45.77 32.01 44.01 31.14 45.77 29.2 46.05 30.6 47.41 30.27 49.34 32.01 48.43"/><polygon class="cls-1" points="43.21 48.43 44.94 49.34 44.61 47.41 46.02 46.05 44.08 45.77 43.21 44.01 42.35 45.77 40.41 46.05 41.81 47.41 41.48 49.34 43.21 48.43"/><path class="cls-3" d="M73.42,7.36H51v-6A48.14,48.14,0,0,1,73.42,7.36Z" transform="translate(-1.23 -1.32)"/><path class="cls-3" d="M90.31,22.84H51V15.1H83.85A48.5,48.5,0,0,1,90.31,22.84Z" transform="translate(-1.23 -1.32)"/><path class="cls-3" d="M97.2,38.32H51V30.58H94.56A46.75,46.75,0,0,1,97.2,38.32Z" transform="translate(-1.23 -1.32)"/><path class="cls-3" d="M98.64,50.09v.22c0,1.17,0,2.34-.14,3.49H51V46.06H98.47C98.58,47.39,98.64,48.73,98.64,50.09Z" transform="translate(-1.23 -1.32)"/><path class="cls-3" d="M97.28,61.54a47.46,47.46,0,0,1-2.57,7.74H5.29a47.46,47.46,0,0,1-2.57-7.74Z" transform="translate(-1.23 -1.32)"/><path class="cls-3" d="M90.51,77a48.43,48.43,0,0,1-6.39,7.74H15.88A48.43,48.43,0,0,1,9.49,77Z" transform="translate(-1.23 -1.32)"/><path class="cls-3" d="M73.85,92.49a48.7,48.7,0,0,1-47.7,0Z" transform="translate(-1.23 -1.32)"/><path class="cls-4" d="M98.64,50.09v.22c0,1.17,0,2.34-.14,3.49a48.2,48.2,0,0,1-1.22,7.74A48.09,48.09,0,0,1,90.51,77a48.65,48.65,0,0,1-81,0,48.5,48.5,0,0,1-8-23.22c-.09-1.15-.13-2.32-.14-3.49v-.22c0-.58,0-1.15,0-1.72,0-.38,0-.76.05-1.14A49.08,49.08,0,0,1,3.92,34.45C4.42,33,5,31.56,5.62,30.16c.2-.44.4-.89.63-1.33.34-.7.7-1.4,1.08-2.09q.27-.51.57-1c.16-.29.33-.57.5-.85a49,49,0,0,1,9.74-11.52s0,0,0,0A48.55,48.55,0,0,1,31,5.3C32,4.89,33,4.51,34,4.16A48.34,48.34,0,0,1,50,1.45c.34,0,.69,0,1,0A48.67,48.67,0,0,1,90.29,22.84c.45.66.89,1.34,1.31,2,.17.28.34.56.5.85s.39.68.57,1c.38.69.74,1.39,1.08,2.09s.56,1.16.81,1.75a48.29,48.29,0,0,1,3.91,15.48C98.58,47.39,98.64,48.73,98.64,50.09Z" transform="translate(-1.23 -1.32)"/></svg>