<svg id="Layer_1" data-name="Layer 1" xmlns="http://www.w3.org/2000/svg" viewBox="0 0 78.07 95.88"><path d="M76.17,53C76.3,67.51,88.9,72.34,89,72.4A52.89,52.89,0,0,1,82.4,86c-4,5.84-8.14,11.66-14.68,11.78S59.24,94,51.9,94s-9.63,3.69-15.71,3.92c-6.31.24-11.11-6.31-15.14-12.13C12.82,73.9,6.52,52.16,15,37.49a23.47,23.47,0,0,1,19.84-12c6.2-.12,12,4.17,15.83,4.17S61.52,24.49,69,25.24c3.13.13,11.9,1.27,17.54,9.51C86.08,35,76.06,40.87,76.17,53M64.1,17.37a21.14,21.14,0,0,0,5-15.31C64.26,2.25,58.43,5.27,55,9.33c-3.1,3.58-5.81,9.32-5.08,14.83,5.38.41,10.87-2.74,14.22-6.79" transform="translate(-10.96 -2.06)"/></svg>