<svg id="Layer_1" data-name="Layer 1" xmlns="http://www.w3.org/2000/svg" viewBox="0 0 150 45.25"><defs><style>.cls-1{fill:#fff;fill-rule:evenodd;}</style></defs><path class="cls-1" d="M93.06,50.26c-8.7,6.42-21.35,9.85-32.23,9.85a58.34,58.34,0,0,1-39.37-15c-.82-.74-.09-1.75.89-1.17A79.22,79.22,0,0,0,61.74,54.36a78.15,78.15,0,0,0,30.05-6.14c1.48-.63,2.71,1,1.27,2m3.63-4.15c-1.11-1.42-7.35-.67-10.18-.34-.85.11-1-.64-.21-1.17,5-3.51,13.15-2.5,14.11-1.32s-.25,9.37-4.93,13.28c-.72.6-1.4.28-1.09-.51,1-2.63,3.41-8.51,2.3-9.94" transform="translate(0 -14.86)"/><path class="cls-1" d="M86.71,19.8V16.43a.85.85,0,0,1,.82-.86h15.3a.85.85,0,0,1,.88.82v3c0,.49-.42,1.13-1.15,2.14L94.66,32.8a16.83,16.83,0,0,1,8.7,1.87,1.59,1.59,0,0,1,.81,1.32v3.64c0,.5-.55,1.08-1.12.78a17.57,17.57,0,0,0-16.12,0c-.53.29-1.09-.28-1.09-.78V36.18a4.22,4.22,0,0,1,.56-2.38l9.16-13.14h-8a.85.85,0,0,1-.89-.81v0M31,41.11H26.4a.9.9,0,0,1-.83-.79V16.49a.88.88,0,0,1,.9-.86H30.8a.87.87,0,0,1,.84.8v3.11h.08a6.13,6.13,0,0,1,6.12-4.41c2.9,0,4.72,1.4,6,4.41a6.87,6.87,0,0,1,11.79-1.8c1.47,2,1.17,4.91,1.17,7.47v15a.88.88,0,0,1-.9.86H51.26a.9.9,0,0,1-.83-.86V27.6a30.31,30.31,0,0,0-.13-4.47,2.42,2.42,0,0,0-2.73-2,3.07,3.07,0,0,0-2.78,2,14.61,14.61,0,0,0-.43,4.56V40.23a.87.87,0,0,1-.88.86H38.82a.88.88,0,0,1-.84-.86V27.6c0-2.66.43-6.57-2.86-6.57s-3.21,3.77-3.21,6.57V40.23a.87.87,0,0,1-.88.86h0m85.83-25.94c6.89,0,10.62,5.92,10.62,13.44,0,7.26-4.12,13-10.62,13-6.75,0-10.45-5.92-10.45-13.29s3.73-13.2,10.45-13.2m0,4.87c-3.42,0-3.64,4.66-3.64,7.56s0,9.13,3.6,9.13,3.77-5,3.77-8.07a22.42,22.42,0,0,0-.69-6.32,2.92,2.92,0,0,0-3-2.31M136.4,41.11h-4.62a.9.9,0,0,1-.84-.86V16.41a.87.87,0,0,1,.89-.78h4.31a.91.91,0,0,1,.83.67V20h.08c1.3-3.26,3.12-4.82,6.33-4.82a6.07,6.07,0,0,1,5.42,2.81c1.2,1.91,1.2,5.11,1.2,7.42v15a.88.88,0,0,1-.89.75h-4.65a.86.86,0,0,1-.82-.75V27.42c0-2.61.3-6.42-2.91-6.42a3.1,3.1,0,0,0-2.7,1.9,10.73,10.73,0,0,0-.74,4.52V40.25a.88.88,0,0,1-.9.86h0M74.54,29.71a9.52,9.52,0,0,1-.87,4.92,3.74,3.74,0,0,1-3.21,2.11c-1.78,0-2.83-1.35-2.83-3.36,0-4,3.55-4.68,6.91-4.68v1M79.22,41a1,1,0,0,1-1.09.11A11.65,11.65,0,0,1,75.46,38c-2.55,2.6-4.35,3.38-7.65,3.38-3.91,0-7-2.41-7-7.24a7.9,7.9,0,0,1,5-7.59c2.52-1.11,6-1.3,8.73-1.61v-.6A5.86,5.86,0,0,0,74,21a3.07,3.07,0,0,0-2.63-1.22,3.53,3.53,0,0,0-3.73,2.79,1,1,0,0,1-.81.85L62.33,23a.81.81,0,0,1-.7-.92.22.22,0,0,1,0-.08c1-5.46,6-7.1,10.38-7.1,2.26,0,5.21.6,7,2.31,2.26,2.11,2,4.92,2,8v7.24a6.33,6.33,0,0,0,1.75,4.3.88.88,0,0,1,0,1.24l-3.55,3.1h0M13.68,29.73c0,1.8.05,3.3-.87,4.92A3.77,3.77,0,0,1,9.6,36.8c-1.78,0-2.82-1.36-2.82-3.37,0-4,3.54-4.67,6.9-4.67v1m4.68,11.32a1,1,0,0,1-1.1.11A11.75,11.75,0,0,1,14.6,38.1c-2.55,2.59-4.35,3.37-7.65,3.37C3,41.43,0,39,0,34.2a7.9,7.9,0,0,1,5-7.59c2.52-1.11,6-1.3,8.73-1.61v-.6A5.91,5.91,0,0,0,13.17,21a3.1,3.1,0,0,0-2.66-1.24,3.57,3.57,0,0,0-3.75,2.79,1,1,0,0,1-.8.85L1.46,23A.81.81,0,0,1,.76,22a.22.22,0,0,1,0-.08c1-5.46,6-7.1,10.38-7.1,2.25,0,5.21.6,7,2.31,2.26,2.11,2,4.92,2,8v7.24a6.33,6.33,0,0,0,1.75,4.3.88.88,0,0,1,0,1.24L18.36,41h0" transform="translate(0 -14.86)"/></svg>