<svg id="Layer_1" data-name="Layer 1" xmlns="http://www.w3.org/2000/svg" viewBox="0 0 149.86 68.62"><defs><style>.cls-1{fill:#fff;}</style></defs><path class="cls-1" d="M63.76,62.67V53h2.05v9.52c0,2.21,1.2,3.5,3.31,3.5s3.25-1.22,3.25-3.5V53h2v9.64A4.92,4.92,0,0,1,69.9,68a5.08,5.08,0,0,1-.78,0,5,5,0,0,1-5.36-4.61A5.3,5.3,0,0,1,63.76,62.67Z" transform="translate(-0.41 -3.18)"/><path class="cls-1" d="M78.57,67.61H76.65V57.69h1.92v1.44a3.48,3.48,0,0,1,3-1.64c2.42,0,3.5,1.69,3.5,3.86v6.26H83.15v-5.9c0-1.32-.6-2.53-2.28-2.53s-2.3,1.21-2.3,2.76Z" transform="translate(-0.41 -3.18)"/><path class="cls-1" d="M88.58,52.56A1.46,1.46,0,0,1,90,54a1.37,1.37,0,0,1-1.41,1.33h0a1.39,1.39,0,0,1-.06-2.77Zm-1,15V57.69h1.93v9.92Z" transform="translate(-0.41 -3.18)"/><path class="cls-1" d="M97,67.61h-2l-4-9.92h2.21l2.78,7.58L99,57.69h2Z" transform="translate(-0.41 -3.18)"/><path class="cls-1" d="M111,64.83A4.5,4.5,0,0,1,106.55,68a4.91,4.91,0,0,1-4.94-4.85c0-.15,0-.3,0-.45a4.92,4.92,0,0,1,4.62-5.18h.08c3,0,4.69,2,4.69,5.18v.61h-7.46a2.92,2.92,0,0,0,2.81,3h.19a2.67,2.67,0,0,0,2.78-2.05Zm-1.92-3.24A2.48,2.48,0,0,0,106.64,59a2.17,2.17,0,0,0-.36,0,2.52,2.52,0,0,0-2.66,2.37v.17Z" transform="translate(-0.41 -3.18)"/><path class="cls-1" d="M118.43,59.66c-.23,0-.59-.12-.83-.12-1.69,0-2.77.85-2.77,3v5.06H112.9V57.69h1.93v1.68a3.06,3.06,0,0,1,3-1.93c.24,0,.48,0,.59.12Z" transform="translate(-0.41 -3.18)"/><path class="cls-1" d="M121.29,64.36a2.07,2.07,0,0,0,2.29,1.81c1.11,0,1.69-.61,1.69-1.34s-.48-1.1-1.32-1.32l-1.69-.35a2.84,2.84,0,0,1-2.53-2.77,3.31,3.31,0,0,1,3.48-3.13h0c2.77,0,3.62,1.79,3.74,2.64l-1.69.6a2,2,0,0,0-2-1.68,1.54,1.54,0,0,0-1.69,1.33,1.19,1.19,0,0,0,1.11,1.2l1.56.36A3,3,0,0,1,127,64.6c0,1.45-1.21,3-3.62,3a3.87,3.87,0,0,1-4.09-2.89Z" transform="translate(-0.41 -3.18)"/><path class="cls-1" d="M130.11,52.56A1.46,1.46,0,0,1,131.56,54a1.37,1.37,0,0,1-1.41,1.33h0A1.35,1.35,0,0,1,128.78,54a1.37,1.37,0,0,1,1.29-1.44Zm-.85,15V57.69h2v9.92Z" transform="translate(-0.41 -3.18)"/><path class="cls-1" d="M136.5,57.73h2.21v1.81H136.5v5.18c0,1,.36,1.33,1.32,1.33.25,0,.61,0,.73-.12v1.68a2.41,2.41,0,0,1-1.32.23,2.58,2.58,0,0,1-2.77-2.4,2.16,2.16,0,0,1,0-.36V59.66h-1.81V57.91h.48a1.39,1.39,0,0,0,1.56-1.19,1.21,1.21,0,0,0,0-.38V54.72h1.81Z" transform="translate(-0.41 -3.18)"/><path class="cls-1" d="M141.56,71.71l2.53-5.19-4.21-8.82h2.2l3.13,6.87,3-6.87h2.05l-6.39,14.09h-2.28Z" transform="translate(-0.41 -3.18)"/><path class="cls-1" d="M63.76,62.67V53h2.05v9.52c0,2.21,1.2,3.5,3.31,3.5s3.25-1.22,3.25-3.5V53h2v9.64A4.92,4.92,0,0,1,69.9,68a5.08,5.08,0,0,1-.78,0,5,5,0,0,1-5.36-4.61A5.3,5.3,0,0,1,63.76,62.67Z" transform="translate(-0.41 -3.18)"/><path class="cls-1" d="M78.57,67.61H76.65V57.69h1.92v1.44a3.48,3.48,0,0,1,3-1.64c2.42,0,3.5,1.69,3.5,3.86v6.26H83.15v-5.9c0-1.32-.6-2.53-2.28-2.53s-2.3,1.21-2.3,2.76Z" transform="translate(-0.41 -3.18)"/><path class="cls-1" d="M88.58,52.56A1.46,1.46,0,0,1,90,54a1.37,1.37,0,0,1-1.41,1.33h0a1.39,1.39,0,0,1-.06-2.77Zm-1,15V57.69h1.93v9.92Z" transform="translate(-0.41 -3.18)"/><path class="cls-1" d="M97,67.61h-2l-4-9.92h2.21l2.78,7.58L99,57.69h2Z" transform="translate(-0.41 -3.18)"/><path class="cls-1" d="M111,64.83A4.5,4.5,0,0,1,106.55,68a4.91,4.91,0,0,1-4.94-4.85c0-.15,0-.3,0-.45a4.92,4.92,0,0,1,4.62-5.18h.08c3,0,4.69,2,4.69,5.18v.61h-7.46a2.92,2.92,0,0,0,2.81,3h.19a2.67,2.67,0,0,0,2.78-2.05Zm-1.92-3.24A2.48,2.48,0,0,0,106.64,59a2.17,2.17,0,0,0-.36,0,2.52,2.52,0,0,0-2.66,2.37v.17Z" transform="translate(-0.41 -3.18)"/><path class="cls-1" d="M118.43,59.66c-.23,0-.59-.12-.83-.12-1.69,0-2.77.85-2.77,3v5.06H112.9V57.69h1.93v1.68a3.06,3.06,0,0,1,3-1.93c.24,0,.48,0,.59.12Z" transform="translate(-0.41 -3.18)"/><path class="cls-1" d="M121.29,64.36a2.07,2.07,0,0,0,2.29,1.81c1.11,0,1.69-.61,1.69-1.34s-.48-1.1-1.32-1.32l-1.69-.35a2.84,2.84,0,0,1-2.53-2.77,3.31,3.31,0,0,1,3.48-3.13h0c2.77,0,3.62,1.79,3.74,2.64l-1.69.6a2,2,0,0,0-2-1.68,1.54,1.54,0,0,0-1.69,1.33,1.19,1.19,0,0,0,1.11,1.2l1.56.36A3,3,0,0,1,127,64.6c0,1.45-1.21,3-3.62,3a3.87,3.87,0,0,1-4.09-2.89Z" transform="translate(-0.41 -3.18)"/><path class="cls-1" d="M130.11,52.56A1.46,1.46,0,0,1,131.56,54a1.37,1.37,0,0,1-1.41,1.33h0A1.35,1.35,0,0,1,128.78,54a1.37,1.37,0,0,1,1.29-1.44Zm-.85,15V57.69h2v9.92Z" transform="translate(-0.41 -3.18)"/><path class="cls-1" d="M136.5,57.73h2.21v1.81H136.5v5.18c0,1,.36,1.33,1.32,1.33.25,0,.61,0,.73-.12v1.68a2.41,2.41,0,0,1-1.32.23,2.58,2.58,0,0,1-2.77-2.4,2.16,2.16,0,0,1,0-.36V59.66h-1.81V57.91h.48a1.39,1.39,0,0,0,1.56-1.19,1.21,1.21,0,0,0,0-.38V54.72h1.81Z" transform="translate(-0.41 -3.18)"/><path class="cls-1" d="M141.56,71.71l2.53-5.19-4.21-8.82h2.2l3.13,6.87,3-6.87h2.05l-6.39,14.09h-2.28Z" transform="translate(-0.41 -3.18)"/><path class="cls-1" d="M16.2,4a16.35,16.35,0,0,1,5.51.83A10.66,10.66,0,0,1,25.8,7.27a9.77,9.77,0,0,1,2.53,3.62,10.73,10.73,0,0,1,.85,4.41A9.09,9.09,0,0,1,27.37,21,8.05,8.05,0,0,1,23,24.21a8.28,8.28,0,0,1,2.76,1.2,9.31,9.31,0,0,1,2.41,2.05,8.69,8.69,0,0,1,1.69,2.89,12.18,12.18,0,0,1,.6,3.73,12.64,12.64,0,0,1-1,4.82,11.59,11.59,0,0,1-2.65,3.73,12.92,12.92,0,0,1-4.1,2.54,15.32,15.32,0,0,1-5.41.84H.41V4ZM14.75,20.88a5.83,5.83,0,0,0,4-1.2,4.24,4.24,0,0,0,1.45-3.38,4.26,4.26,0,0,0-1.33-3.24,5.89,5.89,0,0,0-4.09-1.21H9.81v9Zm.72,17.46A6.2,6.2,0,0,0,19.68,37a4.22,4.22,0,0,0,1.57-3.61,4.59,4.59,0,0,0-1.57-3.62,5.86,5.86,0,0,0-4.28-1.32h-6v9.92Z" transform="translate(-0.41 -3.18)"/><path class="cls-1" d="M52.56,25.46a6.39,6.39,0,0,0-1.44-.25H49.79a9.46,9.46,0,0,0-2.64.37,5.06,5.06,0,0,0-2.21,1.32,8.94,8.94,0,0,0-1.57,2.53,11.57,11.57,0,0,0-.59,3.74V46.05h-9V16.54h8.67v4A4.52,4.52,0,0,1,44,18.47a9.3,9.3,0,0,1,1.93-1.32,7.86,7.86,0,0,1,2.21-.73,15.65,15.65,0,0,1,1.93-.24,14,14,0,0,1,2.41.24v9Z" transform="translate(-0.41 -3.18)"/><path class="cls-1" d="M69.18,15.71a15.26,15.26,0,0,1,6.15,1.2,13.41,13.41,0,0,1,4.93,3.31,14.26,14.26,0,0,1,3.37,4.93,15.23,15.23,0,0,1,1.26,6.21,15.44,15.44,0,0,1-1.2,6.26,14.37,14.37,0,0,1-3.38,4.94A16.28,16.28,0,0,1,69.18,47,14.9,14.9,0,0,1,63,45.77a13.48,13.48,0,0,1-4.94-3.24,15.73,15.73,0,0,1-4.41-11.21,15.48,15.48,0,0,1,1.2-6.26,15.76,15.76,0,0,1,3.38-4.93,17.2,17.2,0,0,1,4.94-3.31,14.3,14.3,0,0,1,6-1.2m0,22.87A6.24,6.24,0,0,0,71.75,38a4.86,4.86,0,0,0,2.06-1.33,6.31,6.31,0,0,0,1.44-2.29,9.13,9.13,0,0,0,0-6.51,6.36,6.36,0,0,0-1.44-2.28,5.48,5.48,0,0,0-2.06-1.32,8.66,8.66,0,0,0-2.52-.49,5.47,5.47,0,0,0-2.42.49,4.88,4.88,0,0,0-2.2,1.32,6.25,6.25,0,0,0-1.45,2.28,9,9,0,0,0,0,6.51,6.2,6.2,0,0,0,1.45,2.29A4.9,4.9,0,0,0,66.81,38a6.1,6.1,0,0,0,2.42.47" transform="translate(-0.41 -3.18)"/><path class="cls-1" d="M102.78,24a6.53,6.53,0,0,0-2.65.49,6.71,6.71,0,0,0-2.2,1.44,7.42,7.42,0,0,0-1.45,2.29A8.94,8.94,0,0,0,96,31.36a8.41,8.41,0,0,0,.6,3.13,7.28,7.28,0,0,0,1.52,2.28,6.77,6.77,0,0,0,2.2,1.46,6.48,6.48,0,0,0,2.65.47,6.11,6.11,0,0,0,4.09-1.32,6.32,6.32,0,0,0,1.93-3l7.94,2.4a11.15,11.15,0,0,1-1.67,3.74,13.53,13.53,0,0,1-7,5.52,16.53,16.53,0,0,1-11.43-.37,13.83,13.83,0,0,1-5.13-3.19,14.13,14.13,0,0,1-3.38-4.95,15.2,15.2,0,0,1-1.23-6.28A15.16,15.16,0,0,1,88.3,25,14.26,14.26,0,0,1,91.67,20a17.33,17.33,0,0,1,4.94-3.31,17,17,0,0,1,6-1.2,15.09,15.09,0,0,1,5.41.84,15.91,15.91,0,0,1,4.23,2.29A12.38,12.38,0,0,1,115.16,22a12,12,0,0,1,1.56,3.85l-8.07,2.41a5.26,5.26,0,0,0-.72-1.69,13.88,13.88,0,0,0-1.21-1.45,7.84,7.84,0,0,0-1.69-1c-.59,0-1.32-.12-2.28-.12" transform="translate(-0.41 -3.18)"/><polygon class="cls-1" points="137.9 25.78 149.7 42.87 138.62 42.87 131.75 32.52 128.86 35.65 128.86 42.87 119.83 42.87 119.83 0 128.86 0 128.86 23.24 137.78 13.37 149.46 13.37 137.9 25.78"/></svg>