<svg id="Layer_1" data-name="Layer 1" xmlns="http://www.w3.org/2000/svg" viewBox="0 0 150.11 42.36"><defs><style>.cls-1{fill:#fff;}</style></defs><path class="cls-1" d="M131.14,30.58c1,0,1.84-.52,1.9-1.17l1-11.09c0-1.11-1.3-2-2.89-2s-2.89.92-2.89,2l1,11.09c.06.66.92,1.17,1.9,1.17m-6,3.48a1.74,1.74,0,0,0-.06-2.23L116,25.47c-.92-.53-2.36.13-3.15,1.5s-.65,3,.26,3.48l10.11,4.73a1.86,1.86,0,0,0,2-1.12m12,0c.52.86,1.37,1.3,2,1l10.11-4.73c.92-.52,1.12-2.1.26-3.47s-2.23-2-3.15-1.51l-9.23,6.4a1.85,1.85,0,0,0-.06,2.3m-6,10.37c1,0,1.84.52,1.9,1.17l1,11.09c0,1.12-1.3,2-2.89,2s-2.89-.92-2.89-2l1-11.09c.06-.66.92-1.17,1.9-1.17m6-3.47c.52-.85,1.37-1.3,2-1l10.11,4.66c.92.53,1.12,2.1.26,3.48s-2.23,2-3.15,1.51l-9.12-6.37a1.73,1.73,0,0,1-.06-2.23m-12,0a1.74,1.74,0,0,1-.06,2.23L116,49.59c-.92.53-2.36-.13-3.15-1.51s-.65-2.95.26-3.47L123.21,40a1.73,1.73,0,0,1,2,1" transform="translate(0 -16.32)"/><path class="cls-1" d="M83,42.15a2.14,2.14,0,0,1-.11.83,3,3,0,0,1-2.81,2A1.91,1.91,0,0,1,78,43.26,2.62,2.62,0,0,1,78,43c0-2.14,2.37-2.69,5-2.69Zm4.17-3.68c0-3.51-1.48-6.6-6.54-6.6a11.71,11.71,0,0,0-5.77,1.38l.83,2.8a8.33,8.33,0,0,1,4.23-1.21c2.6,0,3,1.43,3,2.36v.22c-5.61,0-9.13,1.93-9.13,5.89A4.68,4.68,0,0,0,78.45,48h.28a5.72,5.72,0,0,0,4.51-2h.11s.66,2.69,4.17,1.65a26,26,0,0,1-.22-3.74l-.11-5.46M0,27.09,4.23,44.46c.66,2.86,1.93,3.9,5.46,3.19l2.25-9.29,1.32-6.27h.06c.27,2.37.66,4,1.1,6.32l1.42,6.44c.5,2.19,1.82,3.62,5.28,2.85l5.46-20.55h-4.4l-1.87,8.9-1.32,7h-.06l-1.2-6.81L15.8,27.15H11.23L9.14,36,7.65,43.14H7.6Q7,39.39,6.28,35.67L4.63,27.15,0,27.09M34.92,42.15a2.14,2.14,0,0,1-.11.83A3,3,0,0,1,32,45a1.9,1.9,0,0,1-2.07-1.73,2.44,2.44,0,0,1,0-.27c0-2.14,2.36-2.69,5-2.69Zm4.17-3.68c0-3.51-1.48-6.6-6.54-6.6a11.71,11.71,0,0,0-5.77,1.38l.83,2.8a8.33,8.33,0,0,1,4.23-1.21c2.6,0,3,1.43,3,2.36v.23c-5.61,0-9.13,1.92-9.13,5.88A4.68,4.68,0,0,0,30.37,48h.28a5.72,5.72,0,0,0,4.51-2h.11s.66,2.69,4.17,1.65a26,26,0,0,1-.22-3.74V38.46M46,43.31V27.09H41.83V47.65H46V43.31" transform="translate(0 -16.32)"/><path class="cls-1" d="M100.71,27.09V42.26c0,2.09.39,3.57,1.21,4.45A4.59,4.59,0,0,0,105.33,48a9.82,9.82,0,0,0,3-.44V44.29a6.59,6.59,0,0,1-1.6.17c-1.43,0-1.92-.94-1.92-2.81V35.83h3.63v-4h-3.63V27h-4.07M89.88,32.2V47.65h4.29v-7.9a3.85,3.85,0,0,1,.11-1.17,3.26,3.26,0,0,1,3.41-2.69A8.93,8.93,0,0,1,99,36V31.91A5.9,5.9,0,0,0,98,31.8a4.62,4.62,0,0,0-4.24,3.25h-.11V32.13H89.88M49,32.2V47.65h4.18V38.58a3,3,0,0,1,.22-1.26,2.78,2.78,0,0,1,2.52-2c1.71,0,2.48,1.42,2.48,3.5v8.8h4.17V38.46a4.92,4.92,0,0,1,.17-1.27,2.61,2.61,0,0,1,2.53-1.87c1.7,0,2.53,1.43,2.53,3.85v8.46H72V38.51c0-4.78-2.41-6.71-5.16-6.71a5.77,5.77,0,0,0-3,.83,7.46,7.46,0,0,0-2,1.92h0a4.38,4.38,0,0,0-4.23-2.75A4.79,4.79,0,0,0,53,34.28h-.06V32.19H49" transform="translate(0 -16.32)"/></svg>