<svg id="Layer_1" data-name="Layer 1" xmlns="http://www.w3.org/2000/svg" viewBox="0 0 150 49.19"><defs><style>.cls-1{fill:#fff;}</style></defs><path class="cls-1" d="M36.88,30.28H19.38v5.21H31.79c-.61,7.25-6.67,10.38-12.39,10.38A13.64,13.64,0,0,1,5.7,32.31V32A13.67,13.67,0,0,1,19.12,18.13h.3a13.47,13.47,0,0,1,9.35,3.77l3.64-3.78a18.53,18.53,0,0,0-13.18-5.2A19.41,19.41,0,0,0,0,32,19.34,19.34,0,0,0,19.5,51.08c10.22,0,17.69-7,17.69-17.34A16.09,16.09,0,0,0,36.88,30.28Z" transform="translate(0 -12.91)"/><path id="A" class="cls-1" d="M51.22,26.52A12.27,12.27,0,1,0,63.53,38.83C63.53,30.73,57.12,26.53,51.22,26.52Zm.07,4.88c3.53,0,6.88,2.84,6.88,7.45a7.1,7.1,0,0,1-6.75,7.43h-.15c-3.91,0-7-3.13-7-7.47A7.08,7.08,0,0,1,51,31.4h.29Z" transform="translate(0 -12.91)"/><path id="A-2" class="cls-1" d="M78,26.52A12.27,12.27,0,1,0,90.31,38.83C90.31,30.73,83.91,26.53,78,26.52Zm.1,4.88A7,7,0,0,1,85,38.8a7.1,7.1,0,0,1-6.73,7.43h-.16c-3.92,0-7-3.14-7-7.48a7.08,7.08,0,0,1,6.71-7.41h.29Z" transform="translate(0 -12.91)"/><path class="cls-1" d="M104.33,26.53c-6.59,0-11.77,5.78-11.77,12.27a12.1,12.1,0,0,0,11.66,12.27,8,8,0,0,0,6.71-3v2.42c0,4.23-2.57,6.77-6.45,6.77a6.86,6.86,0,0,1-6.29-4.37l-4.71,2a11.8,11.8,0,0,0,11,7.22C111.05,62.11,116,58,116,49.33v-22h-5V29.4a8.6,8.6,0,0,0-6.61-2.82Zm.48,4.82c3.23,0,6.55,2.75,6.55,7.47s-3.31,7.43-6.62,7.43c-3.52,0-6.74-2.85-6.74-7.38,0-4.71,3.4-7.52,6.86-7.52Z" transform="translate(0 -12.91)"/><path class="cls-1" d="M139,26.51c-6.22,0-11.44,5-11.44,12.25A11.86,11.86,0,0,0,139,51.06h.6a12.45,12.45,0,0,0,10.28-5.39l-4.24-2.82a6.87,6.87,0,0,1-6,3.38,6.32,6.32,0,0,1-6-3.72L150,35.69l-.84-2A11.1,11.1,0,0,0,139,26.51Zm.22,4.72a4.85,4.85,0,0,1,4.53,2.62l-11,4.59c-.47-3.55,2.9-7.21,6.43-7.21Z" transform="translate(0 -12.91)"/><path class="cls-1" d="M119.67,50.33h5.4V14.19h-5.4Z" transform="translate(0 -12.91)"/></svg>