<svg id="Layer_1" data-name="Layer 1" xmlns="http://www.w3.org/2000/svg" viewBox="0 0 141.93 61.06"><defs><style>.cls-1{fill:#fff;fill-rule:evenodd;}</style></defs><path class="cls-1" d="M48.89,35.4a15.77,15.77,0,0,0,2.9-.45,13.25,13.25,0,0,0,3.33-1.14,1.35,1.35,0,0,0,.45-.22,2.65,2.65,0,0,0,.5-.26l.12-.11a.47.47,0,0,0,.29-.15l1.26-.91v-.08l.1-.11h0a11.69,11.69,0,0,0,3.28-4.54,10.91,10.91,0,0,0,.67-7.6,21.16,21.16,0,0,0-.93-2.07l-.11-.14-.08-.12v-.07a11.53,11.53,0,0,0-2.09-2.21l-.71-.52c-.29-.11-.41-.29-.74-.37a1.5,1.5,0,0,0-.44-.26,14.57,14.57,0,0,0-5.13-1.44,14.33,14.33,0,0,0-2.62,0A14.59,14.59,0,0,0,41.18,15l-.11.11h0a15,15,0,0,0-3.26,3.14,13.19,13.19,0,0,0-2.36,6.36h0a6.66,6.66,0,0,0-1.69-1.78c-.16,0-.16-.15-.26-.15l-.12-.11a13.33,13.33,0,0,0-2.66-1.29,40.92,40.92,0,0,0-4.24-1c-.19,0-.22-.14-.26-.14a.71.71,0,0,0,.33-.16,23.23,23.23,0,0,0,3.55-1,7.49,7.49,0,0,0,4.47-4.34,4.27,4.27,0,0,0,.17-1V12.4a5.1,5.1,0,0,0-2.65-3.55A33.22,33.22,0,0,0,20.65,7C19.36,7,18.1,7,16.86,7h-.12c-3.21,0-6.45.14-9.64.1-.14,0-.14.12-.24.16a.57.57,0,0,0,0,.26L7,7.71a7.46,7.46,0,0,0,1.36.59A2.52,2.52,0,0,1,9,8.92c.14,5.28-1.07,10.52-1.59,15.79a58.61,58.61,0,0,1-1.29,7A10.79,10.79,0,0,1,4,34.33v.22l.26.12c5.42-.15,10.76.47,16.19.26a33.4,33.4,0,0,0,4.24-.38,20,20,0,0,0,3.33-.74c.21,0,.26-.14.36,0s.26-.14.38-.14a7.35,7.35,0,0,0,1-.38,4.79,4.79,0,0,0,.45-.25c.78-.37,1.45-.78,2.07-1.15a13.43,13.43,0,0,0,2.49-2.39,8.87,8.87,0,0,0,.85-1.95h.1a2.27,2.27,0,0,1,.38,1c0,.21.15.24.15.36a11.56,11.56,0,0,0,1.21,2.21,6.91,6.91,0,0,0,2.59,2.36v.12h.1l.12.07A15.89,15.89,0,0,0,48.89,35.4ZM116.05,54h-.21a26.05,26.05,0,0,0-5.62.91,9.51,9.51,0,0,0-4.69,3.47,8.31,8.31,0,0,0-1.24,2.58l-.15.12H104a15.55,15.55,0,0,0-1.59,1.33h-.15l-.11.07A14.12,14.12,0,0,1,100,64.23v.11a2.84,2.84,0,0,0-.59.27c0,.14-.26.14-.33.24a12.63,12.63,0,0,1-6.46,1.26c-.11-.12-.21-.19-.21-.26l-.13-.17c0-.26.11-.45.11-.67,1-1.45,2.13-2.65,3.27-4.21,4-4.86,8.21-9.84,12-14.76a.44.44,0,0,0-.15-.25l-.33-.16H89c-.15,0-.15.09-.25.16L87.2,47.63c-.84,1.22-1.84,2.14-2.65,3.47a.75.75,0,0,0,.48-.18,5.7,5.7,0,0,0,1.1-.63c.56-.26,1-.56,1.45-.78a9.28,9.28,0,0,1,1.66-.85c2.07-.88,4.69-2.1,7-1.65v.1h.08v.12c-1.36,3.31-4.43,5.6-6.53,8.68-2.89,3.69-6.31,7.23-8.94,11.18.11.11.11.25.16.29l.29.19c6,0,12.09.07,18.26.07a12.53,12.53,0,0,0,2.37-.07c.81-1.45,1.45-2.89,2.13-4.34h.23a5.11,5.11,0,0,0,.81,2.19,6.44,6.44,0,0,0,2.89,2,12.48,12.48,0,0,0,8,0,8.56,8.56,0,0,0,1.44-.67,9.67,9.67,0,0,0,1.26-1h0c.38.64.45,1.56.9,2.07l.14.12h7.89l.09-.12c-2.38-4.47,0-9.41.29-14.17V51.38a8.86,8.86,0,0,0-.45-2.39,6.09,6.09,0,0,0-3.84-3.28c-.14,0-.26-.09-.4-.09a16.79,16.79,0,0,0-4.62-.65h0c-.88,0-1.78,0-2.66.07a17.8,17.8,0,0,0-4.53.74,13.87,13.87,0,0,0-1.74.62l-1.44.45c-.26.26-.6.29-.86.48l-.14.14a14.18,14.18,0,0,0,.59,4.62h.1c1.74-1.93,3.29-4.21,5.79-5.28.15,0,.19-.12.33-.12a11.23,11.23,0,0,1,1.89-.43,3.39,3.39,0,0,1,2.35.6,7.1,7.1,0,0,1,1.05,1c0,.12,0,.26.14.26a14.58,14.58,0,0,1,.36,5.34.93.93,0,0,1-.58.52h-3.27Zm0,12.17a2.43,2.43,0,0,1-1.76,0,1.85,1.85,0,0,1-.64-.57,5.87,5.87,0,0,1-.65-4.26,9.74,9.74,0,0,1,1.36-3.69A5.4,5.4,0,0,1,116.05,56a4.63,4.63,0,0,1,2.9-.69.64.64,0,0,1,.33.18c0,3.43-.4,7.46-2.45,10.22h-.36a2.88,2.88,0,0,0-.45.19ZM37.71,39.72c-1.55-.09-3.1-.09-4.65-.09H33c-2.81.14-5.69.22-8.6.36l-.22.12v.18c.34.48.92.51,1.36.81a1,1,0,0,1,.22.34A123.2,123.2,0,0,1,22.85,63.9a7.52,7.52,0,0,1-2.29,3v.33h2.55a100.38,100.38,0,0,0,10.71-.12.35.35,0,0,0,.11-.26,1.47,1.47,0,0,1-.19-.4c-.21,0-.26-.19-.37-.19A.65.65,0,0,1,33,66a1.76,1.76,0,0,1-.55-.69,26.06,26.06,0,0,1,1-10.71l.26-.1c1.29-.12,2.58-.12,3.91-.16,1,0,2,0,3-.1a19,19,0,0,0,4.83-.9h.11c.12,0,.16-.11.27-.11a.38.38,0,0,1,.3-.11c.58-.33,1.14-.59,1.76-.92L48,52.1h0l.11-.08h0a6.72,6.72,0,0,0,2.74-4.84h0a2.79,2.79,0,0,1,.91.38A.59.59,0,0,1,52,48a93.52,93.52,0,0,1-2.22,16.5,3.53,3.53,0,0,1-1.59,2H48l-.08.12-.11.07-.22.22v.3l.19.19c9,.17,18.12,0,27.33.17,1.26.09,2.48.09,3.69.09,1.45-1.63,2.9-3.47,4.35-4.95v-.11h.1A46.53,46.53,0,0,1,78,64.89c-.26.12-.48.16-.74.27s-.29.14-.43.14c-1.57.45-3.55,1.16-5,.45-.07-.12-.24-.19-.24-.26v-.22c0-.11,0-.22.14-.26,2.26-2.81,4.58-5.64,7-8.57,2.89-3.53,5.79-7,8.55-10.5v-.12a.37.37,0,0,0-.26-.14c-6.38,0-12.65-.15-19.19-.15H66.53c-.66,1.1-1.14,2.22-1.76,3.32a14,14,0,0,0-1.26,3.4l.19.1c.14,0,.14-.1.29-.1A14.92,14.92,0,0,1,65.61,51h.07l.12-.11h0a1.57,1.57,0,0,0,.26-.19h.2v-.12c.19,0,.19-.14.33-.14l.12-.1h.23v-.11H67l.09-.11h0v-.1a1.08,1.08,0,0,0,.55-.31,9.46,9.46,0,0,1,1.21-.66V49a4.51,4.51,0,0,1,.57-.31h.1a14.56,14.56,0,0,1,2.76-1.24,6.24,6.24,0,0,1,3.48-.09.57.57,0,0,1,.11.42,1.46,1.46,0,0,0-.3.51c-1.84,2.07-3.5,4.24-5.27,6.28v.1c-.52.56-1,1.23-1.63,2-2.9,3.4-5.65,6.83-8.44,10.13h.06l-.63-.45c-2.66-5.5.77-12.51.53-18.71a8.77,8.77,0,0,0,0-1.62H60c-3,.26-6,.14-9,.44A7.23,7.23,0,0,0,50,44a6,6,0,0,0-3.86-2.69,37.41,37.41,0,0,0-8.49-1.22Zm0,13.14a7.21,7.21,0,0,1-3.91,0c-.11-3.7.81-7.43,1.1-11.19,0-.15,0-.15.15-.29l.08-.09h1.36l1.22.12a6.45,6.45,0,0,1,2,.55h.12a4.29,4.29,0,0,1,.88.82l.15.22a3.16,3.16,0,0,0,.26.52,8.71,8.71,0,0,1-.91,7,8.16,8.16,0,0,1-1.64,1.73,5.64,5.64,0,0,1-1,.48ZM58.49,37.28v.12c.22,0,.3.1.55.1a3.83,3.83,0,0,1,1.59,1.22A3.87,3.87,0,0,1,61,42.05a1.53,1.53,0,0,0-.16.37A4.33,4.33,0,0,1,59,44.11a5.76,5.76,0,0,1-4.74.15A2.66,2.66,0,0,1,52.83,42a4.08,4.08,0,0,1,.74-2.79,2.89,2.89,0,0,1,1.11-1h0L54.9,38a6.72,6.72,0,0,1,1.45-.5l.19-.12Zm49.88-24.39a14.26,14.26,0,0,0-8.19,2.89l-.33.26c-.19,0-.11.15-.26.15a17.14,17.14,0,0,0-2.77,3.18,10.9,10.9,0,0,0-1.73,5.79v.26a6.48,6.48,0,0,0,.14,1.45A10.08,10.08,0,0,0,100,34a18.13,18.13,0,0,0,2.35,1,16.5,16.5,0,0,0,6,.6,27.41,27.41,0,0,0,3.11-.45c.25,0,.36-.15.58-.15a9.09,9.09,0,0,0,2.66-1c.15,0,.36,0,.41-.27a12,12,0,0,0,5.31-5.52,10.88,10.88,0,0,0,.59-8.69A9.8,9.8,0,0,0,117.38,15a15.13,15.13,0,0,0-3.54-1.62,16.46,16.46,0,0,0-3-.62h-.07a15.63,15.63,0,0,0-2.37,0Zm0,21.4a4.34,4.34,0,0,1-.62.16,3.89,3.89,0,0,1-1.55-.26c-.15,0-.19-.12-.33-.15h-.12c-.14,0-.12-.18-.26-.18-1.45-1.15-1.58-3.62-1.65-5.53.36-4.66.36-10.13,3.46-13.59a3.3,3.3,0,0,1,1.07-.55A5.34,5.34,0,0,1,110,14h0a2.64,2.64,0,0,1,.49.08,4.07,4.07,0,0,0,.74.26l.17.14a6.53,6.53,0,0,0,.53.52l.14.22c.12.26.26.55.41.93a31,31,0,0,1-.89,14.16c-.29.67-.52,1.36-.85,2a4.76,4.76,0,0,1-2.36,1.95Zm30.08-21.81a9.42,9.42,0,0,1,4.13,1,5.78,5.78,0,0,1,2.89,5.05c.83,5.1-1.88,10.86-.29,15.62a1.67,1.67,0,0,0,.52.36.58.58,0,0,1,.26.23c0,.07,0,.22-.11.26-1.45.18-2.9,0-4.34.07-2.52-.07-4.85,0-7.24-.16v-.17l.15-.23c2.69-2.55,2-7.24,2.89-10.77.12-2.89,1.33-6.42-.51-8.92a2.49,2.49,0,0,0-2-.5,7.81,7.81,0,0,0-.82.26c-.13.08-.25.17-.37.26-3.9,4.95-3.21,12.07-4,18,0,.14.09.26.09.4a6.46,6.46,0,0,0,1,1.29c.12,0,.12.14.16.23V35c-3.4.19-7,0-10.48,0h-1l-.23-.11v-.12a.86.86,0,0,1,0-.32,9.57,9.57,0,0,1,.78-.78h.11a2.35,2.35,0,0,0,.37-.33h0l.18-.12c2.17-5.12,2.29-11.69,2.29-17.36a1.61,1.61,0,0,0-.26-.62,5.15,5.15,0,0,0-.69-.71v-.07c2.76-.55,5.54-.92,8.3-1.36a2.25,2.25,0,0,1,.81-.12l.19.12c.29.59-.19,1.44.22,2.09h0c.63-.3,1-1,1.59-1.36h.11l.11-.11.14-.15,1.59-.63a12.25,12.25,0,0,1,3.24-.41ZM95.56,7.88l.19.1.12.16c0,1.69-.74,3.39-.52,5,0,.12,0,.26.11.33.86.26,1.84,0,2.69.41l.19.1c0,.09.15.09.19.26h0a1.29,1.29,0,0,1-.26.49c-.67.44-1.64.15-2.52.25a2,2,0,0,0-.51.26.81.81,0,0,0-.26.26c0,5.79-1.88,12.11-.71,17.83a3.18,3.18,0,0,0,.67.84v.26a.76.76,0,0,1,0,.3c-2.73.1-5.38,0-8.15,0a2.89,2.89,0,0,1-1.44-1.85c-.38-5.79,1.07-11.58,1.76-17.37v-.11a.75.75,0,0,0-.22-.25c-.4-.23-.85,0-1.25,0a5,5,0,0,1-1.45,0h0a16.24,16.24,0,0,1-1.58,4.34c-.11,0-.11.12-.26.16h-.23v-.11c-.1-.41-.32-.81-.41-1.26a7.65,7.65,0,0,0-2.86-3.59,6.75,6.75,0,0,0-6.34-.22,2.64,2.64,0,0,0-1.45,1.77,2.39,2.39,0,0,0,.52,2.1,1.94,1.94,0,0,0,.77.56A22.41,22.41,0,0,0,76,20.27c.88.19,1.76.59,2.69.85h.07a16.15,16.15,0,0,1,1.55.62,7.66,7.66,0,0,1,3.81,3.74,5.34,5.34,0,0,1,.11,3.14,12.67,12.67,0,0,1-.73,1.69c-.15.22-.27.38-.41.62s-.41.52-.56.78L80.85,33l-.19.15c-.48.19-.81.4-1.45.69-.29.24-.69.26-1.07.52H78c-.14,0-.17.12-.33.12s-.22.1-.36.1a22.06,22.06,0,0,1-13.47-.36c-.36,0-.62-.26-1-.29a9.35,9.35,0,0,1-1.95-1,.8.8,0,0,1-.16-.26A8.86,8.86,0,0,1,61.92,29a5.52,5.52,0,0,1,.55-1.3l.14-.15c.12,0,.23-.19.48-.26h.16c0,.16.14.23.14.38.89,2.24,1.7,4.72,3.69,5.79A7.53,7.53,0,0,0,73,34c.07,0,.19-.12.33-.19s.36-.14.59-.22a3.81,3.81,0,0,0,1.89-2.77,2.94,2.94,0,0,0-.45-1.45.56.56,0,0,1-.26-.22,11.91,11.91,0,0,0-1.45-.69,27.82,27.82,0,0,0-2.81-.9,14.27,14.27,0,0,1-1.55-.43A15.53,15.53,0,0,1,66.12,26a1.66,1.66,0,0,0-.48-.19v-.11h-.1l-.12-.12h-.07l-.12-.1h0a11.55,11.55,0,0,1-1.91-2.1,4.24,4.24,0,0,1-.4-4.13,9.19,9.19,0,0,1,3.57-4.51v-.11c.67-.33,1.26-.7,2-1a23.86,23.86,0,0,1,11.57-.45,13.74,13.74,0,0,1,3.84,1c1.66-.59,3.57-.33,5.43-1,.14,0,.18-.1.36-.1a7,7,0,0,0,1.07-.52,6.83,6.83,0,0,0,1.29-.59V11.8c.14,0,.14-.14.29-.14v-.1h.08A8.77,8.77,0,0,0,94.9,8.79a2.7,2.7,0,0,0,.29-.62l.11-.12a.52.52,0,0,1,.22-.14Zm-75.09.58c.45.09.86.11,1.29.19A3.58,3.58,0,0,1,24,10.34a7.55,7.55,0,0,1-.22,6.14c-.11.14-.11.3-.3.44s-.1.15-.15.29a10.69,10.69,0,0,1-1,1,4.64,4.64,0,0,1-1.86.71,11.67,11.67,0,0,1-3.54,0h0A92.81,92.81,0,0,1,17.88,9,.42.42,0,0,1,18,8.76a2,2,0,0,1,.52-.24A14,14,0,0,1,20,8.36a2.41,2.41,0,0,0,.48.07Zm0,12.3a7.4,7.4,0,0,1,2,.48,4,4,0,0,1,2.4,2.28A8.71,8.71,0,0,1,24.47,30c-.12,0-.12.14-.16.26a6.46,6.46,0,0,1-2,1.95,4.57,4.57,0,0,1-1.86.85,8.36,8.36,0,0,1-3.38,0,2,2,0,0,1-.64-.3,2.22,2.22,0,0,1-.84-1.48c0-2.64.38-5.26.64-8a11.41,11.41,0,0,1,.58-2.44,11,11,0,0,1,2.5-.16h.15a6.59,6.59,0,0,1,1,.16Zm28.42-7a6.47,6.47,0,0,1,1.45-.18h0a3.12,3.12,0,0,1,1.19.37l.1.07c.09,0,.09.19.26.19,2,2.58,1.26,6.64,1.22,9.93a25.63,25.63,0,0,1-.89,5c0,.14-.14.21-.14.37a5.34,5.34,0,0,1-.45,1.29,5.15,5.15,0,0,1-1.45,2.24h-.11v.12H50v.1a3,3,0,0,1-1.15.59,2.23,2.23,0,0,1-1.44.12,1.47,1.47,0,0,1-.74-.23c-.16,0-.19,0-.38-.15v-.07c-.19,0-.19-.19-.33-.19h0c-.15,0,0-.14-.25-.14v-.1a8.72,8.72,0,0,1-1.23-5c.16-4.26.45-8.83,2.33-12.4l.12-.12a5.75,5.75,0,0,1,1.29-1.45,6.77,6.77,0,0,1,.66-.33Z" transform="translate(-4.04 -6.97)"/></svg>