<svg id="Layer_1" data-name="Layer 1" xmlns="http://www.w3.org/2000/svg" viewBox="0 0 146.71 26.89"><defs><style>.cls-1{fill:#fff;}</style></defs><path class="cls-1" d="M143.82,36.17l-1.36-.72c-1.58-.84-2.81-1.51-2.81-2.94,0-1.6,1.52-2.29,3.21-2.29a11.75,11.75,0,0,1,4.38.9V27.75a15.72,15.72,0,0,0-4.73-.61c-4.41,0-6.79,2.61-6.79,5.59s2.41,4.5,4.41,5.57l1.46.77c1.66.88,2.88,1.58,2.88,3.08,0,1.75-1.69,2.58-3.37,2.58a9.79,9.79,0,0,1-4.94-1.22l-1,3a13.06,13.06,0,0,0,6,1.35c4.1,0,7.24-2.43,7.24-6,0-2.55-1.73-4.17-4.59-5.68m-20.08.56h-2.41V30.4h2.41c3.17,0,3.73,2.05,3.73,3.13,0,1.26-.63,3.2-3.73,3.2m3.72,2.49V39.1a5.81,5.81,0,0,0,3.7-5.55c0-2.7-1.75-6.16-7.33-6.16h-6.1V47.62h3.6V39.74h1.29c1.87,0,2.34.68,3.5,2.77l2.88,5.13h4.11l-3.35-5.9c-1.1-2-1.95-2.37-2.34-2.5M43.81,36.75H41.49V30.4H43.9c3.19,0,3.73,2.05,3.73,3.13,0,1.26-.64,3.2-3.73,3.2m3.73,2.49V39.1a5.81,5.81,0,0,0,3.7-5.55c0-2.7-1.75-6.16-7.33-6.16H37.9V47.62h3.59V39.74h1.3c1.85,0,2.33.68,3.5,2.77l2.88,5.13h4.11l-3.35-5.9c-1.1-2-2-2.37-2.34-2.5m39.86.41h3.07v4.52a6.31,6.31,0,0,1-2.93.62c-4.28,0-6.41-2.86-6.41-7.19s2.16-7.32,6.54-7.32a8.74,8.74,0,0,1,4.58,1.37l1-3.08a13,13,0,0,0-5.87-1.36c-6.16,0-10.11,4.52-10.11,10.67,0,5.8,3.47,10.08,10,10.08a14.76,14.76,0,0,0,6.88-1.74V36.68H88.44Zm16.23-.83h7.79v-3h-7.75V30.39h7.75l1-3H100V47.62H112.5v-3h-8.78Zm-39.31,6c-3.67,0-5.58-2.67-5.58-7.25s1.91-7.29,5.58-7.29S70,33,70,37.52s-2,7.25-5.6,7.25m0-17.65c-5.87,0-9.44,4.25-9.44,10.4s3.6,10.36,9.44,10.36,9.44-4.11,9.44-10.36-3.56-10.4-9.44-10.4M23.29,36.58a8.57,8.57,0,0,0,1.54-4.94c0-3.92-3.67-7.59-9.76-7.59a13.36,13.36,0,0,0-8.7,3.23,12.7,12.7,0,0,1,4.1-.65c4.67,0,10.15,3.69,12.8,10M6.85,38.43a8.54,8.54,0,0,0-1.54,4.93C5.31,47.28,9,51,15.06,51a13.4,13.4,0,0,0,8.72-3.22,13.37,13.37,0,0,1-4.11.64c-4.67,0-10.15-3.67-12.8-9.94m7.27-9.13a8.47,8.47,0,0,0-4.91-1.55c-3.92,0-7.58,3.68-7.58,9.77a13.29,13.29,0,0,0,3.21,8.7,13.27,13.27,0,0,1-.65-4.1c0-4.67,3.69-10.14,10-12.8M26,32.88C26,37.55,22.28,43,16,45.68A8.38,8.38,0,0,0,21,47.25c3.92,0,7.59-3.67,7.59-9.76a13.36,13.36,0,0,0-3.22-8.71,13,13,0,0,1,.64,4.1" transform="translate(-1.65 -24.05)"/></svg>